<svg width="24" height="24" viewBox="0 0 24 24" fill="none" xmlns="http://www.w3.org/2000/svg">
<path d="M3.33331 6C3.14673 6 3 6.15015 3 6.32979V15.6702C3 15.8499 3.14673 16 3.33331 16H8C8.55228 16 9 16.4477 9 17C9 17.5523 8.55228 18 8 18H3.33331C2.04716 18 1 16.9594 1 15.6702V6.32979C1 5.04059 2.04716 4 3.33331 4H20.6664C21.9526 4 22.9997 5.04059 22.9997 6.32979V8.97595C22.9997 9.52824 22.552 9.97595 21.9997 9.97595C21.4474 9.97595 20.9997 9.52824 20.9997 8.97595V6.32979C20.9997 6.15015 20.853 6 20.6664 6H3.33331Z" fill="black"/>
<path d="M12 9C10.8954 9 10 9.89543 10 11C10 11.2656 10.0512 11.5167 10.1434 11.7459C10.3496 12.2583 10.1013 12.8407 9.58895 13.0469C9.07658 13.253 8.49411 13.0048 8.28797 12.4924C8.10191 12.0299 8 11.5256 8 11C8 8.79086 9.79086 7 12 7C12.6108 7 13.1923 7.1376 13.7127 7.38443C14.2117 7.62111 14.4243 8.2175 14.1876 8.7165C13.9509 9.21549 13.3546 9.42814 12.8556 9.19145C12.5974 9.069 12.3081 9 12 9Z" fill="black"/>
<path d="M19.9571 14.0188C20.3476 14.4094 20.3476 15.0425 19.9571 15.4331L18.4142 16.976L19.9571 18.5188C20.3476 18.9094 20.3476 19.5425 19.9571 19.9331C19.5666 20.3236 18.9334 20.3236 18.5429 19.9331L17 18.3902L15.4571 19.9331C15.0666 20.3236 14.4334 20.3236 14.0429 19.9331C13.6524 19.5425 13.6524 18.9094 14.0429 18.5188L15.5858 16.976L14.0429 15.4331C13.6524 15.0425 13.6524 14.4094 14.0429 14.0188C14.4334 13.6283 15.0666 13.6283 15.4571 14.0188L17 15.5617L18.5429 14.0188C18.9334 13.6283 19.5666 13.6283 19.9571 14.0188Z" fill="black"/>
<path fill-rule="evenodd" clip-rule="evenodd" d="M17 9.97595C13.134 9.97595 10 13.11 10 16.976C10 20.8419 13.134 23.976 17 23.976C20.866 23.976 24 20.8419 24 16.976C24 13.11 20.866 9.97595 17 9.97595ZM12 16.976C12 14.2145 14.2386 11.976 17 11.976C19.7614 11.976 22 14.2145 22 16.976C22 19.7374 19.7614 21.976 17 21.976C14.2386 21.976 12 19.7374 12 16.976Z" fill="black"/>
</svg>
