<svg width="24" height="24" viewBox="0 0 24 24" fill="none" xmlns="http://www.w3.org/2000/svg">
<path d="M13.7291 1.07709C13.5703 0.753904 13.3242 0.481678 13.0185 0.291296C12.7129 0.100915 12.3601 0 12 0C11.6399 0 11.2871 0.100915 10.9815 0.291296C10.6758 0.481678 10.4297 0.753904 10.2709 1.07709C10.1122 1.40028 0.288042 21.4144 0.16641 21.6618C0.0447782 21.9093 -0.0117906 22.1836 0.00204402 22.459C0.0158786 22.7344 0.0996602 23.0017 0.24548 23.2357C0.391299 23.4697 0.594345 23.6626 0.83545 23.7964C1.07656 23.9301 1.34776 24.0002 1.62348 24C1.89919 23.9998 22.1008 23.9998 22.3765 24C22.6522 24.0002 22.9234 23.9301 23.1646 23.7964C23.4057 23.6626 23.6087 23.4697 23.7545 23.2357C23.9003 23.0017 23.9841 22.7344 23.998 22.459C24.0118 22.1836 23.9552 21.9093 23.8336 21.6618C23.712 21.4144 13.8878 1.40028 13.7291 1.07709Z" fill="#D17000"/>
<path d="M13.5 9C13.5 8.17157 12.8284 7.5 12 7.5C11.1716 7.5 10.5 8.17157 10.5 9V15C10.5 15.8284 11.1716 16.5 12 16.5C12.8284 16.5 13.5 15.8284 13.5 15V9Z" fill="#FFE45C"/>
<path d="M12 20.9983C12.9665 20.9983 13.75 20.2148 13.75 19.2483C13.75 18.2818 12.9665 17.4983 12 17.4983C11.0335 17.4983 10.25 18.2818 10.25 19.2483C10.25 20.2148 11.0335 20.9983 12 20.9983Z" fill="#FFE45C"/>
</svg>
