<svg width="100" height="100" viewBox="0 0 100 100" fill="none" xmlns="http://www.w3.org/2000/svg">
<path fill-rule="evenodd" clip-rule="evenodd" d="M0 50C0 22.3858 22.3858 0 50 0C77.6142 0 100 22.3858 100 50C100 77.6142 77.6142 100 50 100C22.3858 100 0 77.6142 0 50ZM38.5509 6.48209C22.9056 10.587 10.587 22.9056 6.48209 38.5509L38.5509 6.48209ZM6.48544 61.4619C10.5937 77.1008 22.9093 89.4135 38.5499 93.5176L6.48544 61.4619ZM61.462 93.5145C77.1008 89.4063 89.4134 77.0908 93.5176 61.4503L61.462 93.5145ZM93.5142 38.5369C89.4068 22.9029 77.0971 10.5932 61.4631 6.48576L93.5142 38.5369ZM55.0884 7.19952C52.2806 4.39174 47.7297 4.39174 44.9219 7.19952L30.3492 21.7723H69.6612L55.0884 7.19952ZM78.2318 30.3429V69.6508L92.8003 55.0784C95.6081 52.2706 95.6083 47.7194 92.8006 44.9117L78.2318 30.3429ZM69.6572 78.2277L55.0884 92.8005C52.2806 95.6083 47.7297 95.6083 44.9219 92.8005L30.3452 78.2277H69.6572ZM21.7764 69.6612L7.19958 55.0884C4.39204 52.2806 4.39188 47.7295 7.19958 44.9218L21.7764 30.345V69.6612ZM26.7886 26.7845H73.2196V73.2155H26.7886V26.7845Z" fill="url(#paint0_linear_32_67)"/>
<defs>
<linearGradient id="paint0_linear_32_67" x1="19.5796" y1="8.70573" x2="49.636" y2="99.7638" gradientUnits="userSpaceOnUse">
<stop stop-color="#90A0B6"/>
<stop offset="0.526042" stop-color="#BECBDD"/>
<stop offset="1" stop-color="#A4B4CA"/>
</linearGradient>
</defs>
</svg>
