<svg width="24" height="24" viewBox="0 0 24 24" fill="none" xmlns="http://www.w3.org/2000/svg">
<path fill-rule="evenodd" clip-rule="evenodd" d="M7.49978 14.2261C6.25714 14.2261 5.24978 15.2334 5.24978 16.4761C5.24978 17.7187 6.25714 18.7261 7.49978 18.7261C8.74242 18.7261 9.74978 17.7187 9.74978 16.4761C9.74978 15.2334 8.74242 14.2261 7.49978 14.2261ZM6.74978 16.4761C6.74978 16.0619 7.08557 15.7261 7.49978 15.7261C7.914 15.7261 8.24978 16.0619 8.24978 16.4761C8.24978 16.8903 7.914 17.2261 7.49978 17.2261C7.08557 17.2261 6.74978 16.8903 6.74978 16.4761Z" fill="black"/>
<path fill-rule="evenodd" clip-rule="evenodd" d="M21.1548 2.82102C20.0282 1.69443 18.203 1.69443 17.0764 2.82102L9.73018 10.1672C6.83467 9.31341 3.6908 10.7487 2.47818 13.593L2.47714 13.5954C1.18202 16.6557 2.61124 20.1936 5.67015 21.4977L5.6726 21.4987C8.73293 22.7938 12.2707 21.3646 13.5749 18.3057L13.5768 18.3011C14.1197 17.0096 14.1964 15.577 13.807 14.2456L14.987 13.0609L15.8279 13.2868L15.8339 13.2884C17.0275 13.6009 18.2715 12.9053 18.5908 11.6863L18.5915 11.6839C18.6901 11.3033 18.6901 10.9145 18.5915 10.5339L18.5892 10.5255L18.4339 9.94713L19.0122 10.1024L19.0183 10.104C20.2118 10.4166 21.4559 9.72101 21.7751 8.50195L21.7758 8.49955C21.8736 8.12236 21.8761 7.72237 21.7735 7.34114L21.5308 6.43739C22.2631 5.31881 22.1378 3.80398 21.1548 2.82102ZM18.4906 4.23523C18.8361 3.88969 19.3951 3.88969 19.7406 4.23523C20.0706 4.56523 20.0855 5.08986 19.7852 5.43738C19.4952 5.68296 19.3638 6.07939 19.466 6.45977L19.842 7.8599C19.8512 7.89425 19.8539 7.94218 19.8401 7.99627C19.807 8.12024 19.6763 8.20787 19.527 8.16981L19.525 8.1693L18.1309 7.79486C17.7856 7.70214 17.4171 7.80076 17.1644 8.05353L16.5403 8.67759C16.2875 8.93036 16.1889 9.29884 16.2816 9.64408L16.6562 11.0387C16.6687 11.0884 16.6685 11.1308 16.6558 11.1807C16.6227 11.3046 16.492 11.3922 16.3427 11.3541L14.9466 10.9792C14.6006 10.8863 14.2314 10.9855 13.9787 11.2392L11.9465 13.2794C11.6602 13.5668 11.5759 13.9987 11.7331 14.3727C12.1566 15.3802 12.157 16.516 11.7341 17.5237C10.8614 19.5672 8.49653 20.5212 6.45345 19.6574C4.40901 18.7852 3.45444 16.4196 4.31848 14.3761C5.19099 12.3314 7.55721 11.3769 9.60098 12.2418C9.97602 12.4005 10.4099 12.316 10.6978 12.028L18.4906 4.23523Z" fill="black"/>
</svg>
