<svg width="24" height="24" viewBox="0 0 24 24" fill="none" xmlns="http://www.w3.org/2000/svg">
<path fill-rule="evenodd" clip-rule="evenodd" d="M15.4298 1.73197C15.8986 1.26329 16.5344 1 17.1973 1C17.8602 1 18.496 1.26329 18.9648 1.73197L20.0259 2.79307C20.4946 3.26189 20.758 3.89777 20.758 4.56068C20.758 4.8761 20.6984 5.18537 20.5854 5.47344L21.087 5.97499C21.5556 6.44381 21.819 7.07969 21.819 7.74259C21.819 8.4055 21.5557 9.04127 21.0871 9.51009L17.776 12.8212C17.3854 13.2117 16.7523 13.2117 16.3617 12.8212C15.9712 12.4307 15.9712 11.7975 16.3617 11.407L19.6726 8.09609C19.7663 8.00234 19.819 7.87513 19.819 7.74259C19.819 7.61006 19.7664 7.48295 19.6727 7.3892L19.319 7.03542L16.3232 10.0321L16.3141 10.0412L9.95011 16.4052C9.82191 16.5334 9.66128 16.6243 9.48538 16.6683L5.24238 17.7283C4.9016 17.8134 4.54114 17.7135 4.2928 17.4651C4.04446 17.2167 3.94466 16.8562 4.02989 16.5155L5.09089 12.2735C5.13486 12.0977 5.22577 11.9371 5.3539 11.809L11.6798 5.48313C11.692 5.46948 11.7047 5.45609 11.7178 5.44298L15.4298 1.73197ZM18.758 4.56068C18.758 4.6917 18.7066 4.81742 18.6149 4.91086L18.6117 4.91399L18.6059 4.91984L15.6069 7.91973L13.8383 6.15114L16.8438 3.14639C16.909 3.08126 16.9903 3.03595 17.0783 3.01437C17.1169 3.0049 17.1569 3 17.1973 3C17.3298 3 17.4569 3.05262 17.5507 3.14629L18.6116 4.20718C18.7053 4.30093 18.758 4.42815 18.758 4.56068ZM6.96393 13.0274L12.425 7.56631L14.1928 9.3341L8.73182 14.7951L6.3745 15.384L6.96393 13.0274Z" fill="black"/>
<path d="M3.20909 22.0208C3.33224 21.9922 3.46043 21.9931 3.58314 22.0236C3.59506 22.0265 3.60703 22.0292 3.61905 22.0318C3.71251 22.0513 3.79912 22.0953 3.87009 22.1592C3.94106 22.2231 3.99386 22.3046 4.02313 22.3955C4.03303 22.4262 4.03571 22.4395 4.03603 22.4411L4.03674 22.4447L4.03766 22.4508L4.04321 22.4882C4.04971 22.5313 4.06464 22.6274 4.10432 22.7415C4.14406 22.8559 4.19528 22.9514 4.24509 23.0311C4.53176 23.4896 5.131 23.6372 5.5978 23.3642L6.93363 22.5831C7.07719 22.5009 7.24248 22.4645 7.40732 22.479C7.55413 22.4918 7.74706 22.5707 7.88965 22.6902C8.07503 22.8456 8.32735 22.97 8.51116 23.0537C8.727 23.1521 8.98134 23.2525 9.24523 23.3445C9.75409 23.5219 10.3919 23.7006 10.9128 23.7462C11.8347 23.8269 12.5093 23.7488 13.2712 23.3916C13.7712 23.1571 13.9866 22.5617 13.7521 22.0617C13.5177 21.5616 12.9223 21.3463 12.4222 21.5807C12.0584 21.7512 11.7564 21.8124 11.0872 21.7538C10.8126 21.7298 10.3587 21.6146 9.90359 21.456C9.6855 21.38 9.4898 21.3018 9.34053 21.2338C9.24294 21.1893 9.1898 21.1602 9.16826 21.1483C9.16418 21.1461 9.16123 21.1445 9.15933 21.1435C9.15764 21.1426 9.15678 21.1422 9.15669 21.1424C9.15662 21.1425 9.15693 21.1428 9.15761 21.1435C8.73288 20.7931 8.16694 20.5378 7.58171 20.4866C7.00754 20.4363 6.43181 20.5638 5.9325 20.8517L5.92721 20.8548L5.56362 21.0674C5.45966 20.9243 5.34062 20.7919 5.20809 20.6727C4.87938 20.3768 4.47922 20.1719 4.04724 20.0781C3.6231 19.9758 3.18083 19.9739 2.75571 20.0729C2.32471 20.1732 1.92361 20.3743 1.58532 20.6595C1.35792 20.8513 0.54579 21.5638 0.326032 21.7642C-0.0819712 22.1365 -0.110974 22.769 0.261252 23.177C0.633479 23.585 1.26598 23.614 1.67398 23.2418C1.87455 23.0588 2.66715 22.3635 2.87469 22.1884C2.97135 22.1069 3.08594 22.0495 3.20909 22.0208Z" fill="black"/>
<path d="M19.2488 14.0067C19.5626 13.9788 19.8781 14.0386 20.1599 14.1796C20.4418 14.3205 20.6789 14.5369 20.845 14.8048C21.011 15.0726 21.0993 15.3813 21.1002 15.6964L21.1002 15.699L21.1002 20.995H21.5001C22.0524 20.995 22.5001 21.4427 22.5001 21.995C22.5001 22.5473 22.0524 22.995 21.5001 22.995H20.105C20.1034 22.995 20.1018 22.995 20.1002 22.995C20.0986 22.995 20.0969 22.995 20.0953 22.995H18.7002C18.1479 22.995 17.7002 22.5473 17.7002 21.995C17.7002 21.4427 18.1479 20.995 18.7002 20.995H19.1002V16.2991L17.9003 17.199C17.4585 17.5304 16.8317 17.4408 16.5003 16.999C16.1689 16.5572 16.2585 15.9304 16.7003 15.599L18.3823 14.3375C18.6349 14.1491 18.9349 14.0346 19.2488 14.0067Z" fill="black"/>
</svg>
