<svg width="24" height="24" viewBox="0 0 24 24" fill="none" xmlns="http://www.w3.org/2000/svg">
<path fill-rule="evenodd" clip-rule="evenodd" d="M7.78584 4.28571C7.78584 3.022 8.80784 2 10.0716 2H13.9287C15.1924 2 16.2144 3.022 16.2144 4.28571V4.5714H21C21.5523 4.5714 22 5.01912 22 5.5714C22 6.12369 21.5523 6.5714 21 6.5714H19.9915L18.8772 19.8938C18.8771 19.8951 18.877 19.8964 18.8769 19.8977C18.7835 21.0862 17.7921 22 16.603 22H7.39733C6.20827 22 5.21681 21.0861 5.12343 19.8976C5.12333 19.8963 5.12323 19.8951 5.12313 19.8938L4.0089 6.5714H3C2.44772 6.5714 2 6.12369 2 5.5714C2 5.01912 2.44772 4.5714 3 4.5714H7.78584V4.28571ZM14.2144 4.5714H9.78584V4.28571C9.78584 4.12657 9.91241 4 10.0716 4H13.9287C14.0878 4 14.2144 4.12657 14.2144 4.28571V4.5714ZM8.7789 6.5714H6.01589L7.11726 19.7404C7.12856 19.8872 7.25051 20 7.39733 20H16.603C16.7499 20 16.8718 19.8872 16.8831 19.7404L16.8836 19.7338L17.9845 6.5714H15.2214C15.219 6.57142 15.2167 6.57143 15.2144 6.57143H8.78584C8.78352 6.57143 8.78121 6.57142 8.7789 6.5714ZM10.0712 9.0714C10.6235 9.0714 11.0712 9.51912 11.0712 10.0714V16.5C11.0712 17.0523 10.6235 17.5 10.0712 17.5C9.51896 17.5 9.07124 17.0523 9.07124 16.5V10.0714C9.07124 9.51912 9.51896 9.0714 10.0712 9.0714ZM13.9288 9.0714C14.481 9.0714 14.9288 9.51912 14.9288 10.0714V16.5C14.9288 17.0523 14.481 17.5 13.9288 17.5C13.3765 17.5 12.9288 17.0523 12.9288 16.5V10.0714C12.9288 9.51912 13.3765 9.0714 13.9288 9.0714Z" fill="black"/>
</svg>
