<svg width="24" height="24" viewBox="0 0 24 24" fill="none" xmlns="http://www.w3.org/2000/svg">
<path d="M5 14.976C4.44772 14.976 4 15.4237 4 15.976C4 16.5282 4.44772 16.976 5 16.976H7C7.55228 16.976 8 16.5282 8 15.976C8 15.4237 7.55228 14.976 7 14.976H5Z" fill="black"/>
<path d="M4 12.976C4 12.4237 4.44772 11.976 5 11.976H9C9.55228 11.976 10 12.4237 10 12.976C10 13.5282 9.55228 13.976 9 13.976H5C4.44772 13.976 4 13.5282 4 12.976Z" fill="black"/>
<path d="M18.378 16.9711V16.976H15.6221V16.9711C15.5818 16.9743 15.5411 16.976 15.5 16.976C14.6716 16.976 14 16.3044 14 15.476C14 14.6475 14.6716 13.976 15.5 13.976C15.5411 13.976 15.5818 13.9776 15.6221 13.9808V13.976H18.378V13.9808C18.4182 13.9776 18.4589 13.976 18.5 13.976C19.3284 13.976 20 14.6475 20 15.476C20 16.3044 19.3284 16.976 18.5 16.976C18.4589 16.976 18.4182 16.9743 18.378 16.9711Z" fill="black"/>
<path fill-rule="evenodd" clip-rule="evenodd" d="M1 6.54605V17.4059C1 18.806 2.11742 19.976 3.53846 19.976H20.4615C21.8826 19.976 23 18.806 23 17.4059L23 8.97595L23 6.54605C23 5.14591 21.8826 3.97595 20.4615 3.97595H3.53846C2.11742 3.97595 1 5.14591 1 6.54605ZM3.53846 5.97595C3.26017 5.97595 3 6.21191 3 6.54605V7.97595H21V6.54605C21 6.21191 20.7398 5.97595 20.4615 5.97595H3.53846ZM21 17.4059V9.97595H3V17.4059C3 17.74 3.26017 17.976 3.53846 17.976H20.4615C20.7398 17.976 21 17.74 21 17.4059Z" fill="black"/>
</svg>
