<svg width="24" height="24" viewBox="0 0 24 24" fill="none" xmlns="http://www.w3.org/2000/svg">
<path fill-rule="evenodd" clip-rule="evenodd" d="M7 10.6427C7 10.0905 7.44772 9.64274 8 9.64274H16C16.5523 9.64274 17 10.0905 17 10.6427C17 11.195 16.5523 11.6427 16 11.6427H8C7.44772 11.6427 7 11.195 7 10.6427Z" fill="black"/>
<path fill-rule="evenodd" clip-rule="evenodd" d="M7 13.9761C7 13.4238 7.44772 12.9761 8 12.9761H16C16.5523 12.9761 17 13.4238 17 13.9761C17 14.5284 16.5523 14.9761 16 14.9761H8C7.44772 14.9761 7 14.5284 7 13.9761Z" fill="black"/>
<path fill-rule="evenodd" clip-rule="evenodd" d="M7 17.3094C7 16.7571 7.44772 16.3094 8 16.3094H16C16.5523 16.3094 17 16.7571 17 17.3094C17 17.8617 16.5523 18.3094 16 18.3094H8C7.44772 18.3094 7 17.8617 7 17.3094Z" fill="black"/>
<path fill-rule="evenodd" clip-rule="evenodd" d="M12 2.97607C10.7123 2.97607 9.66667 4.02169 9.66667 5.30941C9.66667 5.86169 9.21895 6.30941 8.66667 6.30941H5.33333C5.14784 6.30941 5 6.45725 5 6.64274V20.6427C5 20.8282 5.14784 20.9761 5.33333 20.9761H18.6667C18.8522 20.9761 19 20.8282 19 20.6427V6.64274C19 6.45725 18.8522 6.30941 18.6667 6.30941H15.3333C14.781 6.30941 14.3333 5.86169 14.3333 5.30941C14.3333 4.02169 13.2877 2.97607 12 2.97607ZM7.78274 4.30941C8.23448 2.39882 9.95187 0.976074 12 0.976074C14.0481 0.976074 15.7655 2.39882 16.2173 4.30941H18.6667C19.9567 4.30941 21 5.35268 21 6.64274V20.6427C21 21.9328 19.9567 22.9761 18.6667 22.9761H5.33333C4.04327 22.9761 3 21.9328 3 20.6427V6.64274C3 5.35268 4.04327 4.30941 5.33333 4.30941H7.78274Z" fill="black"/>
<path d="M12 3.97607C12.5526 3.97607 13 4.42344 13 4.97607C13 5.52871 12.5526 5.97607 12 5.97607C11.4474 5.97607 11 5.52871 11 4.97607C11 4.42344 11.4474 3.97607 12 3.97607Z" fill="black"/>
</svg>
