<svg width="24" height="24" viewBox="0 0 24 24" fill="none" xmlns="http://www.w3.org/2000/svg">
<path d="M8.20613 1.29277C7.81561 0.902247 7.18244 0.902247 6.79192 1.29277L2.29192 5.79277C1.90139 6.1833 1.90139 6.81646 2.29192 7.20698C2.68244 7.59751 3.31561 7.59751 3.70613 7.20698L6.49902 4.41409L6.49902 21.9999C6.49902 22.5522 6.94674 22.9999 7.49902 22.9999C8.05131 22.9999 8.49902 22.5522 8.49902 21.9999L8.49902 4.41409L11.2919 7.20698C11.6824 7.59751 12.3156 7.59751 12.7061 7.20699C13.0967 6.81646 13.0967 6.1833 12.7061 5.79277L8.20613 1.29277Z" fill="black"/>
<path d="M16.0006 15H18.8044L15.2264 20.346C15.1877 20.4038 15.1552 20.4655 15.1293 20.5301C15.0198 20.8033 14.9789 21.0992 15.0103 21.3919C15.0416 21.6846 15.1443 21.9651 15.3093 22.2089C15.4743 22.4527 15.6966 22.6524 15.9567 22.7903C16.2166 22.9281 16.5063 23.0001 16.8004 23H19.9998C20.552 23 20.9998 22.5523 20.9998 22C20.9998 21.4477 20.552 21 19.9998 21H17.1953L20.7739 15.6531C20.8128 15.595 20.8455 15.5329 20.8715 15.4679C20.9806 15.1948 21.0212 14.8991 20.9896 14.6067C20.958 14.3143 20.8552 14.034 20.6903 13.7905C20.5254 13.547 20.3032 13.3476 20.0434 13.2098C19.7836 13.072 19.494 13 19.1999 13H16.0006C15.4483 13 15.0006 13.4477 15.0006 14C15.0006 14.5523 15.4483 15 16.0006 15Z" fill="black"/>
<path fill-rule="evenodd" clip-rule="evenodd" d="M15.8787 1.87868C16.4413 1.31607 17.2044 1 18 1C18.7957 1 19.5587 1.31607 20.1213 1.87868C20.6839 2.44129 21 3.20435 21 4V9.99822C21 10.5505 20.5523 10.9982 20 10.9982C19.4477 10.9982 19 10.5505 19 9.99822V8H17V10C17 10.5523 16.5523 11 16 11C15.4477 11 15 10.5523 15 10V4C15 3.20435 15.3161 2.44129 15.8787 1.87868ZM17 6V4C17 3.73478 17.1054 3.48043 17.2929 3.29289C17.4804 3.10536 17.7348 3 18 3C18.2652 3 18.5196 3.10536 18.7071 3.29289C18.8946 3.48043 19 3.73478 19 4V6H17Z" fill="black"/>
</svg>
