<svg width="24" height="24" viewBox="0 0 24 24" fill="none" xmlns="http://www.w3.org/2000/svg">
<path d="M2.00787 2.76038C2.00787 2.34616 2.34365 2.01038 2.75787 2.01038H3.42453C4.07522 2.01038 4.8412 2.48266 4.8412 3.32027V6.48962H5.42452C5.83874 6.48962 6.17452 6.82541 6.17452 7.23962C6.17452 7.65384 5.83874 7.98962 5.42452 7.98962H2.75787C2.34365 7.98962 2.00787 7.65384 2.00787 7.23962C2.00787 6.82541 2.34365 6.48962 2.75787 6.48962H3.3412V3.51038H2.75787C2.34365 3.51038 2.00787 3.17459 2.00787 2.76038Z" fill="black"/>
<path d="M8.00006 5C8.00006 4.44772 8.44777 4 9.00006 4L21.0001 4C21.5523 4 22.0001 4.44771 22.0001 5C22.0001 5.55228 21.5523 6 21.0001 6L9.00006 6C8.44777 6 8.00006 5.55228 8.00006 5Z" fill="black"/>
<path d="M8.00006 12C8.00006 11.4477 8.44777 11 9.00006 11L21.0001 11C21.5523 11 22.0001 11.4477 22.0001 12C22.0001 12.5523 21.5523 13 21.0001 13L9.00006 13C8.44777 13 8.00006 12.5523 8.00006 12Z" fill="black"/>
<path d="M9.00006 18C8.44777 18 8.00006 18.4477 8.00006 19C8.00006 19.5523 8.44777 20 9.00006 20L21.0001 20C21.5523 20 22.0001 19.5523 22.0001 19C22.0001 18.4477 21.5523 18 21.0001 18L9.00006 18Z" fill="black"/>
<path d="M4.22708 17.2749C3.87256 17.1837 3.56655 17.3972 3.50048 17.6326C3.38857 18.0314 2.97455 18.264 2.57574 18.1521C2.17693 18.0402 1.94436 17.6261 2.05627 17.2273C2.36315 16.1337 3.53016 15.549 4.59678 15.8212C5.67711 16.0887 6.40333 17.1739 6.07593 18.2892C5.99729 18.5586 5.8664 18.7982 5.69706 19.0016C5.97841 19.3372 6.15059 19.7662 6.15059 20.2487C6.15059 21.3994 5.1713 22.2459 4.06726 22.2459C3.17237 22.2459 2.32254 21.6837 2.05923 20.7942C1.94165 20.397 2.1683 19.9797 2.56548 19.8621C2.96265 19.7446 3.37995 19.9712 3.49752 20.3684C3.55421 20.5599 3.77104 20.7459 4.06726 20.7459C4.43876 20.7459 4.65059 20.4783 4.65059 20.2487C4.65059 20.0192 4.43876 19.7515 4.06726 19.7515C3.65305 19.7515 3.31726 19.4157 3.31726 19.0015C3.31726 18.5873 3.65305 18.2515 4.06726 18.2515C4.36703 18.2515 4.57722 18.0706 4.63612 17.8686L4.63659 17.867C4.69931 17.6536 4.57449 17.3603 4.23508 17.2769L4.22708 17.2749Z" fill="black"/>
<path d="M3.50787 11.3C3.50787 10.9045 3.80175 10.6499 4.0912 10.6499C4.38064 10.6499 4.67452 10.9045 4.67452 11.3C4.67452 11.5639 4.60316 11.8069 4.47359 12.0073L2.33235 13.4826C2.06194 13.6689 1.94417 14.0095 2.04173 14.323C2.13929 14.6366 2.42949 14.8502 2.75787 14.8502H5.42452C5.83874 14.8502 6.17452 14.5144 6.17452 14.1002C6.17452 13.686 5.83874 13.3502 5.42452 13.3502H5.16833L5.43227 13.1684C5.4956 13.1247 5.55184 13.0716 5.59902 13.0109C5.98331 12.5162 6.17452 11.9131 6.17452 11.3C6.17452 10.146 5.2773 9.1499 4.0912 9.1499C2.90509 9.1499 2.00787 10.146 2.00787 11.3C2.00787 11.7142 2.34365 12.05 2.75787 12.05C3.17208 12.05 3.50787 11.7142 3.50787 11.3Z" fill="black"/>
</svg>
