<svg width="24" height="24" viewBox="0 0 24 24" fill="none" xmlns="http://www.w3.org/2000/svg">
<path fill-rule="evenodd" clip-rule="evenodd" d="M6.5762 16.0389C7.04126 15.5287 7.83187 15.4921 8.34207 15.9572C9.34221 16.8688 10.6467 17.3741 12 17.3741C13.3533 17.3741 14.6578 16.8688 15.6579 15.9572C16.1681 15.4921 16.9588 15.5287 17.4238 16.0389C17.8889 16.5491 17.8523 17.3397 17.3421 17.8048C15.8815 19.1362 13.9763 19.8741 12 19.8741C10.0237 19.8741 8.11855 19.1362 6.65794 17.8048C6.14774 17.3397 6.11114 16.5491 6.5762 16.0389Z" fill="#A9ABBC"/>
<path fill-rule="evenodd" clip-rule="evenodd" d="M6.75 5.37402C7.44036 5.37402 8 5.93367 8 6.62402V8.87402C8 9.56438 7.44036 10.124 6.75 10.124C6.05964 10.124 5.5 9.56438 5.5 8.87402V6.62402C5.5 5.93367 6.05964 5.37402 6.75 5.37402Z" fill="#A9ABBC"/>
<path fill-rule="evenodd" clip-rule="evenodd" d="M17.25 5.37402C17.9404 5.37402 18.5 5.93367 18.5 6.62402V8.87402C18.5 9.56438 17.9404 10.124 17.25 10.124C16.5596 10.124 16 9.56438 16 8.87402V6.62402C16 5.93367 16.5596 5.37402 17.25 5.37402Z" fill="#A9ABBC"/>
<path fill-rule="evenodd" clip-rule="evenodd" d="M12 5.37402C12.6904 5.37402 13.25 5.93367 13.25 6.62402V11.874C13.25 12.6034 12.9603 13.3028 12.4445 13.8186C11.9288 14.3343 11.2293 14.624 10.5 14.624H9.75C9.05964 14.624 8.5 14.0644 8.5 13.374C8.5 12.6837 9.05964 12.124 9.75 12.124H10.5C10.5663 12.124 10.6299 12.0977 10.6768 12.0508C10.7237 12.0039 10.75 11.9403 10.75 11.874V6.62402C10.75 5.93367 11.3096 5.37402 12 5.37402Z" fill="#A9ABBC"/>
<path fill-rule="evenodd" clip-rule="evenodd" d="M22.25 16.374C22.9404 16.374 23.5 16.9337 23.5 17.624V20.624C23.5 21.3534 23.2103 22.0528 22.6945 22.5686C22.1788 23.0843 21.4793 23.374 20.75 23.374H17.75C17.0596 23.374 16.5 22.8144 16.5 22.124C16.5 21.4337 17.0596 20.874 17.75 20.874H20.75C20.8163 20.874 20.8799 20.8477 20.9268 20.8008C20.9737 20.7539 21 20.6903 21 20.624V17.624C21 16.9337 21.5596 16.374 22.25 16.374Z" fill="#434660"/>
<path fill-rule="evenodd" clip-rule="evenodd" d="M16.5 1.62402C16.5 0.933667 17.0596 0.374023 17.75 0.374023H20.75C21.4793 0.374023 22.1788 0.663755 22.6945 1.17948C23.2103 1.6952 23.5 2.39468 23.5 3.12402V6.12402C23.5 6.81438 22.9404 7.37402 22.25 7.37402C21.5596 7.37402 21 6.81438 21 6.12402V3.12402C21 3.05772 20.9737 2.99413 20.9268 2.94725C20.8799 2.90036 20.8163 2.87402 20.75 2.87402H17.75C17.0596 2.87402 16.5 2.31438 16.5 1.62402Z" fill="#434660"/>
<path fill-rule="evenodd" clip-rule="evenodd" d="M3.25 2.87402C3.1837 2.87402 3.12011 2.90036 3.07322 2.94725C3.02634 2.99413 3 3.05772 3 3.12402V6.12402C3 6.81438 2.44036 7.37402 1.75 7.37402C1.05964 7.37402 0.5 6.81438 0.5 6.12402V3.12402C0.5 2.39468 0.789731 1.6952 1.30546 1.17948C1.82118 0.663755 2.52065 0.374023 3.25 0.374023H6.25C6.94036 0.374023 7.5 0.933667 7.5 1.62402C7.5 2.31438 6.94036 2.87402 6.25 2.87402H3.25Z" fill="#434660"/>
<path fill-rule="evenodd" clip-rule="evenodd" d="M1.75 16.374C2.44036 16.374 3 16.9337 3 17.624V20.624C3 20.6903 3.02634 20.7539 3.07322 20.8008C3.12011 20.8477 3.1837 20.874 3.25 20.874H6.25C6.94036 20.874 7.5 21.4337 7.5 22.124C7.5 22.8144 6.94036 23.374 6.25 23.374H3.25C2.52065 23.374 1.82118 23.0843 1.30546 22.5686C0.789732 22.0528 0.5 21.3534 0.5 20.624V17.624C0.5 16.9337 1.05964 16.374 1.75 16.374Z" fill="#434660"/>
</svg>
