<svg width="24" height="24" viewBox="0 0 24 24" fill="none" xmlns="http://www.w3.org/2000/svg">
<g clip-path="url(#clip0_4736_1172)">
<path d="M1.62596 4.91696C3.97972 3.02787 6.90779 1.99882 9.92588 2C12.944 2.00119 15.8712 3.03254 18.2235 4.92347C18.6539 5.26949 19.2834 5.20105 19.6294 4.77061C19.9755 4.34016 19.907 3.7107 19.4766 3.36468C16.7693 1.18837 13.4002 0.00136451 9.92666 1.1717e-06C6.45309 -0.00135984 3.0831 1.183 0.374114 3.35719C-0.0566052 3.70287 -0.125537 4.33228 0.22015 4.76299C0.565838 5.19371 1.19524 5.26265 1.62596 4.91696Z" fill="black"/>
<path d="M15.8118 8.78428C14.1954 7.3115 12.0862 6.49734 9.89942 6.50216C7.71268 6.50698 5.607 7.33042 3.9971 8.8103C3.5905 9.18406 2.9579 9.15744 2.58414 8.75084C2.21038 8.34425 2.237 7.71164 2.64359 7.33788C4.62147 5.51974 7.20845 4.50808 9.89501 4.50216C12.5816 4.49625 15.173 5.49649 17.1589 7.30591C17.5671 7.67787 17.5965 8.31035 17.2245 8.71859C16.8526 9.12683 16.2201 9.15624 15.8118 8.78428Z" fill="black"/>
<path d="M9.16072 11.0704C9.70448 10.9718 10.2592 10.9806 10.7944 11.093C11.3349 11.2066 11.8651 10.8605 11.9787 10.3201C12.0922 9.77958 11.7462 9.24936 11.2057 9.13579C10.4189 8.97046 9.60326 8.95752 8.80377 9.10253C7.55406 9.32921 6.403 9.93108 5.50378 10.8281C5.11276 11.2181 5.11197 11.8513 5.502 12.2423C5.89204 12.6333 6.5252 12.6341 6.91622 12.244C7.52783 11.634 8.31072 11.2246 9.16072 11.0704Z" fill="black"/>
<path d="M20.0772 14.1833C20.5282 14.5021 20.6354 15.1261 20.3167 15.5771L17.692 19.2912C17.5525 19.4878 17.3716 19.6551 17.1587 19.7781C16.9455 19.9013 16.7065 19.9764 16.458 19.9953C16.2094 20.0142 15.9611 19.9761 15.7306 19.8853C15.5004 19.7946 15.2959 19.6544 15.1289 19.4782L15.127 19.4761L13.7722 18.0382C13.3935 17.6362 13.4123 17.0033 13.8143 16.6246C14.2163 16.2459 14.8491 16.2647 15.2279 16.6667L16.2963 17.8007L18.6834 14.4229C19.0021 13.9718 19.6261 13.8646 20.0772 14.1833Z" fill="black"/>
<path fill-rule="evenodd" clip-rule="evenodd" d="M10 17C10 13.134 13.134 10 17 10C20.866 10 24 13.134 24 17C24 20.866 20.866 24 17 24C13.134 24 10 20.866 10 17ZM17 12C14.2386 12 12 14.2386 12 17C12 19.7614 14.2386 22 17 22C19.7615 22 22 19.7614 22 17C22 14.2386 19.7615 12 17 12Z" fill="black"/>
</g>
<defs>
<clipPath id="clip0_4736_1172">
<rect width="24" height="24" fill="white"/>
</clipPath>
</defs>
</svg>
