<svg width="24" height="24" viewBox="0 0 24 24" fill="none" xmlns="http://www.w3.org/2000/svg">
<path fill-rule="evenodd" clip-rule="evenodd" d="M15.4715 0.999985C15.276 0.99901 7.97229 0.988214 7.52856 1.00035C6.8433 1.01908 6.19203 1.30675 5.71774 1.80249C5.24323 2.29846 4.98469 2.96235 5.0007 3.64911L5.00078 3.65363L5.00095 3.66634L5.00135 3.70882L5.00216 3.84939C5.00269 3.96602 5.00319 4.12557 5.00365 4.3223C5.00456 4.71561 5.00533 5.25541 5.00594 5.89314C5.00717 7.16848 5.00778 8.83415 5.00778 10.5C5.00778 12.1658 5.00717 13.8315 5.00594 15.1068C5.00533 15.7445 5.00456 16.2843 5.00365 16.6776C5.00319 16.8744 5.00269 17.0339 5.00216 17.1506L5.00135 17.2911L5.00095 17.3336L5.00078 17.3463L5.0007 17.3509C4.98469 18.0376 5.24323 18.7015 5.71774 19.1975C6.19203 19.6932 6.8433 19.9809 7.52856 19.9996C7.96973 20.0117 18.0303 20.0117 18.4714 19.9996C19.1567 19.9809 19.808 19.6932 20.2823 19.1975C20.7568 18.7015 21.0153 18.0376 20.9993 17.3509C20.9899 16.9479 20.9981 7.17643 20.9996 6.73943C21.0018 6.05506 20.74 5.39702 20.2697 4.90045L17.2933 1.78866L17.2912 1.78646C17.057 1.53956 16.7752 1.3428 16.463 1.20776C16.1499 1.07232 15.8126 1.00169 15.4715 0.999985ZM7.58322 2.9996C7.98539 2.9886 15.2443 2.99888 15.4615 2.99996C15.5331 3.00032 15.6037 3.01515 15.6689 3.04337C15.7342 3.07159 15.7925 3.11251 15.8405 3.16329L18.8175 6.2757L18.8189 6.2771C18.9361 6.40164 19.0001 6.56474 18.9996 6.73283C18.9982 7.14892 18.9896 16.9599 18.9998 17.3975C19.0034 17.5513 18.9456 17.7014 18.8371 17.8149C18.7284 17.9285 18.5774 17.996 18.4168 18.0003L18.4157 18.0004L18.4126 18.0004L18.4017 18.0006L18.3661 18.0011L18.2503 18.002C18.1549 18.0026 18.0263 18.0032 17.8687 18.0038C17.5538 18.0049 17.126 18.0058 16.6224 18.0065C15.6155 18.0079 14.3079 18.0086 13 18.0086C11.6921 18.0086 10.3845 18.0079 9.37757 18.0065C8.87403 18.0058 8.44618 18.0049 8.13126 18.0038C7.97372 18.0032 7.84513 18.0026 7.74975 18.002L7.63392 18.0011L7.59827 18.0006L7.58745 18.0004L7.58433 18.0004L7.58322 18.0003C7.42258 17.996 7.2716 17.9285 7.16287 17.8149C7.05436 17.7014 6.99657 17.5513 7.00016 17.3975C7.01032 16.9616 7.01032 4.0383 7.00016 3.60249C6.99657 3.44868 7.05436 3.29852 7.16287 3.18509C7.2716 3.07145 7.42258 3.00399 7.58322 2.9996Z" fill="black"/>
<path d="M4 6C4 5.44772 3.55228 5 3 5C2.44772 5 2 5.44772 2 6V18.5C2 20.9853 4.01472 23 6.5 23H17C17.5523 23 18 22.5523 18 22C18 21.4477 17.5523 21 17 21H6.5C5.11929 21 4 19.8807 4 18.5V6Z" fill="black"/>
</svg>
