<svg width="24" height="24" viewBox="0 0 24 24" fill="none" xmlns="http://www.w3.org/2000/svg">
<path d="M7 10C6.60444 10 6.21776 10.1173 5.88886 10.3371C5.55996 10.5568 5.30362 10.8692 5.15224 11.2346C5.00087 11.6001 4.96126 12.0022 5.03843 12.3902C5.1156 12.7781 5.30608 13.1345 5.58579 13.4142C5.86549 13.6939 6.22186 13.8844 6.60982 13.9616C6.99778 14.0387 7.39991 13.9991 7.76537 13.8478C8.13082 13.6964 8.44318 13.44 8.66294 13.1111C8.8827 12.7822 9 12.3956 9 12C9 11.4696 8.78929 10.9609 8.41421 10.5858C8.03914 10.2107 7.53043 10 7 10Z" fill="black"/>
<path d="M17 10C16.6044 10 16.2178 10.1173 15.8889 10.3371C15.56 10.5568 15.3036 10.8692 15.1522 11.2346C15.0009 11.6001 14.9613 12.0022 15.0384 12.3902C15.1156 12.7781 15.3061 13.1345 15.5858 13.4142C15.8655 13.6939 16.2219 13.8844 16.6098 13.9616C16.9978 14.0387 17.3999 13.9991 17.7654 13.8478C18.1308 13.6964 18.4432 13.44 18.6629 13.1111C18.8827 12.7822 19 12.3956 19 12C19 11.4696 18.7893 10.9609 18.4142 10.5858C18.0391 10.2107 17.5304 10 17 10Z" fill="black"/>
<path d="M10.8889 10.3371C11.2178 10.1173 11.6044 10 12 10C12.5304 10 13.0391 10.2107 13.4142 10.5858C13.7893 10.9609 14 11.4696 14 12C14 12.3956 13.8827 12.7822 13.6629 13.1111C13.4432 13.44 13.1308 13.6964 12.7654 13.8478C12.3999 13.9991 11.9978 14.0387 11.6098 13.9616C11.2219 13.8844 10.8655 13.6939 10.5858 13.4142C10.3061 13.1345 10.1156 12.7781 10.0384 12.3902C9.96126 12.0022 10.0009 11.6001 10.1522 11.2346C10.3036 10.8692 10.56 10.5568 10.8889 10.3371Z" fill="black"/>
<path fill-rule="evenodd" clip-rule="evenodd" d="M12 1C5.92487 1 1 5.92487 1 12C1 18.0751 5.92487 23 12 23C18.0751 23 23 18.0751 23 12C23 5.92487 18.0751 1 12 1ZM3 12C3 7.02944 7.02944 3 12 3C16.9706 3 21 7.02944 21 12C21 16.9706 16.9706 21 12 21C7.02944 21 3 16.9706 3 12Z" fill="black"/>
</svg>
