<svg width="24" height="24" viewBox="0 0 24 24" fill="none" xmlns="http://www.w3.org/2000/svg">
<path d="M11.6833 1.05136C11.5407 1.09889 11.4067 1.1794 11.2932 1.29289L7.95989 4.62623C7.56936 5.01675 7.56936 5.64992 7.95989 6.04044C8.35041 6.43096 8.98357 6.43096 9.3741 6.04044L11.0005 4.41405V11.3333C11.0005 11.8856 11.4482 12.3333 12.0005 12.3333C12.5528 12.3333 13.0005 11.8856 13.0005 11.3333V4.41438L14.6266 6.04044C15.0171 6.43096 15.6502 6.43096 16.0408 6.04044C16.4313 5.64992 16.4313 5.01675 16.0408 4.62623L12.7183 1.30376C12.5366 1.11642 12.2821 1 12.0005 1C11.9926 0.999999 11.9848 1.00009 11.9769 1.00027C11.8745 1.00264 11.7759 1.02041 11.6833 1.05136Z" fill="black"/>
<path d="M6.00033 9.66663C5.81483 9.66663 5.66699 9.81447 5.66699 9.99996V20.6666C5.66699 20.8521 5.81483 21 6.00033 21H18.0003C18.1858 21 18.3337 20.8521 18.3337 20.6666V9.99996C18.3337 9.81447 18.1858 9.66663 18.0003 9.66663H16.667C16.1147 9.66663 15.667 9.21891 15.667 8.66663C15.667 8.11434 16.1147 7.66663 16.667 7.66663H18.0003C19.2904 7.66663 20.3337 8.7099 20.3337 9.99996V20.6666C20.3337 21.9567 19.2904 23 18.0003 23H6.00033C4.71026 23 3.66699 21.9567 3.66699 20.6666V9.99996C3.66699 8.7099 4.71026 7.66663 6.00033 7.66663H7.33366C7.88594 7.66663 8.33366 8.11434 8.33366 8.66663C8.33366 9.21891 7.88594 9.66663 7.33366 9.66663H6.00033Z" fill="black"/>
</svg>
