<svg width="24" height="24" viewBox="0 0 24 24" fill="none" xmlns="http://www.w3.org/2000/svg">
<g clip-path="url(#clip0_5043_1489)">
<path d="M16.8911 2C17.4817 2 18.0458 2.1473 18.5164 2.40733C18.9999 2.6744 19.6082 2.499 19.8753 2.01558C20.1424 1.53217 19.967 0.923777 19.4836 0.656712C18.7065 0.227449 17.8081 0 16.8911 0C15.6396 0 14.414 0.424529 13.4891 1.21687C12.5594 2.01331 12 3.12973 12 4.33333V4.58579L11.7071 4.29289C11.3166 3.90237 10.6834 3.90237 10.2929 4.29289C9.90237 4.68342 9.90237 5.31658 10.2929 5.70711L12.2929 7.70711C12.3888 7.80298 12.4993 7.87532 12.6172 7.92412C12.7351 7.97301 12.8644 8 13 8C13.1356 8 13.2649 7.97301 13.3828 7.92412C13.5007 7.87532 13.6112 7.80298 13.7071 7.70711L15.7071 5.70711C16.0976 5.31658 16.0976 4.68342 15.7071 4.29289C15.3166 3.90237 14.6834 3.90237 14.2929 4.29289L14 4.58579V4.33333C14 3.76883 14.2605 3.18956 14.7903 2.73575C15.3248 2.27785 16.0786 2 16.8911 2Z" fill="black"/>
<path d="M0.855301 3.64518C1.36838 3.21741 2.03112 3 2.69231 3H8.06667C8.61895 3 9.06667 3.44772 9.06667 4C9.06667 4.55228 8.61895 5 8.06667 5H2.69231C2.45583 5 2.25769 5.07989 2.13603 5.18132C2.01968 5.27833 2 5.36672 2 5.41093V18.5891C2 18.6333 2.01968 18.7217 2.13603 18.8187C2.25769 18.9201 2.45584 19 2.69231 19H11.4889C12.0412 19 12.4889 19.4477 12.4889 20C12.4889 20.5523 12.0412 21 11.4889 21H2.69231C2.03112 21 1.36837 20.7826 0.855301 20.3548C0.336915 19.9226 0 19.2933 0 18.5891V5.41093C0 4.70674 0.336915 4.07738 0.855301 3.64518Z" fill="black"/>
<path d="M20.3077 4C20.3077 3.44772 20.7554 3 21.3077 3C21.9689 3 22.6316 3.21741 23.1447 3.64518C23.6631 4.07737 24 4.70674 24 5.41093V13.9412C24 14.4935 23.5523 14.9412 23 14.9412C22.4477 14.9412 22 14.4935 22 13.9412V5.41093C22 5.36672 21.9803 5.27833 21.864 5.18132C21.7423 5.07989 21.5442 5 21.3077 5C20.7554 5 20.3077 4.55228 20.3077 4Z" fill="black"/>
<path d="M15 11.5C14.4477 11.5 14 11.0523 14 10.5C14 9.94772 14.4477 9.5 15 9.5H18C18.5523 9.5 19 9.94772 19 10.5C19 11.0523 18.5523 11.5 18 11.5H15Z" fill="black"/>
<path d="M19.5 13H15C14.4477 13 14 13.4477 14 14C14 14.5523 14.4477 15 15 15H19.5C20.0523 15 20.5 14.5523 20.5 14C20.5 13.4477 20.0523 13 19.5 13Z" fill="black"/>
<path d="M17.1089 22C16.5183 22 15.9542 21.8527 15.4836 21.5927C15.0001 21.3256 14.3918 21.501 14.1247 21.9844C13.8576 22.4678 14.033 23.0762 14.5164 23.3433C15.2935 23.7726 16.1919 24 17.1089 24C18.3604 24 19.586 23.5755 20.5109 22.7831C21.4406 21.9867 22 20.8703 22 19.6667V19.4142L22.2929 19.7071C22.6834 20.0976 23.3166 20.0976 23.7071 19.7071C24.0976 19.3166 24.0976 18.6834 23.7071 18.2929L21.7071 16.2929C21.6112 16.197 21.5007 16.1247 21.3828 16.0759C21.2649 16.027 21.1356 16 21 16C20.8644 16 20.7351 16.027 20.6172 16.0759C20.4993 16.1247 20.3888 16.197 20.2929 16.2929L18.2929 18.2929C17.9024 18.6834 17.9024 19.3166 18.2929 19.7071C18.6834 20.0976 19.3166 20.0976 19.7071 19.7071L20 19.4142V19.6667C20 20.2312 19.7395 20.8104 19.2097 21.2643C18.6752 21.7222 17.9214 22 17.1089 22Z" fill="black"/>
<path fill-rule="evenodd" clip-rule="evenodd" d="M4.5 13.0001C4.18828 12.9998 3.88127 12.8542 3.68627 12.5812C3.36526 12.1318 3.46935 11.5073 3.91876 11.1863L7.41876 8.68627C7.76646 8.43791 8.23354 8.43791 8.58124 8.68627L12.0812 11.1863C12.5306 11.5073 12.6347 12.1318 12.3137 12.5812C12.1187 12.8542 11.8117 12.9998 11.5 13.0001V16C11.5 16.5523 11.0523 17 10.5 17H5.5C4.94772 17 4.5 16.5523 4.5 16V13.0001ZM6.5 11.8003L8 10.7289L9.5 11.8003V15H6.5V11.8003Z" fill="black"/>
</g>
<defs>
<clipPath id="clip0_5043_1489">
<rect width="24" height="24" fill="white"/>
</clipPath>
</defs>
</svg>
