<svg width="24" height="24" viewBox="0 0 24 24" fill="none" xmlns="http://www.w3.org/2000/svg">
<path d="M14.3673 21H9.63143C9.52375 21 9.41786 21.0262 9.32382 21.076C9.22978 21.1259 9.15072 21.1977 9.09416 21.2848C9.03759 21.3719 9.00539 21.4712 9.00062 21.5734C8.99585 21.6756 9.01867 21.7773 9.06691 21.8688L9.49125 22.674C9.69957 23.073 10.0212 23.4086 10.4198 23.6429C10.8184 23.8772 11.2781 24.0009 11.7468 24H12.2519C12.7202 24.0016 13.1796 23.8788 13.5783 23.6456C13.9771 23.4124 14.2993 23.0779 14.5088 22.68L14.9331 21.8748C14.9814 21.7832 15.0042 21.6814 14.9994 21.5791C14.9945 21.4768 14.9622 21.3774 14.9055 21.2903C14.8488 21.2032 14.7696 21.1313 14.6754 21.0816C14.5811 21.0318 14.4751 21.0058 14.3673 21.006V21Z" fill="#434660"/>
<path d="M11.9938 2.42746e-06C10.1853 0.00278586 8.42477 0.603212 6.96771 1.71412C5.51064 2.82503 4.4329 4.3886 3.89095 6.17785C3.34899 7.96711 3.37102 9.88892 3.95384 11.6643C4.53666 13.4397 5.64993 14.9763 7.13205 16.0509C7.21891 16.1134 7.28988 16.1968 7.33888 16.2939C7.38788 16.3911 7.41346 16.4991 7.41342 16.6087V17.6429C7.41342 18.0028 7.5513 18.348 7.79672 18.6025C8.04215 18.857 8.37502 19 8.7221 19H15.2655C15.6126 19 15.9455 18.857 16.1909 18.6025C16.4363 18.348 16.5742 18.0028 16.5742 17.6429V16.6074C16.5742 16.4977 16.5997 16.3897 16.6487 16.2926C16.6977 16.1954 16.7687 16.1121 16.8556 16.0496C18.3414 14.9772 19.4583 13.4408 20.0436 11.6643C20.6288 9.88782 20.6518 7.96393 20.1093 6.17291C19.5668 4.38188 18.487 2.81726 17.0273 1.70694C15.5675 0.596623 13.8041 -0.00139039 11.9938 2.42746e-06Z" fill="#434660"/>
<path d="M10.8107 8.18934C10.2249 7.60355 9.27513 7.60355 8.68934 8.18934C8.10355 8.77513 8.10355 9.72487 8.68934 10.3107L10.5 12.1213V15.25C10.5 16.0784 11.1716 16.75 12 16.75C12.8284 16.75 13.5 16.0784 13.5 15.25V12.1213L15.3107 10.3107C15.8964 9.72487 15.8964 8.77513 15.3107 8.18934C14.7249 7.60355 13.7751 7.60355 13.1893 8.18934L12 9.37868L10.8107 8.18934Z" fill="#A9ABBC"/>
</svg>
