<svg width="24" height="24" viewBox="0 0 24 24" fill="none" xmlns="http://www.w3.org/2000/svg">
<path d="M21.7052 3.70906C22.0957 3.31854 22.0957 2.68537 21.7052 2.29485C21.3146 1.90432 20.6815 1.90432 20.2909 2.29485L2.29485 20.2909C1.90432 20.6815 1.90432 21.3146 2.29485 21.7052C2.68537 22.0957 3.31854 22.0957 3.70906 21.7052L21.7052 3.70906Z" fill="black"/>
<path d="M12 4.81324C12.7458 4.80209 13.4874 4.88636 14.2135 5.04506C14.7531 5.16298 15.0949 5.69597 14.9769 6.23552C14.859 6.77506 14.326 7.11686 13.7865 6.99894C13.1885 6.86826 12.5965 6.80344 12.0168 6.81322C12.0056 6.81341 11.9943 6.81341 11.9831 6.81322C8.71227 6.75804 5.14709 9.09059 2.82266 11.6483C2.73658 11.7445 2.68896 11.869 2.68896 11.9981C2.68896 12.1273 2.73662 12.2518 2.82276 12.348C3.50653 13.1009 4.32344 13.8609 5.22929 14.549C5.66909 14.883 5.7548 15.5104 5.42074 15.9502C5.08668 16.39 4.45934 16.4757 4.01955 16.1416C3.01213 15.3764 2.10435 14.532 1.34035 13.6906L1.33769 13.6876C0.920067 13.224 0.688965 12.6221 0.688965 11.9981C0.688965 11.3741 0.920073 10.7722 1.3377 10.3086L1.34055 10.3054C3.81794 7.5785 7.8872 4.75176 12 4.81324Z" fill="black"/>
<path d="M18.5845 8.05334C18.9182 7.61327 19.5454 7.52705 19.9855 7.86075C20.9843 8.61813 21.8908 9.45739 22.6617 10.305L22.665 10.3086C23.0826 10.7722 23.3137 11.3741 23.3137 11.9981C23.3137 12.6221 23.0826 13.224 22.665 13.6876L22.6621 13.6909C20.2394 16.3571 16.1798 19.2482 12 19.1857C11.2525 19.1969 10.5115 19.1132 9.78749 18.9557C9.24782 18.8384 8.90547 18.3057 9.02284 17.7661C9.14021 17.2264 9.67284 16.884 10.2125 17.0014C10.8083 17.131 11.4006 17.1956 11.9831 17.1858C11.9944 17.1856 12.0056 17.1856 12.0168 17.1858C15.3468 17.2418 18.9015 14.8547 21.1801 12.3478C21.2661 12.2517 21.3137 12.1272 21.3137 11.9981C21.3137 11.8691 21.2662 11.7447 21.1802 11.6485C20.4903 10.8903 19.6749 10.1352 18.777 9.45438C18.337 9.12067 18.2508 8.49341 18.5845 8.05334Z" fill="black"/>
<path d="M12.4894 8.45266C12.5697 8.99907 12.1919 9.50716 11.6455 9.58751C11.2893 9.63987 10.9477 9.77072 10.6459 9.97233C10.2451 10.2401 9.93269 10.6208 9.74819 11.0661C9.63785 11.3325 9.57622 11.6148 9.5646 11.8998C9.54211 12.4517 9.07654 12.8808 8.52471 12.8583C7.97288 12.8358 7.54377 12.3702 7.56626 11.8184C7.58741 11.2995 7.6996 10.7855 7.90048 10.3006C8.23638 9.48987 8.80514 8.7969 9.53486 8.30935C10.0842 7.94231 10.7062 7.70412 11.3545 7.60878C11.9009 7.52844 12.409 7.90625 12.4894 8.45266Z" fill="black"/>
<path d="M15.5466 11.5107C16.093 11.5912 16.4707 12.0994 16.3902 12.6458C16.2947 13.2941 16.0563 13.916 15.6892 14.4653C15.2014 15.1949 14.5083 15.7635 13.6974 16.0991C13.1871 16.3104 12.6022 16.068 12.391 15.5577C12.1797 15.0474 12.4221 14.4625 12.9324 14.2512C13.3778 14.0668 13.7586 13.7545 14.0265 13.3538C14.2282 13.0521 14.3591 12.7104 14.4116 12.3543C14.492 11.8079 15.0002 11.4302 15.5466 11.5107Z" fill="black"/>
</svg>
