<svg width="24" height="24" viewBox="0 0 24 24" fill="none" xmlns="http://www.w3.org/2000/svg">
<path fill-rule="evenodd" clip-rule="evenodd" d="M6.74994 3C6.61734 3 6.49016 3.05268 6.39639 3.14645C6.30262 3.24021 6.24994 3.36739 6.24994 3.5V5.74902H17.7499V3.5C17.7499 3.36739 17.6973 3.24022 17.6035 3.14645C17.5097 3.05268 17.3826 3 17.2499 3H6.74994ZM19.7499 5.74902V3.5C19.7499 2.83696 19.4866 2.20107 19.0177 1.73223C18.5489 1.26339 17.913 1 17.2499 1H6.74994C6.0869 1 5.45102 1.26339 4.98218 1.73223C4.51334 2.20107 4.24994 2.83696 4.24994 3.5V5.74902H3.5C2.83696 5.74902 2.20107 6.01241 1.73223 6.48126C1.26339 6.9501 1 7.58598 1 8.24902V15.749C1 16.4121 1.26339 17.0479 1.73223 17.5168C2.20107 17.9856 2.83696 18.249 3.5 18.249H4.24994V22.001C4.24994 22.5533 4.69766 23.001 5.24994 23.001H18.7499C19.3022 23.001 19.7499 22.5533 19.7499 22.001V18.249H20.5301C21.1931 18.249 21.829 17.9856 22.2978 17.5168C22.7667 17.0479 23.0301 16.4121 23.0301 15.749V8.24902C23.0301 7.58598 22.7667 6.9501 22.2978 6.48126C21.829 6.01242 21.1931 5.74902 20.5301 5.74902H19.7499ZM19.7499 16.249H20.5301C20.6627 16.249 20.7898 16.1963 20.8836 16.1026C20.9774 16.0088 21.0301 15.8816 21.0301 15.749V8.24902C21.0301 8.11642 20.9774 7.98924 20.8836 7.89547C20.7898 7.8017 20.6627 7.74902 20.5301 7.74902H3.5C3.36739 7.74902 3.24021 7.8017 3.14645 7.89547C3.05268 7.98924 3 8.11642 3 8.24902V15.749C3 15.8816 3.05268 16.0088 3.14645 16.1026C3.24022 16.1963 3.36739 16.249 3.5 16.249H4.24994V12.749C4.24994 12.1967 4.69766 11.749 5.24994 11.749H18.7499C19.3022 11.749 19.7499 12.1967 19.7499 12.749V16.249ZM6.24994 21.001H17.7499V13.749H6.24994V21.001ZM4.25 9.74902C4.25 9.19674 4.69772 8.74902 5.25 8.74902H6.75C7.30228 8.74902 7.75 9.19674 7.75 9.74902C7.75 10.3013 7.30228 10.749 6.75 10.749H5.25C4.69772 10.749 4.25 10.3013 4.25 9.74902ZM7.24994 15.749C7.24994 15.1967 7.69766 14.749 8.24994 14.749H15.7499C16.3022 14.749 16.7499 15.1967 16.7499 15.749C16.7499 16.3013 16.3022 16.749 15.7499 16.749H8.24994C7.69766 16.749 7.24994 16.3013 7.24994 15.749ZM7.24994 18.749C7.24994 18.1967 7.69766 17.749 8.24994 17.749H13.4999C14.0522 17.749 14.4999 18.1967 14.4999 18.749C14.4999 19.3013 14.0522 19.749 13.4999 19.749H8.24994C7.69766 19.749 7.24994 19.3013 7.24994 18.749Z" fill="black"/>
</svg>
