<svg width="24" height="24" viewBox="0 0 24 24" fill="none" xmlns="http://www.w3.org/2000/svg">
<path fill-rule="evenodd" clip-rule="evenodd" d="M11.2709 2.09959C11.6163 1.93268 12.0268 1.97815 12.3274 2.2166L17.6215 6.4166C17.8477 6.59604 17.9853 6.86447 17.9989 7.15286C18.0125 7.44125 17.9008 7.72145 17.6925 7.9214L13.3073 12.1312L17.669 16.0567C17.8877 16.2536 18.0087 16.5369 17.9995 16.8311C17.9904 17.1253 17.8521 17.4005 17.6215 17.5834L12.3274 21.7834C12.0268 22.0219 11.6163 22.0673 11.2709 21.9004C10.9254 21.7335 10.7059 21.3837 10.7059 21V14.6286L7.69254 17.5214C7.29413 17.9039 6.6611 17.891 6.27862 17.4925C5.89615 17.0941 5.90907 16.4611 6.30748 16.0786L10.3701 12.1785L6.33104 8.5433C5.92053 8.17384 5.88726 7.54155 6.25671 7.13104C6.62617 6.72053 7.25846 6.68726 7.66897 7.05672L10.7059 9.78994V3.00001C10.7059 2.61634 10.9254 2.2665 11.2709 2.09959ZM12.7059 14.2807L15.4517 16.7519L12.7059 18.9302V14.2807ZM12.7059 9.93614V5.06981L15.4814 7.27169L12.7059 9.93614Z" fill="black"/>
</svg>
