<svg width="24" height="24" viewBox="0 0 24 24" fill="none" xmlns="http://www.w3.org/2000/svg">
<g clip-path="url(#clip0_2929_396)">
<path d="M4 3C4 2.44772 4.44772 2 5 2H16.9998C17.5521 2 17.9998 2.44772 17.9998 3C17.9998 3.55228 17.5521 4 16.9998 4H5C4.44772 4 4 3.55228 4 3Z" fill="black"/>
<path d="M3 5C2.44772 5 2 5.44772 2 6C2 6.55228 2.44772 7 3 7L19 7C19.5523 7 20 6.55228 20 6C20 5.44771 19.5523 5 19 5L3 5Z" fill="black"/>
<path d="M2.33331 10C2.14673 10 2 10.1501 2 10.3298V19.6702C2 19.8499 2.14673 20 2.33331 20H6.99986C7.55215 20 7.99986 20.4477 7.99986 21C7.99986 21.5523 7.55215 22 6.99986 22H2.33331C1.04716 22 0 20.9594 0 19.6702V10.3298C0 9.04059 1.04716 8 2.33331 8H16.6664C17.2187 8 17.6664 8.44772 17.6664 9C17.6664 9.55228 17.2187 10 16.6664 10H2.33331Z" fill="black"/>
<path d="M11 13C9.89543 13 9 13.8954 9 15C9 15.5485 9.2195 16.0438 9.57779 16.4062C9.96611 16.7989 9.96255 17.432 9.56984 17.8204C9.17713 18.2087 8.54397 18.2051 8.15565 17.8124C7.44221 17.0909 7 16.0961 7 15C7 12.7909 8.79086 11 11 11C12.089 11 13.078 11.4365 13.7983 12.1418C14.193 12.5282 14.1996 13.1613 13.8132 13.5559C13.4268 13.9505 12.7937 13.9572 12.3991 13.5708C12.0374 13.2167 11.545 13 11 13Z" fill="black"/>
<path fill-rule="evenodd" clip-rule="evenodd" d="M22.0785 10.9123L21.9989 10.8329L21.9981 10.8321L21.9974 10.8314L21.9953 10.8292L21.9922 10.8262L21.9903 10.8255L21.9875 10.825C21.4133 10.2959 20.6599 10.0005 19.876 10.0005C19.0498 10.0005 18.2573 10.3286 17.673 10.9128L10.0432 18.5426C9.90362 18.6822 9.80814 18.8603 9.76942 19.0539L9.01942 22.8039C8.95385 23.1318 9.05647 23.4707 9.29289 23.7071C9.52932 23.9435 9.86826 24.0462 10.1961 23.9806L13.9461 23.2306C14.1397 23.1919 14.4571 22.9571 14.4571 22.9571L18.1984 19.2157C20.0816 17.3324 21.9886 15.4255 22.0865 15.3277C22.3762 15.0385 22.606 14.695 22.7628 14.3168C22.9196 13.9387 23.0004 13.5334 23.0004 13.124C23.0004 12.7147 22.9196 12.3093 22.7628 11.9312C22.606 11.5531 22.3762 11.2096 22.0865 10.9203L22.0815 10.9153L22.0785 10.9123ZM19.087 12.3272C19.2963 12.118 19.5801 12.0005 19.876 12.0005C20.1702 12.0005 20.4524 12.1166 20.6613 12.3236L20.6634 12.3256L20.6649 12.3272L20.6735 12.3357C20.7771 12.4391 20.8593 12.562 20.9154 12.6973C20.9715 12.8326 21.0004 12.9776 21.0004 13.124C21.0004 13.2705 20.9715 13.4155 20.9154 13.5507C20.8593 13.686 20.7771 13.8089 20.6735 13.9123C20.5747 14.0109 18.6667 15.9189 16.7841 17.8015L13.257 21.3288L11.2748 21.7253L11.6712 19.743L19.087 12.3272Z" fill="black"/>
</g>
<defs>
<clipPath id="clip0_2929_396">
<rect width="24" height="24" fill="white"/>
</clipPath>
</defs>
</svg>
