<svg width="24" height="24" viewBox="0 0 24 24" fill="none" xmlns="http://www.w3.org/2000/svg">
<g clip-path="url(#clip0_5281_1436)">
<path d="M14.75 16.875C16.8211 16.875 18.5 15.1961 18.5 13.125C18.5 11.0539 16.8211 9.375 14.75 9.375C12.6789 9.375 11 11.0539 11 13.125C11 15.1961 12.6789 16.875 14.75 16.875Z" fill="#A9ABBC"/>
<path d="M21.4436 6.125H20.1276C20.0222 6.12126 19.9203 6.08641 19.8347 6.02483C19.7491 5.96326 19.6836 5.87772 19.6465 5.779C19.0285 4.475 18.3895 3.125 16.9995 3.125H11.9995C10.9285 3.125 10.3635 3.903 9.34055 5.316C8.95655 5.843 8.83055 6.125 8.49655 6.125H2.49655C0.43355 6.125 -0.000449967 7.334 -0.000449967 8.348V18.736C-0.0236542 19.0703 0.0279892 19.4056 0.150721 19.7175C0.273452 20.0294 0.464182 20.3099 0.709025 20.5388C0.953869 20.7676 1.24666 20.939 1.56609 21.0404C1.88552 21.1418 2.22354 21.1707 2.55555 21.125H21.4436C21.7756 21.1707 22.1136 21.1418 22.433 21.0404C22.7524 20.939 23.0452 20.7676 23.2901 20.5388C23.5349 20.3099 23.7256 20.0294 23.8484 19.7175C23.9711 19.4056 24.0228 19.0703 23.9995 18.736V8.348C23.9995 7.334 23.5565 6.125 21.4436 6.125ZM20.4995 13.125C20.4995 14.2622 20.1623 15.3739 19.5305 16.3195C18.8987 17.2651 18.0007 18.0021 16.95 18.4373C15.8993 18.8725 14.7432 18.9864 13.6278 18.7645C12.5124 18.5427 11.4878 17.995 10.6837 17.1909C9.87953 16.3867 9.3319 15.3622 9.11003 14.2468C8.88817 13.1314 9.00204 11.9752 9.43724 10.9246C9.87245 9.87389 10.6094 8.97587 11.555 8.34405C12.5006 7.71223 13.6123 7.375 14.7495 7.375C16.2741 7.37659 17.7357 7.9829 18.8137 9.06089C19.8916 10.1389 20.498 11.6005 20.4995 13.125ZM4.99955 9.875C4.99955 10.1222 4.92624 10.3639 4.78889 10.5695C4.65154 10.775 4.45631 10.9352 4.2279 11.0298C3.9995 11.1245 3.74816 11.1492 3.50569 11.101C3.26321 11.0528 3.04048 10.9337 2.86567 10.7589C2.69085 10.5841 2.5718 10.3613 2.52357 10.1189C2.47534 9.87639 2.50009 9.62505 2.5947 9.39665C2.68931 9.16824 2.84953 8.97301 3.05509 8.83566C3.26065 8.69831 3.50232 8.625 3.74955 8.625C4.08107 8.625 4.39901 8.7567 4.63343 8.99112C4.86785 9.22554 4.99955 9.54348 4.99955 9.875Z" fill="#434660"/>
<path d="M2.5 5.109L5.5 5.125C5.63261 5.125 5.75979 5.07232 5.85355 4.97855C5.94732 4.88479 6 4.75761 6 4.625V4.375C6 3.97718 5.84196 3.59564 5.56066 3.31434C5.27936 3.03304 4.89782 2.875 4.5 2.875H3.5C3.10218 2.875 2.72064 3.03304 2.43934 3.31434C2.15804 3.59564 2 3.97718 2 4.375V4.609C2 4.74161 2.05268 4.86879 2.14645 4.96255C2.24021 5.05632 2.36739 5.109 2.5 5.109Z" fill="#A9ABBC"/>
</g>
<defs>
<clipPath id="clip0_5281_1436">
<rect width="24" height="24" fill="white"/>
</clipPath>
</defs>
</svg>
