<svg width="24" height="24" viewBox="0 0 24 24" fill="none" xmlns="http://www.w3.org/2000/svg">
<path d="M15.8437 6.00497C16.0175 5.94148 16.1953 5.88697 16.3765 5.84233C19.2305 5.12256 22.126 6.86084 22.8375 9.71342C23.5584 12.5685 21.8192 15.4656 18.965 16.1764C18.4291 16.3098 17.8865 15.9836 17.753 15.4477C17.6195 14.9118 17.9458 14.3691 18.4817 14.2357C20.2633 13.792 21.3483 11.9827 20.898 10.202L20.8972 10.1985C20.4535 8.41691 18.6442 7.33186 16.8635 7.78214L16.8569 7.78382C16.4754 7.87751 16.106 8.04703 15.7727 8.27619C15.4934 8.46819 15.1359 8.50568 14.8228 8.37578C14.5098 8.24588 14.2839 7.96627 14.2226 7.63295C13.6566 4.55362 10.6981 2.52368 7.62695 3.09716L7.62462 3.0976C4.55455 3.66333 2.52367 6.62144 3.09729 9.69334L3.09795 9.69688C3.30903 10.8503 3.87408 11.9049 4.71801 12.7187C5.11557 13.102 5.12708 13.7351 4.74372 14.1327C4.36036 14.5302 3.7273 14.5417 3.32974 14.1584C2.18458 13.0541 1.41749 11.6224 1.13094 10.0587C0.355705 5.90178 3.10248 1.8979 7.261 1.13093C10.9816 0.436756 14.5789 2.56398 15.8437 6.00497Z" fill="black"/>
<path d="M15.3302 11.6747C15.8825 11.6747 16.3302 12.1225 16.3302 12.6747V19.587L17.2882 18.629C17.6787 18.2385 18.3119 18.2385 18.7024 18.629C19.0929 19.0195 19.0929 19.6527 18.7024 20.0432L16.0378 22.7078C15.8966 22.8491 15.7235 22.9392 15.5417 22.9783C15.4758 22.9925 15.4075 23.0002 15.3375 23.0007C15.3351 23.0007 15.3327 23.0007 15.3302 23.0007C15.0444 23.0007 14.7866 22.8808 14.6043 22.6884L11.9591 20.0432C11.5686 19.6527 11.5686 19.0195 11.9591 18.629C12.3496 18.2385 12.9828 18.2385 13.3733 18.629L14.3302 19.586V12.6747C14.3302 12.1225 14.778 11.6747 15.3302 11.6747Z" fill="black"/>
<path d="M8.67527 23.0007C9.22756 23.0007 9.67527 22.553 9.67527 22.0007V15.0885L10.6332 16.0464C11.0237 16.4369 11.6569 16.4369 12.0474 16.0464C12.438 15.6559 12.438 15.0227 12.0474 14.6322L9.38287 11.9676C9.24159 11.8264 9.06854 11.7362 8.88672 11.6971C8.82085 11.683 8.75257 11.6753 8.68257 11.6748C8.68014 11.6747 8.67771 11.6747 8.67527 11.6747C8.38942 11.6747 8.13158 11.7947 7.94933 11.987L5.3041 14.6322C4.91358 15.0227 4.91358 15.6559 5.3041 16.0464C5.69462 16.4369 6.32779 16.4369 6.71831 16.0464L7.67527 15.0895V22.0007C7.67527 22.553 8.12298 23.0007 8.67527 23.0007Z" fill="black"/>
</svg>
