<svg width="24" height="24" viewBox="0 0 24 24" fill="none" xmlns="http://www.w3.org/2000/svg">
<path fill-rule="evenodd" clip-rule="evenodd" d="M3.02446 3.7003C3.22575 3.57207 3.46692 3.50072 3.71743 3.50001C4.05305 3.50352 4.36478 3.63318 4.58749 3.84721C4.80945 4.06052 4.92471 4.33846 4.9247 4.61761C4.9247 4.66258 4.92773 4.70723 4.93367 4.7513C4.91195 4.91565 4.85013 5.07624 4.74923 5.22021C4.62064 5.40368 4.43274 5.55366 4.20397 5.64399C3.9749 5.73445 3.7203 5.75878 3.47421 5.71211C3.22829 5.66548 3.0086 5.55142 2.84062 5.39127C2.67314 5.2316 2.56491 5.03409 2.5216 4.82653C2.47838 4.61938 2.50008 4.4041 2.58626 4.20575C2.67272 4.00675 2.82259 3.82889 3.02446 3.7003ZM6.94247 4.61765C6.94247 4.53863 6.93331 4.46175 6.91598 4.38801C6.85869 3.63536 6.52142 2.93193 5.97334 2.40519C5.37144 1.82673 4.56383 1.50637 3.72887 1.5H3.72124C3.09447 1.5 2.47816 1.67698 1.94992 2.01348C1.42123 2.35026 1.0017 2.83386 0.751913 3.40877C0.501854 3.98431 0.435571 4.62061 0.563765 5.23502C0.691874 5.84904 1.00675 6.40618 1.46056 6.83883C1.91386 7.271 2.48575 7.56031 3.10158 7.67709C3.71725 7.79385 4.35588 7.7343 4.93856 7.5042C5.52156 7.27398 6.02747 6.88111 6.38703 6.36809C6.74703 5.85443 6.94247 5.24519 6.94247 4.61765ZM21.9262 10.5045C20.8702 9.28624 19.3859 8.692 17.7288 8.692L17.7164 8.69208C16.7206 8.70441 15.7444 8.92023 14.8508 9.31931C14.701 8.9561 14.3434 8.70047 13.926 8.70047H9.38583C8.83355 8.70047 8.38583 9.14819 8.38583 9.70047V21.5C8.38583 22.0523 8.83355 22.5 9.38583 22.5H13.926C14.4783 22.5 14.926 22.0523 14.926 21.5V15.3588C14.926 15.1591 15.0088 14.9573 15.173 14.8008C15.3387 14.6428 15.5734 14.5461 15.8274 14.5461C15.8585 14.5461 15.8892 14.5447 15.9196 14.5419C16.0127 14.5506 16.1035 14.5723 16.1888 14.6061C16.3019 14.651 16.4016 14.7155 16.4833 14.7937C16.5649 14.8719 16.6269 14.9621 16.668 15.0577C16.7091 15.1532 16.7293 15.2537 16.7288 15.3539V21.5C16.7288 22.0523 17.1765 22.5 17.7288 22.5H22.5C23.0523 22.5 23.5 22.0523 23.5 21.5V15.4605C23.5 13.4076 22.9684 11.7068 21.9262 10.5045ZM1.54443 8.70047C0.992144 8.70047 0.544429 9.14819 0.544429 9.70047V21.5C0.544429 22.0523 0.992144 22.5 1.54443 22.5H5.86251C6.41479 22.5 6.86251 22.0523 6.86251 21.5V9.70047C6.86251 9.14819 6.41479 8.70047 5.86251 8.70047H1.54443ZM2.54443 20.5V10.7005H4.86251V20.5H2.54443ZM12.926 10.7005H10.3858V20.5H12.926V15.3588C12.926 14.597 13.2439 13.8767 13.7929 13.3533C14.3015 12.8684 14.9699 12.5878 15.6672 12.5504C15.7194 12.542 15.7729 12.5376 15.8274 12.5376C16.2031 12.5376 16.5761 12.6083 16.9254 12.7467C17.2748 12.8852 17.5951 13.0892 17.8668 13.3494C18.1385 13.6097 18.3563 13.9212 18.5052 14.2674C18.6539 14.6129 18.7303 14.9847 18.7288 15.3611V20.5H21.5V15.4605C21.5 13.7354 21.0542 12.552 20.415 11.8145C19.7907 11.0943 18.8914 10.6934 17.735 10.692C16.5626 10.7079 15.4385 11.1117 14.5541 11.8255C14.2544 12.0674 13.8423 12.1156 13.4948 11.9495C13.1473 11.7834 12.926 11.4325 12.926 11.0473V10.7005Z" fill="black"/>
</svg>
