<svg width="24" height="24" viewBox="0 0 24 24" fill="none" xmlns="http://www.w3.org/2000/svg">
<path d="M5.8063 2.99955C6.26828 2.98654 14.5668 2.99866 14.8137 2.99993C14.9106 3.00043 15.0069 3.02105 15.0972 3.06122C15.1874 3.10142 15.2704 3.1607 15.3402 3.23668C15.41 3.31258 15.9609 3.90496 16.5994 4.59156L16.9796 5.00042C17.7695 5.84989 18.5767 6.71815 18.7425 6.8983C18.9061 7.07621 19.0003 7.31585 18.9995 7.56869C18.9987 7.82181 18.9987 8.95318 18.9989 10.0179L18.9995 12.0876C18.9997 12.6399 19.4476 13.0874 19.9999 13.0872C20.5522 13.087 20.9997 12.6384 20.9995 12.0861L20.9989 10.0175C20.9987 8.95008 20.9987 7.82379 20.9995 7.5751C21.0019 6.8243 20.7231 6.0972 20.2143 5.54419C20.0438 5.35887 19.2308 4.48434 18.4442 3.63846L18.0656 3.23129C17.4247 2.54218 16.8782 1.95448 16.8127 1.88321C16.5595 1.60776 16.2529 1.38652 15.9107 1.23418C15.5686 1.08181 15.1988 1.00188 14.824 0.999956C14.5994 0.998803 6.25479 0.986131 5.75002 1.00034C4.995 1.02159 4.28394 1.34791 3.77071 1.90014C3.25819 2.45159 2.98372 3.18363 3.00075 3.93531C3.0116 4.41467 3.0116 19.5852 3.00075 20.0646C2.98372 20.8163 3.25819 21.5483 3.77071 22.0998C4.14669 22.5043 4.77943 22.5275 5.18398 22.1515C5.58852 21.7755 5.61168 21.1427 5.2357 20.7382C5.0819 20.5727 4.99486 20.3471 5.00023 20.1099C5.01177 19.6003 5.01177 4.39957 5.00023 3.89003C4.99486 3.65282 5.08191 3.42716 5.2357 3.26168C5.38878 3.09697 5.59456 3.00551 5.8063 2.99955Z" fill="black"/>
<path fill-rule="evenodd" clip-rule="evenodd" d="M8 14.5H8.754C9.61595 14.5 10.4426 14.8424 11.0521 15.4519C11.6616 16.0614 12.004 16.888 12.004 17.75C12.004 18.612 11.6616 19.4386 11.0521 20.0481C10.5009 20.5993 9.77197 20.9321 9 20.9907V23C9 23.5523 8.55228 24 8 24C7.44772 24 7 23.5523 7 23V15.5C7 14.9477 7.44772 14.5 8 14.5ZM9 16.5244V18.9756C9.23989 18.9274 9.46231 18.8095 9.63788 18.6339C9.8723 18.3995 10.004 18.0815 10.004 17.75C10.004 17.4185 9.8723 17.1005 9.63788 16.8661C9.46231 16.6905 9.23989 16.5726 9 16.5244Z" fill="black"/>
<path fill-rule="evenodd" clip-rule="evenodd" d="M13 15.5C13 14.9477 13.4477 14.5 14 14.5C15.0609 14.5 16.0783 14.9214 16.8284 15.6716C17.5786 16.4217 18 17.4391 18 18.5V20C18 21.0609 17.5786 22.0783 16.8284 22.8284C16.0783 23.5786 15.0609 24 14 24C13.7348 24 13.4804 23.8946 13.2929 23.7071C13.1054 23.5196 13 23.2652 13 23V15.5ZM15 16.7679V21.7321C15.1501 21.6454 15.2895 21.5389 15.4142 21.4142C15.7893 21.0391 16 20.5304 16 20V18.5C16 17.9696 15.7893 17.4609 15.4142 17.0858C15.2895 16.9611 15.1501 16.8546 15 16.7679Z" fill="black"/>
<path d="M21.1464 16.6464C21.2402 16.5527 21.3674 16.5 21.5 16.5H23C23.5523 16.5 24 16.0523 24 15.5C24 14.9477 23.5523 14.5 23 14.5H21.5C20.837 14.5 20.2011 14.7634 19.7322 15.2322C19.2634 15.7011 19 16.337 19 17V23C19 23.5523 19.4477 24 20 24C20.5523 24 21 23.5523 21 23V21H22.25C22.8023 21 23.25 20.5523 23.25 20C23.25 19.4477 22.8023 19 22.25 19H21V17C21 16.8674 21.0527 16.7402 21.1464 16.6464Z" fill="black"/>
</svg>
