<svg width="24" height="24" viewBox="0 0 24 24" fill="none" xmlns="http://www.w3.org/2000/svg">
<path d="M2.39921 8.50003H21.5992C21.7925 8.50413 21.9829 8.45208 22.1472 8.35021C22.3116 8.24833 22.4429 8.10099 22.5252 7.92603C22.6058 7.73902 22.6194 7.52991 22.5637 7.33403C22.5079 7.13816 22.3862 6.96755 22.2192 6.85103L13.0832 0.200033C12.9086 0.0766027 12.701 0.00818045 12.4872 0.00354776C12.2734 -0.00108493 12.063 0.0582833 11.8832 0.174033L1.81621 6.82503C1.64144 6.9351 1.51061 7.10276 1.44633 7.29905C1.38206 7.49534 1.38838 7.70791 1.46421 7.90003C1.54328 8.08128 1.6743 8.23502 1.84073 8.34182C2.00715 8.44862 2.2015 8.50367 2.39921 8.50003Z" fill="#0B717F"/>
<path d="M23.9157 23.223L21.9157 20.223C21.8701 20.1544 21.8083 20.0982 21.7357 20.0593C21.6631 20.0204 21.5821 20 21.4997 20H2.49974C2.4174 20 2.33634 20.0204 2.26377 20.0593C2.1912 20.0982 2.12936 20.1544 2.08374 20.223L0.0837418 23.223C0.0336368 23.2983 0.00489283 23.3858 0.000571235 23.4761C-0.00375036 23.5664 0.0165123 23.6563 0.0592011 23.736C0.10189 23.8157 0.165406 23.8824 0.242985 23.9289C0.320564 23.9754 0.4093 24 0.499742 24H23.4997C23.5902 24 23.6789 23.9754 23.7565 23.9289C23.8341 23.8824 23.8976 23.8157 23.9403 23.736C23.983 23.6563 24.0032 23.5664 23.9989 23.4761C23.9946 23.3858 23.9658 23.2983 23.9157 23.223Z" fill="#0B717F"/>
<rect x="3" y="8" width="18" height="12" fill="#0B717F"/>
<rect x="5" y="9" width="3" height="10" rx="1" fill="#42DBDA"/>
<rect x="16" y="9" width="3" height="10" rx="1" fill="#42DBDA"/>
<rect x="10.5" y="9" width="3" height="10" rx="1" fill="#42DBDA"/>
</svg>
