<svg width="24" height="24" viewBox="0 0 24 24" fill="none" xmlns="http://www.w3.org/2000/svg">
<path fill-rule="evenodd" clip-rule="evenodd" d="M15.5776 4.31447C16.3137 3.77991 17.2806 3.71654 18.0795 4.10816C18.9133 4.51688 19.4301 5.36391 19.4301 6.28258V17.7139C19.4301 18.2428 19.2505 18.7523 18.9517 19.1613L18.9414 19.1751C18.1483 20.2219 16.6534 20.466 15.5769 19.6816L9.56537 15.8561H6.99874C5.65579 15.8561 4.56982 14.7701 4.56982 13.4271V10.5693C4.56982 9.22637 5.65579 8.14041 6.99874 8.14041H9.56537L15.5776 4.31447ZM17.1992 5.904C17.0398 5.82585 16.8635 5.84898 16.7466 5.93732C16.7253 5.95346 16.7033 5.96873 16.6807 5.98311L10.3934 9.98407C10.233 10.0862 10.0468 10.1404 9.85657 10.1404H6.99874C6.76036 10.1404 6.56982 10.3309 6.56982 10.5693V13.4271C6.56982 13.6655 6.76036 13.8561 6.99874 13.8561H9.85657C10.0468 13.8561 10.233 13.9103 10.3934 14.0124L16.6807 18.0134C16.7036 18.028 16.726 18.0435 16.7476 18.0599C16.9241 18.1936 17.1905 18.1666 17.3419 17.9742C17.4016 17.8894 17.4301 17.7924 17.4301 17.7139V6.28258C17.4301 6.11528 17.3371 5.9716 17.1992 5.904Z" fill="black"/>
</svg>
