<svg width="24" height="24" viewBox="0 0 24 24" fill="none" xmlns="http://www.w3.org/2000/svg">
<g clip-path="url(#clip0_2929_283)">
<path d="M8.06641 8.33334C8.06641 7.78106 8.51412 7.33334 9.06641 7.33334H10.9995V5.39999C10.9995 4.84771 11.4472 4.39999 11.9995 4.39999C12.5518 4.39999 12.9995 4.84771 12.9995 5.39999V7.33334H14.9331C15.4854 7.33334 15.9331 7.78106 15.9331 8.33334C15.9331 8.88563 15.4854 9.33334 14.9331 9.33334H12.9995V14.2C12.9995 14.7523 12.5518 15.2 11.9995 15.2C11.4472 15.2 10.9995 14.7523 10.9995 14.2V9.33334H9.06641C8.51412 9.33334 8.06641 8.88563 8.06641 8.33334Z" fill="black"/>
<path fill-rule="evenodd" clip-rule="evenodd" d="M2.19971 3.93333C2.19971 1.75794 3.95764 0 6.13304 0H20.7997C21.352 0 21.7997 0.447715 21.7997 1V18.6C21.7997 19.1523 21.352 19.6 20.7997 19.6H20.333V22H20.7997C21.352 22 21.7997 22.4477 21.7997 23C21.7997 23.5523 21.352 24 20.7997 24H19.3389L19.333 24L19.3271 24H5.39971C3.63498 24 2.19971 22.5647 2.19971 20.8V3.93333ZM18.333 22V19.6H5.39971C4.73955 19.6 4.19971 20.1398 4.19971 20.8C4.19971 21.4601 4.73955 22 5.39971 22H18.333ZM4.19971 17.8334C4.57044 17.6829 4.97556 17.6 5.39971 17.6H19.7997V2H6.13304C5.06221 2 4.19971 2.86251 4.19971 3.93333V17.8334Z" fill="black"/>
</g>
<defs>
<clipPath id="clip0_2929_283">
<rect width="24" height="24" fill="white"/>
</clipPath>
</defs>
</svg>
