<svg width="24" height="24" viewBox="0 0 24 24" fill="none" xmlns="http://www.w3.org/2000/svg">
<rect x="13.5" y="2.5" width="8" height="6" rx="1" stroke="black" stroke-width="2"/>
<rect x="1" y="-1" width="8" height="6" rx="1" transform="matrix(1 0 0 -1 1.5 20.5)" stroke="black" stroke-width="2"/>
<rect x="13.5" y="11.5" width="8" height="10" rx="1" stroke="black" stroke-width="2"/>
<rect x="1" y="-1" width="8" height="10" rx="1" transform="matrix(1 0 0 -1 1.5 11.5)" stroke="black" stroke-width="2"/>
<path fill-rule="evenodd" clip-rule="evenodd" d="M12.5 3.5C12.5 2.39543 13.3954 1.5 14.5 1.5H20.5C21.6046 1.5 22.5 2.39543 22.5 3.5V7.5C22.5 8.60457 21.6046 9.5 20.5 9.5H14.5C13.3954 9.5 12.5 8.60457 12.5 7.5V3.5ZM14.5 3.5H20.5V7.5H14.5V3.5Z" fill="black"/>
<path fill-rule="evenodd" clip-rule="evenodd" d="M1.5 20.5C1.5 21.6046 2.39543 22.5 3.5 22.5H9.5C10.6046 22.5 11.5 21.6046 11.5 20.5V16.5C11.5 15.3954 10.6046 14.5 9.5 14.5H3.5C2.39543 14.5 1.5 15.3954 1.5 16.5V20.5ZM3.5 20.5H9.5V16.5H3.5L3.5 20.5Z" fill="black"/>
<path fill-rule="evenodd" clip-rule="evenodd" d="M14.5 10.5C13.3954 10.5 12.5 11.3954 12.5 12.5V20.5C12.5 21.6046 13.3954 22.5 14.5 22.5H20.5C21.6046 22.5 22.5 21.6046 22.5 20.5V12.5C22.5 11.3954 21.6046 10.5 20.5 10.5H14.5ZM20.5 12.5H14.5V20.5H20.5V12.5Z" fill="black"/>
<path fill-rule="evenodd" clip-rule="evenodd" d="M1.5 11.5C1.5 12.6046 2.39543 13.5 3.5 13.5H9.5C10.6046 13.5 11.5 12.6046 11.5 11.5V3.5C11.5 2.39543 10.6046 1.5 9.5 1.5H3.5C2.39543 1.5 1.5 2.39543 1.5 3.5V11.5ZM3.5 11.5H9.5V3.5H3.5L3.5 11.5Z" fill="black"/>
</svg>
