<svg width="24" height="24" viewBox="0 0 24 24" fill="none" xmlns="http://www.w3.org/2000/svg">
<path fill-rule="evenodd" clip-rule="evenodd" d="M17.1973 1C16.5344 1 15.8986 1.26329 15.4298 1.73197L11.7178 5.44298C11.7047 5.45609 11.692 5.46948 11.6798 5.48313L5.3539 11.809C5.22577 11.9371 5.13486 12.0977 5.09089 12.2735L4.02989 16.5155C3.94466 16.8562 4.04446 17.2167 4.2928 17.4651C4.54114 17.7135 4.9016 17.8134 5.24238 17.7283L9.48538 16.6683C9.66128 16.6243 9.82191 16.5334 9.95011 16.4052L16.3141 10.0412L16.3232 10.0321L19.319 7.03542L19.6726 7.38909C19.7663 7.48285 19.819 7.61006 19.819 7.74259C19.819 7.87513 19.7664 8.00223 19.6727 8.09599L16.3617 11.407C15.9712 11.7975 15.9712 12.4307 16.3617 12.8212C16.7523 13.2117 17.3854 13.2117 17.776 12.8212L21.087 9.5102C21.5556 9.04138 21.819 8.4055 21.819 7.74259C21.819 7.07969 21.5557 6.44391 21.0871 5.97509L20.5854 5.47344C20.6984 5.18537 20.758 4.8761 20.758 4.56068C20.758 3.89777 20.4947 3.262 20.026 2.79318L18.9649 1.73207C18.4961 1.2634 17.8602 1 17.1973 1ZM18.6149 4.91086C18.7066 4.81742 18.758 4.6917 18.758 4.56068C18.758 4.42815 18.7054 4.30104 18.6117 4.20729L17.5508 3.14639C17.4571 3.05272 17.3298 3 17.1973 3C17.1569 3 17.1169 3.0049 17.0783 3.01437C16.9903 3.03595 16.909 3.08125 16.8438 3.14638L13.8383 6.15114L15.6069 7.91973L18.6059 4.91984L18.6117 4.91399L18.6149 4.91086ZM12.425 7.56631L6.96393 13.0274L6.3745 15.384L8.73182 14.7951L14.1928 9.3341L12.425 7.56631Z" fill="black"/>
<path d="M3.58314 22.0236C3.46043 21.9931 3.33224 21.9922 3.20909 22.0208C3.08594 22.0495 2.97135 22.1069 2.87469 22.1884C2.66715 22.3635 1.87455 23.0588 1.67398 23.2418C1.26598 23.614 0.633479 23.585 0.261252 23.177C-0.110974 22.769 -0.0819712 22.1365 0.326032 21.7642C0.54579 21.5638 1.35792 20.8513 1.58532 20.6595C1.92361 20.3743 2.32471 20.1732 2.75571 20.0729C3.18083 19.9739 3.6231 19.9758 4.04724 20.0781C4.47922 20.1719 4.87938 20.3768 5.20809 20.6727C5.34062 20.7919 5.45966 20.9243 5.56362 21.0674L5.93249 20.8517C6.4318 20.5638 7.00754 20.4363 7.58171 20.4866C8.16694 20.5378 8.73288 20.7931 9.15761 21.1435L9.15669 21.1424C9.15669 21.1424 9.16055 21.1441 9.16826 21.1483C9.1898 21.1602 9.24294 21.1893 9.34053 21.2338C9.4898 21.3018 9.6855 21.38 9.90359 21.456C10.3587 21.6146 10.8126 21.7298 11.0872 21.7538C11.7564 21.8124 12.0584 21.7512 12.4222 21.5807C12.9223 21.3463 13.5177 21.5616 13.7521 22.0617C13.9866 22.5617 13.7712 23.1571 13.2712 23.3916C12.5093 23.7488 11.8347 23.8269 10.9128 23.7462C10.3919 23.7006 9.75409 23.5219 9.24523 23.3445C8.98134 23.2525 8.727 23.1521 8.51116 23.0537C8.32735 22.97 8.07503 22.8456 7.88965 22.6902C7.74706 22.5707 7.55413 22.4918 7.40732 22.479C7.24248 22.4645 7.07719 22.5009 6.93363 22.5831L5.5978 23.3642C5.131 23.6372 4.53176 23.4896 4.24509 23.0311C4.19528 22.9514 4.14406 22.8559 4.10432 22.7415C4.06464 22.6274 4.04971 22.5313 4.04321 22.4882L4.03766 22.4508L4.03674 22.4447L4.03605 22.4412C4.03605 22.4412 4.03303 22.4262 4.02313 22.3955C3.99386 22.3046 3.94106 22.2231 3.87009 22.1592C3.79912 22.0953 3.71251 22.0513 3.61905 22.0318C3.60703 22.0292 3.59506 22.0265 3.58314 22.0236Z" fill="black"/>
<path d="M18.1175 16.1169C18.1925 16.0418 18.2937 16 18.3988 16H19.4419C19.6326 16.0074 19.8137 16.0879 19.9476 16.2257C20.0838 16.366 20.1602 16.5546 20.1598 16.7513C20.1594 16.9479 20.0822 17.1362 19.9453 17.2759C19.8086 17.4156 19.6231 17.4957 19.4288 17.4998C18.8803 17.5112 18.4434 17.9625 18.4498 18.5111C18.4561 19.0596 18.9032 19.5007 19.4518 19.4995C19.6492 19.4991 19.839 19.5772 19.9795 19.7174C20.12 19.8576 20.1996 20.0485 20.2 20.2482C20.2004 20.4478 20.1217 20.639 19.9817 20.7799C19.8421 20.9204 19.6529 20.9993 19.4559 21H18.3988C18.2937 21 18.1925 20.9582 18.1175 20.8831C18.0425 20.8079 18 20.7055 18 20.5983C18 20.046 17.5523 19.5983 17 19.5983C16.4477 19.5983 16 20.046 16 20.5983C16 21.2346 16.2522 21.8453 16.7018 22.2958C17.1515 22.7465 17.7619 23 18.3988 23L19.4593 23C20.1884 22.9984 20.8866 22.7067 21.4004 22.1896C21.9142 21.6726 22.2016 20.9726 22.2 20.2439C22.1986 19.5942 21.9676 18.9683 21.5519 18.4753C21.9425 17.99 22.1585 17.3837 22.1598 16.7556C22.1613 16.0378 21.8825 15.3475 21.3824 14.8324C20.8822 14.3173 20.2003 14.0184 19.4823 14.0003C19.474 14.0001 19.4656 14 19.4572 14H18.3988C17.7619 14 17.1515 14.2535 16.7018 14.7042C16.2522 15.1547 16 15.7654 16 16.4017C16 16.954 16.4477 17.4017 17 17.4017C17.5523 17.4017 18 16.954 18 16.4017C18 16.2945 18.0425 16.1921 18.1175 16.1169Z" fill="black"/>
</svg>
