<svg width="24" height="24" viewBox="0 0 24 24" fill="none" xmlns="http://www.w3.org/2000/svg">
<path d="M4.6665 0.976074C4.11422 0.976074 3.6665 1.42379 3.6665 1.97607C3.6665 2.52836 4.11422 2.97607 4.6665 2.97607H19.3332C19.8855 2.97607 20.3332 2.52836 20.3332 1.97607C20.3332 1.42379 19.8855 0.976074 19.3332 0.976074H4.6665Z" fill="black"/>
<path fill-rule="evenodd" clip-rule="evenodd" d="M8.0263 3.64273C6.74264 3.64273 5.69966 4.66811 5.68415 5.95513L5.68408 5.96718L5.68404 5.97938C5.68373 6.04023 5.68292 6.19978 5.72121 6.37781C6.0006 7.95556 6.63031 9.32963 7.64675 10.4502C8.18398 11.0424 8.81663 11.55 9.53884 11.9761C8.81663 12.4022 8.18398 12.9097 7.64675 13.502C6.63031 14.6225 6.0006 15.9966 5.72121 17.5743C5.68292 17.7524 5.68373 17.9119 5.68404 17.9728L5.68408 17.985L5.68415 17.997C5.69966 19.284 6.74264 20.3094 8.0263 20.3094H15.9641C16.0994 20.3094 16.2252 20.2935 16.2899 20.2854L16.3015 20.2839C16.3123 20.2825 16.3232 20.281 16.334 20.2793C17.5906 20.0801 18.4899 18.907 18.2851 17.615L18.2831 17.6028C18.0104 16.0117 17.3785 14.63 16.3551 13.5044C15.8165 12.9122 15.1821 12.4046 14.4585 11.9779C15.1824 11.5516 15.8169 11.0436 16.3554 10.4506C17.3788 9.32384 18.0105 7.94002 18.2831 6.34939L18.2851 6.33709C18.4893 5.04899 17.5948 3.87376 16.3448 3.67314C16.3333 3.67131 16.3218 3.66967 16.3103 3.66823L16.2988 3.66678C16.2341 3.65861 16.1083 3.64273 15.973 3.64273H8.0263ZM7.68698 6.00865L7.68414 5.99307L7.68411 5.98994L7.68409 5.97474C7.68863 5.78835 7.83594 5.64273 8.0263 5.64273H15.971C15.9725 5.6428 15.9773 5.64307 15.9863 5.64392C16.0001 5.64521 16.0154 5.64699 16.0397 5.64998C16.2212 5.68543 16.3342 5.85493 16.3104 6.01976C16.0933 7.27871 15.61 8.29669 14.8749 9.10595C14.1901 9.86002 13.2479 10.4753 11.9997 10.9203C10.7522 10.4755 9.81203 9.8604 9.12809 9.10642C8.39221 8.29518 7.90765 7.27356 7.68698 6.00865ZM8.0263 18.3094H15.9621L15.9666 18.3091L15.9774 18.3082C15.9914 18.3069 16.0071 18.3051 16.0323 18.302C16.2246 18.2656 16.3337 18.0939 16.3104 17.9324C16.0934 16.6738 15.6103 15.6582 14.8753 14.8499C14.1904 14.0967 13.2478 13.481 11.9984 13.0323C10.7515 13.4771 9.8118 14.092 9.12809 14.8457C8.39221 15.657 7.90765 16.6786 7.68698 17.9435L7.68414 17.9591L7.68411 17.9622L7.68409 17.9774C7.68863 18.1638 7.83594 18.3094 8.0263 18.3094Z" fill="black"/>
<path d="M4.6665 20.9761C4.11422 20.9761 3.6665 21.4238 3.6665 21.9761C3.6665 22.5284 4.11422 22.9761 4.6665 22.9761H19.3332C19.8855 22.9761 20.3332 22.5284 20.3332 21.9761C20.3332 21.4238 19.8855 20.9761 19.3332 20.9761H4.6665Z" fill="black"/>
</svg>
