<svg width="24" height="24" viewBox="0 0 24 24" fill="none" xmlns="http://www.w3.org/2000/svg">
<path d="M12 14C11.4477 14 11 14.4477 11 15C11 15.5523 11.4477 16 12 16H18C18.5523 16 19 15.5523 19 15C19 14.4477 18.5523 14 18 14H12Z" fill="black"/>
<path fill-rule="evenodd" clip-rule="evenodd" d="M1 6.27273C1 5.07378 1.93035 4 3.2 4H20.8C22.0696 4 23 5.07379 23 6.27273V17.7273C23 18.9262 22.0696 20 20.8 20H3.2C1.93035 20 1 18.9262 1 17.7273V6.27273ZM3.07906 6.05879C3.03542 6.10507 3 6.17842 3 6.27273V8H21V6.27273C21 6.17842 20.9646 6.10507 20.9209 6.05879C20.8783 6.01352 20.8355 6 20.8 6H3.2C3.16445 6 3.12174 6.01352 3.07906 6.05879ZM3 17.7273V10H21V17.7273C21 17.8216 20.9646 17.8949 20.9209 17.9412C20.8783 17.9865 20.8355 18 20.8 18H3.2C3.16445 18 3.12174 17.9865 3.07906 17.9412C3.03542 17.8949 3 17.8216 3 17.7273Z" fill="black"/>
</svg>
