<svg width="24" height="24" viewBox="0 0 24 24" fill="none" xmlns="http://www.w3.org/2000/svg">
<path fill-rule="evenodd" clip-rule="evenodd" d="M12.3333 3C8.83229 3 6 5.83229 6 9.33333C6 9.88562 5.55228 10.3333 5 10.3333C4.44772 10.3333 4 9.88562 4 9.33333C4 4.72772 7.72772 1 12.3333 1C14.274 1 16.1429 1.67752 17.6361 2.90837C18.0622 3.25966 18.1229 3.88991 17.7716 4.31607C17.4203 4.74223 16.7901 4.80292 16.3639 4.45163C15.226 3.5136 13.806 3 12.3333 3Z" fill="black"/>
<path fill-rule="evenodd" clip-rule="evenodd" d="M18.8093 5.73357C19.3246 5.53495 19.9034 5.7917 20.102 6.30704C20.4746 7.27389 20.6667 8.29351 20.6667 9.33333V14.6667C20.6667 19.2723 16.939 23 12.3333 23C11.8238 23 11.3099 22.9492 10.8193 22.8591C10.2762 22.7593 9.91668 22.2381 10.0165 21.6949C10.1162 21.1517 10.6375 20.7922 11.1807 20.892C11.5612 20.9619 11.954 21 12.3333 21C15.8344 21 18.6667 18.1677 18.6667 14.6667V9.33333C18.6667 8.54205 18.5209 7.7661 18.2358 7.0263C18.0372 6.51096 18.2939 5.93219 18.8093 5.73357Z" fill="black"/>
<path fill-rule="evenodd" clip-rule="evenodd" d="M5 11.6756C5.55228 11.6756 6 12.1233 6 12.6756V14.6756C6 16.5629 6.84383 18.3517 8.30365 19.558C8.7294 19.9098 8.78934 20.5401 8.43754 20.9659C8.08574 21.3916 7.45542 21.4516 7.02968 21.0998C5.11172 19.5149 4 17.1615 4 14.6756V12.6756C4 12.1233 4.44772 11.6756 5 11.6756Z" fill="black"/>
<path fill-rule="evenodd" clip-rule="evenodd" d="M9.73137 5.86814C10.4851 5.29997 11.3992 5 12.3333 5C14.7256 5 16.6667 6.94105 16.6667 9.33333V14.6667C16.6667 15.219 16.219 15.6667 15.6667 15.6667C15.1144 15.6667 14.6667 15.219 14.6667 14.6667V9.33333C14.6667 8.04562 13.621 7 12.3333 7C11.8274 7 11.3371 7.16226 10.9353 7.46519C10.4943 7.79765 9.86727 7.70964 9.53481 7.26863C9.20235 6.82762 9.29036 6.2006 9.73137 5.86814Z" fill="black"/>
<path fill-rule="evenodd" clip-rule="evenodd" d="M9 8.33333C9.55228 8.33333 10 8.78105 10 9.33333V14.6667C10 15.9526 11.0439 17 12.3422 17C12.6532 17 12.9737 16.9325 13.2751 16.8043C13.7833 16.588 14.3706 16.8247 14.5868 17.3329C14.8031 17.8411 14.5664 18.4284 14.0582 18.6446C13.524 18.8719 12.9379 19 12.3422 19C9.94278 19 8 17.0607 8 14.6667V9.33333C8 8.78105 8.44772 8.33333 9 8.33333Z" fill="black"/>
<path fill-rule="evenodd" clip-rule="evenodd" d="M12.3333 9C12.8856 9 13.3333 9.44771 13.3333 10V14C13.3333 14.5523 12.8856 15 12.3333 15C11.781 15 11.3333 14.5523 11.3333 14V10C11.3333 9.44771 11.781 9 12.3333 9Z" fill="black"/>
</svg>
