<svg width="24" height="24" viewBox="0 0 24 24" fill="none" xmlns="http://www.w3.org/2000/svg">
<path fill-rule="evenodd" clip-rule="evenodd" d="M16.7354 4.32263C15.5498 3.19904 13.6379 3.22927 12.4814 4.39608L12.4697 4.4077L4.46259 12.2241L4.46084 12.2258C2.51772 14.1134 2.51091 17.1742 4.45331 19.0682C6.41107 20.9773 9.58628 20.9773 11.544 19.0682L21.3019 9.55338C21.6973 9.16781 22.3304 9.17579 22.716 9.5712C23.1015 9.96662 23.0936 10.5997 22.6981 10.9853L12.9403 20.5002C10.2058 23.1666 5.79156 23.1666 3.05703 20.5002C0.307463 17.8191 0.318105 13.4628 3.06632 10.7922L3.06728 10.7912L11.067 2.982C12.9857 1.05289 16.134 0.998265 18.1101 2.87001C20.1067 4.75271 20.1669 7.87007 18.2293 9.81409L18.2191 9.82411L10.1054 17.7358L10.093 17.7477C8.91043 18.862 7.02007 18.8401 5.8709 17.6804C4.73633 16.5346 4.74177 14.7137 5.86661 13.5647L5.88387 13.5475L13.9087 5.73972C14.3046 5.35459 14.9377 5.36328 15.3228 5.75912C15.708 6.15496 15.6993 6.78807 15.3034 7.1732L7.28874 14.971C6.92784 15.3471 6.93567 15.913 7.29152 16.2727C7.66927 16.6538 8.31659 16.6682 8.7163 16.2969L16.8174 8.39753C17.9495 7.25663 17.9197 5.43874 16.7374 4.32455L16.7354 4.32263Z" fill="black"/>
</svg>
