<svg width="24" height="24" viewBox="0 0 24 24" fill="none" xmlns="http://www.w3.org/2000/svg">
<path fill-rule="evenodd" clip-rule="evenodd" d="M12 1C11.377 1 10.8548 1.1784 10.5004 1.34457C10.3206 1.42887 10.1754 1.51399 10.0715 1.5808C10.0193 1.61436 9.97684 1.64378 9.94482 1.66681C9.9288 1.67834 9.91533 1.68832 9.90453 1.69648L9.90104 1.69915L1.82277 7.6081C1.78268 7.63742 1.74483 7.6697 1.70953 7.70465C1.27439 8.13554 1 8.73541 1 9.39999V20.6C1 21.9444 2.10645 23 3.42857 23H20.5714C21.8935 23 23 21.9444 23 20.6V9.39999C23 8.98945 22.8258 8.58757 22.7418 8.40451C22.6882 8.28762 22.6355 8.18639 22.5964 8.11453C22.5766 8.07818 22.5597 8.04827 22.5472 8.02642L22.5316 7.99962L22.5265 7.99096L22.5247 7.98787L22.5239 7.98664C22.5239 7.98655 22.5233 7.98567 22.129 8.22216C22.129 8.22215 22.129 8.22216 22.129 8.22216L22.5233 7.98562C22.455 7.87181 22.3648 7.77272 22.2579 7.69414L14.0998 1.69983L14.0955 1.69648C14.0847 1.68832 14.0712 1.67834 14.0552 1.66681C14.0232 1.64378 13.9807 1.61436 13.9285 1.5808C13.8246 1.51399 13.6794 1.42887 13.4996 1.34457C13.1452 1.1784 12.623 1 12 1ZM20.2227 8.68062L12.9079 3.30585L12.8892 3.29177L12.887 3.29022C12.8811 3.28591 12.8673 3.27626 12.8466 3.26295C12.8047 3.23601 12.7375 3.19613 12.6506 3.15543C12.4718 3.0716 12.2441 3 12 3C11.7559 3 11.5282 3.0716 11.3494 3.15543C11.2625 3.19613 11.1953 3.23601 11.1534 3.26295C11.1327 3.27626 11.1189 3.28591 11.113 3.29022L11.1108 3.29177C11.1041 3.29698 11.0973 3.30209 11.0904 3.30712L3.76055 8.66862L10.6933 13.5924C11.0597 13.8526 11.5191 14 12.0001 14C12.481 14 12.9404 13.8527 13.3068 13.5924L20.2227 8.68062ZM3 10.5815V20.6C3 20.802 3.17274 21 3.42857 21H20.5714C20.8273 21 21 20.802 21 20.6V10.5817L14.465 15.2229C13.75 15.7308 12.8834 16 12.0001 16C11.1168 16 10.2502 15.7308 9.53525 15.223L3 10.5815Z" fill="black"/>
</svg>
