<svg width="24" height="24" viewBox="0 0 24 24" fill="none" xmlns="http://www.w3.org/2000/svg">
<path fill-rule="evenodd" clip-rule="evenodd" d="M11.9717 1.00033C11.9885 0.999899 12.0053 0.999889 12.0221 1.0003C12.7348 1.01787 13.4363 1.18206 14.0827 1.48264C14.7292 1.78323 15.3068 2.21376 15.7796 2.74739C16.2524 3.28102 16.6103 3.90632 16.8309 4.58432C17.0413 5.23104 17.1226 5.91249 17.0704 6.58994C17.1561 7.59893 17.0341 8.61515 16.7116 9.57573C16.3888 10.537 15.8724 11.4214 15.1944 12.1745C15.181 12.2137 15.1638 12.2754 15.1473 12.3605C15.1087 12.5591 15.0871 12.8159 15.0967 13.0735C15.1067 13.3384 15.1476 13.5459 15.1965 13.6717C15.1986 13.6771 15.2006 13.6821 15.2025 13.6868C15.4246 13.7689 15.645 13.8499 15.863 13.93C17.1513 14.4035 18.3545 14.8457 19.3253 15.2923C19.9119 15.5622 20.4545 15.8515 20.9048 16.1753C21.3497 16.4953 21.7661 16.8926 22.0199 17.4007C22.0287 17.4185 22.0371 17.4366 22.0449 17.4548C22.6571 18.8888 22.9816 20.4291 22.9999 21.9883C23.0031 22.2555 22.8991 22.5129 22.7112 22.7029C22.5234 22.893 22.2673 23 22 23H2C1.73275 23 1.47662 22.893 1.28876 22.7029C1.10089 22.5129 0.996932 22.2555 1.00007 21.9883C1.01837 20.4291 1.34286 18.8888 1.9551 17.4548C1.9629 17.4366 1.97125 17.4185 1.98013 17.4007C2.23387 16.8926 2.6503 16.4953 3.0952 16.1753C3.54546 15.8515 4.08806 15.5622 4.67474 15.2923C5.64549 14.8457 6.84865 14.4035 8.13699 13.93C8.35495 13.8499 8.57535 13.7689 8.79747 13.6868C8.79941 13.6821 8.80143 13.6771 8.80353 13.6717C8.85237 13.5459 8.8933 13.3384 8.90326 13.0735C8.91295 12.8159 8.89127 12.5591 8.85267 12.3605C8.83615 12.2754 8.81896 12.2137 8.80557 12.1745C8.12765 11.4214 7.61117 10.537 7.28842 9.57573C6.96589 8.61516 6.84391 7.59895 6.9296 6.58996C6.87746 5.91302 6.95853 5.23207 7.1686 4.58577C7.38883 3.90819 7.74612 3.28318 8.21826 2.74964C8.6904 2.2161 9.26728 1.78544 9.91302 1.48449C10.5588 1.18354 11.2595 1.01873 11.9717 1.00033ZM8.79343 12.1423C8.7912 12.138 8.79017 12.1356 8.79021 12.1355C8.79024 12.1353 8.79137 12.1375 8.79343 12.1423ZM8.76978 13.742C8.76971 13.7418 8.77115 13.7394 8.77434 13.7353C8.77146 13.7402 8.76986 13.7422 8.76978 13.742ZM15.2257 13.7353C15.2289 13.7394 15.2303 13.7418 15.2302 13.742C15.2301 13.7422 15.2285 13.7402 15.2257 13.7353ZM15.2098 12.1355C15.2098 12.1356 15.2088 12.138 15.2066 12.1423C15.2086 12.1375 15.2098 12.1353 15.2098 12.1355ZM11.9981 3.00042C11.569 3.0149 11.1472 3.11583 10.7579 3.29728C10.361 3.48228 10.0063 3.74702 9.71603 4.07504C9.42576 4.40306 9.20607 4.78735 9.07065 5.20399C8.93523 5.62062 8.88699 6.06068 8.92893 6.49678C8.9351 6.56102 8.93505 6.6257 8.92876 6.68993C8.85442 7.44931 8.94154 8.21583 9.1844 8.93913C9.42726 9.66243 9.82035 10.3261 10.3378 10.8867L10.3433 10.8926L10.3433 10.8926C10.5134 11.0799 10.6117 11.2954 10.67 11.4494C10.734 11.6189 10.7813 11.8007 10.8159 11.979C10.8852 12.3352 10.917 12.7455 10.9018 13.1487C10.887 13.5445 10.8247 13.9916 10.668 14.3953C10.5178 14.7823 10.2124 15.295 9.61003 15.5187L9.60914 15.519C9.3332 15.6212 9.06427 15.7201 8.8027 15.8163C7.51345 16.2904 6.40268 16.6989 5.51059 17.1093C4.9788 17.3539 4.56554 17.5814 4.26302 17.799C3.97389 18.007 3.83875 18.1685 3.77993 18.2744C3.41181 19.1456 3.17108 20.0636 3.0637 21H20.9363C20.8289 20.0636 20.5882 19.1456 20.2201 18.2744C20.1613 18.1685 20.0261 18.007 19.737 17.799C19.4345 17.5814 19.0212 17.3539 18.4894 17.1093C17.5973 16.6989 16.4866 16.2904 15.1973 15.8163C14.9357 15.7201 14.6668 15.6212 14.3909 15.519L14.39 15.5187C13.7876 15.295 13.4822 14.7823 13.332 14.3953C13.1753 13.9916 13.113 13.5445 13.0981 13.1487C13.083 12.7455 13.1148 12.3352 13.1841 11.979C13.2187 11.8007 13.266 11.6189 13.33 11.4494C13.3883 11.2954 13.4866 11.0799 13.6567 10.8926L13.6621 10.8866L13.6622 10.8867C14.1797 10.3261 14.5727 9.66243 14.8156 8.93913C15.0585 8.21583 15.1456 7.44931 15.0712 6.68993C15.065 6.62571 15.0649 6.56104 15.0711 6.49681C15.113 6.0604 15.0647 5.62003 14.929 5.20314C14.7934 4.78625 14.5733 4.40179 14.2827 4.07371C13.992 3.74563 13.6369 3.48096 13.2395 3.29619C12.8497 3.11496 12.4275 3.0144 11.9981 3.00042Z" fill="black"/>
</svg>
