<svg width="24" height="24" viewBox="0 0 24 24" fill="none" xmlns="http://www.w3.org/2000/svg">
<path d="M5.8063 2.99955C6.26828 2.98654 14.5668 2.99866 14.8137 2.99993C14.9106 3.00043 15.0069 3.02105 15.0972 3.06122C15.1874 3.10142 15.2704 3.1607 15.3402 3.23668C15.4099 3.31243 15.9586 3.90256 16.5955 4.58738L16.9796 5.00042C17.7695 5.84989 18.5767 6.71815 18.7425 6.8983C18.9061 7.07621 19.0003 7.31585 18.9995 7.56869C18.9987 7.82181 18.9987 8.95318 18.9989 10.0179L18.9995 12.0876C18.9997 12.6399 19.4476 13.0874 19.9999 13.0872C20.5522 13.087 20.9997 12.6384 20.9995 12.0861L20.9989 10.0175C20.9987 8.95008 20.9987 7.82379 20.9995 7.5751C21.0019 6.8243 20.7231 6.0972 20.2143 5.54419C20.0438 5.35887 19.2308 4.48434 18.4442 3.63846L18.0632 3.22872C17.4234 2.54072 16.8781 1.95439 16.8127 1.88321C16.5595 1.60776 16.2529 1.38652 15.9107 1.23418C15.5686 1.08181 15.1988 1.00188 14.824 0.999956C14.5994 0.998803 6.25479 0.986131 5.75002 1.00034C4.995 1.02159 4.28394 1.34791 3.77071 1.90014C3.25819 2.45159 2.98372 3.18363 3.00075 3.93531C3.0116 4.41467 3.0116 19.5852 3.00075 20.0646C2.98372 20.8163 3.25819 21.5483 3.77071 22.0998C4.14669 22.5043 4.77943 22.5275 5.18398 22.1515C5.58852 21.7755 5.61168 21.1427 5.2357 20.7382C5.0819 20.5727 4.99486 20.3471 5.00023 20.1099C5.01177 19.6003 5.01177 4.39957 5.00023 3.89003C4.99486 3.65282 5.08191 3.42716 5.2357 3.26168C5.38878 3.09697 5.59456 3.00551 5.8063 2.99955Z" fill="black"/>
<path fill-rule="evenodd" clip-rule="evenodd" d="M8 14.5C7.44772 14.5 7 14.9477 7 15.5V23C7 23.2652 7.10536 23.5196 7.29289 23.7071C7.48043 23.8946 7.73478 24 8 24C9.06087 24 10.0783 23.5786 10.8284 22.8284C11.5786 22.0783 12 21.0609 12 20V18.5C12 17.4391 11.5786 16.4217 10.8284 15.6716C10.0783 14.9214 9.06087 14.5 8 14.5ZM9 21.7321V16.7679C9.1501 16.8546 9.28954 16.9611 9.41421 17.0858C9.78929 17.4609 10 17.9696 10 18.5V20C10 20.5304 9.78929 21.0391 9.41421 21.4142C9.28954 21.5389 9.1501 21.6454 9 21.7321Z" fill="black"/>
<path fill-rule="evenodd" clip-rule="evenodd" d="M15.5 14.5C14.837 14.5 14.2011 14.7634 13.7322 15.2322C13.2634 15.7011 13 16.337 13 17V21.5C13 22.163 13.2634 22.7989 13.7322 23.2678C14.2011 23.7366 14.837 24 15.5 24C16.163 24 16.7989 23.7366 17.2678 23.2678C17.7366 22.7989 18 22.163 18 21.5V17C18 16.337 17.7366 15.7011 17.2678 15.2322C16.7989 14.7634 16.163 14.5 15.5 14.5ZM15.1464 16.6464C15.2402 16.5527 15.3674 16.5 15.5 16.5C15.6326 16.5 15.7598 16.5527 15.8536 16.6464C15.9473 16.7402 16 16.8674 16 17V21.5C16 21.6326 15.9473 21.7598 15.8536 21.8536C15.7598 21.9473 15.6326 22 15.5 22C15.3674 22 15.2402 21.9473 15.1464 21.8536C15.0527 21.7598 15 21.6326 15 21.5V17C15 16.8674 15.0527 16.7402 15.1464 16.6464Z" fill="black"/>
<path d="M20.1716 15.6716C20.9217 14.9214 21.9391 14.5 23 14.5C23.5523 14.5 24 14.9477 24 15.5C24 16.0523 23.5523 16.5 23 16.5C22.4696 16.5 21.9609 16.7107 21.5858 17.0858C21.2107 17.4609 21 17.9696 21 18.5V20C21 20.5304 21.2107 21.0391 21.5858 21.4142C21.9609 21.7893 22.4696 22 23 22C23.5523 22 24 22.4477 24 23C24 23.5523 23.5523 24 23 24C21.9391 24 20.9217 23.5786 20.1716 22.8284C19.4214 22.0783 19 21.0609 19 20V18.5C19 17.4391 19.4214 16.4217 20.1716 15.6716Z" fill="black"/>
</svg>
