<svg width="24" height="24" viewBox="0 0 24 24" fill="none" xmlns="http://www.w3.org/2000/svg">
<path d="M7.66667 5.33333C7.66667 4.04562 8.71229 3 10 3C11.2877 3 12.3333 4.04562 12.3333 5.33333C12.3333 5.88562 12.781 6.33333 13.3333 6.33333H16.6667C16.8522 6.33333 17 6.48117 17 6.66667V8.66667C17 9.21895 17.4477 9.66667 18 9.66667C18.5523 9.66667 19 9.21895 19 8.66667V6.66667C19 5.3766 17.9567 4.33333 16.6667 4.33333H14.2173C13.7655 2.42275 12.0481 1 10 1C7.95187 1 6.23448 2.42275 5.78274 4.33333H3.33333C2.04327 4.33333 1 5.3766 1 6.66667V20.6667C1 21.9567 2.04327 23 3.33333 23H10C10.5523 23 11 22.5523 11 22C11 21.4477 10.5523 21 10 21H3.33333C3.14784 21 3 20.8522 3 20.6667V6.66667C3 6.48117 3.14784 6.33333 3.33333 6.33333H6.66667C7.21895 6.33333 7.66667 5.88562 7.66667 5.33333Z" fill="black"/>
<path d="M6 9.66666C5.44772 9.66666 5 10.1144 5 10.6667C5 11.2189 5.44772 11.6667 6 11.6667H10.6667C11.219 11.6667 11.6667 11.2189 11.6667 10.6667C11.6667 10.1144 11.219 9.66666 10.6667 9.66666H6Z" fill="black"/>
<path d="M6 13C5.44772 13 5 13.4477 5 14C5 14.5523 5.44772 15 6 15H8.66667C9.21895 15 9.66667 14.5523 9.66667 14C9.66667 13.4477 9.21895 13 8.66667 13H6Z" fill="black"/>
<path d="M5 17.3333C5 16.781 5.44772 16.3333 6 16.3333H8.66667C9.21895 16.3333 9.66667 16.781 9.66667 17.3333C9.66667 17.8856 9.21895 18.3333 8.66667 18.3333H6C5.44772 18.3333 5 17.8856 5 17.3333Z" fill="black"/>
<path d="M10 4C10.5526 4 11 4.44737 11 5C11 5.55263 10.5526 6 10 6C9.44737 6 9 5.55263 9 5C9 4.44737 9.44737 4 10 4Z" fill="black"/>
<path d="M16.667 13C17.2193 13 17.667 13.4477 17.667 14V15.6667H19.3333C19.8856 15.6667 20.3333 16.1144 20.3333 16.6667C20.3333 17.219 19.8856 17.6667 19.3333 17.6667H17.667V19.3333C17.667 19.8856 17.2193 20.3333 16.667 20.3333C16.1147 20.3333 15.667 19.8856 15.667 19.3333V17.6667H14C13.4477 17.6667 13 17.219 13 16.6667C13 16.1144 13.4477 15.6667 14 15.6667H15.667V14C15.667 13.4477 16.1147 13 16.667 13Z" fill="black"/>
<path fill-rule="evenodd" clip-rule="evenodd" d="M16.6668 10.3333C13.169 10.3333 10.3335 13.1689 10.3335 16.6667C10.3335 20.1645 13.169 23 16.6668 23C20.1646 23 23.0002 20.1645 23.0002 16.6667C23.0002 13.1689 20.1646 10.3333 16.6668 10.3333ZM12.3335 16.6667C12.3335 14.2734 14.2736 12.3333 16.6668 12.3333C19.0601 12.3333 21.0002 14.2734 21.0002 16.6667C21.0002 19.0599 19.0601 21 16.6668 21C14.2736 21 12.3335 19.0599 12.3335 16.6667Z" fill="black"/>
</svg>
