<svg width="24" height="24" viewBox="0 0 24 24" fill="none" xmlns="http://www.w3.org/2000/svg">
<path d="M16.8911 2C17.4817 2 18.0458 2.1473 18.5164 2.40733C18.9999 2.6744 19.6082 2.499 19.8753 2.01558C20.1424 1.53217 19.967 0.923777 19.4836 0.656712C18.7065 0.22745 17.8081 0 16.8911 0C15.6396 0 14.414 0.424529 13.4891 1.21687C12.5594 2.01331 12 3.12973 12 4.33333V4.58579L11.7071 4.29289C11.3166 3.90237 10.6834 3.90237 10.2929 4.29289C9.90237 4.68342 9.90237 5.31658 10.2929 5.70711L12.2929 7.70711C12.3888 7.80298 12.4993 7.87532 12.6172 7.92412C12.7351 7.97301 12.8644 8 13 8C13.1356 8 13.2649 7.97301 13.3828 7.92412C13.5007 7.87532 13.6112 7.80298 13.7071 7.70711L15.7071 5.70711C16.0976 5.31658 16.0976 4.68342 15.7071 4.29289C15.3166 3.90237 14.6834 3.90237 14.2929 4.29289L14 4.58579V4.33333C14 3.76883 14.2605 3.18956 14.7903 2.73575C15.3248 2.27785 16.0786 2 16.8911 2Z" fill="black"/>
<path d="M0.855301 3.64518C1.36838 3.21741 2.03112 3 2.69231 3H8.06667C8.61895 3 9.06667 3.44772 9.06667 4C9.06667 4.55228 8.61895 5 8.06667 5H2.69231C2.45583 5 2.25769 5.07989 2.13603 5.18132C2.01968 5.27833 2 5.36672 2 5.41093V18.5891C2 18.6333 2.01968 18.7217 2.13603 18.8187C2.25769 18.9201 2.45584 19 2.69231 19H11.4889C12.0412 19 12.4889 19.4477 12.4889 20C12.4889 20.5523 12.0412 21 11.4889 21H2.69231C2.03112 21 1.36837 20.7826 0.855301 20.3548C0.336915 19.9226 0 19.2933 0 18.5891V5.41093C0 4.70674 0.336915 4.07738 0.855301 3.64518Z" fill="black"/>
<path d="M20.3077 4C20.3077 3.44772 20.7554 3 21.3077 3C21.9689 3 22.6316 3.21741 23.1447 3.64518C23.6631 4.07737 24 4.70674 24 5.41093V13.9412C24 14.4935 23.5523 14.9412 23 14.9412C22.4477 14.9412 22 14.4935 22 13.9412V5.41093C22 5.36672 21.9803 5.27833 21.864 5.18132C21.7423 5.07989 21.5442 5 21.3077 5C20.7554 5 20.3077 4.55228 20.3077 4Z" fill="black"/>
<path d="M15 11.5C14.4477 11.5 14 11.0523 14 10.5C14 9.94771 14.4477 9.5 15 9.5H18C18.5523 9.5 19 9.94772 19 10.5C19 11.0523 18.5523 11.5 18 11.5H15Z" fill="black"/>
<path d="M19.5 13H15C14.4477 13 14 13.4477 14 14C14 14.5523 14.4477 15 15 15H19.5C20.0523 15 20.5 14.5523 20.5 14C20.5 13.4477 20.0523 13 19.5 13Z" fill="black"/>
<path d="M17.1089 22C16.5183 22 15.9542 21.8527 15.4836 21.5927C15.0001 21.3256 14.3918 21.501 14.1247 21.9844C13.8576 22.4678 14.033 23.0762 14.5164 23.3433C15.2935 23.7726 16.1919 24 17.1089 24C18.3604 24 19.586 23.5755 20.5109 22.7831C21.4406 21.9867 22 20.8703 22 19.6667V19.4142L22.2929 19.7071C22.6834 20.0976 23.3166 20.0976 23.7071 19.7071C24.0976 19.3166 24.0976 18.6834 23.7071 18.2929L21.7071 16.2929C21.6112 16.197 21.5007 16.1247 21.3828 16.0759C21.2657 16.0273 21.1375 16.0004 21.003 16L21 16L20.997 16C20.8625 16.0004 20.7343 16.0273 20.6172 16.0759C20.4993 16.1247 20.3888 16.197 20.2929 16.2929L18.2929 18.2929C17.9024 18.6834 17.9024 19.3166 18.2929 19.7071C18.6834 20.0976 19.3166 20.0976 19.7071 19.7071L20 19.4142V19.6667C20 20.2312 19.7395 20.8104 19.2097 21.2643C18.6752 21.7222 17.9214 22 17.1089 22Z" fill="black"/>
<path fill-rule="evenodd" clip-rule="evenodd" d="M4.5 10C4.5 8.34315 5.84315 7 7.5 7C9.15685 7 10.5 8.34315 10.5 10C10.5 10.8182 10.1725 11.5598 9.64142 12.101C10.0423 12.3417 10.4089 12.649 10.7275 13.0131C11.5541 13.9579 12 15.2138 12 16.5C12 16.7652 11.8946 17.0196 11.7071 17.2071C11.5196 17.3946 11.2652 17.5 11 17.5H4C3.73478 17.5 3.48043 17.3946 3.29289 17.2071C3.10536 17.0196 3 16.7652 3 16.5C3 15.2138 3.44586 13.9579 4.27255 13.0131C4.59107 12.649 4.95768 12.3417 5.35858 12.101C4.82751 11.5598 4.5 10.8182 4.5 10ZM7.5 9C6.94772 9 6.5 9.44772 6.5 10C6.5 10.5523 6.94772 11 7.5 11C8.05228 11 8.5 10.5523 8.5 10C8.5 9.44772 8.05228 9 7.5 9ZM5.7777 14.3301C6.26004 13.7788 6.88333 13.5 7.5 13.5C8.11667 13.5 8.73996 13.7788 9.2223 14.3301C9.50645 14.6548 9.72415 15.0559 9.85599 15.5H5.14401C5.27585 15.0559 5.49355 14.6548 5.7777 14.3301Z" fill="black"/>
</svg>
