<svg width="24" height="24" viewBox="0 0 24 24" fill="none" xmlns="http://www.w3.org/2000/svg">
<g clip-path="url(#clip0_2929_338)">
<path d="M17.9707 15.6379C17.9707 15.0852 18.4182 14.6377 18.971 14.6377C19.5238 14.6377 19.9713 15.0852 19.9713 15.6379C19.9713 16.1907 19.5238 16.6382 18.971 16.6382C18.4182 16.6382 17.9707 16.1907 17.9707 15.6379Z" fill="black"/>
<path d="M17.5042 10.9701C16.9509 10.9701 16.5029 11.418 16.5029 11.9713C16.5029 12.5247 16.9509 12.9726 17.5042 12.9726C18.0575 12.9726 18.5055 12.5247 18.5055 11.9713C18.5055 11.418 18.0575 10.9701 17.5042 10.9701Z" fill="black"/>
<path d="M4.04004 15.638C4.04004 15.086 4.48686 14.6392 5.03881 14.6392C5.59076 14.6392 6.03758 15.086 6.03758 15.638C6.03758 16.1899 5.59076 16.6367 5.03881 16.6367C4.48686 16.6367 4.04004 16.1899 4.04004 15.638Z" fill="black"/>
<path d="M6.50098 10.9679C5.94835 10.9679 5.50098 11.4153 5.50098 11.9679C5.50098 12.5206 5.94835 12.9679 6.50098 12.9679C7.05361 12.9679 7.50098 12.5206 7.50098 11.9679C7.50098 11.4153 7.05361 10.9679 6.50098 10.9679Z" fill="black"/>
<path d="M8.4375 9.03815C8.4375 8.48499 8.88529 8.0372 9.43845 8.0372C9.9916 8.0372 10.4394 8.48499 10.4394 9.03815C10.4394 9.5913 9.9916 10.0391 9.43845 10.0391C8.88529 10.0391 8.4375 9.5913 8.4375 9.03815Z" fill="black"/>
<path fill-rule="evenodd" clip-rule="evenodd" d="M11.992 4.00006C5.32169 4.05334 -0.0507271 9.49743 0.000361365 16.1698V18.1996C0.000361365 19.5634 1.10317 20.6662 2.46698 20.6662H21.533C22.8968 20.6662 23.9996 19.5634 23.9996 18.1996V16.17C24.0508 9.49753 18.6784 4.05334 12.008 4.00006H11.992ZM2.00033 16.1579C1.95588 10.5934 6.43401 6.04883 12 6.00006C17.566 6.04883 22.0441 10.5934 21.9997 16.1579L21.9996 16.1659V18.1996C21.9996 18.4588 21.7923 18.6662 21.533 18.6662H15.924C15.8184 17.0814 14.7778 15.7562 13.3477 15.2359L15.5074 9.38215C15.6986 8.864 15.4335 8.28899 14.9154 8.09782C14.3973 7.90665 13.8222 8.17172 13.6311 8.68986L11.2788 15.0653C9.53385 15.3873 8.19584 16.8578 8.07527 18.6662H2.46698C2.20774 18.6662 2.00036 18.4588 2.00036 18.1996V16.1659L2.00033 16.1579ZM12.0193 16.9998C12.0063 17 11.9933 17 11.9803 16.9998C11.0088 17.0092 10.2129 17.7287 10.0845 18.6662H13.9148C13.7864 17.7288 12.9906 17.0093 12.0193 16.9998Z" fill="black"/>
</g>
<defs>
<clipPath id="clip0_2929_338">
<rect width="24" height="24" fill="white"/>
</clipPath>
</defs>
</svg>
