<svg width="24" height="24" viewBox="0 0 24 24" fill="none" xmlns="http://www.w3.org/2000/svg">
<path d="M16.0006 3H18.8044L15.2264 8.34602C15.1877 8.40382 15.1552 8.46551 15.1293 8.53007C15.0198 8.8033 14.9789 9.09922 15.0103 9.39191C15.0416 9.6846 15.1443 9.96514 15.3093 10.2089C15.4743 10.4527 15.6966 10.6524 15.9567 10.7903C16.2166 10.9281 16.5063 11.0001 16.8004 11H19.9998C20.552 11 20.9998 10.5523 20.9998 10C20.9998 9.44771 20.552 9 19.9998 9H17.1953L20.7739 3.65309C20.8128 3.59496 20.8455 3.5329 20.8715 3.46793C20.9806 3.1948 21.0212 2.89909 20.9896 2.60668C20.958 2.31426 20.8552 2.03403 20.6903 1.7905C20.5254 1.54697 20.3032 1.34757 20.0434 1.20975C19.7836 1.07198 19.494 0.999961 19.1999 1H16.0006C15.4483 1 15.0006 1.44772 15.0006 2C15.0006 2.55228 15.4483 3 16.0006 3Z" fill="black"/>
<path d="M8.5 2C8.5 1.44772 8.05228 1 7.5 1C6.94772 1 6.5 1.44772 6.5 2V19.5858L3.70711 16.7929C3.31658 16.4024 2.68342 16.4024 2.29289 16.7929C1.90237 17.1834 1.90237 17.8166 2.29289 18.2071L6.79289 22.7071C7.18342 23.0976 7.81658 23.0976 8.20711 22.7071L12.7071 18.2071C13.0976 17.8166 13.0976 17.1834 12.7071 16.7929C12.3166 16.4024 11.6834 16.4024 11.2929 16.7929L8.5 19.5858V2Z" fill="black"/>
<path fill-rule="evenodd" clip-rule="evenodd" d="M15.8787 13.8787C16.4413 13.3161 17.2044 13 18 13C18.7957 13 19.5587 13.3161 20.1213 13.8787C20.6839 14.4413 21 15.2044 21 16V21.9982C21 22.5505 20.5523 22.9982 20 22.9982C19.4477 22.9982 19 22.5505 19 21.9982V20H17V22C17 22.5523 16.5523 23 16 23C15.4477 23 15 22.5523 15 22V16C15 15.2044 15.3161 14.4413 15.8787 13.8787ZM17 18H19V16C19 15.7348 18.8946 15.4804 18.7071 15.2929C18.5196 15.1054 18.2652 15 18 15C17.7348 15 17.4804 15.1054 17.2929 15.2929C17.1054 15.4804 17 15.7348 17 16V18Z" fill="black"/>
</svg>
