<svg width="24" height="24" viewBox="0 0 24 24" fill="none" xmlns="http://www.w3.org/2000/svg">
<path fill-rule="evenodd" clip-rule="evenodd" d="M12 7C9.23858 7 7 9.23858 7 12C7 14.7614 9.23858 17 12 17C14.7614 17 17 14.7614 17 12C17 9.23858 14.7614 7 12 7ZM9 12C9 10.3431 10.3431 9 12 9C13.6569 9 15 10.3431 15 12C15 13.6569 13.6569 15 12 15C10.3431 15 9 13.6569 9 12Z" fill="black"/>
<path fill-rule="evenodd" clip-rule="evenodd" d="M16.476 1.20891C15.953 0.992178 15.3758 0.942625 14.8235 1.06706C14.2713 1.1915 13.7711 1.48382 13.3916 1.90388C13.2832 2.02389 13.0998 2.22456 12.9283 2.41233C12.7684 2.58735 12.6185 2.75142 12.5493 2.82821C12.4799 2.9053 12.395 2.96692 12.3003 3.0091C12.2055 3.05127 12.103 3.07306 11.9993 3.07306C11.8956 3.07306 11.7931 3.05127 11.6983 3.0091C11.6036 2.96692 11.5187 2.9053 11.4493 2.82821C11.2849 2.64574 10.8524 2.16777 10.6101 1.90142C10.2304 1.48389 9.73106 1.1937 9.1803 1.07046C8.62953 0.947228 8.05415 0.996957 7.5327 1.21286C7.01124 1.42876 6.56911 1.80031 6.26663 2.27679C5.96415 2.75326 5.81603 3.31145 5.84248 3.8752L5.85218 4.08262C5.86901 4.44303 5.89141 4.92274 5.90239 5.1279C5.90795 5.23177 5.89161 5.33564 5.85442 5.43278C5.81723 5.52991 5.76003 5.61812 5.68655 5.69168C5.61307 5.76524 5.52495 5.82252 5.42791 5.85979C5.33088 5.89706 5.2271 5.9135 5.1233 5.90804C4.87916 5.8952 4.23433 5.8619 3.87353 5.84465C3.30944 5.81769 2.7508 5.96562 2.27397 6.2682C1.79715 6.57079 1.42542 7.01325 1.20957 7.5351C0.993727 8.05694 0.944291 8.63271 1.06801 9.18371C1.19174 9.73471 1.48259 10.2341 1.90084 10.6135L2.27472 10.9531C2.49233 11.1509 2.7168 11.3548 2.82816 11.4555C2.90529 11.5251 2.96696 11.6102 3.00917 11.7053C3.05138 11.8003 3.07319 11.9031 3.07319 12.0071C3.07319 12.1111 3.05138 12.2139 3.00917 12.3089C3.00119 12.3269 2.98869 12.3504 2.95119 12.3988C2.93046 12.4257 2.90459 12.457 2.86744 12.5005L2.82444 12.5506C2.79589 12.5838 2.7618 12.6234 2.73611 12.6537C2.63079 12.7778 2.51429 12.885 2.37673 12.9998C2.34464 13.0265 2.30266 13.0606 2.25557 13.0987C2.145 13.1883 2.00621 13.3008 1.90164 13.3955C1.48203 13.7753 1.19029 14.2758 1.06644 14.828C0.942594 15.3803 0.992705 15.9574 1.2099 16.4801C1.4271 17.0028 1.80074 17.4454 2.27956 17.7472C2.75838 18.0491 3.31889 18.1953 3.88413 18.1658C4.10315 18.1543 4.42321 18.1382 4.69658 18.1245L5.1284 18.1026C5.23199 18.0973 5.33556 18.1138 5.43239 18.151C5.52923 18.1883 5.61718 18.2454 5.69055 18.3188C5.76393 18.3922 5.82109 18.4802 5.85833 18.5771C5.89557 18.6739 5.91206 18.7776 5.90673 18.8813L5.89232 19.1552C5.87649 19.4539 5.85445 19.8696 5.84243 20.132C5.8166 20.6956 5.96517 21.2533 6.26788 21.7293C6.57059 22.2054 7.01274 22.5764 7.53405 22.792C8.05537 23.0075 8.63048 23.057 9.18095 22.9337C9.73143 22.8104 10.2305 22.5203 10.6101 22.103C10.851 21.8381 11.2882 21.3569 11.453 21.1744C11.5226 21.0973 11.6075 21.0357 11.7024 20.9935C11.7973 20.9513 11.8999 20.9295 12.0037 20.9295C12.1075 20.9295 12.2102 20.9513 12.3051 20.9935C12.3999 21.0357 12.4849 21.0973 12.5545 21.1744L12.7123 21.3495C12.9142 21.5737 13.2107 21.9029 13.396 22.1053C13.7762 22.5207 14.275 22.8089 14.8247 22.9309C15.3744 23.0529 15.9484 23.0026 16.4685 22.787C16.9887 22.5714 17.4299 22.2008 17.7321 21.7258C18.0344 21.2507 18.1831 20.6941 18.158 20.1315C18.1456 19.8528 18.1219 19.4018 18.1061 19.1006L18.0945 18.8795C18.0892 18.7758 18.1057 18.6722 18.1429 18.5753C18.1802 18.4784 18.2373 18.3904 18.3107 18.317C18.3841 18.2436 18.472 18.1865 18.5689 18.1492C18.6657 18.112 18.7693 18.0955 18.8729 18.1009L20.1184 18.164C20.6838 18.1928 21.2442 18.0459 21.7227 17.7435C22.2013 17.4411 22.5745 16.9979 22.7911 16.475C23.0078 15.952 23.0574 15.3747 22.933 14.8225C22.8086 14.2702 22.5163 13.77 22.0963 13.3905C21.9459 13.2545 21.7211 13.0518 21.5236 12.8737L21.1695 12.5543C21.0924 12.4846 21.0307 12.3995 20.9885 12.3045C20.9463 12.2095 20.9245 12.1066 20.9245 12.0026C20.9245 11.8987 20.9463 11.7958 20.9885 11.7008C21.0307 11.6058 21.0924 11.5207 21.1695 11.451L21.5116 11.1424C21.7116 10.9621 21.942 10.7543 22.0964 10.6148C22.5161 10.2354 22.8081 9.73559 22.9326 9.18377C23.0571 8.63196 23.0079 8.05514 22.7918 7.53238C22.5757 7.00961 22.2032 6.56646 21.7253 6.26367C21.2475 5.96089 20.6877 5.81331 20.1227 5.84117C19.9273 5.8508 19.6659 5.8642 19.4247 5.87657C19.2034 5.88791 18.9991 5.89839 18.8781 5.90429C18.7748 5.90934 18.6715 5.89267 18.5749 5.85537C18.4784 5.81806 18.3907 5.76094 18.3175 5.68766C18.2444 5.61439 18.1874 5.5266 18.1502 5.42993C18.113 5.33326 18.0965 5.22987 18.1017 5.12643C18.1139 4.88386 18.1465 4.24107 18.1648 3.88187C18.1936 3.31652 18.0467 2.75609 17.7444 2.27751C17.442 1.79893 16.999 1.42565 16.476 1.20891ZM15.2632 3.01815C15.4126 2.98448 15.5688 2.99788 15.7103 3.05653C15.8518 3.11518 15.9717 3.2162 16.0536 3.34576C16.1354 3.47533 16.1752 3.62707 16.1674 3.78016C16.1491 4.1394 16.1165 4.78275 16.1042 5.026C16.085 5.40837 16.1461 5.79053 16.2835 6.14787C16.4209 6.50521 16.6317 6.8298 16.9022 7.10074C17.1727 7.37168 17.497 7.58295 17.8541 7.72094C18.2112 7.85894 18.5933 7.92058 18.9757 7.90191C19.0875 7.89645 19.2999 7.88558 19.5284 7.87387C19.7759 7.8612 20.0428 7.84754 20.2212 7.83874C20.374 7.8312 20.5255 7.87113 20.6548 7.95307C20.7841 8.03501 20.885 8.15496 20.9435 8.29651C21.002 8.43805 21.0153 8.59424 20.9816 8.74366C20.9479 8.89307 20.8689 9.02839 20.7553 9.13106C20.5996 9.27175 20.3762 9.47319 20.1796 9.65048L19.8288 9.96693C19.5441 10.2241 19.3165 10.5382 19.1608 10.8889C19.005 11.2395 18.9245 11.619 18.9245 12.0026C18.9245 12.3863 19.005 12.7658 19.1608 13.1164C19.3165 13.4671 19.5441 13.7812 19.8288 14.0384L20.1906 14.3647C20.3841 14.5392 20.6015 14.7352 20.7554 14.8743C20.869 14.977 20.9482 15.1125 20.9818 15.262C21.0155 15.4115 21.0021 15.5678 20.9434 15.7094C20.8848 15.851 20.7838 15.971 20.6542 16.0528C20.5247 16.1347 20.3731 16.1744 20.2201 16.1666L18.9756 16.1035C18.5924 16.0838 18.2093 16.1448 17.8511 16.2825C17.493 16.4202 17.1677 16.6315 16.8964 16.9029C16.6251 17.1743 16.4138 17.4995 16.2761 17.8577C16.1384 18.2159 16.0775 18.599 16.0972 18.9822L16.1093 19.214C16.1251 19.5154 16.148 19.9509 16.16 20.2206C16.1668 20.3729 16.1265 20.5236 16.0447 20.6522C15.9629 20.7808 15.8434 20.8811 15.7027 20.9394C15.5619 20.9978 15.4066 21.0114 15.2579 20.9784C15.1092 20.9454 14.9742 20.8674 14.8712 20.755C14.692 20.5592 14.4068 20.2424 14.205 20.0183L14.039 19.8341C13.782 19.5494 13.468 19.3217 13.1174 19.1659C12.7668 19.0101 12.3874 18.9295 12.0037 18.9295C11.6201 18.9295 11.2407 19.0101 10.8901 19.1659C10.5395 19.3217 10.2255 19.5494 9.96844 19.8341C9.80657 20.0135 9.37194 20.4919 9.13058 20.7573C9.02784 20.8702 8.89278 20.9487 8.74383 20.9821C8.59489 21.0154 8.43928 21.002 8.29821 20.9437C8.15715 20.8854 8.03747 20.785 7.95552 20.6561C7.87357 20.5272 7.83334 20.3762 7.84033 20.2236C7.852 19.9689 7.87316 19.5697 7.88892 19.2723L7.90409 18.984C7.9238 18.6008 7.86285 18.2177 7.72518 17.8595C7.58751 17.5013 7.37618 17.176 7.10487 16.9047C6.83355 16.6333 6.50829 16.422 6.15012 16.2842C5.79195 16.1465 5.40886 16.0856 5.02564 16.1053L4.60418 16.1266C4.32754 16.1405 3.99874 16.157 3.77987 16.1685C3.62707 16.1764 3.47554 16.1369 3.34607 16.0553C3.2166 15.9737 3.11554 15.854 3.05678 15.7126C2.99803 15.5712 2.98447 15.4151 3.01798 15.2657C3.05148 15.1163 3.1304 14.9809 3.24388 14.8782C3.3119 14.8166 3.36965 14.7701 3.44704 14.7078C3.5032 14.6626 3.56974 14.6091 3.65803 14.5354C3.8379 14.3853 4.05102 14.1952 4.26093 13.9479C4.27789 13.9279 4.29721 13.9057 4.31837 13.8815C4.46076 13.7183 4.68644 13.4597 4.83695 13.1209C4.99271 12.7702 5.07319 12.3908 5.07319 12.0071C5.07319 11.6234 4.99271 11.244 4.83695 10.8933C4.68118 10.5427 4.45359 10.2286 4.16887 9.97137C4.05938 9.87246 3.84076 9.6738 3.62583 9.47849L3.24468 9.13229C3.13158 9.02967 3.0529 8.8946 3.01942 8.74554C2.98595 8.59647 2.99933 8.4407 3.05772 8.29953C3.11611 8.15836 3.21665 8.0387 3.34558 7.95688C3.47451 7.87507 3.62554 7.83508 3.77803 7.84237C4.13381 7.85938 4.77468 7.89247 5.01828 7.90528C5.40223 7.92547 5.78613 7.86466 6.14504 7.7268C6.50395 7.58894 6.82984 7.37712 7.10156 7.1051C7.37327 6.83308 7.58472 6.50696 7.7222 6.1479C7.85967 5.78885 7.92009 5.40489 7.89953 5.02097C7.88896 4.82348 7.86707 4.35488 7.85021 3.99375L7.84028 3.78149C7.83312 3.62883 7.87323 3.4777 7.95512 3.3487C8.03701 3.21971 8.15668 3.11916 8.29778 3.06073C8.43889 3.00231 8.59457 2.98886 8.74359 3.0222C8.89261 3.05555 9.02775 3.13407 9.13053 3.24709C9.37081 3.51128 9.80121 3.98686 9.96324 4.16674C10.2202 4.45201 10.5342 4.68011 10.885 4.83625C11.2357 4.99238 11.6154 5.07306 11.9993 5.07306C12.3832 5.07306 12.7629 4.99238 13.1136 4.83625C13.4644 4.68011 13.7784 4.45201 14.0354 4.16674C14.1227 4.06974 14.2561 3.92393 14.4013 3.76518C14.5601 3.59149 14.7332 3.40232 14.8756 3.24462C14.9784 3.13092 15.1137 3.05182 15.2632 3.01815Z" fill="black"/>
</svg>
