<svg width="24" height="24" viewBox="0 0 24 24" fill="none" xmlns="http://www.w3.org/2000/svg">
<path d="M7.24902 13.998C6.69674 13.998 6.24902 14.4458 6.24902 14.998C6.24902 15.5503 6.69674 15.998 7.24902 15.998H16.749C17.3013 15.998 17.749 15.5503 17.749 14.998C17.749 14.4458 17.3013 13.998 16.749 13.998H7.24902Z" fill="black"/>
<path d="M6.24902 18.498C6.24902 17.9458 6.69674 17.498 7.24902 17.498H16.749C17.3013 17.498 17.749 17.9458 17.749 18.498C17.749 19.0503 17.3013 19.498 16.749 19.498H7.24902C6.69674 19.498 6.24902 19.0503 6.24902 18.498Z" fill="black"/>
<path d="M12.249 6.49805H11.249V10.498H11.749C12.3013 10.498 12.749 10.9458 12.749 11.498C12.749 12.0503 12.3013 12.498 11.749 12.498H8.74902C8.19674 12.498 7.74902 12.0503 7.74902 11.498C7.74902 10.9458 8.19674 10.498 8.74902 10.498H9.24902V6.49805H8.24902V6.99805C8.24902 7.55033 7.80131 7.99805 7.24902 7.99805C6.69674 7.99805 6.24902 7.55033 6.24902 6.99805V5.49805C6.24902 4.94576 6.69674 4.49805 7.24902 4.49805H13.249C13.8013 4.49805 14.249 4.94576 14.249 5.49805V6.99805C14.249 7.55033 13.8013 7.99805 13.249 7.99805C12.6967 7.99805 12.249 7.55033 12.249 6.99805V6.49805Z" fill="black"/>
<path fill-rule="evenodd" clip-rule="evenodd" d="M14.824 0.999956C14.5994 0.998803 6.25479 0.986131 5.75002 1.00034C4.995 1.02159 4.28394 1.34791 3.77071 1.90014C3.25819 2.45159 2.98372 3.18363 3.00075 3.93531C3.0116 4.41467 3.0116 19.5852 3.00075 20.0646C2.98372 20.8163 3.25819 21.5483 3.77071 22.0998C4.28394 22.652 4.995 22.9783 5.75002 22.9995C6.25215 23.0137 17.7478 23.0137 18.25 22.9995C19.005 22.9783 19.7161 22.652 20.2293 22.0998C20.7418 21.5483 21.0163 20.8163 20.9993 20.0646C20.9884 19.587 20.9979 8.08707 20.9995 7.5751C21.0019 6.8243 20.7231 6.0972 20.2143 5.54419C20.0438 5.35887 19.2308 4.48434 18.4442 3.63846L18.0632 3.22872C17.4234 2.54072 16.8781 1.95439 16.8127 1.88321C16.5595 1.60776 16.2529 1.38652 15.9107 1.23418C15.5686 1.08181 15.1988 1.00188 14.824 0.999956ZM5.8063 2.99955C6.26828 2.98654 14.5668 2.99866 14.8137 2.99993C14.9106 3.00043 15.0069 3.02105 15.0972 3.06122C15.1874 3.10142 15.2704 3.1607 15.3402 3.23668C15.4097 3.31222 15.9556 3.89931 16.5902 4.58172L16.9796 5.00042C17.7695 5.84989 18.5767 6.71815 18.7425 6.8983C18.9061 7.07621 19.0003 7.31585 18.9995 7.56869C18.9979 8.06035 18.9882 19.5986 18.9998 20.1099C19.0051 20.3471 18.9181 20.5727 18.7643 20.7382C18.6112 20.9029 18.4054 20.9944 18.1937 21.0003C17.7291 21.0134 6.27092 21.0134 5.8063 21.0003C5.59456 20.9944 5.38878 20.9029 5.2357 20.7382C5.0819 20.5727 4.99486 20.3471 5.00023 20.1099C5.01177 19.6003 5.01177 4.39957 5.00023 3.89003C4.99486 3.65282 5.08191 3.42716 5.2357 3.26168C5.38878 3.09697 5.59456 3.00551 5.8063 2.99955Z" fill="black"/>
</svg>
