<svg width="24" height="24" viewBox="0 0 24 24" fill="none" xmlns="http://www.w3.org/2000/svg">
<path fill-rule="evenodd" clip-rule="evenodd" d="M3.33333 1C2.63331 1 2.02115 1.34909 1.60966 1.86346C1.20279 2.37204 1 3.02274 1 3.66667V7C1 7.55229 1.44772 8 2 8H22C22.5523 8 23 7.55229 23 7V3.66667C23 3.02274 22.7972 2.37204 22.3903 1.86346C21.9788 1.34909 21.3667 1 20.6667 1H3.33333ZM3.17139 3.11285C3.25999 3.0021 3.32611 3 3.33333 3H20.6667C20.6739 3 20.74 3.0021 20.8286 3.11285C20.9218 3.22939 21 3.42654 21 3.66667V6H3V3.66667C3 3.42654 3.07816 3.22939 3.17139 3.11285Z" fill="black"/>
<path d="M4 10C4 9.44771 3.55228 9 3 9C2.44772 9 2 9.44771 2 10V19C2 20.0362 2.37922 21.0444 3.07629 21.7996C3.77584 22.5574 4.74257 23 5.76923 23H18.2308C19.2574 23 20.2242 22.5574 20.9237 21.7996C21.6208 21.0444 22 20.0362 22 19V10C22 9.44771 21.5523 9 21 9C20.4477 9 20 9.44771 20 10V19C20 19.5551 19.7957 20.073 19.4541 20.443C19.115 20.8104 18.673 21 18.2308 21H5.76923C5.327 21 4.885 20.8104 4.54589 20.443C4.2043 20.073 4 19.5551 4 19V10Z" fill="black"/>
<path d="M12 10C12.5523 10 13 10.4477 13 11V15.8258L14.8492 14.2407C15.2685 13.8813 15.8998 13.9299 16.2593 14.3492C16.6187 14.7685 16.5701 15.3998 16.1508 15.7593L12.6551 18.7556C12.4796 18.9078 12.2506 19 12 19C11.7494 19 11.5204 18.9079 11.3449 18.7556L7.84921 15.7593C7.42988 15.3998 7.38132 14.7685 7.74074 14.3492C8.10017 13.9299 8.73147 13.8813 9.15079 14.2407L11 15.8258V11C11 10.4477 11.4477 10 12 10Z" fill="black"/>
</svg>
