<svg width="25" height="24" viewBox="0 0 25 24" fill="none" xmlns="http://www.w3.org/2000/svg">
<path fill-rule="evenodd" clip-rule="evenodd" d="M9.76465 8.69111C9.76465 6.92052 11.2 5.48517 12.9706 5.48517C14.7412 5.48517 16.1765 6.92052 16.1765 8.69111C16.1765 10.4617 14.7412 11.8971 12.9706 11.8971C11.2 11.8971 9.76465 10.4617 9.76465 8.69111ZM12.9706 7.48517C12.3046 7.48517 11.7646 8.02509 11.7646 8.69111C11.7646 9.35713 12.3046 9.89705 12.9706 9.89705C13.6366 9.89705 14.1765 9.35713 14.1765 8.69111C14.1765 8.02509 13.6366 7.48517 12.9706 7.48517Z" fill="black"/>
<path fill-rule="evenodd" clip-rule="evenodd" d="M10.0577 1.3662C10.2453 1.17866 10.4996 1.0733 10.7648 1.0733H15.1767C15.4419 1.0733 15.6963 1.17866 15.8838 1.3662L17.0616 2.54393H19.5886C20.9546 2.54393 22.0592 3.64853 22.0592 5.01456V12.3677C22.0592 13.7337 20.9546 14.8383 19.5886 14.8383H6.35295C4.98692 14.8383 3.88232 13.7337 3.88232 12.3677V5.01456C3.88232 3.64853 4.98692 2.54393 6.35295 2.54393H8.87999L10.0577 1.3662ZM15.9402 4.25104L14.7625 3.0733H11.179L10.0013 4.25104C9.81378 4.43857 9.55942 4.54393 9.29421 4.54393H6.35295C6.09149 4.54393 5.88232 4.7531 5.88232 5.01456V12.3677C5.88232 12.6292 6.09149 12.8383 6.35295 12.8383H19.5886C19.8501 12.8383 20.0592 12.6292 20.0592 12.3677V5.01456C20.0592 4.7531 19.8501 4.54393 19.5886 4.54393H16.6473C16.3712 4.54393 16.1212 4.432 15.9402 4.25104Z" fill="black"/>
<path d="M24.089 13.1402C23.7035 12.7448 23.0704 12.7368 22.6749 13.1223C22.2795 13.5079 22.2715 14.141 22.657 14.5364C22.8605 14.7451 22.9851 15.0302 23.0003 15.3258C22.9954 15.5496 22.8907 15.8429 22.5453 16.2011C22.1868 16.573 21.6176 16.959 20.83 17.3162C19.2579 18.0293 16.9982 18.5454 14.3888 18.683C13.8372 18.7121 13.4137 19.1827 13.4428 19.7343C13.4719 20.2858 13.9425 20.7093 14.4941 20.6802C17.2769 20.5335 19.7967 19.981 21.6561 19.1376C22.5842 18.7167 23.3938 18.2025 23.985 17.5893C24.5807 16.9716 25.0005 16.2007 25.0005 15.3089C25.0005 15.297 25.0003 15.2851 24.9998 15.2733C24.9714 14.4775 24.646 13.7114 24.089 13.1402Z" fill="black"/>
<path d="M8.11183 15.8852C8.60581 15.6382 9.20648 15.8384 9.45347 16.3324L10.8014 19.0282C10.8332 19.0796 10.8605 19.1341 10.8827 19.1909L10.9241 19.2736C11.1166 19.6586 11.0411 20.1236 10.7368 20.428L8.53084 22.6339C8.14031 23.0244 7.50715 23.0244 7.11662 22.6339C6.7261 22.2434 6.7261 21.6102 7.11662 21.2197L8.05918 20.2771C6.40086 19.9592 4.92889 19.4808 3.76827 18.8724C2.28066 18.0926 0.970215 16.9088 0.970215 15.3089C0.970215 15.297 0.970427 15.2851 0.970852 15.2733C0.999273 14.4775 1.32474 13.7114 1.88168 13.1402C2.26723 12.7448 2.90035 12.7368 3.29578 13.1223C3.69122 13.5079 3.69923 14.141 3.31368 14.5364C3.11029 14.745 2.98572 15.03 2.97042 15.3255C2.9804 15.7369 3.36408 16.4024 4.69679 17.101C5.59452 17.5716 6.78308 17.9755 8.18255 18.2627L7.66462 17.2268C7.41763 16.7328 7.61785 16.1322 8.11183 15.8852Z" fill="black"/>
</svg>
