<svg width="24" height="24" viewBox="0 0 24 24" fill="none" xmlns="http://www.w3.org/2000/svg">
<path fill-rule="evenodd" clip-rule="evenodd" d="M22.25 16.374C22.9404 16.374 23.5 16.9337 23.5 17.624V20.624C23.5 21.3534 23.2103 22.0528 22.6945 22.5686C22.1788 23.0843 21.4793 23.374 20.75 23.374H17.75C17.0596 23.374 16.5 22.8144 16.5 22.124C16.5 21.4337 17.0596 20.874 17.75 20.874H20.75C20.8163 20.874 20.8799 20.8477 20.9268 20.8008C20.9737 20.7539 21 20.6903 21 20.624V17.624C21 16.9337 21.5596 16.374 22.25 16.374Z" fill="#434660"/>
<path fill-rule="evenodd" clip-rule="evenodd" d="M16.5 1.62402C16.5 0.933667 17.0596 0.374023 17.75 0.374023H20.75C21.4793 0.374023 22.1788 0.663755 22.6945 1.17948C23.2103 1.6952 23.5 2.39468 23.5 3.12402V6.12402C23.5 6.81438 22.9404 7.37402 22.25 7.37402C21.5596 7.37402 21 6.81438 21 6.12402V3.12402C21 3.05772 20.9737 2.99413 20.9268 2.94725C20.8799 2.90036 20.8163 2.87402 20.75 2.87402H17.75C17.0596 2.87402 16.5 2.31438 16.5 1.62402Z" fill="#434660"/>
<path fill-rule="evenodd" clip-rule="evenodd" d="M3.25 2.87402C3.1837 2.87402 3.12011 2.90036 3.07322 2.94725C3.02634 2.99413 3 3.05772 3 3.12402V6.12402C3 6.81438 2.44036 7.37402 1.75 7.37402C1.05964 7.37402 0.5 6.81438 0.5 6.12402V3.12402C0.5 2.39468 0.789731 1.6952 1.30546 1.17948C1.82118 0.663755 2.52065 0.374023 3.25 0.374023H6.25C6.94036 0.374023 7.5 0.933667 7.5 1.62402C7.5 2.31438 6.94036 2.87402 6.25 2.87402H3.25Z" fill="#434660"/>
<path fill-rule="evenodd" clip-rule="evenodd" d="M1.75 16.374C2.44036 16.374 3 16.9337 3 17.624V20.624C3 20.6903 3.02634 20.7539 3.07322 20.8008C3.12011 20.8477 3.1837 20.874 3.25 20.874H6.25C6.94036 20.874 7.5 21.4337 7.5 22.124C7.5 22.8144 6.94036 23.374 6.25 23.374H3.25C2.52065 23.374 1.82118 23.0843 1.30546 22.5686C0.789732 22.0528 0.5 21.3534 0.5 20.624V17.624C0.5 16.9337 1.05964 16.374 1.75 16.374Z" fill="#434660"/>
<path d="M10.6722 6.25653C11.092 6.07836 11.5443 5.9911 12 6.00072C12.4557 5.9911 12.908 6.07836 13.3278 6.25653C13.7542 6.43755 14.1368 6.70799 14.4507 7.04897C14.7646 7.38992 15.0028 7.79368 15.1505 8.23318C15.2943 8.6608 15.3495 9.11345 15.313 9.56295C15.31 10.5049 15.1822 11.2245 14.9515 11.8153C14.7177 12.4139 14.3967 12.8316 14.0862 13.1797L14.0854 13.1814C14.081 13.1903 14.0646 13.2239 14.0491 13.2935C14.0268 13.3936 14.018 13.5196 14.0289 13.6458C14.0376 13.7479 14.0571 13.8264 14.076 13.8776C15.3103 14.2695 16.4977 14.8001 17.616 15.4594C17.9195 15.6382 18.0653 15.997 17.9721 16.3357C17.879 16.6743 17.5699 16.9091 17.2173 16.9091H6.78267C6.43005 16.9091 6.12099 16.6743 6.02786 16.3357C5.93473 15.997 6.08054 15.6382 6.38397 15.4594C7.50234 14.8001 8.68969 14.2695 9.92399 13.8776C9.94292 13.8264 9.96239 13.7479 9.97113 13.6458C9.98195 13.5196 9.97317 13.3936 9.95092 13.2935C9.93545 13.2239 9.91898 13.1903 9.91461 13.1814L9.91378 13.1797C9.60294 12.8311 9.2821 12.4128 9.04843 11.8141C8.8178 11.2232 8.68998 10.5038 8.68697 9.56294C8.65054 9.11344 8.70572 8.6608 8.84948 8.23318C8.99724 7.79368 9.23544 7.38992 9.54932 7.04897C9.86323 6.70799 10.2458 6.43755 10.6722 6.25653Z" fill="#A9ABBC"/>
</svg>
