<svg width="24" height="24" viewBox="0 0 24 24" fill="none" xmlns="http://www.w3.org/2000/svg">
<path d="M6 2.97595C6 2.42367 5.55228 1.97595 5 1.97595C4.44772 1.97595 4 2.42367 4 2.97595V8.37595C4 9.95297 5.10481 11.226 6.54541 11.6363V20.9759C6.54541 21.5282 6.99313 21.9759 7.54541 21.9759C8.09769 21.9759 8.54541 21.5282 8.54541 20.9759V11.6364C9.98606 11.2261 11.0909 9.953 11.0909 8.37595V2.97595C11.0909 2.42367 10.6432 1.97595 10.0909 1.97595C9.53862 1.97595 9.09091 2.42367 9.09091 2.97595V8.37595C9.09091 8.77866 8.88632 9.17302 8.54541 9.44002V2.97595C8.54541 2.42367 8.09769 1.97595 7.54541 1.97595C6.99313 1.97595 6.54541 2.42367 6.54541 2.97595V9.43995C6.20455 9.17295 6 8.77862 6 8.37595V2.97595Z" fill="black"/>
<path fill-rule="evenodd" clip-rule="evenodd" d="M17.4546 11.7718C18.8242 11.697 20.0001 10.6138 20.0001 9.17595V4.57595C20.0001 3.08539 18.7364 1.97595 17.3031 1.97595H15.6061C14.1729 1.97595 12.9092 3.08539 12.9092 4.57595V9.17595C12.9092 10.6137 14.085 11.6969 15.4546 11.7718V20.9759C15.4546 21.5282 15.9023 21.9759 16.4546 21.9759C17.0069 21.9759 17.4546 21.5282 17.4546 20.9759V11.7718ZM16.4546 9.77594L16.4587 9.77595H17.3031C17.7443 9.77595 18.0001 9.4527 18.0001 9.17595V4.57595C18.0001 4.2992 17.7443 3.97595 17.3031 3.97595H15.6061C15.165 3.97595 14.9092 4.2992 14.9092 4.57595V9.17595C14.9092 9.4527 15.165 9.77595 15.6061 9.77595H16.4505L16.4546 9.77594Z" fill="black"/>
</svg>
