<svg width="24" height="24" viewBox="0 0 24 24" fill="none" xmlns="http://www.w3.org/2000/svg">
<path d="M12.9993 1C12.9993 0.447715 12.5516 0 11.9993 0C11.447 0 10.9993 0.447715 10.9993 1V3.31925L8.95748 1.68581C8.52622 1.3408 7.89693 1.41072 7.55192 1.84198C7.20691 2.27324 7.27683 2.90253 7.70809 3.24754L10.9993 5.8805V7.75503L8.82199 9.00782L7.19629 8.07097L6.56429 3.91028C6.48135 3.36426 5.97147 2.98886 5.42545 3.0718C4.87943 3.15474 4.50403 3.66461 4.58697 4.21063L4.97928 6.79338L2.97515 5.63845C2.49664 5.3627 1.88518 5.52707 1.60942 6.00558C1.33367 6.4841 1.49804 7.09556 1.97656 7.37131L3.97553 8.52327L1.5444 9.47505C1.03013 9.67639 0.776439 10.2565 0.977778 10.7708C1.17912 11.2851 1.75924 11.5388 2.27352 11.3374L6.19487 9.80221L7.82156 10.7396V11.8382C7.82156 12.3905 8.26927 12.8382 8.82156 12.8382C9.37384 12.8382 9.82156 12.3905 9.82156 11.8382V10.7401L11.9993 9.48706L14.1771 10.7401V11.8382C14.1771 12.3905 14.6248 12.8382 15.1771 12.8382C15.7294 12.8382 16.1771 12.3905 16.1771 11.8382V10.7399L17.8045 9.8021L21.7261 11.3374C22.2404 11.5388 22.8205 11.2851 23.0218 10.7708C23.2232 10.2565 22.9695 9.67639 22.4552 9.47505L20.0238 8.52316L22.0226 7.37131C22.5011 7.09556 22.6655 6.4841 22.3897 6.00558C22.114 5.52707 21.5025 5.3627 21.024 5.63845L19.0204 6.79308L19.4127 4.21063C19.4956 3.66461 19.1202 3.15474 18.5742 3.0718C18.0281 2.98886 17.5183 3.36426 17.4353 3.91028L16.8034 8.07067L15.1769 9.00796L12.9993 7.75498V5.88076L16.2908 3.24754C16.7221 2.90253 16.792 2.27324 16.447 1.84198C16.102 1.41072 15.4727 1.3408 15.0414 1.68581L12.9993 3.31951V1Z" fill="black"/>
<path fill-rule="evenodd" clip-rule="evenodd" d="M11.9998 14.9761C11.7049 14.9761 11.4881 15.0983 11.4068 15.1472C11.3008 15.211 11.2127 15.2839 11.1476 15.3427C11.0152 15.4623 10.8855 15.6089 10.7673 15.7559C10.5263 16.0557 10.2587 16.4507 10.0096 16.8806C9.75988 17.3115 9.5149 17.801 9.32968 18.2924C9.14985 18.7695 8.99978 19.3169 8.99978 19.8422C8.99978 20.6532 9.30113 21.443 9.85594 22.0349C10.4128 22.6291 11.1824 22.9761 11.9998 22.9761C12.8171 22.9761 13.5868 22.6291 14.1436 22.0349C14.6984 21.443 14.9998 20.6532 14.9998 19.8422C14.9998 19.3169 14.8497 18.7695 14.6699 18.2924C14.4847 17.801 14.2397 17.3115 13.99 16.8806C13.7408 16.4507 13.4733 16.0557 13.2322 15.7559C13.1141 15.6089 12.9843 15.4623 12.852 15.3427C12.7869 15.2839 12.6988 15.211 12.5928 15.1472C12.5115 15.0983 12.2947 14.9761 11.9998 14.9761ZM10.9998 19.8422C10.9998 19.6646 11.058 19.3774 11.2011 18.9978C11.3388 18.6326 11.5313 18.2435 11.74 17.8835C11.8273 17.7327 11.9151 17.5912 11.9998 17.4626C12.0844 17.5912 12.1722 17.7327 12.2596 17.8835C12.4682 18.2435 12.6607 18.6326 12.7984 18.9978C12.9415 19.3774 12.9998 19.6646 12.9998 19.8422C12.9998 20.1631 12.8797 20.4588 12.6844 20.6672C12.4911 20.8734 12.2433 20.9761 11.9998 20.9761C11.7562 20.9761 11.5085 20.8734 11.3152 20.6672C11.1199 20.4588 10.9998 20.1631 10.9998 19.8422Z" fill="black"/>
<path fill-rule="evenodd" clip-rule="evenodd" d="M18.4068 12.1472C18.4881 12.0983 18.7049 11.9761 18.9998 11.9761C19.2947 11.9761 19.5115 12.0983 19.5928 12.1472C19.6988 12.211 19.7869 12.2839 19.852 12.3427C19.9843 12.4623 20.1141 12.6089 20.2322 12.7559C20.4733 13.0557 20.7408 13.4507 20.99 13.8806C21.2397 14.3115 21.4847 14.801 21.6699 15.2924C21.8497 15.7695 21.9998 16.3169 21.9998 16.8422C21.9998 17.6532 21.6984 18.443 21.1436 19.0349C20.5868 19.6291 19.8171 19.9761 18.9998 19.9761C18.1824 19.9761 17.4128 19.6291 16.8559 19.0349C16.3011 18.443 15.9998 17.6532 15.9998 16.8422C15.9998 16.3169 16.1498 15.7695 16.3297 15.2924C16.5149 14.801 16.7599 14.3115 17.0096 13.8806C17.2587 13.4507 17.5263 13.0557 17.7673 12.7559C17.8855 12.6089 18.0152 12.4623 18.1476 12.3427C18.2127 12.2839 18.3008 12.211 18.4068 12.1472ZM18.2011 15.9978C18.058 16.3774 17.9998 16.6646 17.9998 16.8422C17.9998 17.1631 18.1199 17.4588 18.3152 17.6672C18.5085 17.8734 18.7562 17.9761 18.9998 17.9761C19.2433 17.9761 19.4911 17.8734 19.6844 17.6672C19.8797 17.4588 19.9998 17.1631 19.9998 16.8422C19.9998 16.6646 19.9415 16.3774 19.7984 15.9978C19.6607 15.6326 19.4682 15.2435 19.2596 14.8835C19.1722 14.7327 19.0844 14.5912 18.9998 14.4626C18.9151 14.5912 18.8273 14.7327 18.74 14.8835C18.5313 15.2435 18.3388 15.6326 18.2011 15.9978Z" fill="black"/>
<path fill-rule="evenodd" clip-rule="evenodd" d="M4.99978 11.9761C4.70489 11.9761 4.48805 12.0983 4.40677 12.1472C4.30078 12.211 4.21266 12.2839 4.14759 12.3427C4.01522 12.4623 3.8855 12.6089 3.76732 12.7559C3.5263 13.0557 3.25872 13.4507 3.00958 13.8806C2.75988 14.3115 2.5149 14.801 2.32968 15.2924C2.14985 15.7695 1.99978 16.3169 1.99978 16.8422C1.99978 17.6532 2.30113 18.443 2.85594 19.0349C3.4128 19.6291 4.18245 19.9761 4.99978 19.9761C5.81711 19.9761 6.58676 19.6291 7.14362 19.0349C7.69843 18.443 7.99978 17.6532 7.99978 16.8422C7.99978 16.3169 7.84972 15.7695 7.66988 15.2924C7.48466 14.801 7.23968 14.3115 6.98998 13.8806C6.74084 13.4507 6.47326 13.0557 6.23224 12.7559C6.11406 12.6089 5.98434 12.4623 5.85197 12.3427C5.7869 12.2839 5.69878 12.211 5.59279 12.1472C5.51151 12.0983 5.29467 11.9761 4.99978 11.9761ZM3.99978 16.8422C3.99978 16.6646 4.05805 16.3774 4.20113 15.9978C4.33883 15.6326 4.53135 15.2435 4.73998 14.8835C4.82734 14.7327 4.91513 14.5912 4.99978 14.4626C5.08443 14.5912 5.17222 14.7327 5.25958 14.8835C5.46821 15.2435 5.66073 15.6326 5.79843 15.9978C5.94151 16.3774 5.99978 16.6646 5.99978 16.8422C5.99978 17.1631 5.8797 17.4588 5.68436 17.6672C5.49108 17.8734 5.24331 17.9761 4.99978 17.9761C4.75625 17.9761 4.50848 17.8734 4.3152 17.6672C4.11986 17.4588 3.99978 17.1631 3.99978 16.8422ZM5.4925 13.8231L5.49024 13.825C5.49176 13.8237 5.4925 13.8231 5.4925 13.8231ZM4.50706 13.8231L4.50932 13.825C4.50849 13.8243 4.50743 13.8234 4.50706 13.8231C4.50706 13.8231 4.50676 13.8228 4.50706 13.8231Z" fill="black"/>
</svg>
