<svg width="24" height="24" viewBox="0 0 24 24" fill="none" xmlns="http://www.w3.org/2000/svg">
<g clip-path="url(#clip0_2929_391)">
<path fill-rule="evenodd" clip-rule="evenodd" d="M19.1995 2.40151C13.8982 -1.57743 6.379 -0.499393 2.40134 4.80093C-1.5773 10.1026 -0.499382 17.6221 4.80061 21.6L4.80152 21.6007C6.88047 23.1573 9.40769 24.0001 12.0001 24.0001C14.2799 24.0001 16.1826 23.4543 17.3413 22.2588C18.3892 21.1775 18.6643 19.746 18.2892 18.2196C18.4432 18.1037 18.5906 17.9758 18.7302 17.8362L19.1702 17.3962C19.8576 16.7089 19.9552 15.6558 19.4631 14.8645V14.7692L17.3125 12.6187C16.5114 11.8175 15.2134 11.8175 14.4122 12.6187C14.3921 12.6388 14.3604 12.6388 14.3403 12.6187L11.368 9.64641C11.3479 9.62629 11.3479 9.5946 11.368 9.57449C12.1692 8.77332 12.1692 7.47531 11.368 6.67414L9.51036 4.81648C8.7092 4.01532 7.41118 4.01532 6.61002 4.81648L6.1659 5.27038C4.79019 6.64994 4.5628 8.7964 5.60194 10.4385L5.61009 10.4514L5.61864 10.464C7.73272 13.5896 10.4147 16.2824 13.5441 18.3889L13.5558 18.3967L13.5677 18.4043C14.4392 18.9558 15.4497 19.1504 16.4123 19.0064C16.5464 19.843 16.3173 20.4415 15.9051 20.8669C15.2917 21.4997 14.0415 22.0001 12.0001 22.0001C9.84143 22.0001 7.73491 21.2983 6.00117 20.0004C1.58325 16.6846 0.686305 10.4183 4.00099 6.0014C7.31665 1.58321 13.5824 0.686255 17.999 4.00109C22.4169 7.31696 23.3138 13.5832 19.9992 18.0001C19.6677 18.4418 19.757 19.0687 20.1988 19.4002C20.6405 19.7317 21.2673 19.6423 21.5988 19.2006C25.5775 13.899 24.4995 6.37941 19.1995 2.40151ZM7.5843 6.68049L8.02569 6.22929C8.04586 6.21059 8.07651 6.21106 8.09615 6.23069L9.95381 8.08836C9.97393 8.10847 9.97393 8.14016 9.95381 8.16027C9.15265 8.96144 9.15265 10.2595 9.95381 11.0606L12.9261 14.0329C13.7272 14.834 15.0253 14.834 15.8264 14.0329C15.8465 14.0128 15.8782 14.0128 15.8983 14.0329L17.4631 15.5976V15.6172L17.756 15.9101C17.7761 15.9302 17.7761 15.9619 17.756 15.982L17.316 16.422C16.6057 17.1323 15.5053 17.2566 14.6482 16.7212C11.7452 14.7647 9.25301 12.2638 7.28454 9.3572C6.7494 8.4996 6.87465 7.39014 7.5843 6.68049Z" fill="black"/>
</g>
<defs>
<clipPath id="clip0_2929_391">
<rect width="24" height="24" fill="white"/>
</clipPath>
</defs>
</svg>
