<svg width="24" height="24" viewBox="0 0 24 24" fill="none" xmlns="http://www.w3.org/2000/svg">
<path fill-rule="evenodd" clip-rule="evenodd" d="M5.37072 1.29588C5.73356 1.10166 6.13875 1.00003 6.5503 1H15.4524C15.8632 1.00085 16.2673 1.10288 16.6292 1.29706C16.9911 1.49124 17.2996 1.77159 17.5274 2.11334L20.2839 6.24855C20.7427 6.71577 21 7.34462 21 8V9.5C21 10.0523 20.5523 10.5 20 10.5C19.4477 10.5 19 10.0523 19 9.5V8C19 7.87467 18.9529 7.7542 18.8686 7.66219C18.8478 7.64447 18.8276 7.6258 18.8081 7.60619C18.7206 7.53774 18.6122 7.5 18.5 7.5H3.5C3.38915 7.5 3.28209 7.53681 3.19517 7.60367C3.17387 7.62523 3.15173 7.64567 3.12885 7.66497C3.04611 7.75661 3 7.87593 3 8V18.5C3 18.6326 3.05268 18.7598 3.14645 18.8536C3.24022 18.9473 3.36739 19 3.5 19H9.5C10.0523 19 10.5 19.4477 10.5 20C10.5 20.5523 10.0523 21 9.5 21H3.5C2.83696 21 2.20107 20.7366 1.73223 20.2678C1.26339 19.7989 1 19.163 1 18.5V8C1 7.34361 1.25813 6.71384 1.71818 6.2464L4.47002 2.11375C4.6983 1.77131 5.00787 1.4901 5.37072 1.29588ZM4.61802 5.5H10V3H6.55045C6.55042 3 6.55047 3 6.55045 3C6.46816 3.00002 6.38708 3.02034 6.31453 3.05918C6.24211 3.09794 6.18036 3.15395 6.13473 3.22225L4.61802 5.5ZM12 3V5.5H17.3813L15.8633 3.22266C15.8633 3.22266 15.8633 3.22267 15.8633 3.22266C15.8177 3.15432 15.756 3.09824 15.6837 3.05941C15.6115 3.02069 15.5309 3.00029 15.4491 3H12ZM23 13.5C21.2761 13.5 19.6228 14.1848 18.4038 15.4038C17.1848 16.6228 16.5 18.2761 16.5 20V20.5858L17.7929 19.2929C18.1834 18.9024 18.8166 18.9024 19.2071 19.2929C19.5976 19.6834 19.5976 20.3166 19.2071 20.7071L16.2071 23.7071C15.8166 24.0976 15.1834 24.0976 14.7929 23.7071L11.7929 20.7071C11.4024 20.3166 11.4024 19.6834 11.7929 19.2929C12.1834 18.9024 12.8166 18.9024 13.2071 19.2929L14.5 20.5858V20C14.5 17.7457 15.3955 15.5837 16.9896 13.9896C18.5837 12.3955 20.7457 11.5 23 11.5C23.5523 11.5 24 11.9477 24 12.5C24 13.0523 23.5523 13.5 23 13.5Z" fill="black"/>
</svg>
