<svg width="24" height="24" viewBox="0 0 24 24" fill="none" xmlns="http://www.w3.org/2000/svg">
<path fill-rule="evenodd" clip-rule="evenodd" d="M13.0303 21.0303C12.7374 21.3232 12.2626 21.3232 11.9697 21.0303C11.6768 20.7374 11.6768 20.2626 11.9697 19.9697L19.1893 12.75H3C2.58579 12.75 2.25 12.4142 2.25 12C2.25 11.5858 2.58579 11.25 3 11.25H19.1893L11.9697 4.03033C11.6768 3.73744 11.6768 3.26256 11.9697 2.96967C12.2626 2.67678 12.7374 2.67678 13.0303 2.96967L21.5303 11.4697C21.6768 11.6161 21.75 11.8081 21.75 12C21.75 12.1017 21.7298 12.1987 21.6931 12.2871C21.6565 12.3755 21.6022 12.4584 21.5303 12.5303L13.0303 21.0303Z" fill="black"/>
<path fill-rule="evenodd" clip-rule="evenodd" d="M11.7929 2.79289C12.1834 2.40237 12.8166 2.40237 13.2071 2.79289L21.7071 11.2929C22.0976 11.6834 22.0976 12.3166 21.7071 12.7071L13.2071 21.2071C12.8166 21.5976 12.1834 21.5976 11.7929 21.2071C11.4024 20.8166 11.4024 20.1834 11.7929 19.7929L18.5858 13H3C2.44772 13 2 12.5523 2 12C2 11.4477 2.44772 11 3 11H18.5858L11.7929 4.20711C11.4024 3.81658 11.4024 3.18342 11.7929 2.79289Z" fill="black"/>
</svg>
