<svg width="24" height="25" viewBox="0 0 24 25" fill="none" xmlns="http://www.w3.org/2000/svg">
<path fill-rule="evenodd" clip-rule="evenodd" d="M2.97575 9.15962C1.26451 9.5863 0 11.131 0 12.9761V15.9094C0 18.0849 1.75796 19.8428 3.93339 19.8428H4.66674C5.61992 19.8428 6.40008 19.0627 6.40008 18.1095V10.776C6.40008 9.93636 5.7947 9.23097 4.99895 9.07484C5.47 5.62729 8.42241 2.97586 12.0006 2.97586C15.5786 2.97586 18.5305 5.6272 19.0015 9.07484C18.2057 9.23096 17.6003 9.93636 17.6003 10.776V18.1095C17.6003 18.9669 18.2316 19.6844 19.0523 19.8198C18.9332 20.7749 18.1223 21.5096 17.134 21.5096H15.7233C15.3399 20.6448 14.4742 20.0429 13.4667 20.0429H12C10.6362 20.0429 9.53334 21.1457 9.53334 22.5096C9.53334 23.8734 10.6362 24.9763 12 24.9763H13.4667C14.4742 24.9763 15.3399 24.3744 15.7233 23.5096H17.134C19.2628 23.5096 20.9918 21.8262 21.065 19.7156C22.7557 19.2749 24.0004 17.7399 24.0004 15.9094V12.9761C24.0004 11.131 22.7359 9.5863 21.0247 9.15963C20.5814 4.56372 16.7137 0.975861 12.0006 0.975861C7.28753 0.975861 3.4191 4.56363 2.97575 9.15962ZM3.93339 11.0427C2.86253 11.0427 2 11.9052 2 12.9761V15.9094C2 16.9803 2.86253 17.8428 3.93339 17.8428H4.40008V11.0427H3.93339ZM19.6003 11.0427V17.8428H20.067C21.1379 17.8428 22.0004 16.9803 22.0004 15.9094V12.9761C22.0004 11.9052 21.1379 11.0427 20.067 11.0427H19.6003ZM9.06646 10.0009C9.61875 10.0009 10.0665 10.4486 10.0665 11.0009V12.2916C10.0665 12.8439 9.61875 13.2916 9.06646 13.2916C8.51418 13.2916 8.06646 12.8439 8.06646 12.2916V11.0009C8.06646 10.4486 8.51418 10.0009 9.06646 10.0009ZM14.934 10.0009C15.4862 10.0009 15.934 10.4486 15.934 11.0009V12.2916C15.934 12.8439 15.4862 13.2916 14.934 13.2916C14.3817 13.2916 13.934 12.8439 13.934 12.2916V11.0009C13.934 10.4486 14.3817 10.0009 14.934 10.0009ZM8.32751 15.6659C8.69961 15.2578 9.3321 15.2286 9.74022 15.6007C11.0207 16.7683 12.979 16.7683 14.2595 15.6007C14.6676 15.2286 15.3001 15.2578 15.6722 15.6659C16.0443 16.074 16.0151 16.7065 15.607 17.0786C13.563 18.9423 10.4367 18.9423 8.39271 17.0786C7.9846 16.7065 7.95541 16.074 8.32751 15.6659ZM12 22.0429C11.7407 22.0429 11.5333 22.2503 11.5333 22.5096C11.5333 22.7689 11.7407 22.9763 12 22.9763H13.4667C13.7265 22.9763 13.934 22.7684 13.934 22.5096C13.934 22.2508 13.7265 22.0429 13.4667 22.0429H12Z" fill="black"/>
</svg>
