<svg width="24" height="24" viewBox="0 0 24 24" fill="none" xmlns="http://www.w3.org/2000/svg">
<path d="M16.5 6H7.5C6.39543 6 5.5 7.07452 5.5 8.4V15.6C5.5 16.9255 6.39543 18 7.5 18H16.5C17.6046 18 18.5 16.9255 18.5 15.6V8.4C18.5 7.07452 17.6046 6 16.5 6Z" fill="#A9ABBC"/>
<path fill-rule="evenodd" clip-rule="evenodd" d="M12 3.5C11.5519 3.5 11.151 3.66088 10.8792 3.90423C10.6129 4.14271 10.5 4.42828 10.5 4.6859V6.02885C10.5 6.85728 9.82843 7.52885 9 7.52885C8.17157 7.52885 7.5 6.85728 7.5 6.02885V4.6859C7.5 3.51883 8.01929 2.43806 8.87814 1.66913C9.73154 0.90508 10.8568 0.5 12 0.5C13.1432 0.5 14.2685 0.90508 15.1219 1.66913C15.9807 2.43806 16.5 3.51883 16.5 4.6859V6.02885C16.5 6.85728 15.8284 7.52885 15 7.52885C14.1716 7.52885 13.5 6.85728 13.5 6.02885V4.6859C13.5 4.42828 13.3871 4.14271 13.1208 3.90423C12.849 3.66088 12.4481 3.5 12 3.5Z" fill="#A9ABBC"/>
<path d="M0 15C0 13.8954 0.895431 13 2 13H22C23.1046 13 24 13.8954 24 15V21C24 22.1046 23.1046 23 22 23H2C0.89543 23 0 22.1046 0 21V15Z" fill="#434660"/>
<path d="M11.9407 20.75C12.1397 20.75 12.3304 20.671 12.4711 20.5303C12.6117 20.3897 12.6907 20.1989 12.6907 20V19.869C12.6907 19.8237 12.703 19.7792 12.7262 19.7404C12.7495 19.7015 12.7829 19.6697 12.8229 19.6483C12.8628 19.627 12.9078 19.6169 12.9531 19.6191C12.9983 19.6213 13.0421 19.6358 13.0797 19.661L13.1887 19.734C13.3543 19.8417 13.5556 19.8798 13.749 19.84C13.9424 19.8002 14.1124 19.6858 14.2219 19.5215C14.3315 19.3571 14.3718 19.1562 14.3341 18.9624C14.2964 18.7685 14.1838 18.5973 14.0207 18.486L13.6137 18.215C13.5793 18.1922 13.551 18.1612 13.5315 18.1249C13.5119 18.0885 13.5017 18.0478 13.5017 18.0065C13.5017 17.9652 13.5119 17.9245 13.5315 17.8881C13.551 17.8518 13.5793 17.8208 13.6137 17.798L14.0217 17.53C14.1071 17.4774 14.1811 17.4083 14.2393 17.3266C14.2975 17.2449 14.3387 17.1524 14.3605 17.0545C14.3823 16.9567 14.3843 16.8554 14.3663 16.7568C14.3483 16.6581 14.3107 16.5641 14.2557 16.4802C14.2008 16.3963 14.1295 16.3244 14.0462 16.2685C13.963 16.2126 13.8693 16.1741 13.7709 16.155C13.6724 16.136 13.5712 16.1369 13.4731 16.1577C13.375 16.1784 13.282 16.2187 13.1997 16.276L13.0747 16.358C13.037 16.3827 12.9934 16.3967 12.9483 16.3987C12.9033 16.4006 12.8586 16.3903 12.8189 16.3689C12.7793 16.3474 12.7462 16.3157 12.7231 16.277C12.7 16.2383 12.6878 16.1941 12.6877 16.149V16C12.6877 15.8011 12.6087 15.6103 12.4681 15.4697C12.3274 15.329 12.1367 15.25 11.9377 15.25C11.7388 15.25 11.5481 15.329 11.4074 15.4697C11.2668 15.6103 11.1877 15.8011 11.1877 16V16.131C11.1878 16.1763 11.1755 16.2208 11.1522 16.2596C11.129 16.2985 11.0956 16.3303 11.0556 16.3517C11.0157 16.373 10.9707 16.3831 10.9254 16.3809C10.8802 16.3787 10.8364 16.3642 10.7987 16.339L10.6897 16.266C10.6078 16.2101 10.5156 16.171 10.4185 16.1509C10.3214 16.1309 10.2212 16.1303 10.1238 16.1492C10.0265 16.1681 9.93383 16.2062 9.85126 16.2611C9.7687 16.3161 9.69786 16.3869 9.64284 16.4694C9.58782 16.5519 9.54972 16.6445 9.53074 16.7419C9.51176 16.8393 9.51228 16.9394 9.53226 17.0366C9.55225 17.1337 9.59131 17.2259 9.64718 17.3079C9.70304 17.3898 9.77461 17.4599 9.85774 17.514L10.2647 17.785C10.2992 17.8078 10.3275 17.8388 10.347 17.8751C10.3666 17.9115 10.3768 17.9522 10.3768 17.9935C10.3768 18.0348 10.3666 18.0755 10.347 18.1119C10.3275 18.1482 10.2992 18.1792 10.2647 18.202L9.85674 18.47C9.77135 18.5226 9.69738 18.5917 9.63919 18.6734C9.581 18.7551 9.53978 18.8476 9.51796 18.9455C9.49615 19.0433 9.49418 19.1446 9.51218 19.2432C9.53018 19.3419 9.56777 19.4359 9.62275 19.5198C9.67772 19.6037 9.74896 19.6756 9.83224 19.7315C9.91552 19.7874 10.0092 19.8259 10.1076 19.845C10.2061 19.864 10.3073 19.8631 10.4054 19.8423C10.5035 19.8216 10.5965 19.7813 10.6787 19.724L10.8027 19.643C10.8404 19.6183 10.8841 19.6043 10.9291 19.6023C10.9742 19.6004 11.0189 19.6107 11.0585 19.6321C11.0982 19.6536 11.1313 19.6853 11.1544 19.724C11.1775 19.7627 11.1897 19.8069 11.1897 19.852V20C11.1897 20.0986 11.2092 20.1962 11.2469 20.2872C11.2847 20.3783 11.34 20.461 11.4098 20.5307C11.4795 20.6003 11.5623 20.6556 11.6534 20.6932C11.7445 20.7308 11.8422 20.7501 11.9407 20.75Z" fill="#A9ABBC"/>
<path fill-rule="evenodd" clip-rule="evenodd" d="M16.3789 19.75C16.3789 19.1977 16.8266 18.75 17.3789 18.75H20.3789C20.9312 18.75 21.3789 19.1977 21.3789 19.75C21.3789 20.3023 20.9312 20.75 20.3789 20.75H17.3789C16.8266 20.75 16.3789 20.3023 16.3789 19.75Z" fill="#A9ABBC"/>
<path d="M5.06183 20.75C5.26075 20.75 5.45151 20.671 5.59217 20.5303C5.73282 20.3897 5.81183 20.1989 5.81183 20V19.869C5.8118 19.8237 5.82407 19.7792 5.84734 19.7404C5.87061 19.7015 5.904 19.6697 5.94395 19.6483C5.9839 19.627 6.0289 19.6169 6.07415 19.6191C6.11939 19.6213 6.16318 19.6358 6.20083 19.661L6.30983 19.734C6.47535 19.8417 6.67667 19.8798 6.8701 19.84C7.06353 19.8002 7.23347 19.6858 7.34301 19.5215C7.45256 19.3571 7.49287 19.1562 7.45521 18.9624C7.41754 18.7685 7.30494 18.5973 7.14183 18.486L6.73484 18.215C6.70039 18.1922 6.67212 18.1612 6.65257 18.1249C6.63301 18.0885 6.62278 18.0478 6.62278 18.0065C6.62278 17.9652 6.63301 17.9245 6.65257 17.8881C6.67212 17.8518 6.70039 17.8208 6.73484 17.798L7.14284 17.53C7.22822 17.4774 7.3022 17.4083 7.36039 17.3266C7.41858 17.2449 7.4598 17.1524 7.48161 17.0545C7.50343 16.9567 7.50539 16.8554 7.4874 16.7568C7.4694 16.6581 7.4318 16.5641 7.37683 16.4802C7.32185 16.3963 7.25062 16.3244 7.16734 16.2685C7.08406 16.2126 6.99043 16.1741 6.89197 16.155C6.79352 16.136 6.69225 16.1369 6.59415 16.1577C6.49605 16.1784 6.40311 16.2187 6.32084 16.276L6.19584 16.358C6.15814 16.3827 6.11446 16.3967 6.06943 16.3987C6.0244 16.4006 5.97969 16.3903 5.94004 16.3689C5.90038 16.3474 5.86725 16.3157 5.84416 16.277C5.82106 16.2383 5.80886 16.1941 5.80884 16.149V16C5.80884 15.8011 5.72982 15.6103 5.58916 15.4697C5.44851 15.329 5.25775 15.25 5.05884 15.25C4.85992 15.25 4.66916 15.329 4.5285 15.4697C4.38785 15.6103 4.30884 15.8011 4.30884 16V16.131C4.30887 16.1763 4.2966 16.2208 4.27333 16.2596C4.25006 16.2985 4.21667 16.3303 4.17672 16.3517C4.13677 16.373 4.09177 16.3831 4.04652 16.3809C4.00128 16.3787 3.95749 16.3642 3.91984 16.339L3.81084 16.266C3.72892 16.2101 3.63672 16.171 3.53958 16.1509C3.44245 16.1309 3.3423 16.1303 3.24493 16.1492C3.14757 16.1681 3.05492 16.2062 2.97236 16.2611C2.88979 16.3161 2.81895 16.3869 2.76394 16.4694C2.70892 16.5519 2.67082 16.6445 2.65183 16.7419C2.63285 16.8393 2.63337 16.9394 2.65336 17.0366C2.67334 17.1337 2.7124 17.2259 2.76827 17.3079C2.82414 17.3898 2.89571 17.4599 2.97884 17.514L3.38583 17.785C3.42028 17.8078 3.44855 17.8388 3.4681 17.8751C3.48766 17.9115 3.49789 17.9522 3.49789 17.9935C3.49789 18.0348 3.48766 18.0755 3.4681 18.1119C3.44855 18.1482 3.42028 18.1792 3.38583 18.202L2.97783 18.47C2.89245 18.5226 2.81847 18.5917 2.76028 18.6734C2.70209 18.7551 2.66087 18.8476 2.63906 18.9455C2.61724 19.0433 2.61528 19.1446 2.63327 19.2432C2.65127 19.3419 2.68887 19.4359 2.74384 19.5198C2.79882 19.6037 2.87005 19.6756 2.95333 19.7315C3.03661 19.7874 3.13025 19.8259 3.2287 19.845C3.32715 19.864 3.42842 19.8631 3.52652 19.8423C3.62462 19.8216 3.71756 19.7813 3.79983 19.724L3.92384 19.643C3.96153 19.6183 4.00521 19.6043 4.05024 19.6023C4.09527 19.6004 4.13997 19.6107 4.17963 19.6321C4.21929 19.6536 4.25242 19.6853 4.27551 19.724C4.29861 19.7627 4.31081 19.8069 4.31084 19.852V20C4.31084 20.0986 4.33027 20.1962 4.36802 20.2872C4.40577 20.3783 4.46111 20.461 4.53086 20.5307C4.60061 20.6003 4.68341 20.6556 4.77452 20.6932C4.86563 20.7308 4.96326 20.7501 5.06183 20.75Z" fill="#A9ABBC"/>
</svg>
