<svg width="24" height="24" viewBox="0 0 24 24" fill="none" xmlns="http://www.w3.org/2000/svg">
<path d="M13 1.28558C13 0.733299 12.5523 0.285583 12 0.285583C11.4477 0.285583 11 0.733299 11 1.28558V2.71417C11 3.26646 11.4477 3.71417 12 3.71417C12.5523 3.71417 13 3.26646 13 2.71417V1.28558Z" fill="black"/>
<path fill-rule="evenodd" clip-rule="evenodd" d="M4.56204 11.2739C4.53102 13.9 5.90575 16.3249 8.14307 17.6459V19.1429C8.14307 20.4857 9.22888 21.5715 10.5717 21.5715H11V22.7144C11 23.2667 11.4477 23.7144 12 23.7144C12.5523 23.7144 13 23.2667 13 22.7144V21.5715H13.4288C14.7716 21.5715 15.8574 20.4857 15.8574 19.1429V17.6346C18.0824 16.3121 19.4604 13.8939 19.4191 11.2699L19.4191 11.2668C19.3422 7.20546 16.0708 3.93407 12.0095 3.85723C11.9969 3.857 11.9843 3.857 11.9717 3.85723C7.91279 3.93402 4.62803 7.20364 4.5621 11.2695L4.56204 11.2739ZM12.0071 19.5715H13.4288C13.667 19.5715 13.8574 19.3811 13.8574 19.1429V18H10.1431V19.1429C10.1431 19.3811 10.3335 19.5715 10.5717 19.5715H11.9929L12 19.5715L12.0071 19.5715ZM6.56187 11.2997C6.53953 13.2601 7.59383 15.0617 9.29361 16H11V13.8425L9.15032 11.9928C8.75979 11.6023 8.75979 10.9691 9.15032 10.5786C9.54084 10.188 10.174 10.188 10.5645 10.5786L12.0003 12.0143L13.4361 10.5786C13.8266 10.188 14.4598 10.188 14.8503 10.5786C15.2408 10.9691 15.2408 11.6023 14.8503 11.9928L13 13.8431V16H14.6876C16.3906 15.0604 17.4496 13.258 17.4194 11.3029C17.3621 8.32364 14.9677 5.92352 11.9906 5.85727C9.0113 5.92357 6.61127 8.32517 6.56187 11.2997Z" fill="black"/>
<path d="M1 11.2857C1 10.7334 1.44772 10.2857 2 10.2857H3.42859C3.98087 10.2857 4.42859 10.7334 4.42859 11.2857C4.42859 11.838 3.98087 12.2857 3.42859 12.2857H2C1.44772 12.2857 1 11.838 1 11.2857Z" fill="black"/>
<path d="M4.83647 3.42268C4.43878 3.03946 3.80573 3.05118 3.4225 3.44887C3.03927 3.84656 3.051 4.47961 3.44868 4.86284L4.49718 5.8732C4.89487 6.25643 5.52792 6.24471 5.91115 5.84702C6.29438 5.44933 6.28265 4.81628 5.88496 4.43305L4.83647 3.42268Z" fill="black"/>
<path d="M19.5718 11.2857C19.5718 10.7334 20.0195 10.2857 20.5718 10.2857H22.0004C22.5526 10.2857 23.0004 10.7334 23.0004 11.2857C23.0004 11.838 22.5526 12.2857 22.0004 12.2857H20.5718C20.0195 12.2857 19.5718 11.838 19.5718 11.2857Z" fill="black"/>
<path d="M20.552 4.86284C20.9496 4.47961 20.9614 3.84656 20.5781 3.44887C20.1949 3.05118 19.5619 3.03946 19.1642 3.42268L18.1157 4.43305C17.718 4.81628 17.7063 5.44933 18.0895 5.84702C18.4727 6.24471 19.1058 6.25643 19.5035 5.8732L20.552 4.86284Z" fill="black"/>
</svg>
