<svg width="24" height="24" viewBox="0 0 24 24" fill="none" xmlns="http://www.w3.org/2000/svg">
<path fill-rule="evenodd" clip-rule="evenodd" d="M3.39027 7.47252C3.86869 7.74844 4.03285 8.35995 3.75692 8.83838C3.26003 9.69994 2.99864 10.6771 2.99902 11.6717C2.9994 12.6663 3.26154 13.6432 3.75909 14.5044C4.25664 15.3656 4.97208 16.0806 5.83352 16.5777C6.69497 17.0748 7.67207 17.3365 8.66665 17.3363H12.6669C13.2192 17.3363 13.6669 17.784 13.6669 18.3363C13.6669 18.8886 13.2192 19.3363 12.6669 19.3363H8.66693C7.32138 19.3365 5.99934 18.9825 4.83391 18.31C3.66844 17.6375 2.70049 16.67 2.02734 15.5049C1.35419 14.3398 0.999538 13.018 0.999024 11.6724C0.99851 10.3268 1.35215 9.00481 2.02441 7.83918C2.30033 7.36076 2.91185 7.1966 3.39027 7.47252Z" fill="black"/>
<path fill-rule="evenodd" clip-rule="evenodd" d="M7.2196 4.13601C8.21066 3.9468 9.22933 3.95508 10.2172 4.16036C11.205 4.36565 12.1427 4.7639 12.9763 5.33228C13.8099 5.90067 14.5232 6.62801 15.0751 7.4726C15.3878 7.95107 15.6453 8.46185 15.8435 8.99507C16.0823 8.90806 16.3276 8.83804 16.5775 8.78578C17.2713 8.64072 17.987 8.63545 18.6829 8.77027C19.3787 8.90509 20.0407 9.1773 20.6301 9.57097C21.2195 9.96465 21.7244 10.4719 22.1155 11.063C22.5065 11.6542 22.7758 12.3174 22.9075 13.0138C23.0392 13.7102 23.0307 14.4259 22.8826 15.119C22.7344 15.8122 22.4495 16.4688 22.0446 17.0505C21.6397 17.6322 21.1229 18.1274 20.5243 18.507C20.0579 18.8028 19.4401 18.6645 19.1443 18.1981C18.8484 17.7317 18.9867 17.1139 19.4531 16.8181C19.8271 16.5808 20.1501 16.2714 20.4031 15.9079C20.6562 15.5444 20.8342 15.1341 20.9268 14.701C21.0193 14.2679 21.0246 13.8206 20.9423 13.3855C20.86 12.9503 20.6918 12.5359 20.4474 12.1665C20.2031 11.7971 19.8875 11.4801 19.5192 11.2341C19.1509 10.9881 18.7372 10.818 18.3024 10.7338C17.8676 10.6495 17.4204 10.6528 16.9868 10.7434C16.5533 10.8341 16.1422 11.0103 15.7776 11.2617C15.4989 11.4538 15.1419 11.4919 14.8289 11.3629C14.5159 11.2339 14.2895 10.9554 14.2271 10.6226C14.0897 9.88965 13.8089 9.19099 13.4009 8.56672C12.993 7.94245 12.4658 7.40485 11.8496 6.98474C11.2335 6.56462 10.5404 6.27026 9.81027 6.11853C9.08011 5.9668 8.32718 5.96068 7.59465 6.10053C7.05216 6.20409 6.52843 5.84828 6.42486 5.30579C6.3213 4.7633 6.67711 4.23957 7.2196 4.13601Z" fill="black"/>
<path fill-rule="evenodd" clip-rule="evenodd" d="M2.62615 4.29561C3.01667 3.90508 3.64984 3.90508 4.04036 4.29561L19.0377 19.2929C19.4282 19.6834 19.4282 20.3166 19.0377 20.7071C18.6472 21.0977 18.014 21.0977 17.6235 20.7071L2.62615 5.70982C2.23562 5.3193 2.23562 4.68613 2.62615 4.29561Z" fill="black"/>
</svg>
