<svg width="24" height="24" viewBox="0 0 24 24" fill="none" xmlns="http://www.w3.org/2000/svg">
<path fill-rule="evenodd" clip-rule="evenodd" d="M10.6877 8.92735C10.4308 8.79906 10.1453 8.73857 9.85847 8.75162C9.5716 8.76466 9.29281 8.8508 9.04859 9.00187C8.80437 9.15294 8.60281 9.36392 8.46304 9.61478C8.32327 9.86565 8.24994 10.1481 8.25 10.4352V15.0648C8.24994 15.352 8.32327 15.6344 8.46304 15.8853C8.6028 16.1361 8.80436 16.3471 9.04859 16.4982C9.29281 16.6492 9.5716 16.7354 9.85847 16.7484C10.1453 16.7615 10.4308 16.701 10.6877 16.5727L15.3186 14.2568C15.5986 14.117 15.8341 13.902 15.9987 13.6359C16.1633 13.3697 16.2505 13.063 16.2505 12.75C16.2505 12.4371 16.1633 12.1303 15.9987 11.8642C15.8341 11.5981 15.5986 11.383 15.3186 11.2433L10.6877 8.92735ZM13.8601 12.75L10.25 14.5554V10.9446L13.8601 12.75Z" fill="black"/>
<path fill-rule="evenodd" clip-rule="evenodd" d="M14.824 0.999956C14.5994 0.998803 6.25479 0.986131 5.75002 1.00034C4.995 1.02159 4.28394 1.34791 3.77071 1.90014C3.25819 2.45159 2.98372 3.18363 3.00075 3.93531C3.0116 4.41467 3.0116 19.5852 3.00075 20.0646C2.98372 20.8163 3.25819 21.5483 3.77071 22.0998C4.28394 22.652 4.995 22.9783 5.75002 22.9995C6.25215 23.0137 17.7478 23.0137 18.25 22.9995C19.005 22.9783 19.7161 22.652 20.2293 22.0998C20.7418 21.5483 21.0163 20.8163 20.9993 20.0646C20.9884 19.587 20.9979 8.08707 20.9995 7.5751C21.0019 6.8243 20.7231 6.0972 20.2143 5.54419C20.0438 5.35887 19.2308 4.48434 18.4442 3.63846L18.0656 3.23129C17.4247 2.54218 16.8782 1.95448 16.8127 1.88321C16.5595 1.60776 16.2529 1.38652 15.9107 1.23418C15.5686 1.08181 15.1988 1.00188 14.824 0.999956ZM5.8063 2.99955C6.26828 2.98654 14.5668 2.99866 14.8137 2.99993C14.9106 3.00043 15.0069 3.02105 15.0972 3.06122C15.1874 3.10142 15.2704 3.1607 15.3402 3.23668C15.41 3.31258 15.9609 3.90496 16.5994 4.59156L16.9796 5.00042C17.7695 5.84989 18.5767 6.71815 18.7425 6.8983C18.9061 7.07621 19.0003 7.31585 18.9995 7.56869C18.9979 8.06035 18.9882 19.5986 18.9998 20.1099C19.0051 20.3471 18.9181 20.5727 18.7643 20.7382C18.6112 20.9029 18.4054 20.9944 18.1937 21.0003C17.7291 21.0134 6.27092 21.0134 5.8063 21.0003C5.59456 20.9944 5.38878 20.9029 5.2357 20.7382C5.0819 20.5727 4.99486 20.3471 5.00023 20.1099C5.01177 19.6003 5.01177 4.39957 5.00023 3.89003C4.99486 3.65282 5.08191 3.42716 5.2357 3.26168C5.38878 3.09697 5.59456 3.00551 5.8063 2.99955Z" fill="black"/>
</svg>
