<svg width="24" height="24" viewBox="0 0 24 24" fill="none" xmlns="http://www.w3.org/2000/svg">
<path fill-rule="evenodd" clip-rule="evenodd" d="M3.60059 2.99996C3.68241 2.99992 20.3172 2.9998 20.401 2.99996C20.6253 3.00039 20.8462 3.04858 21.0495 3.14036C21.2528 3.23209 21.4331 3.36486 21.5805 3.52841C21.7278 3.69188 21.8394 3.8828 21.9103 4.08853C21.9812 4.29421 22.0104 4.51174 21.9967 4.72816L21.9963 4.73433C21.8408 6.98033 20.981 9.1167 19.5418 10.8164C18.2813 12.3051 16.636 13.388 14.8023 13.9398L14.8023 19.2966C14.8025 19.5294 14.7533 19.7605 14.6569 19.9738C14.5605 20.1872 14.4185 20.379 14.2387 20.534C14.1935 20.5729 13.1636 21.4632 12.4658 22.0664C12.1251 22.3609 11.8636 22.587 11.8344 22.6122C11.6017 22.8132 11.3145 22.9446 11.0053 22.986C10.696 23.0274 10.3829 22.9761 10.1039 22.8406C9.82528 22.7053 9.59504 22.4931 9.43606 22.2339C9.27726 21.975 9.19464 21.6778 9.19453 21.3768L9.19452 13.9395C7.3615 13.387 5.71687 12.3039 4.457 10.8153C3.01851 9.11563 2.1592 6.97975 2.00374 4.73432L2.00341 4.72953C1.98945 4.51288 2.01846 4.29503 2.08927 4.08905C2.16011 3.88301 2.2718 3.69181 2.41932 3.52815C2.56693 3.3644 2.7475 3.23152 2.95107 3.13982C3.15475 3.04807 3.37594 3.00006 3.60059 2.99996ZM11.1945 13.1644L11.1945 20.5217C11.7524 20.0394 12.5022 19.3913 12.8023 19.1319L12.8023 13.1644C12.8023 12.6918 13.1331 12.2837 13.5954 12.186C15.303 11.8248 16.8565 10.8928 18.0155 9.52405C19.0892 8.25594 19.7686 6.67827 19.9637 4.99992L4.03638 4.99995C4.23144 6.67787 4.91043 8.25518 5.98363 9.52322C7.14204 10.8919 8.69483 11.8242 10.4019 12.1861C10.864 12.284 11.1945 12.692 11.1945 13.1644Z" fill="black"/>
</svg>
