<svg width="24" height="24" viewBox="0 0 24 24" fill="none" xmlns="http://www.w3.org/2000/svg">
<g clip-path="url(#clip0_5281_1867)">
<path d="M17.5543 11.024C16.2963 11.0242 15.0666 11.3975 14.0206 12.0966C12.9747 12.7956 12.1595 13.7892 11.6783 14.9515C11.197 16.1138 11.0711 17.3928 11.3167 18.6266C11.5622 19.8605 12.1681 20.9938 13.0578 21.8833C13.9474 22.7728 15.0809 23.3785 16.3147 23.6239C17.5486 23.8693 18.8276 23.7432 19.9898 23.2617C21.1521 22.7803 22.1455 21.965 22.8444 20.9189C23.5433 19.8729 23.9163 18.6431 23.9163 17.385C23.9145 15.6984 23.2436 14.0814 22.0508 12.8888C20.8581 11.6963 19.241 11.0256 17.5543 11.024ZM14.9543 15.843C14.8827 15.7739 14.8255 15.6912 14.7861 15.5997C14.7468 15.5082 14.7261 15.4098 14.7252 15.3102C14.7242 15.2106 14.7432 15.1119 14.7808 15.0197C14.8185 14.9275 14.8742 14.8437 14.9445 14.7733C15.0149 14.7028 15.0986 14.6471 15.1908 14.6093C15.2829 14.5716 15.3817 14.5525 15.4813 14.5534C15.5809 14.5542 15.6793 14.5748 15.7708 14.6141C15.8623 14.6534 15.9451 14.7104 16.0143 14.782L17.3793 16.148C17.4265 16.1946 17.4901 16.2207 17.5563 16.2207C17.6226 16.2207 17.6862 16.1946 17.7333 16.148L19.1003 14.782C19.241 14.6414 19.4319 14.5623 19.6308 14.5623C19.8298 14.5623 20.0206 14.6414 20.1613 14.782C20.302 14.9227 20.3811 15.1136 20.3811 15.3125C20.3811 15.5115 20.302 15.7024 20.1613 15.843L18.7963 17.208C18.7731 17.2313 18.7546 17.2589 18.742 17.2892C18.7294 17.3196 18.7229 17.3522 18.7229 17.385C18.7229 17.4179 18.7294 17.4505 18.742 17.4809C18.7546 17.5112 18.7731 17.5388 18.7963 17.562L20.1613 18.927C20.302 19.0677 20.3811 19.2586 20.3811 19.4575C20.3811 19.6565 20.302 19.8474 20.1613 19.988C20.0206 20.1287 19.8298 20.2078 19.6308 20.2078C19.4319 20.2078 19.241 20.1287 19.1003 19.988L17.7353 18.622C17.6882 18.5755 17.6246 18.5494 17.5583 18.5494C17.4921 18.5494 17.4285 18.5755 17.3813 18.622L16.0163 19.988C15.9471 20.0596 15.8643 20.1167 15.7728 20.156C15.6813 20.1953 15.5829 20.2159 15.4833 20.2167C15.3837 20.2175 15.2849 20.1985 15.1928 20.1608C15.1006 20.123 15.0169 20.0673 14.9465 19.9968C14.8762 19.9264 14.8205 19.8426 14.7828 19.7504C14.7452 19.6582 14.7262 19.5595 14.7272 19.4599C14.7281 19.3603 14.7488 19.2619 14.7881 19.1704C14.8275 19.0789 14.8847 18.9962 14.9563 18.927L16.3213 17.562C16.3446 17.5388 16.3631 17.5112 16.3757 17.4809C16.3883 17.4505 16.3948 17.4179 16.3948 17.385C16.3948 17.3522 16.3883 17.3196 16.3757 17.2892C16.3631 17.2589 16.3446 17.2313 16.3213 17.208L14.9543 15.843Z" fill="#FF8C98"/>
<path fill-rule="evenodd" clip-rule="evenodd" d="M11.1915 12.0824C10.7193 11.9832 10.2298 11.9754 9.74992 12.0625C8.99985 12.1985 8.309 12.5597 7.76929 13.0981C7.18277 13.6832 6.23302 13.682 5.64797 13.0954C5.06292 12.5089 5.06411 11.5592 5.65063 10.9741C6.62176 10.0054 7.86486 9.35543 9.2145 9.11062C10.0779 8.95401 10.9588 8.96799 11.8085 9.14654C12.6192 9.3169 13.1383 10.1122 12.9679 10.9229C12.7976 11.7337 12.0023 12.2528 11.1915 12.0824Z" fill="#CD0B20"/>
<path fill-rule="evenodd" clip-rule="evenodd" d="M15.9751 9.65393C14.451 8.26531 12.4623 7.49768 10.4005 7.50222C8.33871 7.50676 6.35336 8.28315 4.83545 9.67847C4.22555 10.2391 3.27665 10.1992 2.71601 9.58928C2.15537 8.97938 2.19529 8.03048 2.80519 7.46984C4.87506 5.56713 7.58237 4.50842 10.3939 4.50222C13.2054 4.49603 15.9173 5.5428 17.9956 7.43637C18.6079 7.99432 18.652 8.94305 18.0941 9.55541C17.5361 10.1678 16.5874 10.2119 15.9751 9.65393Z" fill="#CD0B20"/>
<path fill-rule="evenodd" clip-rule="evenodd" d="M10.4257 3C7.52149 2.99886 4.70389 3.98909 2.43894 5.8069C1.79286 6.32543 0.848756 6.22203 0.330225 5.57595C-0.188305 4.92988 -0.0849078 3.98577 0.56117 3.46724C3.35897 1.22178 6.83943 -0.00140558 10.4269 1.21211e-06C14.0143 0.00140812 17.4938 1.22732 20.2899 3.47498C20.9355 3.99402 21.0382 4.9382 20.5191 5.58387C20.0001 6.22954 19.0559 6.3322 18.4103 5.81316C16.1467 3.99358 13.3299 3.00114 10.4257 3Z" fill="#CD0B20"/>
</g>
<defs>
<clipPath id="clip0_5281_1867">
<rect width="24" height="24" fill="white"/>
</clipPath>
</defs>
</svg>
