<svg width="24" height="24" viewBox="0 0 24 24" fill="none" xmlns="http://www.w3.org/2000/svg">
<path d="M23.4227 0.576215C23.7893 0.94095 23.9968 1.43585 24 1.95298L23.988 9.19998C23.992 12.6264 22.8339 15.953 20.703 18.6362C18.5721 21.3195 15.5943 23.2008 12.256 23.973C12.1902 23.9867 12.1232 23.9937 12.056 23.994C11.9909 23.9942 11.9259 23.9878 11.862 23.975C8.51697 23.2323 5.52264 21.3773 3.36812 18.7129C1.2136 16.0486 0.0262416 12.7324 0 9.30598L0.012 1.96498C0.0117275 1.44741 0.216389 0.950793 0.581238 0.583696C0.946087 0.216598 1.44144 0.00888905 1.959 0.00598145H22.043C22.5601 0.00649971 23.0561 0.211479 23.4227 0.576215Z" fill="#C7C8D3"/>
<path fill-rule="evenodd" clip-rule="evenodd" d="M8.75009 8.01546C8.75003 8.01032 8.75 8.00516 8.75 8V7C8.75 6.13805 9.09241 5.3114 9.7019 4.7019C10.3114 4.09241 11.138 3.75 12 3.75C12.862 3.75 13.6886 4.09241 14.2981 4.7019C14.9076 5.3114 15.25 6.13805 15.25 7V8C15.25 8.00516 15.25 8.01032 15.2499 8.01546C16.2365 8.13845 17 8.98006 17 10V15C17 16.1046 16.1046 17 15 17H9C7.89543 17 7 16.1046 7 15V10C7 8.98006 7.76347 8.13845 8.75009 8.01546ZM11.4697 6.46967C11.6103 6.32902 11.8011 6.25 12 6.25C12.1989 6.25 12.3897 6.32902 12.5303 6.46967C12.671 6.61032 12.75 6.80109 12.75 7V8H11.25V7C11.25 6.80109 11.329 6.61032 11.4697 6.46967ZM13.5 12.5C13.5 13.3284 12.8284 14 12 14C11.1716 14 10.5 13.3284 10.5 12.5C10.5 11.6716 11.1716 11 12 11C12.8284 11 13.5 11.6716 13.5 12.5Z" fill="#60627B"/>
</svg>
