<svg width="24" height="24" viewBox="0 0 24 24" fill="none" xmlns="http://www.w3.org/2000/svg">
<g clip-path="url(#clip0_3631_6891)">
<path fill-rule="evenodd" clip-rule="evenodd" d="M10.8003 1C10.8003 0.447715 10.3526 0 9.80029 0C9.24801 0 8.80029 0.447715 8.80029 1V2.20071H7.60003C6.73731 2.20071 6.01633 2.83983 5.88726 3.66788H2.46667C1.10251 3.66788 0 4.77124 0 6.13503V14.938C0 16.3018 1.10251 17.4051 2.46667 17.4051H4.61725L3.0144 21.1464C2.79691 21.654 3.03213 22.2419 3.53979 22.4594C4.04744 22.6769 4.63529 22.4416 4.85279 21.934L6.79307 17.4051H6.86667C7.41895 17.4051 7.86667 16.9574 7.86667 16.4051C7.86667 15.8528 7.41895 15.4051 6.86667 15.4051H6.15689C6.14165 15.4048 6.12642 15.4048 6.11123 15.4051H2.46667C2.20771 15.4051 2 15.1978 2 14.938V6.13503C2 5.87518 2.20771 5.66788 2.46667 5.66788H6.07752C6.46077 6.5322 7.32584 7.13405 8.33337 7.13405H11.2667C12.2742 7.13405 13.1393 6.5322 13.5225 5.66788H17.1334C17.3924 5.66788 17.6001 5.87518 17.6001 6.13503V12.1015C17.6001 12.6538 18.0478 13.1015 18.6001 13.1015C19.1523 13.1015 19.6001 12.6538 19.6001 12.1015V6.13503C19.6001 4.77124 18.4976 3.66788 17.1334 3.66788H13.7128C13.5837 2.83983 12.8628 2.20071 12 2.20071H10.8003V1ZM7.8667 4.20071V4.66738C7.8667 4.92665 8.07409 5.13405 8.33337 5.13405H11.2667C11.526 5.13405 11.7334 4.92665 11.7334 4.66738V4.20071H7.8667Z" fill="black"/>
<path fill-rule="evenodd" clip-rule="evenodd" d="M16.0191 13.3386C16.2632 13.238 16.5371 13.2379 16.7812 13.3385L23.3812 16.0576C23.7626 16.2147 24.0083 16.5898 24.0001 17.0022C23.9919 17.4145 23.7313 17.7795 23.344 17.9213L21.0668 18.7549V21.0903C21.0668 21.7751 20.6656 22.438 19.9721 22.706L17.0454 23.8771L17.0365 23.8806C16.6273 24.0398 16.173 24.0398 15.7638 23.8806L15.7549 23.8771L12.8237 22.7043C12.1609 22.4421 11.7335 21.7942 11.7335 21.0903L11.7334 18.7561L10.8003 18.4149V20.6501C10.8003 21.2024 10.3526 21.6501 9.80029 21.6501C9.24801 21.6501 8.80029 21.2024 8.80029 20.6501V16.9844C8.80029 16.5793 9.04464 16.2143 9.41911 16.0599L16.0191 13.3386ZM16.744 20.3372C16.5612 20.4041 16.3637 20.4159 16.1757 20.3726C16.1306 20.3629 16.086 20.3501 16.0423 20.3342L13.7334 19.4918L13.7335 20.9141L16.4001 21.9811L19.0668 20.9141V19.4878L18.8625 19.5617L16.744 20.3372ZM20.2415 16.9272L18.1786 17.6823L16.3899 18.3295L12.5591 16.9285L16.4004 15.3447L20.2415 16.9272Z" fill="black"/>
</g>
<defs>
<clipPath id="clip0_3631_6891">
<rect width="24" height="24" fill="white"/>
</clipPath>
</defs>
</svg>
