<svg width="24" height="24" viewBox="0 0 24 24" fill="none" xmlns="http://www.w3.org/2000/svg">
<path d="M17 15C17.5523 15 18 14.5523 18 14C18 13.4477 17.5523 13 17 13C16.4477 13 16 13.4477 16 14C16 14.5523 16.4477 15 17 15Z" fill="black"/>
<path fill-rule="evenodd" clip-rule="evenodd" d="M15.4994 2.09323C15.2287 2.01733 14.9461 1.98779 14.6663 2.00455C14.3865 2.0213 14.1089 2.08446 13.8488 2.19385L4.61212 6.07819C4.57483 6.09387 4.53899 6.11155 4.50467 6.13105C3.93207 6.29672 3.40838 6.61442 2.98779 7.05525C2.35035 7.72337 2 8.61991 2 9.54545V18.4545C2 19.3801 2.35035 20.2766 2.98779 20.9448C3.62676 21.6145 4.50369 22 5.42857 22H17.5714C18.4963 22 19.3732 21.6145 20.0122 20.9448C20.6497 20.2766 21 19.3801 21 18.4545V17.6539C21.1352 17.5661 21.2612 17.4629 21.3753 17.3456C21.7784 16.931 22 16.3745 22 15.8V12.2C22 11.6255 21.7784 11.069 21.3753 10.6544C21.2612 10.5371 21.1352 10.4339 21 10.3461V9.54545C21 8.61991 20.6497 7.72337 20.0122 7.05525C19.6378 6.66287 19.1818 6.36804 18.6823 6.19114L16.8409 3.09367C16.6908 2.84119 16.4903 2.62791 16.2597 2.45966C16.0292 2.29149 15.7701 2.16912 15.4994 2.09323ZM16.9167 18H19V18.4545C19 18.8792 18.8386 19.2775 18.5652 19.5642C18.2932 19.8492 17.9347 20 17.5714 20H5.42857C5.06526 20 4.70676 19.8492 4.43484 19.5642C4.16139 19.2775 4 18.8792 4 18.4545V9.54545C4 9.1208 4.16139 8.72246 4.43484 8.43585C4.70676 8.15083 5.06526 8 5.42857 8H17.5714C17.9347 8 18.2932 8.15083 18.5652 8.43585C18.8386 8.72246 19 9.1208 19 9.54545V10H16.9167C15.8687 10 14.8695 10.4285 14.1373 11.1816C13.406 11.9338 13 12.9481 13 14C13 15.0519 13.406 16.0662 14.1373 16.8184C14.8695 17.5715 15.8687 18 16.9167 18ZM16.2419 6L15.1217 4.11568C15.1191 4.11128 15.1082 4.09523 15.0809 4.0753C15.0533 4.05522 15.0129 4.03394 14.9595 4.01898C14.9062 4.00404 14.8467 3.99733 14.7858 4.00097C14.725 4.00462 14.6699 4.01819 14.6246 4.03728L9.95735 6H16.2419ZM16.9167 12C16.4176 12 15.933 12.2037 15.5713 12.5758C15.2086 12.9488 15 13.4606 15 14C15 14.5394 15.2086 15.0512 15.5713 15.4242C15.933 15.7963 16.4176 16 16.9167 16H19.8333C19.8683 16 19.9077 15.986 19.9413 15.9514C19.9758 15.916 20 15.862 20 15.8V12.2C20 12.138 19.9758 12.084 19.9413 12.0485C19.9077 12.014 19.8683 12 19.8333 12H16.9167Z" fill="black"/>
</svg>
