<svg width="24" height="24" viewBox="0 0 24 24" fill="none" xmlns="http://www.w3.org/2000/svg">
<path fill-rule="evenodd" clip-rule="evenodd" d="M8.27697 4.19987C7.67087 3.9986 7.02782 3.94855 6.40013 4.05331C5.77236 4.15808 5.17562 4.41511 4.65947 4.80544C4.14318 5.19589 3.72188 5.70894 3.43253 6.30405C3.04863 7.09305 2.91501 7.98888 3.05288 8.86288C3.19073 9.73675 3.59198 10.5397 4.19481 11.1593L4.20957 11.1748L12.0003 19.5333L19.792 11.1721L19.8065 11.1569C20.4087 10.5373 20.8094 9.73472 20.9472 8.86131C21.0849 7.98778 20.9516 7.0927 20.5682 6.30398C20.2789 5.70889 19.8576 5.19587 19.3413 4.80544C18.8252 4.41511 18.2284 4.15808 17.6007 4.05331C16.973 3.94855 16.3299 3.9986 15.7238 4.19987C15.1176 4.40118 14.5638 4.74865 14.1093 5.21614L12.7172 6.64727C12.5289 6.84081 12.2704 6.95 12.0004 6.95C11.7304 6.95 11.4719 6.84081 11.2836 6.64727L9.89164 5.21633C9.43714 4.74885 8.88321 4.40118 8.27697 4.19987ZM1.63386 5.42953C1.07002 6.58848 0.876001 7.89834 1.07731 9.17451C1.27807 10.4472 1.8627 11.627 2.75352 12.5459L11.2689 21.6818C11.458 21.8848 11.723 22 12.0004 22C12.2779 22 12.5428 21.8847 12.732 21.6818L21.2484 12.5429C22.1382 11.624 22.7222 10.4448 22.9228 9.1728C23.1239 7.89729 22.9301 6.58813 22.367 5.42961C21.9416 4.55469 21.3188 3.79336 20.5477 3.21024C19.7764 2.627 18.8793 2.23905 17.9299 2.0806C16.9804 1.92212 16.008 1.99812 15.0935 2.30178C14.1793 2.60537 13.3509 3.12719 12.6755 3.82178L12.0004 4.51584L11.3254 3.82198C10.6501 3.12738 9.82152 2.60537 8.90727 2.30178C7.9928 1.99812 7.0204 1.92212 6.07089 2.0806C5.12144 2.23905 4.22434 2.627 3.45311 3.21024C2.68211 3.7933 2.05925 4.55472 1.63386 5.42953Z" fill="black"/>
</svg>
