<svg width="24" height="24" viewBox="0 0 24 24" fill="none" xmlns="http://www.w3.org/2000/svg">
<path fill-rule="evenodd" clip-rule="evenodd" d="M15.7696 2.24378C17.4185 0.594923 20.1045 0.578894 21.7605 2.23491L21.7946 2.26907C23.4222 3.93152 23.4027 6.61546 21.7293 8.24817L8.84817 21.1382C8.72136 21.2651 8.56275 21.3555 8.38896 21.4L2.24816 22.973C1.90589 23.0607 1.54275 22.9612 1.29291 22.7114C1.04308 22.4615 0.943624 22.0984 1.0313 21.7561L2.58886 15.6755C2.62383 15.4824 2.71587 15.2976 2.86498 15.1482C2.89233 15.1208 2.92087 15.0953 2.95045 15.0717L15.7696 2.24378ZM4.10865 17.8023L3.38778 20.6165L6.20525 19.8948L4.10865 17.8023ZM8.14866 19.0088L4.99197 15.8582L16.0903 4.7522L19.2439 7.90582L8.14866 19.0088ZM20.3463 3.64912C19.5873 2.89013 18.4062 2.79627 17.5365 3.36999L20.6279 6.46138C21.1984 5.60682 21.1136 4.43555 20.3688 3.67162L20.3463 3.64912Z" fill="black"/>
</svg>
