<svg width="24" height="24" viewBox="0 0 24 24" fill="none" xmlns="http://www.w3.org/2000/svg">
<path fill-rule="evenodd" clip-rule="evenodd" d="M9.86553 4.76564C9.86553 3.58663 10.8213 2.63086 12.0003 2.63086C13.1793 2.63086 14.1351 3.58663 14.1351 4.76564C14.1351 5.23722 13.9822 5.67309 13.7232 6.02637C13.9146 6.14908 14.0937 6.29279 14.2569 6.45602C14.8554 7.0545 15.1916 7.86623 15.1916 8.71261V10.1474C15.1916 10.5892 14.8334 10.9474 14.3916 10.9474H14.1413L13.7506 14.0727C13.7006 14.4731 13.3603 14.7735 12.9568 14.7735H11.0438C10.6403 14.7735 10.3 14.4731 10.2499 14.0727L9.85928 10.9474H9.60898C9.16716 10.9474 8.80898 10.5892 8.80898 10.1474V8.71261C8.80898 7.86623 9.14521 7.0545 9.7437 6.45602C9.90693 6.29278 10.086 6.14906 10.2774 6.02635C10.0184 5.67307 9.86553 5.23721 9.86553 4.76564ZM12.0003 4.03086C11.5945 4.03086 11.2655 4.35983 11.2655 4.76564C11.2655 5.17145 11.5945 5.50042 12.0003 5.50042C12.4061 5.50042 12.7351 5.17145 12.7351 4.76564C12.7351 4.35983 12.4061 4.03086 12.0003 4.03086ZM10.8751 7.58739C11.1735 7.28896 11.5782 7.12131 12.0003 7.12131C12.4223 7.12131 12.8271 7.28896 13.1255 7.58739C13.4239 7.88582 13.5916 8.29057 13.5916 8.71261V9.34739H13.4351C13.0316 9.34739 12.6913 9.64782 12.6412 10.0482L12.2506 13.1735H11.75L11.3593 10.0482C11.3093 9.64782 10.969 9.34739 10.5655 9.34739H10.409V8.71261C10.409 8.29057 10.5766 7.88582 10.8751 7.58739Z" fill="black"/>
<path fill-rule="evenodd" clip-rule="evenodd" d="M4.34794 4.46418C2.58544 4.46418 1.15664 5.89297 1.15664 7.65548C1.15664 8.52892 1.50753 9.3204 2.07604 9.89666C1.81571 10.0591 1.57199 10.2503 1.35002 10.4683C0.551649 11.2524 0.100098 12.3194 0.100098 13.4354V15.4083C0.100098 15.9053 0.503041 16.3083 1.0001 16.3083H1.54651L2.116 20.7828C2.1732 21.2323 2.55567 21.5691 3.00879 21.5691H5.68705C6.14018 21.5691 6.52264 21.2323 6.57985 20.7828L7.14933 16.3083H7.69575C8.19281 16.3083 8.59575 15.9053 8.59575 15.4083V13.4354C8.59575 12.3194 8.1442 11.2524 7.34583 10.4683C7.12386 10.2503 6.88016 10.0591 6.61984 9.89667C7.18835 9.32042 7.53925 8.52893 7.53925 7.65548C7.53925 5.89297 6.11045 4.46418 4.34794 4.46418ZM2.75664 7.65548C2.75664 6.77663 3.46909 6.06418 4.34794 6.06418C5.2268 6.06418 5.93925 6.77663 5.93925 7.65548C5.93925 8.53434 5.2268 9.24679 4.34794 9.24679C3.46909 9.24679 2.75664 8.53434 2.75664 7.65548ZM2.61129 11.7525C3.06915 11.3029 3.69354 11.0474 4.34792 11.0474C5.00231 11.0474 5.6267 11.3029 6.08456 11.7525C6.54187 12.2017 6.79575 12.8074 6.79575 13.4354V14.5083H6.35662C5.9035 14.5083 5.52103 14.8451 5.46382 15.2946L4.89434 19.7691H3.80151L3.23203 15.2946C3.17482 14.8451 2.79235 14.5083 2.33923 14.5083H1.9001V13.4354C1.9001 12.8074 2.15398 12.2017 2.61129 11.7525Z" fill="black"/>
<path fill-rule="evenodd" clip-rule="evenodd" d="M19.6521 4.46418C17.8896 4.46418 16.4608 5.89297 16.4608 7.65548C16.4608 8.52892 16.8117 9.32041 17.3802 9.89666C17.1199 10.0591 16.8762 10.2503 16.6542 10.4683C15.8558 11.2524 15.4043 12.3194 15.4043 13.4354V15.4083C15.4043 15.9053 15.8072 16.3083 16.3043 16.3083H16.8507L17.4202 20.7828C17.4774 21.2323 17.8599 21.5691 18.313 21.5691H20.9913C21.4444 21.5691 21.8268 21.2323 21.8841 20.7828L22.4535 16.3083H22.9999C23.497 16.3083 23.8999 15.9053 23.8999 15.4083V13.4354C23.8999 12.3194 23.4484 11.2524 22.65 10.4683C22.4281 10.2503 22.1844 10.0591 21.924 9.89668C22.4925 9.32042 22.8434 8.52893 22.8434 7.65548C22.8434 5.89297 21.4147 4.46418 19.6521 4.46418ZM18.0608 7.65548C18.0608 6.77663 18.7733 6.06418 19.6521 6.06418C20.531 6.06418 21.2434 6.77663 21.2434 7.65548C21.2434 8.53434 20.531 9.24679 19.6521 9.24679C18.7733 9.24679 18.0608 8.53434 18.0608 7.65548ZM19.6521 11.0474C18.9977 11.0474 18.3734 11.3029 17.9155 11.7525C17.4582 12.2017 17.2043 12.8074 17.2043 13.4354V14.5083H17.6434C18.0965 14.5083 18.479 14.8451 18.5362 15.2946L19.1057 19.7691H20.1985L20.768 15.2946C20.8252 14.8451 21.2077 14.5083 21.6608 14.5083H22.0999V13.4354C22.0999 12.8074 21.8461 12.2017 21.3888 11.7525C20.9309 11.3029 20.3065 11.0474 19.6521 11.0474Z" fill="black"/>
</svg>
