<svg width="24" height="24" viewBox="0 0 24 24" fill="none" xmlns="http://www.w3.org/2000/svg">
<path fill-rule="evenodd" clip-rule="evenodd" d="M16.5 11.375C17.0523 11.375 17.5 11.8227 17.5 12.375V17.625C17.5 18.1691 17.3153 18.6937 17.0074 19.115L16.9971 19.1289C16.1803 20.2071 14.6405 20.4577 13.5327 19.6493L10.2827 17.5783C9.81688 17.2816 9.6799 16.6634 9.97668 16.1976C10.2735 15.7319 10.8916 15.5949 11.3574 15.8917L14.6374 17.9817C14.6602 17.9962 14.6824 18.0116 14.7039 18.0279C14.9116 18.1853 15.2226 18.1517 15.3977 17.9279C15.4664 17.8308 15.5 17.7186 15.5 17.625V12.375C15.5 11.8227 15.9477 11.375 16.5 11.375Z" fill="black"/>
<path fill-rule="evenodd" clip-rule="evenodd" d="M13.5394 3.59647C13.9556 3.30129 14.4685 3.125 15 3.125C16.3823 3.125 17.5 4.24272 17.5 5.625C17.5 6.17728 17.0523 6.625 16.5 6.625C15.9477 6.625 15.5 6.17728 15.5 5.625C15.5 5.34728 15.2777 5.125 15 5.125C14.9041 5.125 14.7887 5.16028 14.69 5.23239C14.6727 5.24505 14.655 5.25714 14.6369 5.26866L8.0369 9.46866C7.87645 9.57077 7.69021 9.625 7.50003 9.625H4.50003C4.22231 9.625 4.00003 9.84728 4.00003 10.125V13.125C4.00003 13.4027 4.22231 13.625 4.50003 13.625H5.12003C5.67231 13.625 6.12003 14.0727 6.12003 14.625C6.12003 15.1773 5.67231 15.625 5.12003 15.625H4.50003C3.11774 15.625 2.00003 14.5073 2.00003 13.125V10.125C2.00003 8.74272 3.11774 7.625 4.50003 7.625H7.20882L13.5394 3.59647Z" fill="black"/>
<path fill-rule="evenodd" clip-rule="evenodd" d="M21.7682 4.23482C22.1218 4.65909 22.0645 5.28966 21.6402 5.64322L3.64021 20.6432C3.21593 20.9968 2.58537 20.9395 2.2318 20.5152C1.87824 20.0909 1.93556 19.4603 2.35984 19.1068L20.3598 4.10678C20.7841 3.75321 21.4147 3.81054 21.7682 4.23482Z" fill="black"/>
</svg>
