<svg width="24" height="24" viewBox="0 0 24 24" fill="none" xmlns="http://www.w3.org/2000/svg">
<path d="M14 10.5C14 9.94772 14.4477 9.5 15 9.5L18 9.5C18.5523 9.5 19 9.94772 19 10.5C19 11.0523 18.5523 11.5 18 11.5H15C14.4477 11.5 14 11.0523 14 10.5Z" fill="black"/>
<path d="M15 13C14.4477 13 14 13.4477 14 14C14 14.5523 14.4477 15 15 15H19.5C20.0523 15 20.5 14.5523 20.5 14C20.5 13.4477 20.0523 13 19.5 13H15Z" fill="black"/>
<path fill-rule="evenodd" clip-rule="evenodd" d="M4.5 10C4.5 8.34315 5.84315 7 7.5 7C9.15685 7 10.5 8.34315 10.5 10C10.5 10.8182 10.1725 11.5598 9.64142 12.101C10.0423 12.3417 10.4089 12.649 10.7275 13.0131C11.5541 13.9579 12 15.2138 12 16.5C12 16.7652 11.8946 17.0196 11.7071 17.2071C11.5196 17.3946 11.2652 17.5 11 17.5H4C3.73478 17.5 3.48043 17.3946 3.29289 17.2071C3.10536 17.0196 3 16.7652 3 16.5C3 15.2138 3.44586 13.9579 4.27255 13.0131C4.59108 12.649 4.95768 12.3417 5.35858 12.101C4.82751 11.5598 4.5 10.8182 4.5 10ZM7.5 9C6.94772 9 6.5 9.44772 6.5 10C6.5 10.5523 6.94772 11 7.5 11C8.05228 11 8.5 10.5523 8.5 10C8.5 9.44772 8.05228 9 7.5 9ZM5.7777 14.3301C6.26004 13.7788 6.88333 13.5 7.5 13.5C8.11667 13.5 8.73996 13.7788 9.2223 14.3301C9.50645 14.6548 9.72415 15.0559 9.85599 15.5H5.14401C5.27585 15.0559 5.49355 14.6548 5.7777 14.3301Z" fill="black"/>
<path fill-rule="evenodd" clip-rule="evenodd" d="M0 5.45455C0 4.09113 1.1122 3 2.46667 3H21.5333C22.8878 3 24 4.09113 24 5.45455V18.5455C24 19.9089 22.8878 21 21.5333 21H2.46667C1.1122 21 0 19.9089 0 18.5455V5.45455ZM2.46667 5C2.20109 5 2 5.21131 2 5.45455V18.5455C2 18.7887 2.20109 19 2.46667 19H21.5333C21.7989 19 22 18.7887 22 18.5455V5.45455C22 5.21131 21.7989 5 21.5333 5H2.46667Z" fill="black"/>
</svg>
