<svg width="24" height="24" viewBox="0 0 24 24" fill="none" xmlns="http://www.w3.org/2000/svg">
<g clip-path="url(#clip0_4345_1013)">
<path d="M22.3471 7.98872L22.3489 7.98848C22.6208 7.95398 22.897 7.99647 23.146 8.11125C23.3936 8.22539 23.6046 8.40651 23.7549 8.6344C23.9052 8.86038 23.9902 9.12371 24 9.39527C24.0099 9.66901 23.9431 9.94 23.8073 10.1777L21.4726 14.262L21.4719 14.2631C21.3581 14.4617 21.1995 14.6308 21.009 14.7572C20.8184 14.8836 20.6012 14.9638 20.3744 14.9916L20.3496 14.9946L20.3246 14.9964C20.2696 15.0004 20.2143 15.0011 20.1592 14.9986C19.9744 14.9942 19.7919 14.955 19.6213 14.883C19.44 14.8064 19.2753 14.6936 19.138 14.5523L15.8591 11.1722C15.6685 10.9755 15.5364 10.7294 15.4782 10.4614C15.42 10.1934 15.4379 9.91446 15.5299 9.65616C15.622 9.39788 15.7843 9.17069 15.9984 9C16.2119 8.82981 16.4684 8.72247 16.7391 8.68968L16.7414 8.68939L17.4834 8.59795C17.1509 7.98257 16.7159 7.42513 16.1948 6.95043C15.4352 6.25843 14.5162 5.76369 13.519 5.51015C12.4936 5.26851 11.4216 5.30871 10.4172 5.62652C9.41041 5.94508 8.50966 6.53051 7.81107 7.31991L7.81021 7.32088C7.42697 7.7528 6.88796 8.01465 6.31197 8.04966C5.736 8.08466 5.16928 7.89003 4.73652 7.5079C4.30367 7.12568 4.04024 6.58707 4.00502 6.01031C3.96983 5.43403 4.16541 4.86779 4.54809 4.43592C5.76908 3.05577 7.3428 2.0328 9.10092 1.47603C10.859 0.91926 12.7357 0.849454 14.5304 1.27419L14.543 1.27736C16.3551 1.73123 18.0164 2.65141 19.361 3.94631C20.5473 5.08883 21.4505 6.4878 22.003 8.03192L22.3471 7.98872Z" fill="#0D8B9C"/>
<path fill-rule="evenodd" clip-rule="evenodd" d="M0.247993 15.3558C0.383028 15.5576 0.56596 15.7229 0.780432 15.8367C0.984051 15.9449 1.21008 16.0035 1.44023 16.0082C1.4934 16.0105 1.54667 16.0097 1.59978 16.006L1.62388 16.0042L2.01665 15.9571C2.56621 17.5042 3.46723 18.9062 4.65229 20.0511C5.99467 21.348 7.65434 22.2693 9.46499 22.7227L9.47712 22.7258C11.268 23.1505 13.1407 23.0808 14.895 22.5242C16.6461 21.9686 18.2138 20.9487 19.4311 19.5731C19.6237 19.3626 19.7731 19.1163 19.8706 18.848C19.9697 18.5756 20.0133 18.2861 19.9989 17.9966C19.9845 17.707 19.9124 17.4233 19.7867 17.162C19.6611 16.9008 19.4846 16.6673 19.2674 16.4752C19.0503 16.2832 18.797 16.1364 18.5223 16.0436C18.2477 15.9509 17.9573 15.9139 17.6682 15.9349C17.3791 15.956 17.0971 16.0345 16.8387 16.1661C16.5843 16.2956 16.3579 16.474 16.1725 16.6909C15.4764 17.4764 14.5806 18.0589 13.58 18.3764C12.5789 18.694 11.5105 18.7345 10.4883 18.4935C9.49451 18.2413 8.57829 17.7478 7.82093 17.0566C7.30249 16.5835 6.86949 16.0279 6.53828 15.4144L7.25528 15.3286C7.52592 15.2953 7.78196 15.1873 7.99477 15.0167C8.20759 14.8462 8.36878 14.6199 8.46033 14.363C8.55188 14.106 8.57015 13.8287 8.51311 13.562C8.45612 13.2955 8.32615 13.0501 8.13775 12.8532L4.89043 9.45779C4.73276 9.29076 4.53788 9.16326 4.32161 9.0857C4.10561 9.00824 3.87443 8.98279 3.64683 9.01138C3.4226 9.03837 3.20755 9.11665 3.0184 9.24022C2.82698 9.36526 2.66736 9.53323 2.55223 9.73078L2.55026 9.73416L0.199102 13.805M0.247993 15.3558C0.0975819 15.1275 0.00936129 14.7732 0.00156978 14.5ZM0.00156978 14.5C-0.00585019 14.2398 0.0564737 14.0582 0.180857 13.8369C0.186797 13.8264 0.199102 13.805 0.199102 13.805" fill="#86E9E9"/>
<path d="M0.780432 15.8367C0.56596 15.7229 0.383028 15.5576 0.247993 15.3558C0.0975819 15.1275 0.00936129 14.7732 0.00156978 14.5C-0.00585019 14.2398 0.0564737 14.0582 0.180857 13.8369L0.199102 13.805L2.55026 9.73416L2.55223 9.73078C2.66736 9.53323 2.82698 9.36526 3.0184 9.24022C3.20755 9.11665 3.4226 9.03837 3.64683 9.01138C3.87443 8.98279 4.10561 9.00824 4.32161 9.0857C4.53788 9.16326 4.73276 9.29076 4.89043 9.45779L8.13775 12.8532C8.32615 13.0501 8.45612 13.2955 8.51311 13.562C8.57015 13.8287 8.55188 14.106 8.46033 14.363C8.36878 14.6199 8.20759 14.8462 7.99477 15.0167C7.78196 15.1873 7.52592 15.2953 7.25528 15.3286L6.53828 15.4144C6.86949 16.0279 7.30249 16.5835 7.82093 17.0566C8.57829 17.7478 9.49451 18.2413 10.4883 18.4935C11.5105 18.7345 12.5789 18.694 13.58 18.3764C14.5806 18.0589 15.4764 17.4764 16.1725 16.6909C16.3579 16.474 16.5843 16.2956 16.8387 16.1661C17.0971 16.0345 17.3791 15.956 17.6682 15.9349C17.9573 15.9139 18.2477 15.9509 18.5223 16.0436C18.797 16.1364 19.0503 16.2832 19.2674 16.4752C19.4846 16.6673 19.6611 16.9008 19.7867 17.162C19.9124 17.4233 19.9845 17.707 19.9989 17.9966C20.0133 18.2861 19.9697 18.5756 19.8706 18.848C19.7731 19.1163 19.6237 19.3626 19.4311 19.5731C18.2138 20.9487 16.6461 21.9686 14.895 22.5242C13.1407 23.0808 11.268 23.1505 9.47712 22.7258L9.46499 22.7227C7.65434 22.2693 5.99467 21.348 4.65229 20.0511C3.46723 18.9062 2.56621 17.5042 2.01665 15.9571L1.62388 16.0042L1.59978 16.006C1.54667 16.0097 1.4934 16.0105 1.44023 16.0082C1.21008 16.0035 0.984051 15.9449 0.780432 15.8367Z" fill="#86E9E9"/>
</g>
<defs>
<clipPath id="clip0_4345_1013">
<rect width="24" height="24" fill="white"/>
</clipPath>
</defs>
</svg>
