<svg width="24" height="24" viewBox="0 0 24 24" fill="none" xmlns="http://www.w3.org/2000/svg">
<path fill-rule="evenodd" clip-rule="evenodd" d="M5.9896 3.48959C7.58366 1.89553 9.74567 1 12 1C14.2543 1 16.4164 1.89553 18.0104 3.48959C19.6045 5.08365 20.5 7.24566 20.5 9.5C20.5 12.9598 20.8692 14.9125 21.2032 15.9648C21.3693 16.4882 21.5235 16.7788 21.6115 16.9183C21.6463 16.9735 21.6707 17.005 21.6813 17.018C21.9707 17.2872 22.076 17.7046 21.9434 18.0818C21.8026 18.4821 21.4244 18.75 21 18.75H3.00001C2.6175 18.75 2.26851 18.5318 2.101 18.1879C1.93633 17.8499 1.9754 17.4486 2.20075 17.149C2.20343 17.1451 2.20987 17.1357 2.21964 17.1203C2.24303 17.0833 2.28568 17.0119 2.34166 16.901C2.45356 16.6794 2.6194 16.2984 2.7909 15.7172C3.1341 14.5542 3.50001 12.5893 3.50001 9.5C3.50001 7.24566 4.39554 5.08365 5.9896 3.48959ZM7.40381 4.90381C8.6228 3.68482 10.2761 3 12 3C13.7239 3 15.3772 3.68482 16.5962 4.90381C17.8152 6.12279 18.5 7.77609 18.5 9.5C18.5 13.0862 18.8808 15.2585 19.2968 16.5697C19.3165 16.6316 19.3362 16.6917 19.3561 16.75H4.56105C4.61031 16.6055 4.65988 16.4501 4.70912 16.2833C5.11592 14.9048 5.50001 12.7447 5.50001 9.5C5.50001 7.77609 6.18483 6.12279 7.40381 4.90381Z" fill="black"/>
<path d="M10.9598 20.2192C10.8042 19.6892 10.2485 19.3858 9.71859 19.5413C9.18867 19.6969 8.88519 20.2526 9.04075 20.7825C9.22863 21.4225 9.61875 21.9845 10.1527 22.3842C10.6867 22.784 11.3357 23 12.0028 23C12.6698 23 13.3189 22.784 13.8528 22.3842C14.3868 21.9845 14.7769 21.4225 14.9648 20.7825C15.1203 20.2526 14.8169 19.6969 14.2869 19.5413C13.757 19.3858 13.2013 19.6892 13.0457 20.2192C12.9796 20.4445 12.8422 20.6424 12.6542 20.7832C12.4662 20.9239 12.2376 21 12.0028 21C11.7679 21 11.5393 20.9239 11.3513 20.7832C11.1633 20.6424 11.0259 20.4445 10.9598 20.2192Z" fill="black"/>
<path fill-rule="evenodd" clip-rule="evenodd" d="M5.9896 3.48959C7.58366 1.89553 9.74567 1 12 1C14.2543 1 16.4164 1.89553 18.0104 3.48959C19.6045 5.08365 20.5 7.24566 20.5 9.5C20.5 12.9598 20.8692 14.9125 21.2032 15.9648C21.3693 16.4882 21.5235 16.7788 21.6115 16.9183C21.6463 16.9735 21.6707 17.005 21.6813 17.018C21.9707 17.2872 22.076 17.7046 21.9434 18.0818C21.8026 18.4821 21.4244 18.75 21 18.75H3.00001C2.6175 18.75 2.26851 18.5318 2.101 18.1879C1.93633 17.8499 1.9754 17.4486 2.20075 17.149C2.20343 17.1451 2.20987 17.1357 2.21964 17.1203C2.24303 17.0833 2.28568 17.0119 2.34166 16.901C2.45356 16.6794 2.6194 16.2984 2.7909 15.7172C3.1341 14.5542 3.50001 12.5893 3.50001 9.5C3.50001 7.24566 4.39554 5.08365 5.9896 3.48959ZM7.40381 4.90381C8.6228 3.68482 10.2761 3 12 3C13.7239 3 15.3772 3.68482 16.5962 4.90381C17.8152 6.12279 18.5 7.77609 18.5 9.5C18.5 13.0862 18.8808 15.2585 19.2968 16.5697C19.3165 16.6316 19.3362 16.6917 19.3561 16.75H4.56105C4.61031 16.6055 4.65988 16.4501 4.70912 16.2833C5.11592 14.9048 5.50001 12.7447 5.50001 9.5C5.50001 7.77609 6.18483 6.12279 7.40381 4.90381Z" fill="black"/>
<path d="M10.9598 20.2192C10.8042 19.6892 10.2485 19.3858 9.71859 19.5413C9.18867 19.6969 8.88519 20.2526 9.04075 20.7825C9.22863 21.4225 9.61875 21.9845 10.1527 22.3842C10.6867 22.784 11.3357 23 12.0028 23C12.6698 23 13.3189 22.784 13.8528 22.3842C14.3868 21.9845 14.7769 21.4225 14.9648 20.7825C15.1203 20.2526 14.8169 19.6969 14.2869 19.5413C13.757 19.3858 13.2013 19.6892 13.0457 20.2192C12.9796 20.4445 12.8422 20.6424 12.6542 20.7832C12.4662 20.9239 12.2376 21 12.0028 21C11.7679 21 11.5393 20.9239 11.3513 20.7832C11.1633 20.6424 11.0259 20.4445 10.9598 20.2192Z" fill="black"/>
</svg>
