<svg width="24" height="24" viewBox="0 0 24 24" fill="none" xmlns="http://www.w3.org/2000/svg">
<path d="M22 15.5019C22 14.9274 21.7719 14.3764 21.366 13.9701C20.96 13.5639 20.4094 13.3356 19.8352 13.3356L9.64257 13.3356C9.5693 13.3356 9.49903 13.3065 9.44722 13.2547C9.39541 13.2028 9.36631 13.1325 9.36631 13.0592L9.36631 10.0834C9.36647 9.87559 9.30684 9.67209 9.19454 9.49725C9.08224 9.32241 8.92202 9.18361 8.73301 9.09743C8.544 9.01126 8.3342 8.98135 8.12867 9.01129C7.92314 9.04122 7.73056 9.12973 7.57394 9.26624L1.3548 14.6847C1.24284 14.7893 1.15357 14.9158 1.09253 15.0564C1.0315 15.197 1 15.3486 1 15.5019C1 15.6552 1.0315 15.8068 1.09253 15.9474C1.15357 16.088 1.24284 16.2145 1.3548 16.3191L7.57946 21.7376C7.7362 21.8727 7.92836 21.96 8.13317 21.9892C8.33798 22.0184 8.54686 21.9882 8.73504 21.9022C8.92321 21.8161 9.0828 21.6779 9.19489 21.5039C9.30697 21.3299 9.36684 21.1274 9.36741 20.9204V17.9447C9.36741 17.8713 9.39652 17.801 9.44833 17.7492C9.50014 17.6973 9.5704 17.6682 9.64367 17.6682L19.8352 17.6682C20.4094 17.6682 20.96 17.44 21.366 17.0337C21.7719 16.6275 22 16.0764 22 15.5019Z" fill="#C7C8D3"/>
<path d="M2 8.49809C2 9.07262 2.22807 9.62362 2.63404 10.0299C3.04002 10.4361 3.59063 10.6644 4.16476 10.6644L14.3574 10.6644C14.4307 10.6644 14.501 10.6935 14.5528 10.7453C14.6046 10.7972 14.6337 10.8675 14.6337 10.9408L14.6337 13.9166C14.6335 14.1244 14.6932 14.3279 14.8055 14.5028C14.9178 14.6776 15.078 14.8164 15.267 14.9026C15.456 14.9887 15.6658 15.0186 15.8713 14.9887C16.0769 14.9588 16.2694 14.8703 16.4261 14.7338L22.6452 9.31528C22.7572 9.21068 22.8464 9.08416 22.9075 8.94358C22.9685 8.803 23 8.65136 23 8.49809C23 8.34481 22.9685 8.19317 22.9075 8.05259C22.8464 7.91201 22.7572 7.78549 22.6452 7.68089L16.4205 2.26241C16.2638 2.12729 16.0716 2.03997 15.8668 2.0108C15.662 1.98163 15.4531 2.01184 15.265 2.09785C15.0768 2.18386 14.9172 2.32206 14.8051 2.49606C14.693 2.67007 14.6332 2.87259 14.6326 3.07961L14.6326 6.05535C14.6326 6.12867 14.6035 6.19898 14.5517 6.25083C14.4999 6.30267 14.4296 6.3318 14.3563 6.3318L4.16477 6.3318C3.59063 6.3318 3.04002 6.56003 2.63404 6.96629C2.22807 7.37255 2 7.92355 2 8.49809Z" fill="#60627B"/>
</svg>
