<svg width="24" height="24" viewBox="0 0 24 24" fill="none" xmlns="http://www.w3.org/2000/svg">
<path fill-rule="evenodd" clip-rule="evenodd" d="M12 2C6.47715 2 2 6.47715 2 12C2 17.5228 6.47715 22 12 22C17.5228 22 22 17.5228 22 12C22 6.47715 17.5228 2 12 2ZM0 12C0 5.37258 5.37258 0 12 0C18.6274 0 24 5.37258 24 12C24 18.6274 18.6274 24 12 24C5.37258 24 0 18.6274 0 12ZM5.83008 8.97607C5.83008 8.42379 6.27779 7.97607 6.83008 7.97607H9.83008C10.3824 7.97607 10.8301 8.42379 10.8301 8.97607C10.8301 9.52836 10.3824 9.97607 9.83008 9.97607H6.83008C6.27779 9.97607 5.83008 9.52836 5.83008 8.97607ZM13.1636 8.97607C13.1636 8.42379 13.6113 7.97607 14.1636 7.97607H17.1636C17.7159 7.97607 18.1636 8.42379 18.1636 8.97607C18.1636 9.52836 17.7159 9.97607 17.1636 9.97607H14.1636C13.6113 9.97607 13.1636 9.52836 13.1636 8.97607Z" fill="black"/>
<path d="M9.70538 15.2665L9.69699 15.259C9.30573 14.8785 8.68006 14.8818 8.29289 15.269C7.90237 15.6595 7.90307 16.2934 8.2936 16.6839L8.29432 16.6846L8.29586 16.6861L8.29922 16.6895L8.30713 16.6972L8.32778 16.7168C8.34368 16.7317 8.36387 16.7502 8.38837 16.7716C8.43735 16.8145 8.5037 16.8695 8.5875 16.9323C8.75496 17.0579 8.99328 17.2157 9.30279 17.3705C9.92507 17.6816 10.8272 17.9761 12 17.9761C13.1728 17.9761 14.0749 17.6816 14.6972 17.3705C15.0067 17.2157 15.245 17.0579 15.4125 16.9323C15.4963 16.8695 15.5627 16.8145 15.6116 16.7716C15.6361 16.7502 15.6563 16.7317 15.6722 16.7168L15.6929 16.6972L15.7008 16.6895L15.7041 16.6861L15.7057 16.6846L15.7071 16.6832C16.0976 16.2927 16.0976 15.6595 15.7071 15.269C15.3199 14.8818 14.6943 14.8785 14.303 15.259L14.2946 15.2665C14.2811 15.2783 14.2537 15.3014 14.2125 15.3323C14.13 15.3942 13.9933 15.4864 13.8028 15.5816C13.4251 15.7705 12.8272 15.9761 12 15.9761C11.1728 15.9761 10.5749 15.7705 10.1972 15.5816C10.0067 15.4864 9.87004 15.3942 9.7875 15.3323C9.7463 15.3014 9.7189 15.2783 9.70538 15.2665Z" fill="black"/>
</svg>
