<svg width="24" height="24" viewBox="0 0 24 24" fill="none" xmlns="http://www.w3.org/2000/svg">
<g clip-path="url(#clip0_2929_399)">
<path d="M3 6.32979C3 6.15015 3.14673 6 3.33331 6H20.6664C20.853 6 20.9997 6.15015 20.9997 6.32979V8.97595C20.9997 9.52824 21.4474 9.97595 21.9997 9.97595C22.552 9.97595 22.9997 9.52824 22.9997 8.97595V6.32979C22.9997 5.04059 21.9526 4 20.6664 4H3.33331C2.04716 4 1 5.04059 1 6.32979V15.6702C1 16.9594 2.04716 18 3.33331 18H8C8.55228 18 9 17.5523 9 17C9 16.4477 8.55228 16 8 16H3.33331C3.14673 16 3 15.8499 3 15.6702V6.32979Z" fill="black"/>
<path d="M10 11C10 9.89543 10.8954 9 12 9C12.3081 9 12.5974 9.069 12.8556 9.19145C13.3546 9.42814 13.9509 9.21549 14.1876 8.7165C14.4243 8.2175 14.2117 7.62111 13.7127 7.38443C13.1923 7.1376 12.6108 7 12 7C9.79086 7 8 8.79086 8 11C8 11.5523 8.44772 12 9 12C9.55229 12 10 11.5523 10 11Z" fill="black"/>
<path fill-rule="evenodd" clip-rule="evenodd" d="M14.501 16.2449C14.501 14.8642 15.6203 13.7449 17.001 13.7449C18.3817 13.7449 19.501 14.8642 19.501 16.2449C19.501 17.6256 18.3817 18.7449 17.001 18.7449C15.6203 18.7449 14.501 17.6256 14.501 16.2449ZM17.001 15.7449C16.7248 15.7449 16.501 15.9687 16.501 16.2449C16.501 16.521 16.7248 16.7449 17.001 16.7449C17.2771 16.7449 17.501 16.521 17.501 16.2449C17.501 15.9687 17.2771 15.7449 17.001 15.7449Z" fill="black"/>
<path fill-rule="evenodd" clip-rule="evenodd" d="M14.501 16.2449C14.501 14.8642 15.6203 13.7449 17.001 13.7449C18.3817 13.7449 19.501 14.8642 19.501 16.2449C19.501 17.6256 18.3817 18.7449 17.001 18.7449C15.6203 18.7449 14.501 17.6256 14.501 16.2449ZM17.001 15.7449C16.7248 15.7449 16.501 15.9687 16.501 16.2449C16.501 16.521 16.7248 16.7449 17.001 16.7449C17.2771 16.7449 17.501 16.521 17.501 16.2449C17.501 15.9687 17.2771 15.7449 17.001 15.7449Z" fill="black"/>
<path fill-rule="evenodd" clip-rule="evenodd" d="M19.232 10.1504C19.0868 9.67238 18.7918 9.25364 18.3904 8.95602C17.9887 8.6581 17.5018 8.49736 17.0016 8.49756C16.5015 8.49776 16.0147 8.65888 15.6132 8.95712C15.212 9.2551 14.9173 9.67417 14.7725 10.1524L14.7721 10.1536L14.3319 11.6L12.8675 11.2608C12.3784 11.147 11.8657 11.1938 11.4052 11.3941C10.9446 11.5946 10.5607 11.9381 10.3105 12.3737C10.0603 12.8094 9.95715 13.314 10.0162 13.8129C10.0751 14.31 10.2919 14.7751 10.6348 15.1397L11.6631 16.2489L10.6332 17.3608C10.2921 17.7263 10.0772 18.1914 10.0199 18.688C9.96254 19.1856 10.0665 19.6884 10.3164 20.1225C10.5663 20.5565 10.9489 20.8988 11.408 21.099C11.8672 21.2992 12.3784 21.3467 12.8665 21.2344L14.3329 20.8947L14.7725 22.339L14.7732 22.3413C14.9173 22.8204 15.2119 23.2404 15.6133 23.5392C16.0154 23.8384 16.5032 24 17.0044 24C17.5056 24 17.9934 23.8384 18.3955 23.5392C18.7968 23.2405 19.0913 22.8207 19.2355 22.3418L19.2363 22.339L19.6769 20.895L21.1407 21.2341L21.1465 21.2354C21.6339 21.3452 22.1436 21.2961 22.6011 21.0953C23.0585 20.8945 23.4396 20.5524 23.6886 20.1193C23.9376 19.6862 24.0413 19.1847 23.9847 18.6884C23.9281 18.1927 23.7145 17.728 23.3751 17.3624L23.3738 17.3609L22.3449 16.2473L22.3427 16.2449L22.3434 16.2441L23.3723 15.1354L23.3734 15.1342C23.7145 14.7684 23.9294 14.3028 23.9865 13.8058C24.0436 13.3083 23.9396 12.8056 23.6896 12.3716C23.4397 11.9377 23.0571 11.5954 22.5981 11.3951C22.1391 11.1949 21.6279 11.1472 21.1398 11.2592L21.1377 11.2597L19.6739 11.5988L19.2324 10.1519L19.232 10.1504ZM17.0024 10.4976C17.0733 10.4975 17.1422 10.5203 17.1991 10.5625C17.256 10.6047 17.2978 10.6641 17.3184 10.7319C17.4671 11.2144 17.6155 11.7006 17.7614 12.184C17.9074 12.6674 18.2315 13.0774 18.6682 13.331C19.1057 13.5849 19.6233 13.663 20.1162 13.5493C20.6091 13.4356 21.5165 13.2246 21.587 13.2086C21.6575 13.1925 21.732 13.1993 21.7983 13.2283C21.8649 13.2573 21.9203 13.3069 21.9565 13.3698C21.9928 13.4327 22.0078 13.5055 21.9996 13.5776C21.9913 13.6498 21.9601 13.7173 21.9105 13.7703C21.861 13.8234 21.9084 13.7726 21.9084 13.7726C21.9084 13.7726 21.2222 14.5128 20.8781 14.8829C20.534 15.2529 20.3427 15.7396 20.3427 16.2449C20.3427 16.7495 20.5335 17.2355 20.8767 17.6054C21.22 17.9752 20.8781 17.6069 20.8781 17.6069C20.8781 17.6069 21.8597 18.6698 21.909 18.7228C21.9584 18.7758 21.9894 18.8432 21.9976 18.9152C22.0058 18.9871 21.9908 19.0598 21.9547 19.1226C21.9186 19.1854 21.8634 19.2349 21.7971 19.264C21.7314 19.2929 21.6582 19.3001 21.5882 19.2848C21.5181 19.2694 20.6129 19.0584 20.1201 18.9447C19.6272 18.831 19.1087 18.9088 18.6712 19.1628C18.2345 19.4163 17.9104 19.8263 17.7644 20.3097L17.7637 20.312C17.5926 20.8799 17.3409 21.6968 17.3205 21.7647C17.3001 21.8327 17.2584 21.8924 17.2014 21.9347C17.1445 21.9771 17.0754 22 17.0044 22C16.9334 22 16.8643 21.9771 16.8074 21.9347C16.7504 21.8924 16.6883 21.7647 16.6883 21.7647L16.2459 20.3113L16.2454 20.3098C16.0992 19.8261 15.7748 19.416 15.3377 19.1625C14.9001 18.9087 14.3824 18.8307 13.8896 18.9445C13.3967 19.0582 12.4887 19.2692 12.4183 19.2853C12.3479 19.3014 12.2736 19.2946 12.2074 19.2657C12.1411 19.2368 12.0857 19.1873 12.0496 19.1246C12.0135 19.0618 11.9985 18.9891 12.0068 18.9172C12.0151 18.8452 12.0462 18.7779 12.0957 18.725L12.099 18.7214C12.5018 18.2887 12.7253 18.0439 13.1277 17.6109L13.1285 17.61C13.4721 17.24 13.6631 16.7538 13.6631 16.2489C13.6631 15.7438 13.472 15.2574 13.1282 14.8874C12.7844 14.5175 12.1422 13.8229 12.0923 13.7701C12.0424 13.7173 12.0109 13.6499 12.0023 13.5778C11.9938 13.5056 12.0087 13.4327 12.0449 13.3697C12.0811 13.3067 12.1366 13.2571 12.2032 13.2281C12.2698 13.1991 12.3439 13.1924 12.4146 13.2088C12.4854 13.2253 13.3948 13.4363 13.8877 13.5501C14.3806 13.6638 14.8991 13.5861 15.3367 13.3322C15.7737 13.0787 16.0982 12.6686 16.2444 12.185L16.2449 12.1835C16.416 11.6171 16.5143 11.3003 16.6861 10.7341L16.6867 10.7321C16.7071 10.6643 16.7489 10.6049 16.8058 10.5626C16.8626 10.5204 16.9316 10.4976 17.0024 10.4976Z" fill="black"/>
</g>
<defs>
<clipPath id="clip0_2929_399">
<rect width="24" height="24" fill="white"/>
</clipPath>
</defs>
</svg>
