<svg width="24" height="24" viewBox="0 0 24 24" fill="none" xmlns="http://www.w3.org/2000/svg">
<path d="M21.5333 4H2.46667C1.65665 4 1 4.65122 1 5.45455V18.5455C1 19.3488 1.65665 20 2.46667 20H21.5333C22.3434 20 23 19.3488 23 18.5455V5.45455C23 4.65122 22.3434 4 21.5333 4Z" fill="#434660"/>
<path d="M15 10.5L18 10.5" stroke="#A9ABBC" stroke-width="2" stroke-linecap="round" stroke-linejoin="round"/>
<path d="M15 14L19.5 14" stroke="#A9ABBC" stroke-width="2" stroke-linecap="round" stroke-linejoin="round"/>
<path d="M2.69503 11.0094L7.69699 7.12901C7.87572 6.99036 8.12458 6.99036 8.30331 7.12901L13.3053 11.0094C13.6816 11.3014 13.4769 11.9084 13.0021 11.9084H12.1308V16.0742C12.1308 16.5855 11.7198 17 11.2128 17H4.78724C4.28027 17 3.86929 16.5855 3.86929 16.0742V11.9084H2.99819C2.52342 11.9084 2.31872 11.3014 2.69503 11.0094Z" fill="#A9ABBC"/>
<path d="M21.5333 4H2.46667C1.65665 4 1 4.65122 1 5.45455V18.5455C1 19.3488 1.65665 20 2.46667 20H21.5333C22.3434 20 23 19.3488 23 18.5455V5.45455C23 4.65122 22.3434 4 21.5333 4Z" fill="#434660"/>
<path fill-rule="evenodd" clip-rule="evenodd" d="M14 10.5C14 9.94772 14.4477 9.5 15 9.5L18 9.5C18.5523 9.5 19 9.94772 19 10.5C19 11.0523 18.5523 11.5 18 11.5L15 11.5C14.4477 11.5 14 11.0523 14 10.5Z" fill="#A9ABBC"/>
<path fill-rule="evenodd" clip-rule="evenodd" d="M14 14C14 13.4477 14.4477 13 15 13L19.5 13C20.0523 13 20.5 13.4477 20.5 14C20.5 14.5523 20.0523 15 19.5 15L15 15C14.4477 15 14 14.5523 14 14Z" fill="#A9ABBC"/>
<path d="M2.69503 11.0094L7.69699 7.12901C7.87572 6.99036 8.12458 6.99036 8.30331 7.12901L13.3053 11.0094C13.6816 11.3014 13.4769 11.9084 13.0021 11.9084H12.1308V16.0742C12.1308 16.5855 11.7198 17 11.2128 17H4.78724C4.28027 17 3.86929 16.5855 3.86929 16.0742V11.9084H2.99819C2.52342 11.9084 2.31872 11.3014 2.69503 11.0094Z" fill="#A9ABBC"/>
</svg>
