<svg width="24" height="24" viewBox="0 0 24 24" fill="none" xmlns="http://www.w3.org/2000/svg">
<path d="M2.28401 3.53401C2.70597 3.11205 3.27826 2.875 3.875 2.875H8.25C8.5993 2.875 8.94381 2.95633 9.25623 3.11254C9.56866 3.26875 9.84042 3.49556 10.05 3.775L11.25 5.375H20.125C20.7217 5.375 21.294 5.61205 21.716 6.03401C22.1379 6.45597 22.375 7.02826 22.375 7.625V8.87483C22.375 9.42713 21.9273 9.875 21.375 9.875C20.8227 9.875 20.375 9.42728 20.375 8.87499V7.625C20.375 7.5587 20.3487 7.49511 20.3018 7.44822C20.2549 7.40134 20.1913 7.375 20.125 7.375H10.7509C10.4362 7.375 10.1388 7.22678 9.94998 6.97498L8.45 4.975C8.42671 4.94395 8.39652 4.91875 8.3618 4.90139C8.32709 4.88404 8.28881 4.875 8.25 4.875H3.875C3.8087 4.875 3.74511 4.90134 3.69822 4.94822C3.65134 4.99511 3.625 5.0587 3.625 5.125V18.875C3.625 18.9413 3.65134 19.0049 3.69822 19.0518C3.74511 19.0987 3.8087 19.125 3.875 19.125H8.12496C8.67724 19.125 9.125 19.5727 9.125 20.125C9.125 20.6773 8.67724 21.125 8.12496 21.125H3.875C3.27826 21.125 2.70597 20.8879 2.28401 20.466C1.86205 20.044 1.625 19.4717 1.625 18.875V5.125C1.625 4.52826 1.86205 3.95597 2.28401 3.53401Z" fill="black"/>
<path d="M16.9571 15.4571C17.3476 15.0666 17.3476 14.4334 16.9571 14.0429C16.5666 13.6524 15.9334 13.6524 15.5429 14.0429L13.2929 16.2929C13.1054 16.4804 13 16.7348 13 17C13 17.2652 13.1054 17.5196 13.2929 17.7071L15.5429 19.9571C15.9334 20.3476 16.5666 20.3476 16.9571 19.9571C17.3476 19.5666 17.3476 18.9334 16.9571 18.5429L16.4142 18L20 18C20.5523 18 21 17.5523 21 17C21 16.4477 20.5523 16 20 16H16.4142L16.9571 15.4571Z" fill="black"/>
<path fill-rule="evenodd" clip-rule="evenodd" d="M17 10C13.134 10 10 13.134 10 17C10 20.866 13.134 24 17 24C20.866 24 24 20.866 24 17C24 13.134 20.866 10 17 10ZM12 17C12 14.2386 14.2386 12 17 12C19.7614 12 22 14.2386 22 17C22 19.7614 19.7614 22 17 22C14.2386 22 12 19.7614 12 17Z" fill="black"/>
</svg>
