<svg width="24" height="24" viewBox="0 0 24 24" fill="none" xmlns="http://www.w3.org/2000/svg">
<path fill-rule="evenodd" clip-rule="evenodd" d="M5.37072 1.29588C5.73356 1.10166 6.13875 1.00003 6.5503 1H15.4524C15.8632 1.00085 16.2673 1.10288 16.6292 1.29706C16.9911 1.49124 17.2996 1.77159 17.5274 2.11334L20.2839 6.24855C20.7427 6.71577 21 7.34462 21 8V8.5C21 9.05228 20.5523 9.5 20 9.5C19.4477 9.5 19 9.05228 19 8.5V8C19 7.87467 18.9529 7.7542 18.8686 7.66219C18.8478 7.64447 18.8276 7.6258 18.8081 7.60619C18.7206 7.53774 18.6122 7.5 18.5 7.5H3.5C3.38915 7.5 3.28209 7.53681 3.19517 7.60367C3.17387 7.62523 3.15173 7.64567 3.12885 7.66497C3.04611 7.75661 3 7.87593 3 8V18.5C3 18.6326 3.05268 18.7598 3.14645 18.8536C3.24022 18.9473 3.36739 19 3.5 19H8.5C9.05228 19 9.5 19.4477 9.5 20C9.5 20.5523 9.05228 21 8.5 21H3.5C2.83696 21 2.20107 20.7366 1.73223 20.2678C1.26339 19.7989 1 19.163 1 18.5V8C1 7.34361 1.25813 6.71384 1.71818 6.2464L4.47002 2.11375C4.6983 1.77131 5.00787 1.4901 5.37072 1.29588ZM4.61802 5.5H10V3H6.55045C6.55042 3 6.55047 3 6.55045 3C6.46816 3.00002 6.38708 3.02034 6.31453 3.05918C6.24211 3.09794 6.18036 3.15395 6.13473 3.22225L4.61802 5.5ZM12 3V5.5H17.3813L15.8633 3.22266C15.8633 3.22266 15.8633 3.22267 15.8633 3.22266C15.8177 3.15432 15.756 3.09824 15.6837 3.05941C15.6115 3.02069 15.5309 3.00029 15.4491 3H12ZM17 12C14.2386 12 12 14.2386 12 17C12 19.7614 14.2386 22 17 22C19.7614 22 22 19.7614 22 17C22 14.2386 19.7614 12 17 12ZM10 17C10 13.134 13.134 10 17 10C20.866 10 24 13.134 24 17C24 20.866 20.866 24 17 24C13.134 24 10 20.866 10 17ZM20.0771 14.1833C20.5282 14.5021 20.6354 15.1261 20.3167 15.5771L17.6929 19.2898L17.6919 19.2912C17.5525 19.4878 17.3716 19.6551 17.1586 19.7781C16.9454 19.9013 16.7064 19.9764 16.458 19.9953C16.2094 20.0142 15.9611 19.9761 15.7306 19.8853C15.5004 19.7946 15.2959 19.6544 15.1289 19.4782L15.1269 19.4761L13.7722 18.0382C13.3934 17.6362 13.4123 17.0033 13.8142 16.6246C14.2162 16.2459 14.8491 16.2647 15.2278 16.6667L16.2963 17.8007L18.6833 14.4229C19.0021 13.9718 19.6261 13.8646 20.0771 14.1833Z" fill="black"/>
</svg>
