<svg width="24" height="24" viewBox="0 0 24 24" fill="none" xmlns="http://www.w3.org/2000/svg">
<path fill-rule="evenodd" clip-rule="evenodd" d="M16.2409 2.14372C16.7866 1.84786 17.4844 2.02344 17.7995 2.53588C19.5686 5.41334 20.5 8.6774 20.5 12C20.5 15.3226 19.5686 18.5867 17.7995 21.4641C17.4844 21.9766 16.7866 22.1521 16.2409 21.8563C15.6952 21.5604 15.5082 20.9052 15.8233 20.3927C17.3921 17.841 18.2181 14.9465 18.2181 12C18.2181 9.05354 17.3921 6.159 15.8233 3.60729C15.5082 3.09485 15.6952 2.43958 16.2409 2.14372ZM12.0574 4.10797C12.6031 3.81211 13.3009 3.98769 13.6159 4.50013C15.0179 6.78038 15.756 9.367 15.756 12C15.756 14.633 15.0179 17.2196 13.6159 19.4999C13.3009 20.0123 12.6031 20.1879 12.0574 19.892C11.5116 19.5962 11.3247 18.9409 11.6397 18.4285C12.8414 16.474 13.4741 14.2569 13.4741 12C13.4741 9.74314 12.8414 7.52604 11.6397 5.57154C11.3247 5.0591 11.5116 4.40383 12.0574 4.10797ZM8.0685 5.90907C8.61565 5.61556 9.31259 5.79413 9.62516 6.30792C10.6652 8.01754 11.2123 9.956 11.2123 11.9286C11.2123 13.9011 10.6652 15.8396 9.62516 17.5492C9.31259 18.063 8.61565 18.2416 8.0685 17.9481C7.52135 17.6546 7.33119 17.0001 7.64376 16.4863C8.48634 15.1013 8.93038 13.5294 8.93038 11.9286C8.93038 10.3278 8.48634 8.75584 7.64376 7.37084C7.33119 6.85704 7.52135 6.20259 8.0685 5.90907ZM4.0121 7.89187C4.53784 7.56567 5.24564 7.70144 5.59302 8.19513C6.39251 9.33135 6.82011 10.6498 6.82011 12C6.82011 13.3502 6.39251 14.6686 5.59302 15.8049C5.24564 16.2986 4.53784 16.4343 4.0121 16.1081C3.48637 15.7819 3.34178 15.1173 3.68916 14.6236C4.24647 13.8315 4.53819 12.9227 4.53819 12C4.53819 11.0773 4.24647 10.1685 3.68916 9.37641C3.34178 8.88273 3.48637 8.21807 4.0121 7.89187Z" fill="black"/>
</svg>
