<svg width="24" height="24" viewBox="0 0 24 24" fill="none" xmlns="http://www.w3.org/2000/svg">
<path d="M7.25265 1.13282C10.9732 0.437489 14.5722 2.55892 15.8433 5.99006C16.4282 5.77752 17.0485 5.66687 17.6767 5.66687C20.6317 5.66687 23.0019 8.06604 23.0019 11.0046C23.0019 13.5439 21.2335 15.6525 18.8726 16.1969C18.3345 16.321 17.7976 15.9853 17.6735 15.4471C17.5494 14.909 17.8851 14.3721 18.4233 14.248C19.9002 13.9075 21.0019 12.5883 21.0019 11.0046C21.0019 9.16101 19.5176 7.66687 17.6767 7.66687C16.9994 7.66687 16.3345 7.87239 15.7719 8.25689C15.493 8.44755 15.1366 8.48446 14.8245 8.35501C14.5124 8.22556 14.2868 7.94728 14.2247 7.61516C13.6514 4.55025 10.6931 2.52446 7.62006 3.09878C4.55113 3.67232 2.52512 6.6321 3.0994 9.71899C3.4404 11.5422 4.63782 13.0391 6.2492 13.8007C6.74852 14.0367 6.96198 14.6328 6.72598 15.1322C6.48997 15.6315 5.89387 15.8449 5.39455 15.6089C3.21652 14.5795 1.59494 12.5548 1.1334 10.0862C0.35798 5.91994 3.09223 1.91034 7.25265 1.13282Z" fill="black"/>
<path d="M12.7154 13.2955C12.5342 13.1131 12.2832 13.0002 12.0058 13.0002C11.7439 13.0002 11.5055 13.1009 11.3272 13.2657C11.3175 13.2746 11.308 13.2838 11.2986 13.2932L7.96657 16.6265C7.57612 17.0171 7.57624 17.6503 7.96684 18.0407C8.35744 18.4312 8.99061 18.431 9.38106 18.0404L11.0058 16.415V22.0001C11.0058 22.5524 11.4536 23.0001 12.0058 23.0001C12.5581 23.0001 13.0058 22.5524 13.0058 22.0001V16.415L14.6306 18.0404C15.0211 18.431 15.6542 18.4312 16.0448 18.0407C16.4354 17.6503 16.4356 17.0171 16.0451 16.6265L12.7154 13.2955Z" fill="black"/>
</svg>
