<svg width="24" height="24" viewBox="0 0 24 24" fill="none" xmlns="http://www.w3.org/2000/svg">
<path d="M14.0894 8.07683C14.2119 8.0197 14.3632 7.99098 14.5198 8.0039C14.6766 8.01682 14.8098 8.0689 14.9043 8.13599C14.9978 8.2023 15.0387 8.27134 15.0539 8.31706C15.2285 8.84101 15.7949 9.12418 16.3188 8.94954C16.8428 8.7749 17.1259 8.20858 16.9513 7.68464C16.7892 7.19824 16.4678 6.79297 16.0615 6.50477C15.6564 6.21734 15.1756 6.05118 14.6842 6.01066C14.1928 5.97014 13.6921 6.05526 13.2439 6.26437C12.7954 6.4736 12.4038 6.80581 12.1441 7.24071C11.8609 7.71486 12.0157 8.32881 12.4898 8.612C12.964 8.89518 13.5779 8.74037 13.8611 8.26622C13.896 8.20791 13.9672 8.13385 14.0894 8.07683Z" fill="black"/>
<path fill-rule="evenodd" clip-rule="evenodd" d="M6.51006 9.01318L6.64744 9.5H4C2.34315 9.5 1 10.8431 1 12.5V21C1 22.6569 2.34315 24 4 24H15C16.6569 24 18 22.6569 18 21V19.8138C18.3704 19.7191 18.7089 19.5191 18.972 19.2339C19.3246 18.8517 19.5139 18.3473 19.5 17.8281V15.7973C19.5142 15.2779 19.325 14.7732 18.9723 14.3909C18.7091 14.1055 18.3705 13.9056 18 13.811V12.5C18 12.2825 17.9769 12.0705 17.9329 11.8662L21.4983 10.6703C21.7754 10.5775 22.0296 10.4295 22.2472 10.2369C22.4648 10.0444 22.6415 9.81132 22.7691 9.55217C22.8966 9.29308 22.9732 9.01202 22.9955 8.72489C23.0179 8.43778 22.9858 8.14848 22.9006 7.87305L21.2572 2.56108C21.0855 2.00601 20.7051 1.53226 20.1859 1.25489C19.665 0.976624 19.0547 0.92388 18.4933 1.11191C18.194 1.21215 7.80426 4.69698 7.50479 4.79767C6.94518 4.98583 6.49276 5.3931 6.23562 5.91565C5.97902 6.4371 5.93274 7.03927 6.10402 7.59346C6.14747 7.73405 6.33111 8.37993 6.51006 9.01318ZM19.2435 3.01896C19.2052 2.99851 19.1654 2.99601 19.1285 3.00836C18.8295 3.1085 8.44059 6.59305 8.14217 6.69339C8.10388 6.70626 8.05951 6.73898 8.03012 6.79871C8.00019 6.85953 7.99364 6.93429 8.01484 7.00291C8.06764 7.17373 8.26085 7.85413 8.43469 8.46932C8.52301 8.78188 8.6083 9.08462 8.6715 9.30917L8.72516 9.5H15C15.7004 9.5 16.3446 9.73999 16.8551 10.1422C16.9156 10.1062 16.9807 10.076 17.0501 10.0528L20.8625 8.77411C20.8818 8.76763 20.9024 8.75638 20.922 8.73901C20.9417 8.72156 20.9603 8.69813 20.9747 8.66876C20.9892 8.63932 20.9988 8.60555 21.0016 8.5695C21.0044 8.53345 21.0003 8.49757 20.99 8.4644L19.3465 3.15216C19.3255 3.0843 19.2835 3.04031 19.2435 3.01896ZM4 11.5H4.4375V22H4C3.44772 22 3 21.5523 3 21V12.5C3 11.9477 3.44772 11.5 4 11.5ZM15 11.5H6.4375V22H15C15.5523 22 16 21.5523 16 21V19.875H14.2164C14.2025 19.875 14.1886 19.8747 14.1747 19.8741C13.3847 19.8412 12.6399 19.4964 12.1035 18.9154C11.5758 18.3437 11.2922 17.5892 11.312 16.8125C11.2922 16.0358 11.5758 15.2813 12.1035 14.7096C12.6399 14.1286 13.3847 13.7838 14.1747 13.7509C14.1886 13.7503 14.2025 13.75 14.2164 13.75H16V12.5C16 11.9477 15.5523 11.5 15 11.5ZM13.5731 16.0662C13.7466 15.8783 13.986 15.7651 14.2409 15.75H17.5005C17.5002 15.7604 17.5 15.7708 17.5 15.7812V17.8438C17.5 17.8542 17.5002 17.8646 17.5005 17.875H14.2409C13.986 17.8599 13.7466 17.7467 13.5731 17.5588C13.3958 17.3666 13.3018 17.112 13.3118 16.8507C13.3127 16.8252 13.3127 16.7998 13.3118 16.7743C13.3018 16.513 13.3958 16.2583 13.5731 16.0662Z" fill="black"/>
</svg>
