<svg width="24" height="24" viewBox="0 0 24 24" fill="none" xmlns="http://www.w3.org/2000/svg">
<path fill-rule="evenodd" clip-rule="evenodd" d="M7.88565 3C6.16318 3 4.77828 4.38779 4.78518 6.10557L4.7852 6.10959L4.78519 20.737L8.72567 18.2752C9.05031 18.0724 9.46226 18.0727 9.78661 18.276L13.735 20.7508V6.10959C13.735 4.79931 14.7945 3.73973 16.1048 3.73973C16.6571 3.73973 17.1048 4.18744 17.1048 4.73973C17.1048 5.29201 16.6571 5.73973 16.1048 5.73973C15.8991 5.73973 15.735 5.90388 15.735 6.10959V9.21918H19.2144V6.10959C19.2144 4.3879 17.8265 3 16.1048 3H7.88565ZM15.735 11.2192H19.5295C20.4562 11.2192 21.2144 10.461 21.2144 9.53424V6.10959C21.2144 3.28333 18.9311 1 16.1048 1H7.88565C5.06087 1 2.77498 3.2823 2.78519 6.11148V21.3151C2.78519 21.6425 2.88078 21.9332 3.02187 22.1751C3.02743 22.1846 3.03314 22.1941 3.03901 22.2034C3.52692 22.9796 4.55928 23.2379 5.35656 22.7382L5.35846 22.737L9.25463 20.3029L13.1536 22.7468C13.1626 22.7525 13.1717 22.758 13.1809 22.7633C13.435 22.9116 13.7357 23 14.05 23C14.9767 23 15.735 22.2418 15.735 21.3151V11.2192Z" fill="black"/>
</svg>
