<svg width="24" height="24" viewBox="0 0 24 24" fill="none" xmlns="http://www.w3.org/2000/svg">
<path fill-rule="evenodd" clip-rule="evenodd" d="M21.7032 3.70711C22.0937 3.31658 22.0937 2.68342 21.7032 2.29289C21.3127 1.90237 20.6795 1.90237 20.289 2.29289L2.29289 20.289C1.90237 20.6795 1.90237 21.3127 2.29289 21.7032C2.68342 22.0937 3.31658 22.0937 3.70711 21.7032L21.7032 3.70711ZM12.2615 4.64813C12.6195 4.22756 12.5687 3.59643 12.1481 3.23847C11.7276 2.88052 11.0964 2.93129 10.7385 3.35187L6.09069 8.81278L4.79664 7.1073C4.46281 6.66732 3.83552 6.58128 3.39554 6.91511C2.95557 7.24894 2.86953 7.87624 3.20336 8.31621L4.72898 10.3269C4.88144 10.5342 5.07914 10.699 5.30163 10.8133C5.5283 10.9298 5.7774 10.9924 6.02875 10.9993C6.28009 11.0063 6.53189 10.9577 6.76415 10.8546C6.99302 10.7531 7.20004 10.5999 7.36449 10.4019L12.2615 4.64813ZM21.7071 14.2929C22.0976 14.6834 22.0976 15.3166 21.7071 15.7071L19.4142 18L21.7071 20.2929C22.0976 20.6834 22.0976 21.3166 21.7071 21.7071C21.3166 22.0976 20.6834 22.0976 20.2929 21.7071L18 19.4142L15.7071 21.7071C15.3166 22.0976 14.6834 22.0976 14.2929 21.7071C13.9024 21.3166 13.9024 20.6834 14.2929 20.2929L16.5858 18L14.2929 15.7071C13.9024 15.3166 13.9024 14.6834 14.2929 14.2929C14.6834 13.9024 15.3166 13.9024 15.7071 14.2929L18 16.5858L20.2929 14.2929C20.6834 13.9024 21.3166 13.9024 21.7071 14.2929Z" fill="black"/>
</svg>
