<svg width="24" height="24" viewBox="0 0 24 24" fill="none" xmlns="http://www.w3.org/2000/svg">
<path d="M24 12C24 18.6274 18.6274 24 12 24C5.37258 24 0 18.6274 0 12C0 5.37258 5.37258 0 12 0C18.6274 0 24 5.37258 24 12Z" fill="#C7C8D3"/>
<path d="M17.5607 8.56066C18.1464 7.97487 18.1464 7.02513 17.5607 6.43934C16.9749 5.85355 16.0251 5.85355 15.4393 6.43934L6.43934 15.4393C5.85355 16.0251 5.85355 16.9749 6.43934 17.5607C7.02513 18.1464 7.97487 18.1464 8.56066 17.5607L17.5607 8.56066Z" fill="#60627B"/>
<path fill-rule="evenodd" clip-rule="evenodd" d="M24 12C24 18.6274 18.6274 24 12 24C5.37258 24 0 18.6274 0 12C0 5.37258 5.37258 0 12 0C18.6274 0 24 5.37258 24 12ZM21 12C21 16.9706 16.9706 21 12 21C7.02944 21 3 16.9706 3 12C3 7.02944 7.02944 3 12 3C16.9706 3 21 7.02944 21 12Z" fill="#60627B"/>
</svg>
