<svg width="24" height="24" viewBox="0 0 24 24" fill="none" xmlns="http://www.w3.org/2000/svg">
<path fill-rule="evenodd" clip-rule="evenodd" d="M7 6C7 3.23772 9.23771 1 12 1C14.7623 1 17 3.23772 17 6V12C17 14.7623 14.7623 17 12 17C9.23771 17 7 14.7623 7 12V6ZM12 3C10.3423 3 9 4.34228 9 6V12C9 13.6577 10.3423 15 12 15C13.6577 15 15 13.6577 15 12V6C15 4.34228 13.6577 3 12 3Z" fill="black"/>
<path d="M12.9981 19.9385C12.9994 19.9588 13 19.9793 13 20V22C13 22.5523 12.5523 23 12 23C11.4477 23 11 22.5523 11 22V20C11 19.9793 11.0006 19.9588 11.0019 19.9385C7.05163 19.4481 4 16.0842 4 12V9C4 8.44772 4.44771 8 5 8C5.55229 8 6 8.44772 6 9V12C6 15.3177 8.68229 18 12 18C15.3177 18 18 15.3177 18 12V9C18 8.44772 18.4477 8 19 8C19.5523 8 20 8.44772 20 9V12C20 16.0842 16.9484 19.4481 12.9981 19.9385Z" fill="black"/>
</svg>
