<svg width="24" height="24" viewBox="0 0 24 24" fill="none" xmlns="http://www.w3.org/2000/svg">
<path fill-rule="evenodd" clip-rule="evenodd" d="M3.51005 4.30314C4.0012 4.10288 4.52707 4 5.05778 4H18.9422C20.0134 4 21.0438 4.41872 21.8059 5.16896C22.5686 5.91972 23 6.94135 23 8.01V15.99C23 17.0586 22.5686 18.0803 21.8059 18.831C21.0438 19.5813 20.0134 20 18.9422 20H5.05778C4.52707 20 4.0012 19.8971 3.51005 19.6969C3.01888 19.4966 2.57158 19.2026 2.19409 18.831C1.4314 18.0803 1 17.0586 1 15.99V8.01C1 6.94135 1.4314 5.91972 2.19409 5.16896C2.57158 4.79736 3.01888 4.50341 3.51005 4.30314ZM5.05778 6C4.78538 6 4.51601 6.05283 4.26518 6.15511C4.01438 6.25737 3.78751 6.40685 3.59712 6.59426C3.21291 6.97247 3 7.48204 3 8.01V15.99C3 16.518 3.21291 17.0275 3.59712 17.4057C3.78751 17.5932 4.01438 17.7426 4.26518 17.8449C4.51601 17.9472 4.78538 18 5.05778 18H18.9422C19.493 18 20.0181 17.7845 20.4029 17.4057C20.7871 17.0275 21 16.518 21 15.99V8.01C21 7.48204 20.7871 6.97247 20.4029 6.59426C20.0181 6.21553 19.493 6 18.9422 6H5.05778Z" fill="black"/>
<path fill-rule="evenodd" clip-rule="evenodd" d="M9.29445 7.33581C9.61321 7.15982 10.0024 7.171 10.3106 7.365L16.3283 11.1538C16.6191 11.3368 16.7956 11.6564 16.7956 12C16.7956 12.3436 16.6191 12.6632 16.3283 12.8462L10.3106 16.635C10.0024 16.829 9.61321 16.8402 9.29445 16.6642C8.97569 16.4882 8.77778 16.1529 8.77778 15.7887V8.21125C8.77778 7.84713 8.97569 7.51179 9.29445 7.33581ZM10.7778 10.0225V13.9775L13.9186 12L10.7778 10.0225Z" fill="black"/>
</svg>
