<svg width="24" height="24" viewBox="0 0 24 24" fill="none" xmlns="http://www.w3.org/2000/svg">
<path fill-rule="evenodd" clip-rule="evenodd" d="M15.5965 2.76794C16.0009 2.3917 16.6336 2.41446 17.0098 2.81877L20.7321 6.81877C21.0893 7.20268 21.0893 7.79733 20.7321 8.18123L17.0098 12.1812C16.6336 12.5855 16.0009 12.6083 15.5965 12.2321C15.1922 11.8558 15.1695 11.2231 15.5457 10.8188L17.7035 8.5L8 8.5C7.44772 8.5 7 8.05229 7 7.5C7 6.94772 7.44772 6.5 8 6.5L17.7035 6.5L15.5457 4.18123C15.1695 3.77692 15.1922 3.14417 15.5965 2.76794ZM8.40345 11.7679C8.80776 12.1442 8.83052 12.7769 8.45429 13.1812L6.29655 15.5L16 15.5C16.5523 15.5 17 15.9477 17 16.5C17 17.0523 16.5523 17.5 16 17.5L6.29655 17.5L8.45429 19.8188C8.83052 20.2231 8.80776 20.8558 8.40345 21.2321C7.99914 21.6083 7.36639 21.5855 6.99015 21.1812L3.26793 17.1812C2.91069 16.7973 2.91069 16.2027 3.26793 15.8188L6.99015 11.8188C7.36639 11.4145 7.99914 11.3917 8.40345 11.7679Z" fill="black"/>
</svg>
