<svg width="24" height="24" viewBox="0 0 24 24" fill="none" xmlns="http://www.w3.org/2000/svg">
<g clip-path="url(#clip0_2391_14)">
<path d="M5.8063 2.99955C6.26828 2.98654 14.5668 2.99866 14.8137 2.99993C14.9106 3.00043 15.0069 3.02105 15.0972 3.06122C15.1874 3.10142 15.2704 3.1607 15.3402 3.23668C15.41 3.31258 15.9609 3.90496 16.5994 4.59156L16.9796 5.00042C17.7695 5.84989 18.5767 6.71815 18.7425 6.8983C18.9061 7.07621 19.0003 7.31585 18.9995 7.56869C18.9991 7.68759 18.9988 7.76261 18.9986 7.81445C18.9984 7.87247 18.9983 7.90147 18.9983 7.93046C18.9983 7.95945 18.9984 7.98844 18.9986 8.04647C18.9988 8.09831 18.9991 8.17333 18.9995 8.29223C19.0013 8.84452 19.4504 9.29079 20.0027 9.28902C20.555 9.28725 21.0013 8.83811 20.9995 8.28582C20.9991 8.16525 20.9988 8.09058 20.9986 8.03966C20.9984 7.98506 20.9983 7.95776 20.9983 7.93046C20.9983 7.90316 20.9984 7.87586 20.9986 7.82126C20.9988 7.77034 20.9991 7.69567 20.9995 7.5751C21.0019 6.8243 20.7231 6.0972 20.2143 5.54419C20.0438 5.35887 19.2308 4.48434 18.4442 3.63846L18.0656 3.23129C17.4247 2.54218 16.8782 1.95448 16.8127 1.88321C16.5595 1.60776 16.2529 1.38652 15.9107 1.23418C15.5686 1.08181 15.1988 1.00188 14.824 0.999956C14.5994 0.998803 6.25479 0.986131 5.75002 1.00034C4.995 1.02159 4.28394 1.34791 3.77071 1.90014C3.25819 2.45159 2.98372 3.18363 3.00075 3.93531C3.0116 4.41467 3.0116 19.5852 3.00075 20.0646C2.98372 20.8163 3.25819 21.5483 3.77071 22.0998C4.28394 22.652 4.995 22.9783 5.75002 22.9995C6.01119 23.0069 6.89318 23.0067 7.68339 23.005C8.08435 23.0042 8.47006 23.0029 8.75547 23.0018L9.22644 22.9999C9.77872 22.9974 10.2244 22.5476 10.2218 21.9953C10.2193 21.4431 9.76901 20.9974 9.21673 21L8.74801 21.0019C8.46326 21.0029 8.07869 21.0042 7.67914 21.005C6.86836 21.0068 6.02851 21.0066 5.8063 21.0003C5.59456 20.9944 5.38878 20.9029 5.2357 20.7382C5.0819 20.5727 4.99486 20.3471 5.00023 20.1099C5.01177 19.6003 5.01177 4.39957 5.00023 3.89003C4.99486 3.65282 5.08191 3.42716 5.2357 3.26168C5.38878 3.09697 5.59456 3.00551 5.8063 2.99955Z" fill="black"/>
<path d="M18.001 14C18.001 13.4477 17.5533 13 17.001 13C16.4487 13 16.001 13.4477 16.001 14V17.5858L15.4581 17.0429C15.0676 16.6524 14.4344 16.6524 14.0439 17.0429C13.6533 17.4334 13.6533 18.0666 14.0439 18.4571L16.2939 20.7071C16.4814 20.8946 16.7358 21 17.001 21C17.2662 21 17.5205 20.8946 17.7081 20.7071L19.9581 18.4571C20.3486 18.0666 20.3486 17.4334 19.9581 17.0429C19.5676 16.6524 18.9344 16.6524 18.5439 17.0429L18.001 17.5858V14Z" fill="black"/>
<path fill-rule="evenodd" clip-rule="evenodd" d="M17.001 10C13.135 10 10.001 13.134 10.001 17C10.001 20.866 13.135 24 17.001 24C20.867 24 24.001 20.866 24.001 17C24.001 13.134 20.867 10 17.001 10ZM12.001 17C12.001 14.2386 14.2396 12 17.001 12C19.7624 12 22.001 14.2386 22.001 17C22.001 19.7614 19.7624 22 17.001 22C14.2396 22 12.001 19.7614 12.001 17Z" fill="black"/>
</g>
<defs>
<clipPath id="clip0_2391_14">
<rect width="24" height="24" fill="white"/>
</clipPath>
</defs>
</svg>
