<svg width="24" height="24" viewBox="0 0 24 24" fill="none" xmlns="http://www.w3.org/2000/svg">
<path fill-rule="evenodd" clip-rule="evenodd" d="M12 5.99646C9.79086 5.99646 8 7.78732 8 9.99646C8 12.2056 9.79086 13.9965 12 13.9965C14.2091 13.9965 16 12.2056 16 9.99646C16 7.78732 14.2091 5.99646 12 5.99646ZM10 9.99646C10 8.89189 10.8954 7.99646 12 7.99646C13.1046 7.99646 14 8.89189 14 9.99646C14 11.101 13.1046 11.9965 12 11.9965C10.8954 11.9965 10 11.101 10 9.99646Z" fill="black"/>
<path fill-rule="evenodd" clip-rule="evenodd" d="M12 1.49646C9.74566 1.49646 7.58365 2.39199 5.98959 3.98605C4.39553 5.58011 3.5 7.74212 3.5 9.99646C3.5 14.1342 6.07057 16.7687 8.09853 18.8471C8.38001 19.1356 8.65103 19.4133 8.90328 19.6829C9.72906 20.5836 10.4872 21.5441 11.1715 22.5565C11.3574 22.8315 11.6677 22.9963 11.9996 22.9965C12.3316 22.9966 12.6419 22.832 12.828 22.5571C13.5151 21.5424 14.2754 20.5794 15.103 19.6757C15.3552 19.406 15.6261 19.1283 15.9073 18.8399C17.9342 16.7615 20.5 14.1306 20.5 9.99646C20.5 7.74212 19.6045 5.58011 18.0104 3.98605C16.4163 2.39199 14.2543 1.49646 12 1.49646ZM7.40381 5.40027C8.62279 4.18128 10.2761 3.49646 12 3.49646C13.7239 3.49646 15.3772 4.18128 16.5962 5.40027C17.8152 6.61925 18.5 8.27255 18.5 9.99646C18.5 13.2625 16.5579 15.2765 14.5135 17.3967C14.2222 17.6988 13.9287 18.0032 13.6385 18.3135L13.6316 18.321C13.0573 18.9479 12.513 19.6012 12.0004 20.2788C11.4895 19.6033 10.9468 18.9521 10.374 18.3275L10.3673 18.3204C10.077 18.01 9.78343 17.7057 9.49183 17.4034C7.44625 15.2831 5.5 13.2658 5.5 9.99646C5.5 8.27255 6.18482 6.61925 7.40381 5.40027Z" fill="black"/>
</svg>
