<svg width="24" height="24" viewBox="0 0 24 24" fill="none" xmlns="http://www.w3.org/2000/svg">
<path d="M13 11.976C13.5526 11.976 14 12.4233 14 12.976C14 13.5286 13.5526 13.976 13 13.976C12.4474 13.976 12 13.5286 12 12.976C12 12.4233 12.4474 11.976 13 11.976Z" fill="black"/>
<path d="M17 12.976C17 12.4233 16.5526 11.976 16 11.976C15.4474 11.976 15 12.4233 15 12.976C15 13.5286 15.4474 13.976 16 13.976C16.5526 13.976 17 13.5286 17 12.976Z" fill="black"/>
<path d="M13 8.97595C13.5526 8.97595 14 9.42332 14 9.97595C14 10.5286 13.5526 10.976 13 10.976C12.4474 10.976 12 10.5286 12 9.97595C12 9.42332 12.4474 8.97595 13 8.97595Z" fill="black"/>
<path d="M17 9.97595C17 9.42332 16.5526 8.97595 16 8.97595C15.4474 8.97595 15 9.42332 15 9.97595C15 10.5286 15.4474 10.976 16 10.976C16.5526 10.976 17 10.5286 17 9.97595Z" fill="black"/>
<path fill-rule="evenodd" clip-rule="evenodd" d="M5.01465 13V9.97595H5C4.44772 9.97595 4 9.52824 4 8.97595C4 8.42367 4.44772 7.97595 5 7.97595H5.01465V7.30929C5.01465 6.02062 6.05932 4.97595 7.34798 4.97595H17.6667C18.9553 4.97595 20 6.02062 20 7.30929V15.6426C20 16.9313 18.9553 17.976 17.6667 17.976H7.34798C6.05932 17.976 5.01465 16.9313 5.01465 15.6426V15H5C4.44772 15 4 14.5523 4 14C4 13.4477 4.44772 13 5 13H5.01465ZM7.01465 7.30929C7.01465 7.12519 7.16389 6.97595 7.34798 6.97595H17.6667C17.8508 6.97595 18 7.12519 18 7.30929V15.6426C18 15.8267 17.8508 15.976 17.6667 15.976H7.34798C7.16389 15.976 7.01465 15.8267 7.01465 15.6426V14.9999C7.56018 14.9921 8 14.5474 8 14C8 13.4526 7.56018 13.0079 7.01465 13.0001V9.97585C7.56018 9.96801 8 9.52335 8 8.97595C8 8.42856 7.56018 7.98389 7.01465 7.97606V7.30929Z" fill="black"/>
<path fill-rule="evenodd" clip-rule="evenodd" d="M20 20.976H20.6667C21.9553 20.976 23 19.9313 23 18.6426V4.30929C23 3.02062 21.9553 1.97595 20.6667 1.97595H3.33333C2.04467 1.97595 1 3.02062 1 4.30929V18.6426C1 19.9313 2.04467 20.976 3.33333 20.976H4V21.976C4 22.5282 4.44772 22.976 5 22.976C5.55228 22.976 6 22.5282 6 21.976V20.976H18V21.976C18 22.5282 18.4477 22.976 19 22.976C19.5523 22.976 20 22.5282 20 21.976V20.976ZM3 4.30929C3 4.12519 3.14924 3.97595 3.33333 3.97595H20.6667C20.8508 3.97595 21 4.12519 21 4.30929V18.6426C21 18.8267 20.8508 18.976 20.6667 18.976H3.33333C3.14924 18.976 3 18.8267 3 18.6426V4.30929Z" fill="black"/>
</svg>
