<svg width="24" height="24" viewBox="0 0 24 24" fill="none" xmlns="http://www.w3.org/2000/svg">
<path fill-rule="evenodd" clip-rule="evenodd" d="M6.30769 1C5.03319 1 4 2.03319 4 3.30769V17.6923C4 18.9668 5.03319 20 6.30769 20H20.6923C21.9668 20 23 18.9668 23 17.6923V3.30769C23 2.03319 21.9668 1 20.6923 1H6.30769ZM6 3.30769C6 3.13776 6.13776 3 6.30769 3H20.6923C20.8622 3 21 3.13776 21 3.30769V17.6923C21 17.8622 20.8622 18 20.6923 18H6.30769C6.13776 18 6 17.8622 6 17.6923V3.30769Z" fill="black"/>
<path d="M3 5C3 4.44772 2.55228 4 2 4C1.44772 4 1 4.44772 1 5V18.5C1 20.9853 3.01472 23 5.5 23H19C19.5523 23 20 22.5523 20 22C20 21.4477 19.5523 21 19 21H5.5C4.11929 21 3 19.8807 3 18.5V5Z" fill="black"/>
</svg>
