<svg width="24" height="24" viewBox="0 0 24 24" fill="none" xmlns="http://www.w3.org/2000/svg">
<path fill-rule="evenodd" clip-rule="evenodd" d="M3.99978 2.97607C3.99978 2.42379 3.55206 1.97607 2.99978 1.97607C2.44749 1.97607 1.99978 2.42379 1.99978 2.97607V5.2648C1.99943 5.28004 1.99942 5.29532 1.99978 5.31064V16.5208C1.99942 16.536 1.99942 16.5514 1.99978 16.5667V20.9761C1.99978 21.5284 2.44749 21.9761 2.99978 21.9761C3.55206 21.9761 3.99978 21.5284 3.99978 20.9761V17.2825L5.81408 16.7238C7.65261 16.16 9.64962 16.4116 11.2824 17.419C13.3628 18.7034 15.877 19.0463 18.2255 18.3779L20.6172 17.698L20.6238 17.6961C21.421 17.4636 21.9998 16.7304 21.9998 15.8721V6.48807C21.9998 5.44575 21.1481 4.57958 20.088 4.59209C19.9529 4.59256 19.7662 4.60556 19.5676 4.66412L17.6771 5.20655C15.8746 5.72138 13.9328 5.4568 12.3331 4.46918L12.3313 4.46804C10.1983 3.15753 7.61306 2.83208 5.22734 3.56379L3.99978 3.9379V2.97607ZM3.99978 6.02872V15.1898L5.22548 14.8124L5.22646 14.8121C5.3907 14.7617 5.55593 14.7163 5.72194 14.6759C7.96642 14.1299 10.3527 14.4952 12.3329 15.717C13.9325 16.7047 15.8666 16.9698 17.678 16.4543L19.9998 15.7942V6.62081L18.2265 7.1296C15.8855 7.79845 13.3634 7.45535 11.2834 6.17157C9.64082 5.16269 7.65081 4.91224 5.8131 5.47609L5.31916 5.62662L3.99978 6.02872Z" fill="black"/>
</svg>
