<svg width="24" height="24" viewBox="0 0 24 24" fill="none" xmlns="http://www.w3.org/2000/svg">
<path d="M4 3C4 1.34315 5.34315 0 7 0H17C18.6569 0 20 1.34315 20 3V21H4V3Z" fill="#434660"/>
<path fill-rule="evenodd" clip-rule="evenodd" d="M9 8C7.89543 8 7 8.89543 7 10V15C7 16.1046 7.89543 17 9 17H15C16.1046 17 17 16.1046 17 15V10C17 8.89543 16.1046 8 15 8H9ZM12 14C12.8284 14 13.5 13.3284 13.5 12.5C13.5 11.6716 12.8284 11 12 11C11.1716 11 10.5 11.6716 10.5 12.5C10.5 13.3284 11.1716 14 12 14Z" fill="#A9ABBC"/>
<path d="M4 21C4 22.6569 5.34315 24 7 24H17C18.6569 24 20 22.6569 20 21V20H4V21Z" fill="#A9ABBC"/>
<path d="M10 8V7C10 6.46957 10.2107 5.96086 10.5858 5.58579C10.9609 5.21071 11.4696 5 12 5C12.5304 5 13.0391 5.21071 13.4142 5.58579C13.7893 5.96086 14 6.46957 14 7V8" stroke="#A9ABBC" stroke-width="2.5" stroke-linecap="round" stroke-linejoin="round"/>
</svg>
