<svg width="24" height="24" viewBox="0 0 24 24" fill="none" xmlns="http://www.w3.org/2000/svg">
<path fill-rule="evenodd" clip-rule="evenodd" d="M2.28401 3.53401C2.70597 3.11205 3.27826 2.875 3.875 2.875H8.25C8.5993 2.875 8.94381 2.95633 9.25623 3.11254C9.56865 3.26875 9.84042 3.49556 10.05 3.775L11.25 5.375H20.125C20.7217 5.375 21.294 5.61205 21.716 6.03401C22.1379 6.45597 22.375 7.02826 22.375 7.625V18.875C22.375 19.4717 22.1379 20.044 21.716 20.466C21.294 20.8879 20.7217 21.125 20.125 21.125H3.875C3.27826 21.125 2.70597 20.8879 2.28401 20.466C1.86205 20.044 1.625 19.4717 1.625 18.875V5.125C1.625 4.52826 1.86205 3.95597 2.28401 3.53401ZM3.875 4.875C3.8087 4.875 3.74511 4.90134 3.69822 4.94822C3.65134 4.99511 3.625 5.0587 3.625 5.125V18.875C3.625 18.9413 3.65134 19.0049 3.69822 19.0518C3.74511 19.0987 3.8087 19.125 3.875 19.125H20.125C20.1913 19.125 20.2549 19.0987 20.3018 19.0518C20.3487 19.0049 20.375 18.9413 20.375 18.875V7.625C20.375 7.5587 20.3487 7.49511 20.3018 7.44822C20.2549 7.40134 20.1913 7.375 20.125 7.375H10.75C10.4352 7.375 10.1389 7.22681 9.95 6.975L8.45 4.975C8.42671 4.94395 8.39652 4.91875 8.3618 4.90139C8.32709 4.88404 8.28881 4.875 8.25 4.875H3.875Z" fill="black"/>
</svg>
