<svg width="24" height="24" viewBox="0 0 24 24" fill="none" xmlns="http://www.w3.org/2000/svg">
<path d="M7.25265 1.13282C10.9732 0.437489 14.5722 2.55892 15.8433 5.99006C16.4282 5.77752 17.0485 5.66687 17.6767 5.66687C20.6317 5.66687 23.0019 8.06604 23.0019 11.0046C23.0019 13.9601 20.606 16.3335 17.6678 16.3335H15.9981C15.4458 16.3335 14.9981 15.8858 14.9981 15.3335C14.9981 14.7812 15.4458 14.3335 15.9981 14.3335H17.6678C19.5078 14.3335 21.0019 12.8491 21.0019 11.0046C21.0019 9.16101 19.5176 7.66687 17.6767 7.66687C16.9994 7.66687 16.3345 7.87239 15.7719 8.25689C15.493 8.44755 15.1366 8.48446 14.8245 8.35501C14.5124 8.22557 14.2868 7.94728 14.2247 7.61516C13.6514 4.55025 10.6931 2.52446 7.62006 3.09878C4.5511 3.67233 2.52508 6.63216 3.09942 9.71908C3.56 12.1815 5.58282 14.0479 8.0748 14.3124C8.624 14.3707 9.02196 14.8632 8.96366 15.4124C8.90536 15.9616 8.41289 16.3595 7.86369 16.3012C4.49406 15.9435 1.75652 13.419 1.1334 10.0862C0.35798 5.91994 3.09223 1.91034 7.25265 1.13282Z" fill="black"/>
<path d="M12.0019 13.0002C12.5542 13.0002 13.0019 13.4479 13.0019 14.0002V19.584L14.6246 17.96C15.0149 17.5693 15.6481 17.569 16.0388 17.9594C16.4295 18.3497 16.4297 18.9829 16.0394 19.3736L12.7282 22.6875C12.546 22.88 12.288 23.0001 12.0019 23.0001L11.9859 23C11.9804 22.9999 11.975 22.9998 11.9696 22.9996C11.9666 22.9995 11.9636 22.9994 11.9606 22.9993C11.8165 22.9934 11.6803 22.9571 11.5582 22.8965C11.4613 22.8486 11.3719 22.7848 11.294 22.7069L7.96349 19.3736C7.57312 18.9829 7.57339 18.3497 7.96407 17.9594C8.35476 17.569 8.98792 17.5693 9.37828 17.96L11.0019 19.585V14.0002C11.0019 13.4479 11.4497 13.0002 12.0019 13.0002Z" fill="black"/>
</svg>
