<svg width="24" height="24" viewBox="0 0 24 24" fill="none" xmlns="http://www.w3.org/2000/svg">
<path fill-rule="evenodd" clip-rule="evenodd" d="M7.0752 15.2786C7.0752 13.4836 8.53027 12.0286 10.3252 12.0286C10.72 12.0286 11.0984 12.099 11.4485 12.2279L11.2814 8.64613C11.2567 8.11748 11.6482 7.66115 12.1745 7.60515L13.2363 7.49217C13.9333 7.41792 14.6372 7.54399 15.2651 7.85562C15.893 8.16726 16.419 8.65155 16.7813 9.25164C17.0668 9.72442 16.915 10.3391 16.4422 10.6246C15.9694 10.9101 15.3547 10.7582 15.0692 10.2854C14.9036 10.011 14.663 9.7896 14.3759 9.6471C14.0888 9.50459 13.767 9.44694 13.4483 9.48091L13.3231 9.49423L13.5781 14.9608C13.5808 15.0181 13.5786 15.0745 13.5718 15.1297C13.5741 15.179 13.5752 15.2287 13.5752 15.2786C13.5752 17.0735 12.1201 18.5286 10.3252 18.5286C8.53027 18.5286 7.0752 17.0735 7.0752 15.2786ZM10.3252 14.0286C9.63484 14.0286 9.0752 14.5882 9.0752 15.2786C9.0752 15.9689 9.63484 16.5286 10.3252 16.5286C11.0156 16.5286 11.5752 15.9689 11.5752 15.2786C11.5752 14.5882 11.0156 14.0286 10.3252 14.0286Z" fill="black"/>
<path fill-rule="evenodd" clip-rule="evenodd" d="M5.75002 1.00034C6.25479 0.986131 14.5994 0.998803 14.824 0.999956C15.1988 1.00188 15.5686 1.08181 15.9107 1.23418C16.2529 1.38652 16.5595 1.60776 16.8127 1.88321C16.8782 1.95448 17.4247 2.54218 18.0656 3.23129L18.4442 3.63846C19.2308 4.48434 20.0438 5.35887 20.2143 5.54419C20.7231 6.0972 21.0019 6.8243 20.9995 7.5751C20.9979 8.08707 20.9884 19.587 20.9993 20.0646C21.0163 20.8163 20.7418 21.5483 20.2293 22.0998C19.7161 22.652 19.005 22.9783 18.25 22.9995C17.7478 23.0137 6.25215 23.0137 5.75002 22.9995C4.995 22.9783 4.28394 22.652 3.77071 22.0998C3.25819 21.5483 2.98372 20.8163 3.00075 20.0646C3.0116 19.5852 3.0116 4.41467 3.00075 3.93531C2.98372 3.18363 3.25819 2.45159 3.77071 1.90014C4.28394 1.34791 4.995 1.02159 5.75002 1.00034ZM14.8137 2.99993C14.5668 2.99866 6.26828 2.98654 5.8063 2.99955C5.59456 3.00551 5.38878 3.09697 5.2357 3.26168C5.08191 3.42716 4.99486 3.65282 5.00023 3.89003C5.01177 4.39957 5.01177 19.6003 5.00023 20.1099C4.99486 20.3471 5.0819 20.5727 5.2357 20.7382C5.38878 20.9029 5.59456 20.9944 5.8063 21.0003C6.27092 21.0134 17.7291 21.0134 18.1937 21.0003C18.4054 20.9944 18.6112 20.9029 18.7643 20.7382C18.9181 20.5727 19.0051 20.3471 18.9998 20.1099C18.9882 19.5986 18.9979 8.06035 18.9995 7.56869C19.0003 7.31585 18.9061 7.07621 18.7425 6.8983C18.5767 6.71815 17.7695 5.84989 16.9796 5.00042L16.5994 4.59156C15.9609 3.90496 15.41 3.31258 15.3402 3.23668C15.2704 3.1607 15.1874 3.10142 15.0972 3.06122C15.0069 3.02105 14.9106 3.00043 14.8137 2.99993Z" fill="black"/>
</svg>
