<svg width="24" height="24" viewBox="0 0 24 24" fill="none" xmlns="http://www.w3.org/2000/svg">
<path fill-rule="evenodd" clip-rule="evenodd" d="M7 12C7 13.6569 5.65685 15 4 15C2.34315 15 1 13.6569 1 12C1 10.3431 2.34315 9 4 9C5.65685 9 7 10.3431 7 12ZM5 12C5 12.5523 4.55228 13 4 13C3.44772 13 3 12.5523 3 12C3 11.4477 3.44772 11 4 11C4.55228 11 5 11.4477 5 12Z" fill="black"/>
<path fill-rule="evenodd" clip-rule="evenodd" d="M12 15C13.6569 15 15 13.6569 15 12C15 10.3431 13.6569 9 12 9C10.3431 9 9 10.3431 9 12C9 13.6569 10.3431 15 12 15ZM12 13C12.5523 13 13 12.5523 13 12C13 11.4477 12.5523 11 12 11C11.4477 11 11 11.4477 11 12C11 12.5523 11.4477 13 12 13Z" fill="black"/>
<path fill-rule="evenodd" clip-rule="evenodd" d="M20 15C21.6569 15 23 13.6569 23 12C23 10.3431 21.6569 9 20 9C18.3431 9 17 10.3431 17 12C17 13.6569 18.3431 15 20 15ZM20 13C20.5523 13 21 12.5523 21 12C21 11.4477 20.5523 11 20 11C19.4477 11 19 11.4477 19 12C19 12.5523 19.4477 13 20 13Z" fill="black"/>
</svg>
