<svg width="24" height="24" viewBox="0 0 24 24" fill="none" xmlns="http://www.w3.org/2000/svg">
<path d="M12.0005 7.42859C12.5528 7.42859 13.0005 7.8763 13.0005 8.42859V11.5858L17.1743 15.7596C17.5648 16.1501 17.5648 16.7832 17.1743 17.1738C16.7837 17.5643 16.1506 17.5643 15.76 17.1738L11.297 12.7107C11.2053 12.62 11.1311 12.5116 11.0799 12.3912C11.0291 12.2719 11.0009 12.1407 11.0005 12.003C11.0005 12.002 11.0005 12.001 11.0005 12V8.42859C11.0005 7.8763 11.4482 7.42859 12.0005 7.42859Z" fill="black"/>
<path fill-rule="evenodd" clip-rule="evenodd" d="M1 12C1 5.92487 5.92487 1 12 1C18.0751 1 23 5.92487 23 12C23 18.0751 18.0751 23 12 23C5.92487 23 1 18.0751 1 12ZM12 3C7.02944 3 3 7.02944 3 12C3 16.9706 7.02944 21 12 21C16.9706 21 21 16.9706 21 12C21 7.02944 16.9706 3 12 3Z" fill="black"/>
</svg>
