<svg width="24" height="24" viewBox="0 0 24 24" fill="none" xmlns="http://www.w3.org/2000/svg">
<path d="M15.3335 3.66663C15.8858 3.66663 16.3335 4.11434 16.3335 4.66663V5.99996C16.3335 6.55224 15.8858 6.99996 15.3335 6.99996C14.7812 6.99996 14.3335 6.55224 14.3335 5.99996V4.66663C14.3335 4.11434 14.7812 3.66663 15.3335 3.66663Z" fill="black"/>
<path d="M7.6665 15.3334C7.6665 14.7811 8.11422 14.3334 8.6665 14.3334H12.6665C13.2188 14.3334 13.6665 14.7811 13.6665 15.3334C13.6665 15.8857 13.2188 16.3334 12.6665 16.3334H8.6665C8.11422 16.3334 7.6665 15.8857 7.6665 15.3334Z" fill="black"/>
<path d="M8.6665 17C8.11422 17 7.6665 17.4477 7.6665 18C7.6665 18.5523 8.11422 19 8.6665 19H15.3332C15.8855 19 16.3332 18.5523 16.3332 18C16.3332 17.4477 15.8855 17 15.3332 17H8.6665Z" fill="black"/>
<path fill-rule="evenodd" clip-rule="evenodd" d="M7.76889 1C6.80021 1 5.86177 1.39068 5.17734 2.07512L2.07512 5.17734C1.39194 5.86051 1 6.78955 1 7.76889V20.6667C1 21.9567 2.04327 23 3.33333 23H20.6667C21.9567 23 23 21.9567 23 20.6667V3.33333C23 2.04327 21.9567 1 20.6667 1H7.76889ZM9.6665 3V7.33333C9.6665 7.51883 9.81434 7.66667 9.99984 7.66667H16.6665C16.852 7.66667 16.9998 7.51883 16.9998 7.33333V3H9.6665ZM18.9998 3V7.33333C18.9998 8.6234 17.9566 9.66667 16.6665 9.66667H9.99984C8.70977 9.66667 7.6665 8.6234 7.6665 7.33333V3.00327C7.26634 3.02877 6.87827 3.20261 6.59155 3.48933L3.48933 6.59155C3.17695 6.90393 3 7.32601 3 7.76889V20.6667C3 20.8522 3.14784 21 3.33333 21H5V14C5 12.7099 6.04327 11.6666 7.33333 11.6666H16.6667C17.9567 11.6666 19 12.7099 19 14V21H20.6667C20.8522 21 21 20.8522 21 20.6667V3.33333C21 3.14784 20.8522 3 20.6667 3H18.9998ZM7 14C7 13.8145 7.14784 13.6666 7.33333 13.6666H16.6667C16.8522 13.6666 17 13.8145 17 14V21H7V14Z" fill="black"/>
</svg>
