<svg width="24" height="24" viewBox="0 0 24 24" fill="none" xmlns="http://www.w3.org/2000/svg">
<path fill-rule="evenodd" clip-rule="evenodd" d="M5.77816 1C5.76878 1 5.7594 1.00013 5.75002 1.0004C4.995 1.02165 4.28394 1.34797 3.77071 1.90019C3.26104 2.44859 2.98678 3.17558 3.00049 3.92287V20.0771C2.98678 20.8244 3.26104 21.5514 3.77071 22.0998C4.28394 22.652 4.995 22.9784 5.75002 22.9996C5.7594 22.9999 5.76878 23 5.77816 23H18.2218C18.2312 23 18.2406 22.9999 18.25 22.9996C19.005 22.9784 19.7161 22.652 20.2293 22.0998C20.739 21.5514 21.0132 20.8244 20.9995 20.0771V7.57316C21.0014 6.82307 20.7227 6.09677 20.2143 5.54424L16.8127 1.88326L16.8106 1.88102C16.5578 1.60662 16.2519 1.38617 15.9107 1.23423C15.5686 1.08186 15.1988 1.00192 14.824 1H5.77816ZM5.79508 3C5.58731 3.00882 5.38608 3.09993 5.2357 3.26174C5.08191 3.42722 4.99486 3.65287 5.00023 3.89009L5.00049 3.91273V20.0873L5.00023 20.1099C4.99486 20.3471 5.0819 20.5728 5.2357 20.7383C5.38607 20.9001 5.5873 20.9912 5.79506 21H18.2049C18.4127 20.9912 18.6139 20.9001 18.7643 20.7383C18.9181 20.5728 19.0051 20.3471 18.9998 20.1099L18.9995 20.0873V7.57195L18.9995 7.56874C19.0003 7.31659 18.9067 7.07757 18.7438 6.8998L18.7425 6.89835L15.3402 3.23675C15.2704 3.16077 15.1874 3.10148 15.0972 3.06128C15.0076 3.02138 14.9119 3.00077 14.8157 3H5.79508Z" fill="black"/>
</svg>
