<svg width="24" height="24" viewBox="0 0 24 24" fill="none" xmlns="http://www.w3.org/2000/svg">
<path d="M14.2318 4.35982C14.5853 3.93554 15.2159 3.87821 15.6402 4.23178L18.6343 6.72691C18.6513 6.74081 18.6677 6.75526 18.6837 6.77023C18.7041 6.78934 18.7236 6.80924 18.7422 6.82985C18.907 7.01237 19 7.25078 19 7.5C19 7.7578 18.9024 7.99282 18.7422 8.17015C18.7089 8.20708 18.6728 8.24151 18.6343 8.27312L15.6402 10.7682C15.2159 11.1218 14.5853 11.0645 14.2318 10.6402C13.8782 10.2159 13.9355 9.58534 14.3598 9.23178L15.238 8.5H11C10.4477 8.5 10 8.05228 10 7.5C10 6.94772 10.4477 6.5 11 6.5H15.238L14.3598 5.76822C13.9355 5.41466 13.8782 4.78409 14.2318 4.35982Z" fill="black"/>
<path d="M12.6402 11.7682L11.762 12.5H16C16.5523 12.5 17 12.9477 17 13.5C17 14.0523 16.5523 14.5 16 14.5H11.762L12.6402 15.2318C13.0645 15.5853 13.1218 16.2159 12.7682 16.6402C12.4147 17.0645 11.7841 17.1218 11.3598 16.7682L8.36573 14.2731C8.34789 14.2585 8.33056 14.2432 8.31379 14.2274C8.29515 14.2098 8.27719 14.1915 8.25995 14.1726C8.09844 13.995 8 13.759 8 13.5C8 13.241 8.09844 13.005 8.25995 12.8274C8.27719 12.8085 8.29515 12.7902 8.31379 12.7726C8.33056 12.7568 8.34789 12.7415 8.36573 12.7269L11.3598 10.2318C11.7841 9.87821 12.4147 9.93554 12.7682 10.3598C13.1218 10.7841 13.0645 11.4147 12.6402 11.7682Z" fill="black"/>
<path fill-rule="evenodd" clip-rule="evenodd" d="M7.26667 1C5.46254 1 4 2.46254 4 4.26667V16.7333C4 18.5375 5.46254 20 7.26667 20H19.7333C21.5375 20 23 18.5375 23 16.7333V4.26667C23 2.46254 21.5375 1 19.7333 1H7.26667ZM6 4.26667C6 3.56711 6.56711 3 7.26667 3H19.7333C20.4329 3 21 3.56711 21 4.26667V16.7333C21 17.4329 20.4329 18 19.7333 18H7.26667C6.56711 18 6 17.4329 6 16.7333V4.26667Z" fill="black"/>
<path d="M3 5C3 4.44772 2.55228 4 2 4C1.44772 4 1 4.44772 1 5V18.5C1 20.9853 3.01472 23 5.5 23H19C19.5523 23 20 22.5523 20 22C20 21.4477 19.5523 21 19 21H5.5C4.11929 21 3 19.8807 3 18.5V5Z" fill="black"/>
</svg>
