<svg width="24" height="24" viewBox="0 0 24 24" fill="none" xmlns="http://www.w3.org/2000/svg">
<g clip-path="url(#clip0_5580_1342)">
<path d="M21.9995 22.0787C22.0107 22.5727 21.83 23.0511 21.4968 23.4093C21.1636 23.7675 20.7052 23.9762 20.2218 23.9898C19.7385 24.0034 4.26153 24.0034 3.77816 23.9898C3.29478 23.9762 2.83636 23.7675 2.50321 23.4093C2.17005 23.0511 1.98929 22.5727 2.00049 22.0787C2.01169 21.5846 2.01169 2.41151 2.00049 1.91747C1.98929 1.42343 2.17005 0.944976 2.50321 0.586805C2.83636 0.228634 3.29478 0.0199144 3.77816 0.00631992C4.26153 -0.00727451 16.5831 0.00511008 16.8189 0.00631992C17.0547 0.00752977 17.2878 0.0577597 17.504 0.153953C17.7202 0.250146 17.9149 0.390291 18.0765 0.565858C18.238 0.741424 21.1422 3.85897 21.4784 4.22413C21.8146 4.5893 22.0011 5.07226 21.9995 5.57367C21.9979 6.07507 21.9883 21.5846 21.9995 22.0787Z" fill="#C7C8D3"/>
<path fill-rule="evenodd" clip-rule="evenodd" d="M4.75 18C4.75 17.3096 5.30964 16.75 6 16.75H10C10.6904 16.75 11.25 17.3096 11.25 18C11.25 18.6904 10.6904 19.25 10 19.25H6C5.30964 19.25 4.75 18.6904 4.75 18Z" fill="#60627B"/>
<path fill-rule="evenodd" clip-rule="evenodd" d="M4.75 14C4.75 13.3096 5.30964 12.75 6 12.75H13C13.6904 12.75 14.25 13.3096 14.25 14C14.25 14.6904 13.6904 15.25 13 15.25H6C5.30964 15.25 4.75 14.6904 4.75 14Z" fill="#60627B"/>
<path fill-rule="evenodd" clip-rule="evenodd" d="M4.75 10C4.75 9.30964 5.30964 8.75 6 8.75H17C17.6904 8.75 18.25 9.30964 18.25 10C18.25 10.6904 17.6904 11.25 17 11.25H6C5.30964 11.25 4.75 10.6904 4.75 10Z" fill="#60627B"/>
<path d="M23.3105 11.4329C22.8726 10.9958 22.2791 10.7504 21.6604 10.7504C21.0417 10.7504 20.4483 10.9958 20.0104 11.4329L13.7914 17.6506C13.7065 17.7359 13.6487 17.8443 13.6252 17.9623L13.0141 21.018C12.9941 21.1167 12.9989 21.2187 13.0279 21.3151C13.0569 21.4115 13.1092 21.4992 13.1803 21.5705C13.2513 21.6416 13.3388 21.694 13.4349 21.7232C13.5311 21.7524 13.633 21.7575 13.7315 21.7379L16.7872 21.1268C16.9058 21.1032 17.0147 21.0449 17.1001 20.9593L23.3178 14.7416C23.5348 14.524 23.7067 14.2657 23.8237 13.9816C23.9408 13.6975 24.0007 13.3931 24 13.0858C23.9993 12.7785 23.9381 12.4743 23.8198 12.1907C23.7014 11.9071 23.5284 11.6496 23.3105 11.4329Z" fill="#60627B"/>
</g>
<defs>
<clipPath id="clip0_5580_1342">
<rect width="24" height="24" fill="white"/>
</clipPath>
</defs>
</svg>
