<svg width="24" height="24" viewBox="0 0 24 24" fill="none" xmlns="http://www.w3.org/2000/svg">
<path fill-rule="evenodd" clip-rule="evenodd" d="M19.4783 4.19341C19.4942 4.09792 19.5826 4.01996 19.6866 4.01996H20.4777C21.03 4.01996 21.4777 3.57224 21.4777 3.01996C21.4777 2.46767 21.03 2.01996 20.4777 2.01996H19.6866C18.6128 2.01996 17.6846 2.79663 17.5058 3.86247L17.5055 3.86461L17.2009 5.65259H4.13106C3.99574 5.65259 3.8731 5.67352 3.82965 5.68093L3.82136 5.68234C3.797 5.6864 3.7728 5.69136 3.7488 5.69721C2.87178 5.91112 2.35825 6.79232 2.57163 7.64586L3.74171 12.3261C4.11936 13.8465 5.48937 14.9178 7.06135 14.9178H15.6229L15.375 16.3734L15.3744 16.3769C15.3584 16.4723 15.2701 16.5503 15.166 16.5503H7C6.44772 16.5503 6 16.998 6 17.5503C6 18.1026 6.44772 18.5503 7 18.5503H15.166C16.2398 18.5503 17.1681 17.7736 17.3468 16.7078L17.3472 16.7057L19.4777 4.19692L19.4783 4.19341ZM15.9635 12.9178L16.8603 7.65259H4.63487L5.68285 11.8445C5.83828 12.4709 6.40564 12.9178 7.06135 12.9178H15.9635Z" fill="black"/>
<path d="M9.5 20.7523C9.5 20.0615 8.94079 19.5023 8.25 19.5023C7.55921 19.5023 7 20.0615 7 20.7523C7 21.443 7.55921 22.0023 8.25 22.0023C8.94079 22.0023 9.5 21.443 9.5 20.7523Z" fill="black"/>
<path d="M15.2549 19.5023C15.9457 19.5023 16.5049 20.0615 16.5049 20.7523C16.5049 21.443 15.9457 22.0023 15.2549 22.0023C14.5641 22.0023 14.0049 21.443 14.0049 20.7523C14.0049 20.0615 14.5641 19.5023 15.2549 19.5023Z" fill="black"/>
</svg>
