<svg width="24" height="24" viewBox="0 0 24 24" fill="none" xmlns="http://www.w3.org/2000/svg">
<path fill-rule="evenodd" clip-rule="evenodd" d="M6.6001 11C6.6001 8.79086 8.39096 7 10.6001 7C12.8092 7 14.6001 8.79086 14.6001 11C14.6001 13.2091 12.8092 15 10.6001 15C8.39096 15 6.6001 13.2091 6.6001 11ZM10.6001 9C9.49553 9 8.6001 9.89543 8.6001 11C8.6001 12.1046 9.49553 13 10.6001 13C11.7047 13 12.6001 12.1046 12.6001 11C12.6001 9.89543 11.7047 9 10.6001 9Z" fill="black"/>
<path fill-rule="evenodd" clip-rule="evenodd" d="M0 6.44043C0 5.08123 1.10018 3.97595 2.46154 3.97595H18.5385C19.8998 3.97595 21 5.08123 21 6.44043V15.5115C21 16.8707 19.8998 17.976 18.5385 17.976H2.46154C1.10018 17.976 0 16.8707 0 15.5115V6.44043ZM2.46154 5.97595C2.20853 5.97595 2 6.18201 2 6.44043V15.5115C2 15.7699 2.20853 15.976 2.46154 15.976H18.5385C18.7915 15.976 19 15.7699 19 15.5115V6.44043C19 6.18201 18.7915 5.97595 18.5385 5.97595H2.46154Z" fill="black"/>
<path d="M24 10C24 9.44772 23.5523 9 23 9C22.4477 9 22 9.44772 22 10V18.5044C22 18.7695 21.7895 18.976 21.5333 18.976H6C5.44772 18.976 5 19.4237 5 19.976C5 20.5282 5.44772 20.976 6 20.976H21.5333C22.9003 20.976 24 19.8678 24 18.5044V10Z" fill="black"/>
</svg>
