<svg width="24" height="14" viewBox="0 0 24 14" fill="none" xmlns="http://www.w3.org/2000/svg">
<path fill-rule="evenodd" clip-rule="evenodd" d="M0.75 0C0.335786 0 0 0.335786 0 0.75V6.0014H7.1C7.5634 3.71933 9.58108 2.00174 11.9999 2.00174C14.4188 2.00174 16.4364 3.71933 16.8998 6.0014H24V0.75C24 0.335786 23.6642 0 23.25 0H0.75ZM24 8.0014H16.9C16.4368 10.2838 14.419 12.0017 11.9999 12.0017C9.58084 12.0017 7.563 10.2838 7.09986 8.0014H0V13.25C0 13.6642 0.335786 14 0.75 14H23.25C23.6642 14 24 13.6642 24 13.25V8.0014ZM11.9999 10.0017C13.6568 10.0017 14.9999 8.65859 14.9999 7.00174C14.9999 5.34489 13.6568 4.00174 11.9999 4.00174C10.3431 4.00174 8.99992 5.34489 8.99992 7.00174C8.99992 8.65859 10.3431 10.0017 11.9999 10.0017Z" fill="#C4C4C4"/>
<path fill-rule="evenodd" clip-rule="evenodd" d="M0.75 0C0.335786 0 0 0.335786 0 0.75V6.0014H7.1C7.5634 3.71933 9.58108 2.00174 11.9999 2.00174C14.4188 2.00174 16.4364 3.71933 16.8998 6.0014H24V0.75C24 0.335786 23.6642 0 23.25 0H0.75ZM24 8.0014H16.9C16.4368 10.2838 14.419 12.0017 11.9999 12.0017C9.58084 12.0017 7.563 10.2838 7.09986 8.0014H0V13.25C0 13.6642 0.335786 14 0.75 14H23.25C23.6642 14 24 13.6642 24 13.25V8.0014ZM11.9999 10.0017C13.6568 10.0017 14.9999 8.65859 14.9999 7.00174C14.9999 5.34489 13.6568 4.00174 11.9999 4.00174C10.3431 4.00174 8.99992 5.34489 8.99992 7.00174C8.99992 8.65859 10.3431 10.0017 11.9999 10.0017Z" fill="url(#paint0_linear_10283_150613)"/>
<defs>
<linearGradient id="paint0_linear_10283_150613" x1="5.1" y1="3.95067e-07" x2="14.3167" y2="15.1088" gradientUnits="userSpaceOnUse">
<stop stop-color="#C1AD8E"/>
<stop offset="1" stop-color="#866F4E"/>
</linearGradient>
</defs>
</svg>
