<svg width="24" height="24" viewBox="0 0 24 24" fill="none" xmlns="http://www.w3.org/2000/svg">
<g clip-path="url(#clip0_2645_101)">
<path d="M5.8063 2.99955C6.26828 2.98654 14.5668 2.99866 14.8137 2.99993C14.9106 3.00043 15.0069 3.02105 15.0972 3.06122C15.1874 3.10142 15.2704 3.1607 15.3402 3.23668C15.41 3.31258 15.9609 3.90496 16.5994 4.59156L16.9796 5.00042C17.7695 5.84989 18.5767 6.71815 18.7425 6.8983C18.9061 7.07621 19.0003 7.31585 18.9995 7.56869C18.9987 7.82181 18.9987 8.95318 18.9989 10.0179L18.9995 12.0876C18.9997 12.6399 19.4476 13.0874 19.9999 13.0872C20.5522 13.087 20.9997 12.6384 20.9995 12.0861L20.9989 10.0175C20.9987 8.95008 20.9987 7.82379 20.9995 7.5751C21.0019 6.8243 20.7231 6.0972 20.2143 5.54419C20.0438 5.35887 19.2308 4.48434 18.4442 3.63846L18.0656 3.23129C17.4247 2.54218 16.8782 1.95448 16.8127 1.88321C16.5595 1.60776 16.2529 1.38652 15.9107 1.23418C15.5686 1.08181 15.1988 1.00188 14.824 0.999956C14.5994 0.998803 6.25479 0.986131 5.75002 1.00034C4.995 1.02159 4.28394 1.34791 3.77071 1.90014C3.25819 2.45159 2.98372 3.18363 3.00075 3.93531C3.0116 4.41467 3.0116 19.5852 3.00075 20.0646C2.98372 20.8163 3.25819 21.5483 3.77071 22.0998C4.28394 22.652 4.995 22.9783 5.75002 22.9995C6.011 23.0069 6.4976 23.0067 6.90251 23.005C7.10853 23.0042 7.29918 23.0029 7.43826 23.0018L7.66577 22.9999C8.21803 22.9945 8.66136 22.5424 8.65597 21.9902C8.65058 21.4379 8.19761 20.9946 7.64535 21L7.42289 21.0019C7.2854 21.0029 7.09721 21.0042 6.8942 21.0051C6.48103 21.0068 6.0287 21.0066 5.8063 21.0003C5.59456 20.9944 5.38878 20.9029 5.2357 20.7382C5.0819 20.5727 4.99486 20.3471 5.00023 20.1099C5.01177 19.6003 5.01177 4.39957 5.00023 3.89003C4.99486 3.65282 5.08191 3.42716 5.2357 3.26168C5.38878 3.09697 5.59456 3.00551 5.8063 2.99955Z" fill="black"/>
<path fill-rule="evenodd" clip-rule="evenodd" d="M20.9996 14.9318C20.1853 14.6171 19.2994 14.5358 18.4415 14.6971C17.5835 14.8583 16.7876 15.2557 16.1432 15.8446C15.8321 16.1288 15.5623 16.4522 15.3397 16.8052C15.2004 16.7413 15.0569 16.6858 14.9099 16.6391C14.3169 16.4508 13.6865 16.4121 13.0749 16.5267C12.4633 16.6413 11.8896 16.9055 11.405 17.2958C10.9204 17.686 10.5399 18.1902 10.2976 18.7633C10.0552 19.3364 9.95858 19.9606 10.0162 20.5801C10.0738 21.1997 10.2839 21.7953 10.6278 22.3139C10.9717 22.8325 11.4386 23.2579 11.9868 23.5521C12.5351 23.8463 13.1477 24.0002 13.7699 24C14.2269 23.9999 18.6204 23.9999 19.3072 24C20.1802 24.0002 21.0359 23.7568 21.7781 23.2973C22.5203 22.8377 23.1196 22.1802 23.5085 21.3987C23.8975 20.6172 24.0607 19.7426 23.9798 18.8734C23.8989 18.0042 23.5771 17.1748 23.0507 16.4785C22.5242 15.7822 21.8139 15.2465 20.9996 14.9318ZM18.8109 16.6627C19.3031 16.5701 19.8114 16.6168 20.2786 16.7973C20.7457 16.9779 21.1533 17.2852 21.4553 17.6847C21.7574 18.0842 21.942 18.5601 21.9884 19.0588C22.0348 19.5574 21.9412 20.0592 21.718 20.5076C21.4949 20.9559 21.151 21.3332 20.7252 21.5968C20.2994 21.8605 19.8085 22.0001 19.3076 22C18.6206 21.9999 14.2267 21.9999 13.7694 22C13.4773 22.0001 13.1898 21.9279 12.9325 21.7898C12.6752 21.6517 12.456 21.4521 12.2946 21.2087C12.1333 20.9653 12.0346 20.6857 12.0076 20.3949C11.9806 20.1042 12.0259 19.8112 12.1397 19.5422C12.2534 19.2733 12.432 19.0366 12.6594 18.8534C12.8869 18.6703 13.1561 18.5463 13.4432 18.4925C13.7302 18.4387 14.0261 18.4569 14.3044 18.5453C14.5828 18.6337 14.8349 18.7896 15.0382 18.9992C15.2872 19.2557 15.6541 19.3598 16.0007 19.2723C16.3472 19.1848 16.6207 18.919 16.7181 18.5751C16.8545 18.0932 17.1226 17.6589 17.4923 17.321C17.862 16.9832 18.3187 16.7552 18.8109 16.6627Z" fill="black"/>
</g>
<defs>
<clipPath id="clip0_2645_101">
<rect width="24" height="24" fill="white"/>
</clipPath>
</defs>
</svg>
