<svg width="24" height="24" viewBox="0 0 24 24" fill="none" xmlns="http://www.w3.org/2000/svg">
<path d="M13 15C13 14.4477 12.5523 14 12 14C11.4477 14 11 14.4477 11 15V17C11 17.5523 11.4477 18 12 18C12.5523 18 13 17.5523 13 17V15Z" fill="black"/>
<path fill-rule="evenodd" clip-rule="evenodd" d="M6 6.66667V9.01629C4.84016 9.15617 4 10.1778 4 11.3333V20.6667C4 21.911 4.9742 23 6.27273 23H17.7273C19.0258 23 20 21.911 20 20.6667V11.3333C20 10.1778 19.1598 9.15617 18 9.01629V6.66667C18 5.14064 17.3499 3.69232 16.2179 2.63578C15.0882 1.58142 13.5699 1 12 1C10.4301 1 8.91182 1.58142 7.78215 2.63578C6.65014 3.69232 6 5.14064 6 6.66667ZM12 3C10.9177 3 9.89248 3.40191 9.14678 4.09789C8.40342 4.79169 8 5.71734 8 6.66667V9H16V6.66667C16 5.71734 15.5966 4.79169 14.8532 4.09789C14.1075 3.40191 13.0823 3 12 3ZM6.27273 11H17.7273C17.8346 11 18 11.1049 18 11.3333V20.6667C18 20.8951 17.8346 21 17.7273 21H6.27273C6.16543 21 6 20.8951 6 20.6667V11.3333C6 11.1049 6.16543 11 6.27273 11Z" fill="black"/>
</svg>
