<svg width="311" height="197" viewBox="0 0 311 197" fill="none" xmlns="http://www.w3.org/2000/svg">
<g clip-path="url(#clip0_10283_150619)">
<rect x="0.00195312" width="310.996" height="196.802" rx="12.1483" fill="url(#paint0_linear_10283_150619)"/>
<rect x="24.2976" y="48.5918" width="80.1787" height="123.913" rx="4.85931" fill="white"/>
<path d="M250.393 163.921H250.438L250.476 163.979L250.42 164.065L250.484 164.108L250.624 164.105L250.722 164.167L250.696 164.261L250.73 164.355L250.673 164.441L250.571 164.405L250.48 164.542L250.503 164.589L250.563 164.656L250.616 164.675L250.692 164.827H250.741L250.772 164.878H250.832L250.9 164.996L251.029 165.136L251.025 165.234L251.067 165.285L251.177 165.281L251.226 165.371L251.199 165.476L251.283 165.562L251.241 165.652L251.271 165.715L251.241 165.777L251.351 165.867L251.396 165.871L251.483 165.961H251.54L251.582 166.019L251.691 166.023L251.737 166.09L251.854 166.164L251.926 166.121L251.983 166.16L252.013 166.25L252.07 166.27L252.115 166.336L252.13 166.453L252.187 166.508L252.183 166.574L252.229 166.613V166.653L252.293 166.723L252.331 166.676L252.388 166.68L252.414 166.715V166.789H252.532V166.84L252.622 166.883L252.691 166.821H252.744L252.789 166.86L252.846 166.957H252.959L253.077 167.067V167.098L253.137 167.125V167.196L253.183 167.254L253.198 167.43L253.171 167.497L253.221 167.579L253.224 167.743L253.285 167.778L253.353 167.841L253.349 167.887L253.402 167.93H253.463L253.595 168.091L253.697 168.095L253.701 168.227H253.758L253.8 168.192L253.83 168.247L253.891 168.251L254.008 168.36L254.114 168.423L254.22 168.419L254.224 168.485L254.443 168.603L254.553 168.716L254.723 168.728L254.765 168.849L254.822 168.86L254.882 168.946V169.021L254.822 169.072L254.863 169.146L254.844 169.212L254.886 169.243L254.973 169.2L255.041 169.232L255.045 169.314L255.09 169.361V169.415L254.992 169.474L254.996 169.517L255.041 169.513L255.109 169.466L255.159 169.497L255.2 169.63L255.272 169.677L255.363 169.697L255.321 169.775L255.325 169.888L255.461 169.931L255.439 169.974L255.329 170.017L255.299 170.064L255.416 170.15L255.518 170.146L255.545 170.177L255.541 170.263L255.609 170.318L255.605 170.424L255.692 170.428L255.738 170.373L255.81 170.377L255.866 170.459L255.863 170.517L255.779 170.568L255.772 170.646L255.791 170.689H255.836L255.919 170.627L255.961 170.623L255.999 170.666L256.003 170.752L256.04 170.775L256.135 170.713L256.173 170.74V170.783H256.271L256.294 170.748L256.249 170.643L256.279 170.596H256.366L256.483 170.685L256.729 170.682L256.775 170.74L256.854 170.775L256.907 170.74L257.081 170.744L257.134 170.822L257.176 170.826L257.199 170.893L257.229 170.897L257.297 170.967L257.358 170.994L257.365 171.076L257.43 171.139V171.233L257.475 171.287L257.471 171.362L257.513 171.408L257.532 171.491L257.611 171.608L257.683 171.604L257.721 171.561L257.778 171.577L257.823 171.627L257.865 171.623L257.914 171.666H258.016L258.134 171.815L258.255 171.78L258.368 171.87L258.433 171.866L258.482 171.819L258.539 171.858L258.535 171.979L258.611 172.053L258.664 172.069V172.159L258.717 172.174L258.792 172.077L258.887 172.002L258.985 171.987L259.05 172.049L259.193 171.979L259.311 172.045L259.455 171.948L259.64 172.124H259.678L259.708 172.163H259.826L259.962 172.249L260.03 172.221L260.17 172.108L260.174 172.042L260.344 172.045L260.446 172.151H260.484L260.514 172.092L260.586 172.049L260.772 172.112L260.942 172.28L261.01 172.288L261.063 172.35L261.192 172.292L261.442 172.378L261.514 172.26L261.571 172.256L261.601 172.186L261.631 172.253L261.703 172.268L261.775 172.342V172.409L261.847 172.479L261.938 172.475L261.994 172.503L262.055 172.444L262.047 172.284L262.097 172.225L262.195 172.256L262.244 172.233L262.316 171.995L262.411 172.085L262.49 172.081L262.581 171.983L262.774 171.94L262.778 171.827L262.846 171.831L262.933 171.733V171.655L263.043 171.604L263.02 171.518L263.077 171.444L263.081 171.385L263.198 171.358L263.232 171.307L263.191 171.248V171.201L263.285 171.158L263.312 171.096L263.281 171.037L263.338 170.967L263.516 170.971L263.588 171.049H263.645L263.683 171.1H263.781L263.868 171.233L264.042 171.311L264.114 171.268L264.148 171.068L264.194 171.029L264.372 171.049L264.455 170.971L264.531 170.975L264.561 170.897L264.667 170.818L264.795 170.822L264.924 170.9L265.083 170.865L265.185 170.936L265.246 170.908L265.178 170.725L265.337 170.576L265.42 170.537L265.511 170.541L265.583 170.596L265.666 170.564L265.587 170.228L265.795 169.927L265.867 169.943H265.954L266.014 169.978L266.048 170.291L266.359 170.334L266.54 170.256L266.609 170.322L266.839 170.287L266.904 170.357L266.938 170.322L266.839 170.146L267.294 169.845L267.415 169.951L267.6 169.873V169.83L267.888 169.564L267.873 169.458L267.933 169.443L267.952 169.4H268.005L268.047 169.345H268.111L268.21 169.243L268.1 169.095L268.172 169.005L268.206 169.025L268.316 168.919L268.369 168.903L268.406 168.864V168.775L268.49 168.732L268.66 168.825H268.811L268.982 168.669L269.058 168.743L269.111 168.735L269.16 168.669L269.243 168.743V168.778H269.288L269.338 168.849L269.394 168.829L269.493 168.927L269.497 168.978L269.561 169.044H269.637L269.671 169.068L269.762 169.064V169.122L269.875 169.154L270.011 169.091L270.087 168.997L270.136 168.989L270.174 168.954L270.25 168.958L270.28 168.911H270.356L270.572 168.72L270.977 168.735L271.026 168.806L271.075 168.986L271.139 169.04L271.211 168.989L271.272 169.029L271.298 168.931L271.457 168.771L271.491 168.802V168.849L271.59 168.919L271.681 169.013H271.771L271.813 168.958L271.877 168.962L271.949 168.892L272.078 169.005V169.079L272.233 169.154H272.328V169.193L272.381 169.243L272.411 169.181L272.46 169.142V169.079L272.578 168.931L272.619 168.954L272.672 168.911L272.722 168.954L272.85 168.833L272.915 168.806L273.002 168.911L273.077 168.868L273.142 168.9H273.214L273.388 169.001L273.535 168.997L273.702 168.806L273.736 168.732L273.698 168.669L273.778 168.599L273.812 168.622L273.846 168.653H273.959L274.122 168.767L274.277 168.919L274.345 168.923L274.395 169.001L274.455 169.005L274.459 169.06L274.557 169.126L274.607 168.989L274.652 168.923H274.724L274.815 168.974L274.89 168.841L274.962 168.821L275.012 168.716L275.023 168.634L275.068 168.563L275.038 168.478L275.049 168.435H275.239L275.159 168.095L275.258 167.895L275.269 167.848L275.367 167.884L275.432 167.829L275.84 167.735L275.912 167.852L276.124 167.95L276.155 167.844L276.227 167.798L276.272 167.801L276.287 167.872L276.348 167.958L276.586 167.973L276.722 167.887L276.794 168.02L276.885 168.067L276.968 168.087L277.09 167.95L277.158 167.923L277.203 167.739L277.192 167.586L277.317 167.579L277.415 167.551L277.445 167.618L277.555 167.61L277.612 167.547L277.555 167.446L277.578 167.403L277.582 167.317L277.695 167.188L277.718 167.051L277.676 166.989L277.71 166.84L277.771 166.695L277.839 166.625L277.869 166.653L278.115 166.649L278.168 166.684L278.214 166.641L278.229 166.516L278.331 166.41L278.327 166.359L278.358 166.281L278.263 166.144L278.259 166.082H278.168L278.07 165.98L278.051 165.855L278.134 165.636L278.112 165.539L278.191 165.453L278.32 165.191L278.259 165.105V165.007L278.289 164.972L278.293 164.913L278.384 164.765H278.46L278.619 164.71L278.698 164.796L278.804 164.82L278.865 164.8L278.869 164.691L278.929 164.613L279.046 164.542L279.081 164.452L279.02 164.417L278.948 164.335L278.952 164.222L278.975 164.198L279.073 164.233L279.217 164.19L279.258 164.237H279.311L279.349 164.159L279.398 164.128L279.421 164.038L279.474 163.995L279.486 163.851L279.467 163.788L279.395 163.772L279.296 163.671L279.258 163.647V163.554L279.349 163.471L279.44 163.253V163.178L279.406 163.014L279.444 162.959L279.504 162.956L279.633 162.834L279.705 162.831L279.762 162.788L279.841 162.756L279.875 162.569L279.944 162.537L279.909 162.483L279.906 162.416L279.834 162.323L279.826 162.256L279.894 162.162L280.076 162.1L280.156 161.99L280.197 161.943L280.277 161.94L280.299 161.85L280.254 161.822L280.224 161.768L280.28 161.619L280.284 161.455L280.216 161.4H280.174L280.121 161.377L280.118 161.291L280.186 161.213L280.262 161.205L280.386 161.068L280.383 160.986L280.424 160.939V160.861L280.534 160.736L280.678 160.642L280.863 160.638L280.924 160.455V160.314L280.958 160.259L280.954 160.185L280.992 160.118L281.106 160.036L281.208 159.978L281.23 159.853L281.215 159.72L281.151 159.665L281.178 159.603V159.521L281.249 159.403L281.268 159.345L281.363 159.263V159.165L281.302 159.091L281.378 159.001L281.374 158.903L281.424 158.872L281.473 158.755L281.533 158.665V158.602L281.632 158.446V158.375L281.757 158.301L281.836 158.293L281.889 158.262L281.976 158.329L282.044 158.305L282.12 158.125L282.131 157.864L282.086 157.762L282.12 157.711L282.01 157.621L281.965 157.449L281.991 157.379L281.972 157.262L282.029 157.215V157.113L282.173 156.965L282.234 157.012L282.313 156.945L282.237 156.851L282.294 156.785L282.434 156.742L282.574 156.578L282.62 156.504L282.635 156.433L282.68 156.422L282.733 156.468H282.832L282.885 156.418L282.881 156.355L282.934 156.312V156.175L282.983 156.101L282.979 155.98L283.078 155.89L283.108 155.828L283.093 155.64L283.138 155.585L283.206 155.581L283.252 155.562L283.293 155.499L283.29 155.308L283.312 155.226L283.403 155.273L283.475 155.191L283.558 155.159L283.611 155.116L283.638 155.03L283.683 154.972L283.755 155.05L283.827 155.046L283.873 155.101L283.971 155.097L284.039 155.054L284.073 155.097L284.202 155.093L284.187 155.011L284.228 154.913L284.232 154.733L284.278 154.639L284.274 154.577L284.365 154.581L284.425 154.522L284.478 154.518L284.876 154.815L285.205 154.811V154.757L285.322 154.761L285.345 154.725L285.413 154.753L285.44 154.698L285.511 154.702L285.515 154.659H285.564L285.617 154.62L285.621 154.546L285.693 154.491L285.682 154.421L285.716 154.315L285.795 154.221L285.837 154.257L285.985 154.253L286.064 154.159V154.018L285.992 154.006L285.973 153.975L286.026 153.854L285.981 153.76H286.117L286.189 153.737L286.348 153.616H286.462L286.579 153.362L286.7 153.178L286.636 153.092L286.549 153.053L286.545 153.006H286.462L286.393 152.92V152.854L286.511 152.725L286.515 152.658L286.549 152.603V152.381L286.496 152.338L286.458 152.263V152.185L286.397 152.138H286.314L286.318 152.06L286.269 152.017V151.92L286.238 151.869L286.174 151.865L286.14 151.908L286.098 151.861L286.022 151.857L285.969 151.92L285.916 151.916L285.875 151.869L285.784 151.861L285.708 151.908L285.652 151.904L285.53 152.029L285.481 152.025L285.447 152.068L285.432 152.111H285.379L285.326 152.064H285.19L285.122 152.021L285.016 152.017L284.978 151.978L284.989 151.861L284.951 151.736L284.947 151.626L284.906 151.572L284.838 151.541V151.49L284.789 151.423L284.781 151.361L284.826 151.29L284.792 151.236L284.724 151.232L284.698 151.161L284.569 151.103L284.527 151.04L284.482 151.009L284.516 150.966L284.471 150.904L284.41 150.88L284.406 150.821L284.361 150.775L284.289 150.829L284.228 150.825L284.206 150.88L284.145 150.888L284.069 150.818L283.952 150.798L283.88 150.814L283.861 150.872L283.778 150.935L283.706 150.904L283.714 150.825L283.676 150.79L283.672 150.728L283.581 150.661L283.551 150.599L283.517 150.435V150.372L283.38 150.231L283.373 150.071L283.407 149.997L283.362 149.962L283.316 149.997L283.259 149.954L283.199 149.958L283.119 149.911L283.074 149.954L283.081 149.884L283.04 149.86L283.021 149.774L282.983 149.727L283.047 149.63L283.051 149.559L283.081 149.497L283.036 149.473L282.964 149.544L282.881 149.454L282.82 149.45L282.79 149.403L282.745 149.387L282.654 149.481L282.574 149.489L282.529 149.532L282.48 149.536L282.483 149.622L282.4 149.692L282.393 149.747L282.324 149.786L282.252 149.809L282.135 149.829L282.131 149.774L282.071 149.762L281.972 149.794L281.893 149.798L281.866 149.743H281.768L281.609 149.848L281.552 149.813L281.442 149.809L281.389 149.856L281.318 149.864L281.253 149.985L281.185 149.934L281.098 149.958L281.064 149.993L281.015 149.997L280.92 150.052L280.867 149.985L280.78 150.005L280.776 150.212H280.708L280.697 150.251L280.564 150.153L280.561 150.2H280.383L280.258 150.114L280.186 150.149L280.129 150.106L280.091 150.012L280.012 150.009L280.053 149.954L280.042 149.876L279.838 149.755V149.587L279.762 149.512L279.705 149.387L279.554 149.161V148.895L279.504 148.871V148.817L279.467 148.821L279.429 148.766L279.372 148.77L279.33 148.844L279.236 148.848L279.19 148.805L279.134 148.801L279.115 148.762L279.062 148.758L279.009 148.696L279.016 148.594L278.978 148.559V148.496L278.884 148.399H278.812L278.641 148.289L278.6 148.215L278.52 148.207L278.441 148.285L278.437 148.379L278.403 148.434L278.354 148.438L278.286 148.383L278.218 148.422L277.941 148.434L277.869 148.473L277.866 148.57L277.828 148.617L277.85 148.672L277.763 148.758L277.733 148.735L277.612 148.731L277.434 148.629L277.343 148.656L277.131 148.809L277.086 148.781L276.965 148.817L276.942 148.891L276.897 148.938L276.859 149.036L276.798 149.055H276.734L276.685 148.977L276.711 148.903L276.616 148.821H276.541L276.526 148.793H276.355L276.276 148.739L276.083 148.836L275.946 148.809L275.765 148.637L275.757 148.563L275.697 148.5L275.466 148.578L275.352 148.516L275.205 148.352L275.125 148.387L274.887 148.391L274.686 148.477L274.591 148.445L274.497 148.461L274.413 148.535L274.262 148.539L274.175 148.606L274.061 148.629L274.031 148.68L273.933 148.676L273.872 148.739L273.762 148.696L273.653 148.719L273.634 148.774L273.581 148.801L273.501 148.758L273.448 148.781L273.407 148.84L273.471 148.934L273.467 149.157L273.41 149.153L273.335 149.309L273.282 149.313L273.248 149.372L273.274 149.418L273.236 149.477L273.187 149.497L273.134 149.563L273.13 149.626L272.971 149.758L272.994 149.872L272.971 149.97L272.911 150.04L272.96 150.161L272.899 150.274L272.809 150.333L272.812 150.407L272.744 150.466V150.603L272.68 150.638L272.547 150.79L272.51 150.95L272.441 150.974L272.351 151.095L272.226 151.068L272.158 150.989L272.101 150.986L272.025 150.95L271.949 151.087L271.862 151.091L271.859 151.15L271.817 151.161L271.787 151.224H271.688L271.616 151.169H271.488V151.259L271.45 151.283L271.476 151.333L271.472 151.435L271.408 151.443L271.298 151.533L271.302 151.587L271.242 151.646L271.162 151.65L271.105 151.724L271.166 151.755L271.128 151.806L271.06 151.826L271.045 151.888H270.958L270.901 151.818L270.848 151.814L270.81 151.861H270.768L270.689 151.947L270.613 151.943L270.545 152.013L270.473 152.041L270.469 152.135L270.401 152.177L270.356 152.244H270.227L270.197 152.177L270.254 152.072L270.204 152.041L270.208 151.943H270.121L269.951 151.849L269.955 151.908H269.898L269.868 151.955L269.769 151.912L269.644 152.017H269.603L269.561 151.943L269.576 151.869L269.644 151.771L269.622 151.689L269.557 151.685L269.497 151.615L269.436 151.599V151.552L269.402 151.513L269.254 151.517L269.262 151.591L269.201 151.646L269.103 151.65L269.023 151.564H268.967L268.978 151.517L268.936 151.47L268.933 151.306H268.872L268.8 151.349L268.683 151.255L268.569 151.337L268.554 151.404H268.509L268.482 151.443L268.478 151.486L268.437 151.482L268.414 151.521L268.372 151.513L268.323 151.556L268.21 151.572L268.149 151.615L268.172 151.732L268.032 151.826V151.943L268.073 152.021L268.047 152.072L267.956 152.166V152.396L267.918 152.439V152.517L267.842 152.553L267.835 152.607L267.744 152.572L267.729 152.498L267.642 152.494L267.566 152.6H267.494L267.43 152.654L267.343 152.576L267.161 152.6L267.135 152.568L267.089 152.619L267.067 152.576L266.979 152.615L266.93 152.596L266.877 152.658L266.813 152.666L266.786 152.729L266.68 152.732L266.62 152.791V152.85L266.597 152.9L266.552 152.897L266.514 152.846L266.408 152.814L266.302 152.83L266.143 152.799L266.071 152.744L265.984 152.729L265.916 152.768H265.772L265.746 152.732L265.696 152.775H265.655L265.575 152.857L265.503 152.799H265.447L265.375 152.744L265.333 152.701L265.299 152.717L265.295 152.783H265.208V152.861L265.163 152.908L265.079 152.861L264.864 152.857L264.841 152.885L264.742 152.932L264.659 152.889L264.549 152.963L264.5 152.92H264.413L264.303 152.979L264.307 153.092L264.216 153.186V153.244L264.25 153.307L264.247 153.381L264.178 153.455H263.997L263.876 153.596L263.936 153.659L264.016 153.706L263.967 153.819L264.016 153.889L263.929 154.014V154.147L263.895 154.21L263.929 154.28L263.932 154.432L264.031 154.487L264.099 154.561H264.167L264.266 154.616L264.288 154.725L264.349 154.8L264.421 154.847V154.905L264.247 154.929L264.107 154.874H264.035L263.974 154.917L263.815 154.968L263.702 155.202H263.615L263.531 155.304L263.297 155.421H263.054L262.99 155.366L262.895 155.335L262.797 155.382L262.695 155.359L262.608 155.429L262.551 155.405L262.479 155.456H262.411L262.301 155.347L262.24 155.323L262.153 155.413H262.055L262.002 155.456H261.851L261.813 155.488H261.756L261.688 155.538H261.597L261.525 155.581H261.423L261.355 155.624H261.287L261.215 155.562L261.139 155.546L260.954 155.55L260.919 155.499L260.851 155.55H260.692L260.651 155.511H260.605L260.526 155.46L260.356 155.452L260.306 155.421H260.219L260.185 155.39L259.89 155.386L259.837 155.46L259.708 155.484L259.595 155.398H259.53L259.424 155.507H259.209L259.133 155.566L258.978 155.46H258.932L258.868 155.511L258.459 155.507L258.387 155.433L258.232 155.429L258.179 155.378L258.103 155.382L258.047 155.343L258.043 155.273L257.914 155.124H257.846L257.759 155.042L257.713 155.046L257.71 154.991L257.607 154.878V154.835L257.539 154.788L257.486 154.843H257.407L257.361 154.89L257.244 154.757L257.24 154.675L257.187 154.643L257.184 154.561L257.149 154.487L257.104 154.421L256.953 154.425L256.881 154.342H256.839L256.79 154.284L256.741 154.288L256.695 154.206L256.691 154.143L256.642 154.096L256.639 153.971L256.472 153.803L256.468 153.702L256.381 153.706L256.105 153.385L256.097 153.323L255.749 153.326L255.609 153.233L255.594 153.1L255.488 153.127L255.321 153.096L255.272 153.143L255.227 153.174H255.17L255.117 153.233L255.064 153.248L254.784 153.498L254.871 153.612L254.825 153.663L254.822 153.733L254.75 153.788L254.829 153.831L254.867 153.877L254.822 153.924L254.776 154.026L254.78 154.1L254.719 154.272L254.598 154.319L254.507 154.315L254.443 154.374H254.379L254.326 154.335L254.265 154.382L254.261 154.428L254.33 154.475L254.504 154.636L254.458 154.706L254.526 154.737L254.636 154.874L254.485 154.987L254.534 155.046L254.53 155.273L254.579 155.323L254.576 155.554L254.697 155.691L254.436 155.687L253.826 155.859L253.482 155.863L253.478 155.605L253.448 155.562L253.368 155.636L253.3 155.683L253.262 155.851L253.217 155.894L252.781 155.89L252.645 155.523L252.641 155.429L252.414 155.386L252.202 155.312V155.202H251.918L251.831 155.253H251.706L251.635 155.386L251.71 155.499L251.604 155.589L251.525 155.632H251.389L251.339 155.695L251.336 155.757H251.283L251.267 155.788L251.26 155.843L251.161 155.761H251.108V155.855L250.995 155.937L251.025 156.007L251.078 156.023L251.195 156.105L251.305 156.113L251.351 156.179L251.46 156.183L251.502 156.14L251.585 156.183L251.733 156.332L251.881 156.41L251.915 156.39L251.941 156.347H252.043L252.089 156.293L252.206 156.316L252.236 156.351V156.398L252.316 156.535V156.617L252.369 156.676V156.715L252.308 156.773L252.297 156.82L252.342 156.883L252.441 156.898L252.437 156.969L252.528 157.062L252.482 157.133L252.516 157.187L252.437 157.227L252.448 157.273L252.339 157.348L252.267 157.344L252.206 157.391L252.24 157.469L252.293 157.535L252.282 157.629L252.244 157.738L252.187 157.793L252.108 157.856L252.04 157.867L252.043 157.926L252.009 157.981L251.93 157.977L251.903 158.024L251.809 158.055V158.09L251.756 158.161H251.604L251.536 158.11L251.513 158.168L251.442 158.125L251.385 158.172V158.247L251.328 158.286L251.271 158.227L251.267 158.121L251.165 158.118L251.105 158.082L251.033 158.121L251.037 158.215L251.093 158.29L251.059 158.387L251.086 158.415V158.512L251.071 158.555L251.029 158.551L250.972 158.594L251.018 158.633V158.708L251.09 158.715L251.12 158.735L251.105 158.794L251.135 158.825L251.142 158.899L251.18 158.923L251.188 159.02L251.214 159.044L251.211 159.118L251.252 159.22L251.203 159.224L251.18 159.266L251.184 159.392L251.112 159.474L251.059 159.435L250.949 159.474L250.991 159.521L250.999 159.618L250.946 159.661L250.953 159.802L250.855 159.818L250.821 159.853L250.859 159.907V160.009L251.025 159.993V160.044L251.071 160.095V160.251L251.021 160.275L250.995 160.318L251.044 160.392L251.112 160.388L251.154 160.333H251.267L251.324 160.298L251.381 160.329V160.361L251.426 160.435V160.501L251.373 160.505L251.26 160.572V160.646L251.203 160.666L251.165 160.705L251.108 160.701L251.071 160.724V160.791L251.101 160.834L251.105 160.947L251.18 160.998L251.264 161.002L251.336 161.056V161.099L251.385 161.142H251.226L251.199 161.185H251.021L250.995 161.236L250.942 161.24L250.919 161.291L250.949 161.33L250.984 161.303L251.048 161.306L251.112 161.377L251.127 161.428L251.18 161.455L251.279 161.549L251.233 161.58H251.169L251.127 161.635L250.965 161.545L250.908 161.607L250.783 161.603L250.779 161.564L250.737 161.521L250.692 161.506L250.65 161.521L250.594 161.568L250.529 161.557L250.484 161.482L250.431 161.459L250.374 161.502L250.359 161.568L250.242 161.514H250.192L250.151 161.545L250.079 161.412L250.03 161.471V161.6L249.958 161.678L249.943 161.834L249.856 161.838L249.787 161.904L249.791 161.963L249.685 162.026L249.621 162.045L249.56 161.986L249.519 162.029L249.507 162.1L249.439 162.178V162.252L249.401 162.307L249.322 162.33L249.182 162.451L249.186 162.53L249.042 162.592L249.057 162.651L249.117 162.717L249.223 162.741L249.292 162.713L249.348 162.741L249.447 162.635H249.651L249.693 162.592H249.803L249.848 162.635L250.015 162.631L250.09 162.682V162.721L250.234 162.854H250.287L250.314 162.909L250.332 162.995L250.276 163.053L250.279 163.217H250.166L250.121 163.268V163.401L250.185 163.421L250.189 163.495L250.158 163.542L250.162 163.616L250.204 163.675L250.272 163.725L250.306 163.811L250.31 163.905L250.367 163.96L250.393 163.921Z" fill="url(#paint1_linear_10283_150619)"/>
<path fill-rule="evenodd" clip-rule="evenodd" d="M214.723 9.71875C214.22 9.71875 213.812 10.1267 213.812 10.6298V17.0068H222.436C222.999 14.2353 225.45 12.1494 228.387 12.1494C231.325 12.1494 233.776 14.2353 234.339 17.0068H242.967V10.6298C242.967 10.1267 242.559 9.71875 242.055 9.71875H214.723ZM242.967 19.4364H234.34C233.778 22.2094 231.326 24.2966 228.387 24.2966C225.449 24.2966 222.997 22.2094 222.435 19.4364H213.812V25.8146C213.812 26.3178 214.22 26.7257 214.723 26.7257H242.055C242.559 26.7257 242.967 26.3178 242.967 25.8146V19.4364ZM228.387 21.8672C230.4 21.8672 232.032 20.2356 232.032 18.223C232.032 16.2104 230.4 14.5789 228.387 14.5789C226.375 14.5789 224.743 16.2104 224.743 18.223C224.743 20.2356 226.375 21.8672 228.387 21.8672Z" fill="#C4C4C4"/>
<path fill-rule="evenodd" clip-rule="evenodd" d="M214.723 9.71875C214.22 9.71875 213.812 10.1267 213.812 10.6298V17.0068H222.436C222.999 14.2353 225.45 12.1494 228.387 12.1494C231.325 12.1494 233.776 14.2353 234.339 17.0068H242.967V10.6298C242.967 10.1267 242.559 9.71875 242.055 9.71875H214.723ZM242.967 19.4364H234.34C233.778 22.2094 231.326 24.2966 228.387 24.2966C225.449 24.2966 222.997 22.2094 222.435 19.4364H213.812V25.8146C213.812 26.3178 214.22 26.7257 214.723 26.7257H242.055C242.559 26.7257 242.967 26.3178 242.967 25.8146V19.4364ZM228.387 21.8672C230.4 21.8672 232.032 20.2356 232.032 18.223C232.032 16.2104 230.4 14.5789 228.387 14.5789C226.375 14.5789 224.743 16.2104 224.743 18.223C224.743 20.2356 226.375 21.8672 228.387 21.8672Z" fill="url(#paint2_linear_10283_150619)"/>
</g>
<defs>
<linearGradient id="paint0_linear_10283_150619" x1="-95.8995" y1="45.9294" x2="-32.1661" y2="288.869" gradientUnits="userSpaceOnUse">
<stop stop-color="#F3E2C9"/>
<stop offset="1" stop-color="#C5D6D7"/>
</linearGradient>
<linearGradient id="paint1_linear_10283_150619" x1="257.044" y1="148.207" x2="273.724" y2="172.93" gradientUnits="userSpaceOnUse">
<stop stop-color="#C1AD8E"/>
<stop offset="1" stop-color="#866F4E"/>
</linearGradient>
<linearGradient id="paint2_linear_10283_150619" x1="220.007" y1="9.71875" x2="231.203" y2="28.0727" gradientUnits="userSpaceOnUse">
<stop stop-color="#C1AD8E"/>
<stop offset="1" stop-color="#866F4E"/>
</linearGradient>
<clipPath id="clip0_10283_150619">
<rect width="310.996" height="196.802" fill="white" transform="translate(0.00195312)"/>
</clipPath>
</defs>
</svg>
