<svg width="24" height="24" viewBox="0 0 24 24" fill="none" xmlns="http://www.w3.org/2000/svg">
<path fill-rule="evenodd" clip-rule="evenodd" d="M3.42069 1.77411C4.45285 0.741962 6.12028 0.741962 7.15243 1.77411L10.0541 4.6758C11.0863 5.70796 11.0863 7.37539 10.0541 8.40754C9.80301 8.65864 9.80301 9.05974 10.0541 9.31085L14.6892 13.9459C14.9403 14.197 15.3414 14.197 15.5925 13.9459C16.6246 12.9137 18.292 12.9137 19.3242 13.9459L22.2259 16.8476C23.258 17.8797 23.258 19.5472 22.2259 20.5793L21.5364 21.2688C19.6001 23.2051 16.5849 23.5545 14.2566 22.1187C14.2238 22.1024 14.1918 22.0843 14.1607 22.0644C12.7917 21.1871 11.4776 20.2143 10.2374 19.1457C10.1862 19.1106 10.138 19.0706 10.0936 19.026L4.74036 13.644C4.72197 13.6255 4.70431 13.6063 4.68742 13.5864C3.67923 12.4003 2.76125 11.1465 1.92349 9.82579C0.438005 7.48746 0.771273 4.42353 2.73118 2.46362L3.42069 1.77411ZM5.73821 3.18833C5.48711 2.93722 5.08601 2.93722 4.83491 3.18833L4.1454 3.87784C2.84947 5.17376 2.62718 7.20414 3.61194 8.7538C4.39519 9.98857 5.25058 11.158 6.18618 12.2616L11.4344 17.5379C11.4455 17.5468 11.4565 17.5559 11.4674 17.5653C12.6319 18.5752 13.8692 19.4971 15.1623 20.3307C15.1919 20.3457 15.221 20.3623 15.2492 20.3804C16.7976 21.372 18.8264 21.1504 20.1222 19.8546L20.8117 19.1651C21.0628 18.914 21.0628 18.5129 20.8117 18.2618L17.91 15.3601C17.6589 15.109 17.2578 15.109 17.0067 15.3601C15.9745 16.3923 14.3071 16.3923 13.2749 15.3601L8.6399 10.7251C7.60775 9.69291 7.60775 8.02548 8.6399 6.99332C8.89101 6.74222 8.89101 6.34112 8.6399 6.09002L5.73821 3.18833Z" fill="black"/>
</svg>
