<svg width="24" height="24" viewBox="0 0 24 24" fill="none" xmlns="http://www.w3.org/2000/svg">
<path d="M6 2C5.44772 2 5 2.44772 5 3C5 3.55228 5.44772 4 6 4H17.9998C18.5521 4 18.9998 3.55228 18.9998 3C18.9998 2.44772 18.5521 2 17.9998 2H6Z" fill="black"/>
<path d="M3 6C3 5.44772 3.44772 5 4 5L20 5C20.5523 5 21 5.44771 21 6C21 6.55228 20.5523 7 20 7L4 7C3.44772 7 3 6.55228 3 6Z" fill="black"/>
<path d="M3.33331 10C3.14673 10 3 10.1501 3 10.3298V19.6702C3 19.8499 3.14673 20 3.33331 20H7.99986C8.55215 20 8.99986 20.4477 8.99986 21C8.99986 21.5523 8.55215 22 7.99986 22H3.33331C2.04716 22 1 20.9594 1 19.6702V10.3298C1 9.04059 2.04716 8 3.33331 8H20.6664C21.9526 8 22.9997 9.04059 22.9997 10.3298V10.9955C22.9997 11.5478 22.552 11.9955 21.9997 11.9955C21.4474 11.9955 20.9997 11.5478 20.9997 10.9955V10.3298C20.9997 10.1501 20.853 10 20.6664 10H3.33331Z" fill="black"/>
<path fill-rule="evenodd" clip-rule="evenodd" d="M10 15.5C10 14.837 10.2634 14.2011 10.7322 13.7322C11.2011 13.2634 11.837 13 12.5 13H21.5C22.163 13 22.7989 13.2634 23.2678 13.7322C23.7366 14.2011 24 14.837 24 15.5V21.5C24 22.163 23.7366 22.7989 23.2678 23.2678C22.7989 23.7366 22.163 24 21.5 24H12.5C11.837 24 11.2011 23.7366 10.7322 23.2678C10.2634 22.7989 10 22.163 10 21.5V15.5ZM22 17.3033V21.5C22 21.6326 21.9473 21.7598 21.8536 21.8536C21.7598 21.9473 21.6326 22 21.5 22H12.5C12.3674 22 12.2402 21.9473 12.1464 21.8536C12.0527 21.7598 12 21.6326 12 21.5V17.3033L15.675 19.598C16.0723 19.8463 16.5315 19.978 17 19.978C17.4685 19.978 17.9277 19.8463 18.325 19.598L22 17.3033ZM16.7346 17.9018L12.2222 15.0842C12.3039 15.0297 12.4004 15 12.5 15H21.5C21.5996 15 21.6961 15.0297 21.7778 15.0842L17.2654 17.9018C17.1859 17.9514 17.0937 17.978 17 17.978C16.9063 17.978 16.8141 17.9514 16.7346 17.9018Z" fill="black"/>
</svg>
