<svg width="24" height="24" viewBox="0 0 24 24" fill="none" xmlns="http://www.w3.org/2000/svg">
<path fill-rule="evenodd" clip-rule="evenodd" d="M3.33333 2.97607C3.14784 2.97607 3 3.12391 3 3.30941V16.6427C3 16.8282 3.14784 16.9761 3.33333 16.9761H6C6.55228 16.9761 7 17.4238 7 17.9761V19.9761L10.7333 17.1761C10.9064 17.0463 11.117 16.9761 11.3333 16.9761H20.6667C20.8522 16.9761 21 16.8282 21 16.6427V3.30941C21 3.12391 20.8522 2.97607 20.6667 2.97607H3.33333ZM1 3.30941C1 2.01935 2.04327 0.976074 3.33333 0.976074H20.6667C21.9567 0.976074 23 2.01935 23 3.30941V16.6427C23 17.9328 21.9567 18.9761 20.6667 18.9761H11.6667L6.6 22.7761C6.29698 23.0033 5.89157 23.0399 5.55279 22.8705C5.214 22.7011 5 22.3548 5 21.9761V18.9761H3.33333C2.04327 18.9761 1 17.9328 1 16.6427V3.30941Z" fill="black"/>
<path fill-rule="evenodd" clip-rule="evenodd" d="M5.00019 7.97606C5.00019 7.42378 5.4479 6.97606 6.00019 6.97606H18.0002C18.5525 6.97606 19.0002 7.42378 19.0002 7.97606C19.0002 8.52835 18.5525 8.97606 18.0002 8.97606H6.00019C5.4479 8.97606 5.00019 8.52835 5.00019 7.97606Z" fill="black"/>
<path fill-rule="evenodd" clip-rule="evenodd" d="M5.00019 11.9761C5.00019 11.4238 5.4479 10.9761 6.00019 10.9761H15.3335C15.8858 10.9761 16.3335 11.4238 16.3335 11.9761C16.3335 12.5284 15.8858 12.9761 15.3335 12.9761H6.00019C5.4479 12.9761 5.00019 12.5284 5.00019 11.9761Z" fill="black"/>
</svg>
