<svg width="24" height="24" viewBox="0 0 24 24" fill="none" xmlns="http://www.w3.org/2000/svg">
<path d="M5.8063 2.99955C6.26828 2.98654 14.5668 2.99866 14.8137 2.99993C14.9106 3.00043 15.0069 3.02105 15.0972 3.06122C15.1874 3.10142 15.2704 3.1607 15.3402 3.23668C15.4099 3.31243 15.9586 3.90256 16.5955 4.58738L16.9796 5.00042C17.7695 5.84989 18.5767 6.71815 18.7425 6.8983C18.9061 7.07621 19.0003 7.31585 18.9995 7.56869C18.9987 7.82181 18.9987 8.95318 18.9989 10.0179L18.9995 12.0876C18.9997 12.6399 19.4476 13.0874 19.9999 13.0872C20.5522 13.087 20.9997 12.6384 20.9995 12.0861L20.9989 10.0175C20.9987 8.95008 20.9987 7.82379 20.9995 7.5751C21.0019 6.8243 20.7231 6.0972 20.2143 5.54419C20.0438 5.35887 19.2308 4.48434 18.4442 3.63846L18.0632 3.22872C17.4234 2.54072 16.8781 1.95439 16.8127 1.88321C16.5595 1.60776 16.2529 1.38652 15.9107 1.23418C15.5686 1.08181 15.1988 1.00188 14.824 0.999956C14.5994 0.998803 6.25479 0.986131 5.75002 1.00034C4.995 1.02159 4.28394 1.34791 3.77071 1.90014C3.25819 2.45159 2.98372 3.18363 3.00075 3.93531C3.0116 4.41467 3.0116 19.5852 3.00075 20.0646C2.98372 20.8163 3.25819 21.5483 3.77071 22.0998C4.14669 22.5043 4.77943 22.5275 5.18398 22.1515C5.58852 21.7755 5.61168 21.1427 5.2357 20.7382C5.0819 20.5727 4.99486 20.3471 5.00023 20.1099C5.01177 19.6003 5.01177 4.39957 5.00023 3.89003C4.99486 3.65282 5.08191 3.42716 5.2357 3.26168C5.38878 3.09697 5.59456 3.00551 5.8063 2.99955Z" fill="black"/>
<path fill-rule="evenodd" clip-rule="evenodd" d="M8.751 14.5H8C7.44772 14.5 7 14.9477 7 15.5V23C7 23.5523 7.44772 24 8 24C8.55228 24 9 23.5523 9 23V20.9905C9.77086 20.9313 10.4986 20.5986 11.0491 20.0481C11.6586 19.4386 12.001 18.612 12.001 17.75C12.001 16.888 11.6586 16.0614 11.0491 15.4519C10.4396 14.8424 9.61295 14.5 8.751 14.5ZM9 18.975V16.525C9.23874 16.5736 9.46004 16.6913 9.63488 16.8661C9.8693 17.1005 10.001 17.4185 10.001 17.75C10.001 18.0815 9.8693 18.3995 9.63488 18.6339C9.46004 18.8087 9.23874 18.9264 9 18.975Z" fill="black"/>
<path fill-rule="evenodd" clip-rule="evenodd" d="M14 14.5C13.4477 14.5 13 14.9477 13 15.5V23C13 23.5523 13.4477 24 14 24C14.5523 24 15 23.5523 15 23V20.9905C15.7709 20.9313 16.4986 20.5986 17.0491 20.0481C17.6586 19.4386 18.001 18.612 18.001 17.75C18.001 16.888 17.6586 16.0614 17.0491 15.4519C16.4396 14.8424 15.613 14.5 14.751 14.5H14ZM15.6349 16.8661C15.46 16.6913 15.2387 16.5736 15 16.525V18.975C15.2387 18.9264 15.46 18.8087 15.6349 18.6339C15.8693 18.3995 16.001 18.0815 16.001 17.75C16.001 17.4185 15.8693 17.1005 15.6349 16.8661Z" fill="black"/>
<path d="M23 16.5H22.5V23C22.5 23.5523 22.0523 24 21.5 24C20.9477 24 20.5 23.5523 20.5 23V16.5H20C19.4477 16.5 19 16.0523 19 15.5C19 14.9477 19.4477 14.5 20 14.5H23C23.5523 14.5 24 14.9477 24 15.5C24 16.0523 23.5523 16.5 23 16.5Z" fill="black"/>
</svg>
