<svg width="24" height="24" viewBox="0 0 24 24" fill="none" xmlns="http://www.w3.org/2000/svg">
<g clip-path="url(#clip0_2618_688)">
<path d="M14.8137 2.99993C14.5668 2.99866 6.26828 2.98654 5.8063 2.99955C5.59456 3.00551 5.38878 3.09697 5.2357 3.26168C5.08191 3.42716 4.99486 3.65282 5.00023 3.89003C5.01177 4.39957 5.01177 19.6003 5.00023 20.1099C4.99486 20.3471 5.0819 20.5727 5.2357 20.7382C5.38878 20.9029 5.59456 20.9944 5.8063 21.0003C6.27311 21.0135 5.98787 21.0001 5.98787 21.0001C6.5401 20.9922 6.99464 21.4335 7.00246 21.9858C7.01029 22.538 6.56896 22.992 6.01673 22.9998C6.01673 22.9998 6.2452 23.0135 5.75002 22.9995C4.995 22.9783 4.28394 22.652 3.77071 22.0998C3.25819 21.5483 2.98372 20.8163 3.00075 20.0646C3.0116 19.5852 3.0116 4.41467 3.00075 3.93531C2.98372 3.18363 3.25819 2.45159 3.77071 1.90014C4.28394 1.34791 4.995 1.02159 5.75002 1.00034C6.25479 0.986131 14.5994 0.998803 14.824 0.999956C15.1988 1.00188 15.5686 1.08181 15.9107 1.23418C16.2529 1.38652 16.5595 1.60776 16.8127 1.88321C16.8782 1.95448 17.4247 2.54218 18.0656 3.23129L18.4442 3.63846C19.2308 4.48434 20.0438 5.35887 20.2143 5.54419C20.7231 6.0972 21.0019 6.8243 20.9995 7.5751C20.9987 7.82379 20.9987 8.95008 20.9989 10.0175L20.9995 12.0861C20.9997 12.6384 20.5522 13.087 19.9999 13.0872C19.4476 13.0874 18.9997 12.6399 18.9995 12.0876L18.9989 10.0179C18.9987 8.95318 18.9987 7.82181 18.9995 7.56869C19.0003 7.31585 18.9061 7.07621 18.7425 6.8983C18.5767 6.71815 17.7695 5.84989 16.9796 5.00042L16.5994 4.59156C15.9609 3.90496 15.41 3.31258 15.3402 3.23668C15.2704 3.1607 15.1874 3.10142 15.0972 3.06122C15.0069 3.02105 14.9106 3.00043 14.8137 2.99993Z" fill="black"/>
<path d="M14.9287 15.1286C14.7236 14.6158 14.1417 14.3664 13.6289 14.5715C13.1161 14.7767 12.8667 15.3586 13.0718 15.8714L14.4232 19.25L13.0718 22.6286C12.8667 23.1414 13.1161 23.7234 13.6289 23.9285C14.1417 24.1336 14.7236 23.8842 14.9287 23.3714L15.5003 21.9426L16.0718 23.3714C16.2769 23.8842 16.8589 24.1336 17.3717 23.9285C17.8844 23.7234 18.1339 23.1414 17.9287 22.6286L16.5773 19.25L17.9287 15.8714C18.1339 15.3586 17.8844 14.7767 17.3717 14.5715C16.8589 14.3664 16.2769 14.6158 16.0718 15.1286L15.5003 16.5574L14.9287 15.1286Z" fill="black"/>
<path d="M7 15.5C7 14.9477 7.44772 14.5 8 14.5H11C11.5523 14.5 12 14.9477 12 15.5C12 16.0523 11.5523 16.5 11 16.5H10.5V23C10.5 23.5523 10.0523 24 9.5 24C8.94772 24 8.5 23.5523 8.5 23V16.5H8C7.44772 16.5 7 16.0523 7 15.5Z" fill="black"/>
<path d="M19 15.5C19 14.9477 19.4477 14.5 20 14.5H23C23.5523 14.5 24 14.9477 24 15.5C24 16.0523 23.5523 16.5 23 16.5H22.5V23C22.5 23.5523 22.0523 24 21.5 24C20.9477 24 20.5 23.5523 20.5 23V16.5H20C19.4477 16.5 19 16.0523 19 15.5Z" fill="black"/>
</g>
<defs>
<clipPath id="clip0_2618_688">
<rect width="24" height="24" fill="white"/>
</clipPath>
</defs>
</svg>
