<svg width="24" height="24" viewBox="0 0 24 24" fill="none" xmlns="http://www.w3.org/2000/svg">
<path d="M18.5 13C18.2528 13 18.0111 13.0733 17.8055 13.2107C17.6 13.348 17.4398 13.5432 17.3452 13.7716C17.2505 14.0001 17.2258 14.2514 17.274 14.4939C17.3223 14.7363 17.4413 14.9591 17.6161 15.1339C17.7909 15.3087 18.0137 15.4277 18.2561 15.476C18.4986 15.5242 18.7499 15.4995 18.9783 15.4048C19.2068 15.3102 19.402 15.15 19.5393 14.9445C19.6767 14.7389 19.75 14.4972 19.75 14.25C19.7504 14.0857 19.7184 13.923 19.6557 13.7711C19.5931 13.6193 19.501 13.4813 19.3849 13.3651C19.2687 13.249 19.1307 13.1569 18.9789 13.0943C18.827 13.0316 18.6643 12.9996 18.5 13Z" fill="black"/>
<path fill-rule="evenodd" clip-rule="evenodd" d="M14.5 9.70802V9C14.5 7.93913 14.9214 6.92172 15.6716 6.17157C16.4217 5.42143 17.4391 5 18.5 5C19.5609 5 20.5783 5.42143 21.3284 6.17157C22.0786 6.92172 22.5 7.93913 22.5 9V9.70802C23.383 10.0938 24 10.9748 24 12V16.5C24 17.8807 22.8807 19 21.5 19H15.5C14.1193 19 13 17.8807 13 16.5V12C13 10.9748 13.617 10.0938 14.5 9.70802ZM17.0858 7.58579C17.4609 7.21071 17.9696 7 18.5 7C19.0304 7 19.5391 7.21071 19.9142 7.58579C20.2893 7.96086 20.5 8.46957 20.5 9V9.5H16.5V9C16.5 8.46957 16.7107 7.96086 17.0858 7.58579ZM21.5 11.5C21.7761 11.5 22 11.7239 22 12V16.5C22 16.7761 21.7761 17 21.5 17H15.5C15.2239 17 15 16.7761 15 16.5V12C15 11.7239 15.2239 11.5 15.5 11.5H21.5Z" fill="black"/>
<path d="M4.75 13C4.50277 13 4.2611 13.0733 4.05554 13.2107C3.84998 13.348 3.68976 13.5432 3.59515 13.7716C3.50054 14.0001 3.47579 14.2514 3.52402 14.4939C3.57225 14.7363 3.6913 14.9591 3.86612 15.1339C4.04093 15.3087 4.26366 15.4277 4.50614 15.476C4.74861 15.5242 4.99994 15.4995 5.22835 15.4048C5.45676 15.3102 5.65198 15.15 5.78933 14.9445C5.92668 14.7389 6 14.4972 6 14.25C6.00044 14.0857 5.9684 13.923 5.90574 13.7711C5.84308 13.6193 5.75102 13.4813 5.63486 13.3651C5.5187 13.249 5.38073 13.1569 5.22887 13.0943C5.07702 13.0316 4.91427 12.9996 4.75 13Z" fill="black"/>
<path d="M8.05554 13.2107C8.2611 13.0733 8.50277 13 8.75 13C8.91427 12.9996 9.07702 13.0316 9.22887 13.0943C9.38073 13.1569 9.5187 13.249 9.63486 13.3651C9.75102 13.4813 9.84308 13.6193 9.90574 13.7711C9.9684 13.923 10.0004 14.0857 10 14.25C10 14.4972 9.92668 14.7389 9.78933 14.9445C9.65198 15.15 9.45676 15.3102 9.22835 15.4048C8.99994 15.4995 8.74861 15.5242 8.50614 15.476C8.26366 15.4277 8.04093 15.3087 7.86612 15.1339C7.6913 14.9591 7.57225 14.7363 7.52402 14.4939C7.47579 14.2514 7.50054 14.0001 7.59515 13.7716C7.68976 13.5432 7.84998 13.348 8.05554 13.2107Z" fill="black"/>
<path d="M2.14645 10.1464C2.24021 10.0527 2.36739 10 2.5 10H11.5C12.0523 10 12.5 9.55228 12.5 9C12.5 8.44772 12.0523 8 11.5 8H2.5C1.83696 8 1.20107 8.26339 0.732233 8.73223C0.263392 9.20107 0 9.83696 0 10.5V16.5C0 17.163 0.263393 17.7989 0.732233 18.2678C1.20107 18.7366 1.83696 19 2.5 19H11.5C12.0523 19 12.5 18.5523 12.5 18C12.5 17.4477 12.0523 17 11.5 17H2.5C2.36739 17 2.24022 16.9473 2.14645 16.8536C2.05268 16.7598 2 16.6326 2 16.5V10.5C2 10.3674 2.05268 10.2402 2.14645 10.1464Z" fill="black"/>
</svg>
