<svg width="24" height="24" viewBox="0 0 24 24" fill="none" xmlns="http://www.w3.org/2000/svg">
<path d="M11.9795 2.99957C11.9795 2.44729 12.4272 1.99957 12.9795 1.99957C14.448 1.99957 15.6979 2.69181 16.4032 3.17599C16.8585 3.48855 16.9743 4.11105 16.6617 4.56638C16.3491 5.0217 15.7266 5.13743 15.2713 4.82487C14.6926 4.42763 13.8504 3.99957 12.9795 3.99957C12.4272 3.99957 11.9795 3.55186 11.9795 2.99957Z" fill="black"/>
<path d="M16.9795 10.0004C17.5318 10.0004 17.9795 10.4481 17.9795 11.0004V17.9995C17.9795 18.3631 17.7822 18.698 17.4643 18.8742C17.1463 19.0504 16.7578 19.0402 16.4495 18.8476L12.4495 16.3476C11.9812 16.0549 11.8388 15.4379 12.1315 14.9696C12.4242 14.5012 13.0412 14.3589 13.5095 14.6516L15.9795 16.1953V11.0004C15.9795 10.4481 16.4272 10.0004 16.9795 10.0004Z" fill="black"/>
<path d="M8.60664 19.2666C8.99986 19.6306 9.71176 20.0004 11 20.0004C11.5523 20.0004 12 20.4481 12 21.0004C12 21.5527 11.5523 22.0004 11 22.0004C9.3047 22.0004 8.07621 21.501 7.24799 20.7343C6.8427 20.3591 6.81829 19.7264 7.19347 19.3211C7.56866 18.9158 8.20135 18.8914 8.60664 19.2666Z" fill="black"/>
<path d="M7 14.0004C6.44772 14.0004 6 13.5527 6 13.0004V6.00104C6 5.63751 6.19728 5.30201 6.51523 5.12578C6.83319 4.94956 7.22173 4.95976 7.53 5.15243L11.53 7.65243C11.9983 7.94514 12.1407 8.56209 11.848 9.03043C11.5553 9.49876 10.9383 9.64114 10.47 9.34843L8 7.80468V13.0004C8 13.5527 7.55228 14.0004 7 14.0004Z" fill="black"/>
<path d="M21.7071 3.70753C22.0976 3.31701 22.0976 2.68384 21.7071 2.29332C21.3166 1.9028 20.6834 1.9028 20.2929 2.29332L2.29289 20.2933C1.90237 20.6838 1.90237 21.317 2.29289 21.7075C2.68342 22.0981 3.31658 22.0981 3.70711 21.7075L21.7071 3.70753Z" fill="black"/>
</svg>
