<svg width="24" height="24" viewBox="0 0 24 24" fill="none" xmlns="http://www.w3.org/2000/svg">
<path fill-rule="evenodd" clip-rule="evenodd" d="M8 2C8.55228 2 9 2.44772 9 3V4H15V3C15 2.44772 15.4477 2 16 2C16.5523 2 17 2.44772 17 3V4H19.8C21.0387 4 22 5.02277 22 6.23077V10V19.7692C22 20.9772 21.0387 22 19.8 22H4.2C2.96126 22 2 20.9772 2 19.7692V10V6.23077C2 5.02277 2.96126 4 4.2 4H7V3C7 2.44772 7.44772 2 8 2ZM15 6V7C15 7.55228 15.4477 8 16 8C16.5523 8 17 7.55228 17 7V6H19.8C19.8867 6 20 6.0793 20 6.23077V9H4V6.23077C4 6.0793 4.11326 6 4.2 6H7V7C7 7.55228 7.44772 8 8 8C8.55228 8 9 7.55228 9 7V6H15ZM20 11V19.7692C20 19.9207 19.8867 20 19.8 20H4.2C4.11326 20 4 19.9207 4 19.7692V11H20Z" fill="black"/>
</svg>
