<svg width="24" height="24" viewBox="0 0 24 24" fill="none" xmlns="http://www.w3.org/2000/svg">
<g clip-path="url(#clip0_222_762)">
<path fill-rule="evenodd" clip-rule="evenodd" d="M23.7071 0.292893C24.0976 0.683417 24.0976 1.31658 23.7071 1.70711L1.70711 23.7071C1.31658 24.0976 0.683417 24.0976 0.292893 23.7071C-0.0976311 23.3166 -0.0976311 22.6834 0.292893 22.2929L22.2929 0.292893C22.6834 -0.0976311 23.3166 -0.0976311 23.7071 0.292893ZM3.31404 1.28045C4.35967 0.234813 6.04884 0.234813 7.09447 1.28045L10.0571 4.24311C11.1028 5.28875 11.1028 6.97791 10.0571 8.02355C9.79255 8.28814 9.79255 8.71097 10.0571 8.97556C10.4477 9.36608 10.4477 9.99925 10.0571 10.3898C9.66661 10.7803 9.03345 10.7803 8.64292 10.3898C7.59729 9.34414 7.59729 7.65497 8.64292 6.60934C8.90751 6.34475 8.90751 5.92192 8.64292 5.65733L5.68026 2.69466C5.41567 2.43008 4.99284 2.43008 4.72825 2.69466L4.02425 3.39866C2.69412 4.72879 2.46598 6.81271 3.4767 8.40322C4.28406 9.676 5.16647 10.8808 6.13242 12.0172C6.4901 12.438 6.43893 13.0691 6.01812 13.4268C5.59732 13.7845 4.96622 13.7333 4.60854 13.3125C3.57982 12.1023 2.64312 10.8229 1.78826 9.47521C0.276811 7.09602 0.615915 3.97857 2.61004 1.98445L3.31404 1.28045ZM15.7322 13.7178C16.7778 12.6721 18.467 12.6721 19.5126 13.7178L22.4753 16.6804C23.5209 17.7261 23.5209 19.4152 22.4753 20.4609L21.7713 21.1649C19.801 23.1352 16.7326 23.4905 14.3636 22.029C14.3304 22.0127 14.2981 21.9944 14.2668 21.9744C12.8397 21.0598 11.471 20.0435 10.1815 18.9252C9.76422 18.5634 9.71929 17.9318 10.0811 17.5146C10.443 17.0973 11.0745 17.0524 11.4918 17.4143C12.6818 18.4462 13.9463 19.3883 15.2676 20.2401C15.2976 20.2553 15.327 20.272 15.3555 20.2903C16.9448 21.3081 19.0271 21.0806 20.3571 19.7506L21.0611 19.0466C21.3257 18.7821 21.3257 18.3592 21.0611 18.0946L18.0984 15.132C17.8338 14.8674 17.411 14.8674 17.1464 15.132C16.1008 16.1776 14.4116 16.1776 13.366 15.132C12.9754 14.7414 12.9754 14.1083 13.366 13.7178C13.7565 13.3272 14.3896 13.3272 14.7802 13.7178C15.0448 13.9823 15.4676 13.9823 15.7322 13.7178Z" fill="black"/>
</g>
<defs>
<clipPath id="clip0_222_762">
<rect width="24" height="24" fill="white"/>
</clipPath>
</defs>
</svg>
