<svg width="24" height="24" viewBox="0 0 24 24" fill="none" xmlns="http://www.w3.org/2000/svg">
<path d="M3 6.32979C3 6.15015 3.14673 6 3.33331 6H20.6664C20.853 6 20.9997 6.15015 20.9997 6.32979V11.476C20.9997 12.0282 21.4474 12.476 21.9997 12.476C22.552 12.476 22.9997 12.0282 22.9997 11.476V6.32979C22.9997 5.04059 21.9526 4 20.6664 4H3.33331C2.04716 4 1 5.04059 1 6.32979V15.6702C1 16.9594 2.04716 18 3.33331 18H8C8.55228 18 9 17.5523 9 17C9 16.4477 8.55228 16 8 16H3.33331C3.14673 16 3 15.8499 3 15.6702V6.32979Z" fill="black"/>
<path d="M10 10.976C10 9.87138 10.8954 8.97595 12 8.97595C13.1046 8.97595 14 9.87138 14 10.976C14 11.3419 13.9026 11.6821 13.733 11.9752C13.4565 12.4533 13.6199 13.065 14.0979 13.3416C14.576 13.6181 15.1877 13.4547 15.4643 12.9767C15.8052 12.3873 16 11.7029 16 10.976C16 8.76681 14.2091 6.97595 12 6.97595C9.79086 6.97595 8 8.76681 8 10.976C8 11.7923 8.24565 12.5544 8.66727 13.1885C8.97305 13.6484 9.59377 13.7734 10.0537 13.4676C10.5136 13.1618 10.6385 12.5411 10.3327 12.0812C10.1225 11.765 10 11.3863 10 10.976Z" fill="black"/>
<path d="M14 14.976C14 14.4237 14.4477 13.976 15 13.976H23C23.5523 13.976 24 14.4237 24 14.976C24 15.5282 23.5523 15.976 23 15.976H15C14.4477 15.976 14 15.5282 14 14.976Z" fill="black"/>
<path d="M11 13.976C10.4477 13.976 10 14.4237 10 14.976C10 15.5282 10.4477 15.976 11 15.976H12C12.5523 15.976 13 15.5282 13 14.976C13 14.4237 12.5523 13.976 12 13.976H11Z" fill="black"/>
<path d="M14 18.976C14 18.4237 14.4477 17.976 15 17.976H23C23.5523 17.976 24 18.4237 24 18.976C24 19.5282 23.5523 19.976 23 19.976H15C14.4477 19.976 14 19.5282 14 18.976Z" fill="black"/>
<path d="M11 17.976C10.4477 17.976 10 18.4237 10 18.976C10 19.5282 10.4477 19.976 11 19.976H12C12.5523 19.976 13 19.5282 13 18.976C13 18.4237 12.5523 17.976 12 17.976H11Z" fill="black"/>
<path d="M14 22.976C14 22.4237 14.4477 21.976 15 21.976H23C23.5523 21.976 24 22.4237 24 22.976C24 23.5282 23.5523 23.976 23 23.976H15C14.4477 23.976 14 23.5282 14 22.976Z" fill="black"/>
<path d="M11 21.976C10.4477 21.976 10 22.4237 10 22.976C10 23.5282 10.4477 23.976 11 23.976H12C12.5523 23.976 13 23.5282 13 22.976C13 22.4237 12.5523 21.976 12 21.976H11Z" fill="black"/>
</svg>
