<svg width="24" height="24" viewBox="0 0 24 24" fill="none" xmlns="http://www.w3.org/2000/svg">
<path d="M21.7032 2.70711C22.0937 2.31658 22.0937 1.68342 21.7032 1.29289C21.3127 0.902369 20.6795 0.902369 20.289 1.29289L2.2929 19.289C1.90237 19.6795 1.90237 20.3127 2.2929 20.7032C2.68342 21.0937 3.31658 21.0937 3.70711 20.7032L21.7032 2.70711Z" fill="black"/>
<path d="M1.31247 7.27384C4.2117 4.52884 8.03065 3 12 3C12.9016 3 13.7957 3.0789 14.6731 3.23308C15.217 3.32867 15.5805 3.84711 15.4849 4.39106C15.3893 4.93501 14.8709 5.29848 14.3269 5.2029C13.5632 5.06868 12.7849 5 12 5C8.54637 5 5.21837 6.32994 2.68753 8.72616C2.28649 9.10587 1.65356 9.08857 1.27385 8.68753C0.894134 8.28648 0.911428 7.65355 1.31247 7.27384Z" fill="black"/>
<path d="M19.6894 6.17152C20.0128 5.72383 20.6379 5.6231 21.0856 5.94651C21.645 6.35065 22.1804 6.79366 22.6875 7.27384C23.0886 7.65355 23.1059 8.28648 22.7262 8.68753C22.3464 9.08857 21.7135 9.10587 21.3125 8.72616C20.8696 8.30686 20.4024 7.92025 19.9144 7.56772C19.4667 7.2443 19.366 6.6192 19.6894 6.17152Z" fill="black"/>
<path d="M11.08 9.03683C11.6306 8.99262 12.041 8.51051 11.9968 7.95999C11.9526 7.40948 11.4705 6.99904 10.92 7.04325C8.07827 7.27144 5.38591 8.39638 3.32886 10.2586C2.91944 10.6293 2.88801 11.2617 3.25867 11.6711C3.62933 12.0805 4.26171 12.112 4.67114 11.7413C6.38366 10.1909 8.65375 9.23167 11.08 9.03683Z" fill="black"/>
<path d="M17.9498 8.3986C17.4565 8.15019 16.8553 8.34869 16.6069 8.84195C16.3585 9.33522 16.557 9.93647 17.0502 10.1849C17.8816 10.6036 18.6492 11.126 19.3289 11.7413C19.7383 12.112 20.3707 12.0805 20.7413 11.6711C21.112 11.2617 21.0806 10.6293 20.6711 10.2586C19.8537 9.51863 18.9362 8.89533 17.9498 8.3986Z" fill="black"/>
<path d="M13.5606 12.0982C13.75 11.5794 14.3241 11.3123 14.8429 11.5017C15.9008 11.8878 16.8755 12.4896 17.6946 13.2807C18.0919 13.6643 18.103 14.2974 17.7194 14.6947C17.3357 15.0919 16.7026 15.103 16.3054 14.7194C15.692 14.127 14.9584 13.6729 14.1571 13.3804C13.6383 13.191 13.3713 12.617 13.5606 12.0982Z" fill="black"/>
<path fill-rule="evenodd" clip-rule="evenodd" d="M8 19C8 16.7909 9.79086 15 12 15C14.2091 15 16 16.7909 16 19C16 21.2091 14.2091 23 12 23C9.79086 23 8 21.2091 8 19ZM12 17C10.8954 17 10 17.8954 10 19C10 20.1046 10.8954 21 12 21C13.1046 21 14 20.1046 14 19C14 17.8954 13.1046 17 12 17Z" fill="black"/>
</svg>
