<svg width="24" height="24" viewBox="0 0 24 24" fill="none" xmlns="http://www.w3.org/2000/svg">
<path fill-rule="evenodd" clip-rule="evenodd" d="M6.24902 8.5C6.24902 7.67157 6.9206 7 7.74902 7H16.249C17.0775 7 17.749 7.67157 17.749 8.5V17.998C17.749 18.8265 17.0775 19.498 16.249 19.498H7.74902C6.9206 19.498 6.24902 18.8265 6.24902 17.998V8.5ZM9.74902 12.498H8.24902V13.998H9.74902V12.498ZM8.24902 10.498V9H15.749V10.498H8.24902ZM15.749 12.498H11.749V13.998H15.749V12.498ZM11.749 15.998H15.749V17.498H11.749V15.998ZM9.74902 15.998V17.498H8.24902V15.998H9.74902Z" fill="black"/>
<path fill-rule="evenodd" clip-rule="evenodd" d="M14.9383 1.00709L14.9318 1.00635L14.9282 1.00595C14.8925 1.00202 14.856 1.00001 14.8201 0.999956L13.4756 0.998043C12.6656 0.99698 11.5807 0.995704 10.4806 0.994853C8.29616 0.993165 6.01088 0.993009 5.75002 1.00035C4.995 1.0216 4.28394 1.34793 3.77071 1.90015C3.25819 2.4516 2.98372 3.18365 3.00075 3.93532C3.0116 4.41468 3.0116 19.5852 3.00075 20.0646C2.98372 20.8163 3.25819 21.5483 3.77071 22.0998C4.28394 22.652 4.995 22.9783 5.75002 22.9996C6.25215 23.0137 17.7478 23.0137 18.25 22.9996C19.005 22.9783 19.7161 22.652 20.2293 22.0998C20.7418 21.5483 21.0163 20.8163 20.9993 20.0646C20.9884 19.587 20.9979 8.08708 20.9995 7.57511C21.0019 6.82431 20.7231 6.09722 20.2143 5.5442C20.0438 5.35888 19.2308 4.48435 18.4442 3.63847L18.064 3.22959C17.4238 2.54122 16.8781 1.95443 16.8127 1.88322C16.5595 1.60777 16.2529 1.38653 15.9107 1.23419C15.676 1.12964 15.3915 1.07667 15.2505 1.05231C15.1628 1.03717 15.0844 1.02587 15.0281 1.01833C14.9996 1.01453 14.9761 1.01159 14.9591 1.00954L14.9383 1.00709ZM10.479 2.99485C8.26389 2.99314 6.02882 2.9933 5.8063 2.99956C5.59456 3.00552 5.38878 3.09698 5.2357 3.26169C5.08191 3.42717 4.99486 3.65283 5.00023 3.89004C5.01177 4.39958 5.01177 19.6003 5.00023 20.1099C4.99486 20.3471 5.0819 20.5727 5.2357 20.7382C5.38878 20.9029 5.59456 20.9944 5.8063 21.0004C6.27092 21.0134 17.7291 21.0134 18.1937 21.0004C18.4054 20.9944 18.6112 20.9029 18.7643 20.7382C18.9181 20.5727 19.0051 20.3471 18.9998 20.1099C18.9882 19.5986 18.9979 8.06036 18.9995 7.5687C19.0003 7.31586 18.9061 7.07622 18.7425 6.89831C18.5767 6.71816 17.7695 5.8499 16.9796 5.00043L16.5989 4.59101C15.9606 3.90465 15.41 3.31258 15.3402 3.23669C15.2734 3.16395 15.1945 3.10652 15.1087 3.06647C15.1029 3.0647 15.0892 3.06059 15.0659 3.05484C15.0221 3.04401 14.968 3.03313 14.9102 3.02315C14.8537 3.01339 14.8013 3.0058 14.763 3.00068L14.7568 2.99986L13.4729 2.99804C12.6632 2.99698 11.5786 2.9957 10.479 2.99485Z" fill="black"/>
</svg>
