<svg width="24" height="24" viewBox="0 0 24 24" fill="none" xmlns="http://www.w3.org/2000/svg">
<path d="M0 9C0 7.34315 1.34315 6 3 6H19C20.6569 6 22 7.34315 22 9V21C22 22.6569 20.6569 24 19 24H3C1.34315 24 0 22.6569 0 21V9Z" fill="#C7C8D3"/>
<path fill-rule="evenodd" clip-rule="evenodd" d="M18 11C15.7909 11 14 12.7909 14 15C14 17.2091 15.7909 19 18 19H22C23.1046 19 24 18.1046 24 17V13C24 11.8954 23.1046 11 22 11H18ZM17.5 16.5C18.3284 16.5 19 15.8284 19 15C19 14.1716 18.3284 13.5 17.5 13.5C16.6716 13.5 16 14.1716 16 15C16 15.8284 16.6716 16.5 17.5 16.5Z" fill="#60627B"/>
<path d="M13.1122 0.554927C14.6638 -0.280518 16.5978 0.394892 17.292 2.01458L19 5.99998H3L13.1122 0.554927Z" fill="#60627B"/>
</svg>
