<svg width="24" height="24" viewBox="0 0 24 24" fill="none" xmlns="http://www.w3.org/2000/svg">
<g clip-path="url(#clip0_1038_35)">
<path d="M21.9995 21.0787C22.0107 21.5727 21.83 22.0511 21.4968 22.4093C21.1636 22.7675 20.7052 22.9762 20.2218 22.9898C19.7385 23.0034 4.26153 23.0034 3.77816 22.9898C3.29478 22.9762 2.83636 22.7675 2.50321 22.4093C2.17005 22.0511 1.98929 21.5727 2.00049 21.0787C2.01169 20.5846 2.01169 3.41151 2.00049 2.91747C1.98929 2.42343 2.17005 1.94498 2.50321 1.58681C2.83636 1.22863 3.29478 1.01991 3.77816 1.00632C4.26153 0.992725 16.5831 1.00511 16.8189 1.00632C17.0547 1.00753 17.2878 1.05776 17.504 1.15395C17.7202 1.25015 17.9149 1.39029 18.0765 1.56586C18.238 1.74142 21.1422 4.85897 21.4784 5.22413C21.8146 5.5893 22.0011 6.07226 21.9995 6.57367C21.9979 7.07507 21.9883 20.5846 21.9995 21.0787Z" fill="#C7C8D3"/>
<path d="M6 18H18" stroke="#60627B" stroke-width="2.5" stroke-linecap="round" stroke-linejoin="round"/>
<path d="M6 14H18" stroke="#60627B" stroke-width="2.5" stroke-linecap="round" stroke-linejoin="round"/>
<path d="M6 10H13" stroke="#60627B" stroke-width="2.5" stroke-linecap="round" stroke-linejoin="round"/>
<path d="M21.9995 22.0787C22.0107 22.5727 21.83 23.0511 21.4968 23.4093C21.1636 23.7675 20.7052 23.9762 20.2218 23.9898C19.7385 24.0034 4.26153 24.0034 3.77816 23.9898C3.29478 23.9762 2.83636 23.7675 2.50321 23.4093C2.17005 23.0511 1.98929 22.5727 2.00049 22.0787C2.01169 21.5846 2.01169 2.41151 2.00049 1.91747C1.98929 1.42343 2.17005 0.944976 2.50321 0.586805C2.83636 0.228634 3.29478 0.0199144 3.77816 0.00631992C4.26153 -0.00727451 16.5831 0.00511008 16.8189 0.00631992C17.0547 0.00752977 17.2878 0.0577597 17.504 0.153953C17.7202 0.250146 17.9149 0.390291 18.0765 0.565858C18.238 0.741424 21.1422 3.85897 21.4784 4.22413C21.8146 4.5893 22.0011 5.07226 21.9995 5.57367C21.9979 6.07507 21.9883 21.5846 21.9995 22.0787Z" fill="#434660"/>
<path fill-rule="evenodd" clip-rule="evenodd" d="M6 8.75C5.30964 8.75 4.75 9.30964 4.75 10C4.75 10.6904 5.30964 11.25 6 11.25H13C13.6904 11.25 14.25 10.6904 14.25 10C14.25 9.30964 13.6904 8.75 13 8.75H6ZM4.75 14C4.75 13.3096 5.30964 12.75 6 12.75H18C18.6904 12.75 19.25 13.3096 19.25 14C19.25 14.6904 18.6904 15.25 18 15.25H6C5.30964 15.25 4.75 14.6904 4.75 14ZM4.75 18C4.75 17.3096 5.30964 16.75 6 16.75H18C18.6904 16.75 19.25 17.3096 19.25 18C19.25 18.6904 18.6904 19.25 18 19.25H6C5.30964 19.25 4.75 18.6904 4.75 18Z" fill="#A9ABBC"/>
</g>
<defs>
<clipPath id="clip0_1038_35">
<rect width="24" height="24" fill="white"/>
</clipPath>
</defs>
</svg>
