<svg width="24" height="24" viewBox="0 0 24 24" fill="none" xmlns="http://www.w3.org/2000/svg">
<path fill-rule="evenodd" clip-rule="evenodd" d="M11.2929 4.04289C11.6834 3.65237 12.3166 3.65237 12.7071 4.04289L17.2071 8.54289C17.5976 8.93342 17.5976 9.56658 17.2071 9.95711C16.8166 10.3476 16.1834 10.3476 15.7929 9.95711L12 6.16421L8.20711 9.95711C7.81658 10.3476 7.18342 10.3476 6.79289 9.95711C6.40237 9.56658 6.40237 8.93342 6.79289 8.54289L11.2929 4.04289Z" fill="black"/>
<path fill-rule="evenodd" clip-rule="evenodd" d="M6.79289 14.0429C7.18342 13.6524 7.81658 13.6524 8.20711 14.0429L12 17.8358L15.7929 14.0429C16.1834 13.6524 16.8166 13.6524 17.2071 14.0429C17.5976 14.4334 17.5976 15.0666 17.2071 15.4571L12.7071 19.9571C12.5196 20.1446 12.2652 20.25 12 20.25C11.7348 20.25 11.4804 20.1446 11.2929 19.9571L6.79289 15.4571C6.40237 15.0666 6.40237 14.4334 6.79289 14.0429Z" fill="black"/>
</svg>
