<svg width="24" height="24" viewBox="0 0 24 24" fill="none" xmlns="http://www.w3.org/2000/svg">
<path fill-rule="evenodd" clip-rule="evenodd" d="M16.8911 2C17.4817 2 18.0458 2.1473 18.5164 2.40733C18.9999 2.6744 19.6082 2.499 19.8753 2.01558C20.1424 1.53216 19.967 0.923777 19.4836 0.656712C18.7065 0.22745 17.8081 0 16.8911 0C15.6396 0 14.414 0.424529 13.4891 1.21687C12.5594 2.01331 12 3.12973 12 4.33333V4.58579L11.7071 4.29289C11.3166 3.90237 10.6834 3.90237 10.2929 4.29289C9.90237 4.68342 9.90237 5.31658 10.2929 5.70711L12.2929 7.70711C12.6834 8.09763 13.3166 8.09763 13.7071 7.70711L15.7071 5.70711C16.0976 5.31658 16.0976 4.68342 15.7071 4.29289C15.3166 3.90237 14.6834 3.90237 14.2929 4.29289L14 4.58579V4.33333C14 3.76883 14.2605 3.18956 14.7903 2.73575C15.3248 2.27785 16.0786 2 16.8911 2ZM2.69231 3C2.03112 3 1.36838 3.21741 0.855301 3.64518C0.336915 4.07738 0 4.70674 0 5.41093V18.5891C0 19.2933 0.336915 19.9226 0.855301 20.3548C1.36837 20.7826 2.03112 21 2.69231 21H11.4889C12.0412 21 12.4889 20.5523 12.4889 20C12.4889 19.4477 12.0412 19 11.4889 19H2.69231C2.45584 19 2.25769 18.9201 2.13603 18.8187C2.01968 18.7217 2 18.6333 2 18.5891V5.41093C2 5.36672 2.01968 5.27833 2.13603 5.18132C2.25769 5.07989 2.45584 5 2.69231 5H8.06667C8.61895 5 9.06667 4.55228 9.06667 4C9.06667 3.44772 8.61895 3 8.06667 3H2.69231ZM21.3077 3C20.7554 3 20.3077 3.44772 20.3077 4C20.3077 4.55228 20.7554 5 21.3077 5C21.5442 5 21.7423 5.07989 21.864 5.18132C21.9803 5.27833 22 5.36672 22 5.41093V13.9412C22 14.4935 22.4477 14.9412 23 14.9412C23.5523 14.9412 24 14.4935 24 13.9412V5.41093C24 4.70674 23.6631 4.07737 23.1447 3.64518C22.6316 3.21741 21.9689 3 21.3077 3ZM5 7.5C4.44772 7.5 4 7.94772 4 8.5C4 9.05228 4.44772 9.5 5 9.5H9C9.55228 9.5 10 9.05229 10 8.5C10 7.94772 9.55229 7.5 9 7.5L5 7.5ZM4 12C4 11.4477 4.44772 11 5 11H14C14.5523 11 15 11.4477 15 12C15 12.5523 14.5523 13 14 13H5C4.44772 13 4 12.5523 4 12ZM5 14.5C4.44772 14.5 4 14.9477 4 15.5C4 16.0523 4.44772 16.5 5 16.5H12C12.5523 16.5 13 16.0523 13 15.5C13 14.9477 12.5523 14.5 12 14.5H5ZM17.1089 22C16.5183 22 15.9542 21.8527 15.4836 21.5927C15.0001 21.3256 14.3918 21.501 14.1247 21.9844C13.8576 22.4678 14.033 23.0762 14.5164 23.3433C15.2935 23.7726 16.1919 24 17.1089 24C18.3604 24 19.586 23.5755 20.5109 22.7831C21.4406 21.9867 22 20.8703 22 19.6667V19.4142L22.2929 19.7071C22.6834 20.0976 23.3166 20.0976 23.7071 19.7071C24.0976 19.3166 24.0976 18.6834 23.7071 18.2929L21.7071 16.2929C21.3166 15.9024 20.6834 15.9024 20.2929 16.2929L18.2929 18.2929C17.9024 18.6834 17.9024 19.3166 18.2929 19.7071C18.6834 20.0976 19.3166 20.0976 19.7071 19.7071L20 19.4142V19.6667C20 20.2312 19.7395 20.8104 19.2097 21.2642C18.6752 21.7221 17.9214 22 17.1089 22Z" fill="black"/>
</svg>
