<svg width="24" height="24" viewBox="0 0 24 24" fill="none" xmlns="http://www.w3.org/2000/svg">
<path d="M14 9.5C14 8.94772 14.4477 8.5 15 8.5L18 8.5C18.5523 8.5 19 8.94772 19 9.5C19 10.0523 18.5523 10.5 18 10.5L15 10.5C14.4477 10.5 14 10.0523 14 9.5Z" fill="black"/>
<path d="M15 12C14.4477 12 14 12.4477 14 13C14 13.5523 14.4477 14 15 14H19.5C20.0523 14 20.5 13.5523 20.5 13C20.5 12.4477 20.0523 12 19.5 12H15Z" fill="black"/>
<path fill-rule="evenodd" clip-rule="evenodd" d="M4.5 9C4.5 7.34315 5.84315 6 7.5 6C9.15685 6 10.5 7.34315 10.5 9C10.5 9.81816 10.1725 10.5598 9.64142 11.101C10.0423 11.3417 10.4089 11.649 10.7275 12.0131C11.5541 12.9579 12 14.2138 12 15.5C12 15.7652 11.8946 16.0196 11.7071 16.2071C11.5196 16.3946 11.2652 16.5 11 16.5H4C3.73478 16.5 3.48043 16.3946 3.29289 16.2071C3.10536 16.0196 3 15.7652 3 15.5C3 14.2138 3.44586 12.9579 4.27255 12.0131C4.59108 11.649 4.95768 11.3417 5.35858 11.101C4.82751 10.5598 4.5 9.81816 4.5 9ZM7.5 8C6.94772 8 6.5 8.44772 6.5 9C6.5 9.55228 6.94772 10 7.5 10C8.05228 10 8.5 9.55228 8.5 9C8.5 8.44772 8.05228 8 7.5 8ZM5.7777 13.3301C6.26004 12.7788 6.88333 12.5 7.5 12.5C8.11667 12.5 8.73996 12.7788 9.2223 13.3301C9.50645 13.6548 9.72415 14.0559 9.85599 14.5H5.14401C5.27585 14.0559 5.49355 13.6548 5.7777 13.3301Z" fill="black"/>
<path fill-rule="evenodd" clip-rule="evenodd" d="M0.71457 3.74022C1.17534 3.26898 1.80512 3 2.46667 3H21.5333C22.1949 3 22.8247 3.26898 23.2854 3.74022C23.7455 4.2107 24 4.84412 24 5.5V18.5C24 19.1559 23.7455 19.7893 23.2854 20.2598C22.8247 20.731 22.1949 21 21.5333 21H18.6C18.0477 21 17.6 20.5523 17.6 20C17.6 19.8602 17.5455 19.7306 17.4554 19.6385C17.3661 19.5471 17.2498 19.5 17.1333 19.5C17.0169 19.5 16.9006 19.5471 16.8113 19.6385C16.7212 19.7306 16.6667 19.8602 16.6667 20C16.6667 20.5523 16.219 21 15.6667 21H8.33333C7.78105 21 7.33333 20.5523 7.33333 20C7.33333 19.8602 7.27883 19.7306 7.18875 19.6385C7.09941 19.5471 6.98309 19.5 6.86667 19.5C6.75024 19.5 6.63392 19.5471 6.54458 19.6385C6.4545 19.7306 6.4 19.8602 6.4 20C6.4 20.5523 5.95228 21 5.4 21H2.46667C1.80512 21 1.17534 20.731 0.71457 20.2598C0.254547 19.7893 0 19.1559 0 18.5V5.5C0 4.84412 0.254546 4.2107 0.71457 3.74022ZM2.46667 5C2.35024 5 2.23392 5.04709 2.14458 5.13846C2.0545 5.23059 2 5.36023 2 5.5V18.5C2 18.6398 2.0545 18.7694 2.14458 18.8615C2.23392 18.9529 2.35024 19 2.46667 19H4.6059C4.72631 18.7203 4.89758 18.4621 5.11457 18.2402C5.57534 17.769 6.20512 17.5 6.86667 17.5C7.52821 17.5 8.158 17.769 8.61876 18.2402C8.83575 18.4621 9.00702 18.7203 9.12743 19H14.8726C14.993 18.7203 15.1642 18.4621 15.3812 18.2402C15.842 17.769 16.4718 17.5 17.1333 17.5C17.7949 17.5 18.4247 17.769 18.8854 18.2402C19.1024 18.4621 19.2737 18.7203 19.3941 19H21.5333C21.6498 19 21.7661 18.9529 21.8554 18.8615C21.9455 18.7694 22 18.6398 22 18.5V5.5C22 5.36023 21.9455 5.23059 21.8554 5.13846C21.7661 5.04709 21.6498 5 21.5333 5H2.46667Z" fill="black"/>
</svg>
