<svg width="24" height="24" viewBox="0 0 24 24" fill="none" xmlns="http://www.w3.org/2000/svg">
<path fill-rule="evenodd" clip-rule="evenodd" d="M12 8.71429C10.1854 8.71429 8.71429 10.1854 8.71429 12C8.71429 13.8146 10.1854 15.2857 12 15.2857C13.8146 15.2857 15.2857 13.8146 15.2857 12C15.2857 10.1854 13.8146 8.71429 12 8.71429ZM6.71429 12C6.71429 9.08078 9.08078 6.71429 12 6.71429C14.9192 6.71429 17.2857 9.08078 17.2857 12C17.2857 14.9192 14.9192 17.2857 12 17.2857C9.08078 17.2857 6.71429 14.9192 6.71429 12Z" fill="black"/>
<path fill-rule="evenodd" clip-rule="evenodd" d="M12 1C12.5523 1 13 1.44772 13 2V4.85714C13 5.40943 12.5523 5.85714 12 5.85714C11.4477 5.85714 11 5.40943 11 4.85714V2C11 1.44772 11.4477 1 12 1Z" fill="black"/>
<path fill-rule="evenodd" clip-rule="evenodd" d="M12 18.1429C12.5523 18.1429 13 18.5906 13 19.1429V22C13 22.5523 12.5523 23 12 23C11.4477 23 11 22.5523 11 22V19.1429C11 18.5906 11.4477 18.1429 12 18.1429Z" fill="black"/>
<path fill-rule="evenodd" clip-rule="evenodd" d="M18.1429 12C18.1429 11.4477 18.5906 11 19.1429 11H22C22.5523 11 23 11.4477 23 12C23 12.5523 22.5523 13 22 13H19.1429C18.5906 13 18.1429 12.5523 18.1429 12Z" fill="black"/>
<path fill-rule="evenodd" clip-rule="evenodd" d="M1 12C1 11.4477 1.44772 11 2 11H4.85714C5.40943 11 5.85714 11.4477 5.85714 12C5.85714 12.5523 5.40943 13 4.85714 13H2C1.44772 13 1 12.5523 1 12Z" fill="black"/>
<path fill-rule="evenodd" clip-rule="evenodd" d="M19.7736 4.22624C20.1641 4.61677 20.1641 5.24993 19.7736 5.64046L17.7545 7.6595C17.364 8.05003 16.7309 8.05003 16.3403 7.6595C15.9498 7.26898 15.9498 6.63581 16.3403 6.24529L18.3594 4.22624C18.7499 3.83572 19.3831 3.83572 19.7736 4.22624Z" fill="black"/>
<path fill-rule="evenodd" clip-rule="evenodd" d="M7.65956 16.3405C8.05009 16.731 8.05009 17.3642 7.65956 17.7547L5.64051 19.7738C5.24999 20.1643 4.61683 20.1643 4.2263 19.7738C3.83578 19.3832 3.83578 18.7501 4.2263 18.3595L6.24535 16.3405C6.63587 15.95 7.26904 15.95 7.65956 16.3405Z" fill="black"/>
<path fill-rule="evenodd" clip-rule="evenodd" d="M16.3403 16.3405C16.7309 15.95 17.364 15.95 17.7545 16.3405L19.7736 18.3595C20.1641 18.7501 20.1641 19.3832 19.7736 19.7738C19.3831 20.1643 18.7499 20.1643 18.3594 19.7738L16.3403 17.7547C15.9498 17.3642 15.9498 16.731 16.3403 16.3405Z" fill="black"/>
<path fill-rule="evenodd" clip-rule="evenodd" d="M4.2263 4.22624C4.61683 3.83572 5.24999 3.83572 5.64051 4.22624L7.65956 6.24529C8.05009 6.63582 8.05009 7.26898 7.65956 7.6595C7.26904 8.05003 6.63587 8.05003 6.24535 7.6595L4.2263 5.64046C3.83578 5.24993 3.83578 4.61677 4.2263 4.22624Z" fill="black"/>
</svg>
