<svg width="24" height="24" viewBox="0 0 24 24" fill="none" xmlns="http://www.w3.org/2000/svg">
<path fill-rule="evenodd" clip-rule="evenodd" d="M11.4734 1.07483C11.6885 1.00929 11.9143 0.986509 12.138 1.00764C12.3498 1.02765 12.5561 1.08668 12.7465 1.18187C13.0677 1.3306 13.3359 1.57623 13.5115 1.88626C13.5193 1.90011 13.5269 1.91415 13.534 1.92837L16.275 7.35671L21.4281 7.86431C21.6513 7.8832 21.869 7.94544 22.0688 8.04787C22.2724 8.15227 22.4535 8.29643 22.6009 8.47229C22.7484 8.64818 22.8591 8.85215 22.9261 9.07229C22.9917 9.2875 23.0139 9.51352 22.9916 9.73741C22.9578 10.1267 22.7902 10.4914 22.5187 10.7707L22.5019 10.7876L18.1711 15.0356L19.7772 20.8178C19.8373 21.0365 19.8532 21.2649 19.8238 21.4899C19.7945 21.7148 19.7205 21.9313 19.6066 22.127C19.4927 22.3227 19.3413 22.4935 19.1615 22.6299C18.9933 22.7575 18.8032 22.8528 18.6012 22.9114C18.2302 23.034 17.8283 23.0293 17.4598 22.8974C17.4218 22.8838 17.3846 22.8679 17.3485 22.8498L11.9816 20.1584L6.65381 22.8031C6.45819 22.904 6.24511 22.9664 6.02623 22.987C5.80254 23.0082 5.57673 22.9854 5.36165 22.9199C5.14656 22.8543 4.94607 22.7472 4.77185 22.6042C4.5976 22.4612 4.45298 22.285 4.34676 22.0854C4.32497 22.0445 4.30606 22.0021 4.29016 21.9585C4.15688 21.5935 4.15029 21.1951 4.27038 20.8268L5.74873 15.0383L1.50503 10.782C1.34614 10.6243 1.21946 10.4367 1.13263 10.2297C1.04516 10.0211 1 9.79706 1 9.57059C1 9.34412 1.04516 9.12011 1.13263 8.9115C1.2201 8.70292 1.34802 8.51412 1.50857 8.35569L1.51031 8.35398C1.79532 8.0741 2.16781 7.90209 2.56384 7.86488L7.70763 7.35686L10.4487 1.92837L10.4586 1.90926C10.5648 1.70968 10.7094 1.5335 10.8836 1.39048C11.0579 1.24747 11.2584 1.14036 11.4734 1.07483ZM11.9913 3.31035L9.24531 8.74875C9.0911 9.05418 8.79143 9.25955 8.45094 9.29318L3.34743 9.79722L7.56648 14.0288C7.8154 14.2784 7.91446 14.6407 7.82723 14.9823L6.36326 20.7145L11.5392 18.1451C11.8206 18.0055 12.1513 18.0061 12.4321 18.147L17.6923 20.7848L16.0861 15.0025C15.9887 14.6518 16.0895 14.2758 16.3494 14.0209L20.6548 9.79782L15.532 9.2932C15.1914 9.25965 14.8916 9.05426 14.7374 8.74875L11.9913 3.31035Z" fill="black"/>
</svg>
