<svg width="24" height="24" viewBox="0 0 24 24" fill="none" xmlns="http://www.w3.org/2000/svg">
<path fill-rule="evenodd" clip-rule="evenodd" d="M12 2C6.47715 2 2 6.47715 2 12C2 17.5228 6.47715 22 12 22C17.5228 22 22 17.5228 22 12C22 6.47715 17.5228 2 12 2ZM0 12C0 5.37258 5.37258 0 12 0C18.6274 0 24 5.37258 24 12C24 18.6274 18.6274 24 12 24C5.37258 24 0 18.6274 0 12Z" fill="black"/>
<path d="M8.33008 7.56342C9.15903 7.56342 9.83008 8.23592 9.83008 9.06665C9.83008 9.89738 9.15903 10.5699 8.33008 10.5699C7.50113 10.5699 6.83008 9.89738 6.83008 9.06665C6.83008 8.23592 7.50113 7.56342 8.33008 7.56342Z" fill="black"/>
<path d="M15.6636 7.56341C16.4926 7.56341 17.1636 8.23447 17.1636 9.06341C17.1636 9.89236 16.4926 10.5634 15.6636 10.5634C14.8347 10.5634 14.1636 9.89236 14.1636 9.06341C14.1636 8.23447 14.8347 7.56341 15.6636 7.56341Z" fill="black"/>
<path fill-rule="evenodd" clip-rule="evenodd" d="M5.6427 14.0362C6.13818 13.7922 6.73762 13.9961 6.9816 14.4916C7.51785 15.5806 8.41265 16.4702 9.5128 17.0206C12.2817 18.396 15.6419 17.2613 17.0201 14.4883C17.2659 13.9937 17.8661 13.792 18.3607 14.0378C18.8552 14.2836 19.0569 14.8838 18.8111 15.3784C16.9432 19.1366 12.3841 20.681 8.62163 18.8111L8.61948 18.81C7.13881 18.0696 5.92203 16.8671 5.18734 15.3751C4.94336 14.8796 5.14723 14.2802 5.6427 14.0362Z" fill="black"/>
</svg>
