<svg width="24" height="24" viewBox="0 0 24 24" fill="none" xmlns="http://www.w3.org/2000/svg">
<path fill-rule="evenodd" clip-rule="evenodd" d="M8.50156 0.990657C9.44282 0.676902 10.6796 0.5 11.9998 0.5C13.32 0.5 14.5567 0.676902 15.498 0.990657C15.9634 1.14579 16.4122 1.35256 16.7651 1.63072C17.1068 1.9 17.4998 2.35516 17.4998 3V4.27045L22.8893 6.57897C22.8992 6.58317 22.9091 6.58754 22.9189 6.59208C23.1429 6.69532 23.3112 6.87178 23.4076 7.08061C23.4279 7.12455 23.445 7.17 23.4588 7.21663C23.488 7.31523 23.5021 7.41857 23.4998 7.52301V18C23.4998 18.4 23.2614 18.7616 22.8937 18.9191L12.4141 23.4104C12.2986 23.463 12.1714 23.4943 12.0374 23.4993C12.0249 23.4998 12.0123 23.5 11.9998 23.5L11.9873 23.4999L11.9746 23.4997C11.8361 23.4963 11.7045 23.4647 11.5855 23.4104L1.10585 18.9191C0.738165 18.7616 0.499768 18.4 0.499768 18V7.52304C0.497068 7.40422 0.515737 7.28682 0.553627 7.17621C0.56127 7.15389 0.569694 7.13186 0.578876 7.11017C0.672689 6.88848 0.846181 6.70016 1.08059 6.59208C1.09038 6.58756 1.10022 6.58321 1.11012 6.57902L6.49977 4.27045V3C6.49977 2.35516 6.89274 1.9 7.23443 1.63072C7.58739 1.35256 8.03616 1.14579 8.50156 0.990657ZM8.83726 3C8.92229 2.96347 9.02086 2.92574 9.13402 2.88802C9.82143 2.65888 10.8347 2.5 11.9998 2.5C13.1648 2.5 14.1781 2.65888 14.8655 2.88802C14.9787 2.92574 15.0772 2.96347 15.1623 3C15.0772 3.03652 14.9787 3.07426 14.8655 3.11198C14.1781 3.34112 13.1648 3.5 11.9998 3.5C10.8347 3.5 9.82143 3.34112 9.13402 3.11198C9.02086 3.07426 8.92229 3.03653 8.83726 3ZM6.55846 6.42106L4.03895 7.50025L11.9998 10.912L19.9606 7.50025L17.4411 6.42106C17.3188 6.84814 17.0261 7.16397 16.7638 7.37036C16.4104 7.64849 15.9612 7.85511 15.4956 8.01008C14.5538 8.3235 13.3173 8.5 11.9998 8.5C10.6822 8.5 9.44569 8.3235 8.50398 8.01008C8.03836 7.85511 7.58911 7.64849 7.2357 7.37036C6.97344 7.16397 6.68078 6.84814 6.55846 6.42106ZM15.4998 5.00875L15.498 5.00934C14.5567 5.3231 13.32 5.5 11.9998 5.5C10.6796 5.5 9.44282 5.3231 8.50156 5.00934L8.49977 5.00875V5.81909C8.61054 5.89854 8.81453 6.00557 9.13556 6.11242C9.82385 6.3415 10.8373 6.5 11.9998 6.5C13.1622 6.5 14.1757 6.3415 14.864 6.11242C15.185 6.00557 15.389 5.89854 15.4998 5.81909V5.00875ZM12.9998 20.9835L21.4998 17.3406V9.01654L12.9998 12.6594V20.9835ZM10.9998 12.6594L2.49977 9.01654V17.3406L10.9998 20.9835V12.6594ZM8.42934 5.76017C8.42858 5.75934 8.42814 5.75894 8.42806 5.75894C8.42791 5.75895 8.42931 5.76071 8.43275 5.7642C8.4313 5.76238 8.43015 5.76104 8.42934 5.76017Z" fill="black"/>
</svg>
