<svg width="24" height="24" viewBox="0 0 24 24" fill="none" xmlns="http://www.w3.org/2000/svg">
<path d="M0 9.35413C0 8.21781 0.642007 7.17902 1.65836 6.67084L10.6584 2.17084C11.5029 1.74855 12.4971 1.74855 13.3416 2.17084L22.3416 6.67084C23.358 7.17902 24 8.21781 24 9.35413V19.5C24 21.1569 22.6569 22.5 21 22.5H3C1.34315 22.5 0 21.1569 0 19.5V9.35413Z" fill="#86E9E9"/>
<path d="M5 0C3.89543 0 3 0.895431 3 2V6.00002L1.65836 6.67084C0.642007 7.17902 0 8.21781 0 9.35413V11.5L10.6584 16.8292C11.503 17.2515 12.4971 17.2515 13.3417 16.8292L24 11.5V9.35413C24 8.21781 23.358 7.17902 22.3416 6.67084L21 6.00002V2C21 0.895431 20.1046 0 19 0H5Z" fill="#0D8B9C"/>
<path fill-rule="evenodd" clip-rule="evenodd" d="M13.2108 4.18764C12.4015 3.93064 11.5315 3.93781 10.7266 4.20809C9.92176 4.47838 9.22376 4.99777 8.73367 5.69109C8.24357 6.38441 7.9868 7.2157 8.00052 8.06464C8.01424 8.91359 8.29774 9.73614 8.80999 10.4133C9.32224 11.0904 10.0367 11.5869 10.8499 11.8311C11.6631 12.0752 12.5328 12.0543 13.3333 11.7712C13.854 11.5871 14.4254 11.86 14.6095 12.3807C14.7936 12.9014 14.5207 13.4728 14 13.6569C12.7993 14.0814 11.4946 14.1128 10.2748 13.7466C9.05499 13.3804 7.98336 12.6356 7.21499 11.6199C6.44662 10.6042 6.02137 9.37038 6.00078 8.09697C5.9802 6.82355 6.36535 5.57662 7.1005 4.53664C7.83564 3.49665 8.88264 2.71757 10.09 2.31214C11.2973 1.90671 12.6023 1.89597 13.8161 2.28146C15.03 2.66696 16.0897 3.42871 16.8418 4.45645C17.594 5.48419 17.9996 6.72461 18 7.99819C18 7.99855 18 7.99891 18 7.99928C18 7.99904 18 7.99952 18 7.99928C18 8.71632 17.7886 9.44366 17.3607 10.0142C16.9286 10.5903 16.2711 11 15.5 11C14.873 11 14.3211 10.7291 13.9044 10.3181C13.3864 10.7442 12.7231 11 12 11C10.3431 11 9 9.65685 9 8C9 6.34315 10.3431 5 12 5C13.6569 5 15 6.34315 15 8C15 8.34382 15.1046 8.63462 15.2393 8.81421C15.3699 8.9883 15.4755 9 15.5 9C15.5245 9 15.6301 8.9883 15.7607 8.81421C15.8954 8.63462 16 8.34382 16 8C16 7.99955 16 7.99909 16 7.99864C15.9997 7.14964 15.7293 6.32275 15.2279 5.63763C14.7264 4.95247 14.02 4.44464 13.2108 4.18764ZM13 8C13 7.44772 12.5523 7 12 7C11.4477 7 11 7.44772 11 8C11 8.55229 11.4477 9 12 9C12.5523 9 13 8.55229 13 8Z" fill="#86E9E9"/>
</svg>
