<svg width="24" height="24" viewBox="0 0 24 24" fill="none" xmlns="http://www.w3.org/2000/svg">
<path fill-rule="evenodd" clip-rule="evenodd" d="M11.9999 2.75C9.68616 2.75 7.54367 3.15832 5.94219 3.85897C5.14293 4.20864 4.43334 4.65083 3.90959 5.19258C3.38119 5.73914 3 6.43589 3 7.25C3.00212 9.2973 3.68335 11.2911 4.93674 12.8999C6.02641 14.2987 7.49366 15.3397 9.15371 15.9004V20.375C9.15371 21.1325 9.44986 21.8621 9.98187 22.4024C10.5144 22.9433 11.24 23.25 11.9999 23.25C12.7598 23.25 13.4853 22.9433 14.0179 22.4024C14.5499 21.8621 14.846 21.1325 14.846 20.375V15.9004C16.5061 15.3397 17.9733 14.2987 19.063 12.8999C20.3172 11.2899 20.9987 9.29882 20.9999 7.25C20.9999 6.43589 20.6185 5.73914 20.0901 5.19258C19.5664 4.65083 18.8568 4.20864 18.0575 3.85897C16.456 3.15832 14.3136 2.75 11.9999 2.75ZM5.34749 6.5827C5.06636 6.8735 4.99991 7.09743 4.99986 7.24981C4.99986 7.4022 5.06624 7.62638 5.34749 7.9173C5.63339 8.21302 6.09537 8.52502 6.74382 8.80872C8.03777 9.37482 9.89529 9.75 11.9999 9.75C12.8315 9.75 13.6246 9.69141 14.3596 9.5856C15.4845 9.42366 16.4733 9.15111 17.2559 8.80872C17.7145 8.60806 18.0799 8.39326 18.3556 8.18006C18.4698 8.09183 18.5685 8.00386 18.6522 7.9173C18.9328 7.62706 18.9996 7.40342 18.9999 7.25106V7.25C18.9999 7.12916 18.9581 6.96328 18.8006 6.75472C18.7595 6.70027 18.7104 6.64292 18.6522 6.5827C18.3663 6.28698 17.9044 5.97498 17.2559 5.69128C15.9619 5.12518 14.1044 4.75 11.9999 4.75C11.4045 4.75 10.8289 4.78003 10.2802 4.83591C8.88942 4.97755 7.67172 5.28533 6.74382 5.69128C6.09537 5.97498 5.63339 6.28698 5.34749 6.5827ZM5.81676 10.5851C6.01534 10.9658 6.24851 11.3294 6.51447 11.6708C6.65504 11.8512 6.80357 12.0239 6.9594 12.1885C7.88883 13.1699 9.07818 13.8618 10.3876 14.1769C10.837 14.285 11.1537 14.687 11.1537 15.1492V20.375C11.1537 20.612 11.2466 20.8363 11.407 20.9992C11.5669 21.1616 11.7805 21.25 11.9999 21.25C12.2192 21.25 12.4328 21.1616 12.5927 20.9992C12.7532 20.8363 12.846 20.612 12.846 20.375V15.1494C12.846 14.6872 13.1627 14.285 13.6121 14.1769C15.1411 13.809 16.5064 12.9273 17.4852 11.6708C17.7512 11.3294 17.9844 10.9658 18.183 10.5851C18.1414 10.604 18.0996 10.6226 18.0575 10.641C16.456 11.3417 14.3136 11.75 11.9999 11.75C10.9254 11.75 9.88778 11.6619 8.92417 11.4974C7.81286 11.3077 6.79993 11.0163 5.94219 10.641C5.90013 10.6226 5.85831 10.604 5.81676 10.5851Z" fill="black"/>
</svg>
