<svg width="24" height="24" viewBox="0 0 24 24" fill="none" xmlns="http://www.w3.org/2000/svg">
<path d="M4.56006 3.5625C4.56006 3.01022 4.11234 2.5625 3.56006 2.5625C3.00777 2.5625 2.56006 3.01022 2.56006 3.5625V9.1875C2.56006 9.73978 3.00777 10.1875 3.56006 10.1875H4.02374C4.03938 10.1879 4.05498 10.1879 4.07054 10.1875H9.18506C9.73734 10.1875 10.1851 9.73978 10.1851 9.1875C10.1851 8.63522 9.73734 8.1875 9.18506 8.1875H5.61608C6.05788 7.44748 6.62691 6.7866 7.30053 6.23705C8.35721 5.37498 9.63056 4.82004 10.9814 4.63288C12.3322 4.44572 13.7085 4.63356 14.9597 5.17586C16.211 5.71816 17.289 6.59404 18.0761 7.70774C18.8631 8.82145 19.3287 10.1301 19.4221 11.4906C19.5155 12.8511 19.2331 14.2111 18.6056 15.4219C17.9782 16.6327 17.0299 17.6477 15.8645 18.3559C14.6991 19.0641 13.3615 19.4383 11.9977 19.4375C11.4454 19.4372 10.9975 19.8846 10.9971 20.4369C10.9968 20.9892 11.4443 21.4372 11.9966 21.4375C13.727 21.4385 15.4244 20.9637 16.9032 20.0651C18.382 19.1665 19.5852 17.8785 20.3814 16.3421C21.1775 14.8057 21.536 13.08 21.4174 11.3536C21.2989 9.62726 20.708 7.96671 19.7094 6.55352C18.7107 5.14034 17.3428 4.02893 15.755 3.3408C14.1673 2.65267 12.421 2.41432 10.7069 2.6518C8.99284 2.88929 7.37707 3.59347 6.03624 4.68735C5.4868 5.13559 4.9922 5.64221 4.56006 6.19634V3.5625Z" fill="black"/>
</svg>
