<svg width="24" height="24" viewBox="0 0 24 24" fill="none" xmlns="http://www.w3.org/2000/svg">
<g clip-path="url(#clip0_2622_4223)">
<path d="M15.4298 1.73197C15.8986 1.26329 16.5344 1 17.1973 1C17.8602 1 18.496 1.26329 18.9648 1.73197L20.0259 2.79307C20.4946 3.26189 20.758 3.89777 20.758 4.56068C20.758 4.8761 20.6984 5.18537 20.5854 5.47343L21.087 5.97499C21.5556 6.44381 21.819 7.07969 21.819 7.74259C21.819 8.4055 21.5557 9.04127 21.0871 9.51009C20.6966 9.90068 20.0634 9.90077 19.6728 9.51031C19.2823 9.11984 19.2822 8.48668 19.6726 8.09609C19.7664 8.00233 19.819 7.87518 19.819 7.74259C19.819 7.61006 19.7664 7.48295 19.6727 7.3892L19.319 7.03542L17.7019 8.65296C17.3114 9.04353 16.6782 9.04362 16.2877 8.65315C15.8971 8.26268 15.897 7.62951 16.2875 7.23893L18.6061 4.91972L18.6117 4.91399L18.6148 4.91093C18.7065 4.81749 18.758 4.69173 18.758 4.56068C18.758 4.42815 18.7054 4.30104 18.6117 4.20729L17.5508 3.14639C17.4571 3.05272 17.3298 3 17.1973 3C17.1569 3 17.1169 3.0049 17.0783 3.01437C16.9903 3.03595 16.909 3.08125 16.8438 3.14638L13.8383 6.15113L15.2362 7.54902C15.6267 7.93954 15.6267 8.57271 15.2362 8.96323C14.8456 9.35375 14.2125 9.35375 13.8219 8.96323L12.425 7.56631L6.96394 13.0274L6.37452 15.384L7.76677 15.0362C8.30259 14.9023 8.84547 15.2282 8.97933 15.764C9.11319 16.2998 8.78733 16.8427 8.25152 16.9765L5.2424 17.7283C4.90162 17.8134 4.54116 17.7135 4.29282 17.4651C4.04448 17.2167 3.94468 16.8562 4.02991 16.5155L5.09091 12.2735C5.13487 12.0977 5.22578 11.9371 5.35391 11.809L11.6796 5.48334C11.6919 5.46962 11.7046 5.45616 11.7178 5.44298L15.4298 1.73197Z" fill="black"/>
<path d="M3.20909 22.0208C3.33224 21.9922 3.46043 21.9931 3.58314 22.0236C3.59506 22.0265 3.60703 22.0292 3.61905 22.0318C3.71251 22.0513 3.79912 22.0953 3.87009 22.1592C3.94106 22.2231 3.99386 22.3046 4.02313 22.3955C4.03303 22.4262 4.03571 22.4395 4.03603 22.4411L4.03674 22.4447L4.03766 22.4508L4.04321 22.4882C4.04971 22.5313 4.06464 22.6274 4.10432 22.7415C4.14406 22.8559 4.19528 22.9514 4.24509 23.0311C4.53176 23.4896 5.131 23.6372 5.5978 23.3642L6.93363 22.5831C7.07719 22.5009 7.24248 22.4645 7.40732 22.479C7.55413 22.4918 7.74706 22.5707 7.88965 22.6902C8.0942 22.8617 8.3896 23.0016 8.6067 23.0963C8.86268 23.208 9.16638 23.322 9.47691 23.4223C10.0025 23.592 10.5661 23.3036 10.7358 22.778C10.9055 22.2524 10.6171 21.6888 10.0915 21.5191C9.8353 21.4364 9.59424 21.3451 9.40647 21.2632C9.31234 21.2221 9.23988 21.187 9.18974 21.1601C9.17116 21.1501 9.15891 21.143 9.15191 21.1388C8.72782 20.7908 8.16433 20.5376 7.58171 20.4866C7.00754 20.4363 6.4318 20.5638 5.93249 20.8517L5.56362 21.0674C5.45966 20.9243 5.34062 20.7919 5.20809 20.6727C4.87938 20.3768 4.47922 20.1719 4.04724 20.0781C3.6231 19.9758 3.18083 19.9739 2.75571 20.0729C2.32471 20.1732 1.92361 20.3743 1.58532 20.6595C1.35792 20.8513 0.54579 21.5638 0.326032 21.7642C-0.0819712 22.1365 -0.110974 22.769 0.261252 23.177C0.633479 23.585 1.26598 23.614 1.67398 23.2418C1.87455 23.0588 2.66715 22.3635 2.87469 22.1884C2.97135 22.1069 3.08594 22.0495 3.20909 22.0208Z" fill="black"/>
<path d="M14 16C13.4477 16 13 16.4477 13 17C13 17.5523 13.4477 18 14 18H20C20.5523 18 21 17.5523 21 17C21 16.4477 20.5523 16 20 16H14Z" fill="black"/>
<path fill-rule="evenodd" clip-rule="evenodd" d="M10 17C10 13.134 13.134 10 17 10C20.866 10 24 13.134 24 17C24 20.866 20.866 24 17 24C13.134 24 10 20.866 10 17ZM17 12C14.2386 12 12 14.2386 12 17C12 19.7614 14.2386 22 17 22C19.7614 22 22 19.7614 22 17C22 14.2386 19.7614 12 17 12Z" fill="black"/>
</g>
<defs>
<clipPath id="clip0_2622_4223">
<rect width="24" height="24" fill="white"/>
</clipPath>
</defs>
</svg>
