<svg width="24" height="24" viewBox="0 0 24 24" fill="none" xmlns="http://www.w3.org/2000/svg">
<path d="M18.0608 9.29384C18.0608 9.29384 14.7099 3.39615 14.4607 2.96322C14.2114 2.53029 13.8525 2.17069 13.4201 1.92064C12.9876 1.6706 12.4969 1.53894 11.9974 1.53894C11.4978 1.53894 11.0071 1.6706 10.5747 1.92064C10.1422 2.17069 9.78331 2.53029 9.5341 2.96322C9.28489 3.39615 8.53174 4.69699 8.53174 4.69699" stroke="black" stroke-width="2" stroke-linecap="round" stroke-linejoin="round"/>
<path d="M11.9951 19.6206C11.9951 19.6206 18.6566 19.6203 19.1557 19.6206C19.6547 19.6209 20.1451 19.4899 20.5774 19.2405C21.0098 18.9912 21.3688 18.6324 21.6185 18.2003C21.8682 17.7682 21.9997 17.2779 21.9997 16.7788C21.9998 16.2798 21.8685 15.7895 21.6189 15.3573C21.3694 14.9251 20.3873 13.2256 20.3873 13.2256" stroke="black" stroke-width="2" stroke-linecap="round" stroke-linejoin="round"/>
<path d="M5.98096 8.96033C5.98096 8.96033 2.63032 14.9232 2.38079 15.3554C2.13125 15.7876 1.99992 16.2779 2 16.7769C2.00008 17.276 2.13157 17.7663 2.38124 18.1984C2.63092 18.6305 2.98998 18.9893 3.4223 19.2386C3.85463 19.488 4.34499 19.6191 4.84406 19.6187C5.34314 19.6184 7.73557 19.6187 7.73557 19.6187" stroke="black" stroke-width="2" stroke-linecap="round" stroke-linejoin="round"/>
<path d="M14.8374 16.7765L11.9951 19.6187L14.8374 22.461" stroke="black" stroke-width="2" stroke-linecap="round" stroke-linejoin="round"/>
<path d="M19.101 5.40759L18.0607 9.29009L14.1782 8.24983" stroke="black" stroke-width="2" stroke-linecap="round" stroke-linejoin="round"/>
<path d="M2.09863 10.0006L5.98113 8.96033L7.02139 12.8428" stroke="black" stroke-width="2" stroke-linecap="round" stroke-linejoin="round"/>
<path d="M11.997 0.53894C11.3218 0.53894 10.6584 0.716916 10.0738 1.05494C9.48919 1.39296 9.004 1.87908 8.66711 2.46433C8.54314 2.67968 8.29313 3.11212 8.07354 3.49171L7.666 4.19592C7.38928 4.67388 7.5524 5.28568 8.03036 5.56241C8.50831 5.83913 9.12014 5.67594 9.39686 5.19798L9.80473 4.4932C10.024 4.11414 10.2752 3.67969 10.4004 3.46211C10.562 3.1815 10.7946 2.94842 11.0749 2.78635C11.3552 2.62427 11.6733 2.53894 11.997 2.53894C12.3208 2.53894 12.6389 2.62427 12.9192 2.78635C13.1995 2.94842 13.4321 3.1815 13.5937 3.46211C13.7165 3.67547 14.6143 5.25419 15.4845 6.78506L16.0071 7.70466L14.4368 7.28391C13.9033 7.14097 13.355 7.45756 13.2121 7.99103C13.0691 8.5245 13.3857 9.07283 13.9192 9.21577L17.7207 10.2343C17.9861 10.3301 18.29 10.3136 18.5545 10.1633C18.8104 10.0179 18.9777 9.77652 19.0368 9.5101L20.0667 5.6664C20.2096 5.13294 19.893 4.5846 19.3596 4.44167C18.8261 4.29873 18.2777 4.61532 18.1348 5.14879L17.7248 6.6792L17.2232 5.7967C16.3557 4.27049 15.4534 2.6839 15.327 2.46433C14.9901 1.87908 14.5049 1.39296 13.9203 1.05494C13.3357 0.716916 12.6723 0.53894 11.997 0.53894Z" fill="black"/>
<path d="M21.2531 12.7253C20.9768 12.2471 20.3651 12.0835 19.887 12.3598C19.4088 12.6361 19.2451 13.2478 19.5215 13.726L20.7529 15.8573C20.9147 16.1375 20.9998 16.4552 20.9997 16.7787C20.9997 17.1022 20.9145 17.42 20.7526 17.7001C20.5908 17.9802 20.3581 18.2127 20.0778 18.3743C19.7976 18.5359 19.4798 18.6209 19.1563 18.6207C18.9063 18.6205 17.1156 18.6205 15.3882 18.6206L14.4075 18.6206L15.5445 17.4836C15.935 17.0931 15.935 16.4599 15.5445 16.0694C15.1539 15.6789 14.5208 15.6789 14.1303 16.0694L11.288 18.9116C11.0925 19.1072 10.9948 19.3635 10.9951 19.6198C10.9951 19.9146 11.1228 20.1806 11.3258 20.3636L14.1303 23.1681C14.5208 23.5586 15.1539 23.5586 15.5445 23.1681C15.935 22.7776 15.935 22.1444 15.5445 21.7539L14.4112 20.6206L15.3883 20.6206C17.1163 20.6205 18.9059 20.6205 19.155 20.6207C19.8297 20.6211 20.4926 20.4439 21.077 20.1068C21.6614 19.7698 22.1468 19.2848 22.4844 18.7006C22.8219 18.1165 22.9996 17.4537 22.9997 16.779C22.9998 16.1044 22.8223 15.4416 22.485 14.8573L21.2531 12.7253Z" fill="black"/>
<path d="M3.9453 10.541C3.77107 10.8509 3.58767 11.177 3.40286 11.5056C2.53127 13.0552 1.63582 14.6458 1.51476 14.8554C1.17743 15.4397 0.999892 16.1025 1 16.7772C1.00011 17.4518 1.17786 18.1146 1.51538 18.6987C1.8529 19.2829 2.33828 19.7679 2.92272 20.1049C3.50716 20.442 4.17004 20.6192 4.84471 20.6188C5.0938 20.6186 5.81622 20.6186 6.47691 20.6187L7.73541 20.6188C8.28769 20.6189 8.7355 20.1712 8.73557 19.6189C8.73564 19.0666 8.28755 18.6189 7.73527 18.6188L6.47703 18.6187C5.81673 18.6186 5.0934 18.6186 4.84342 18.6188C4.51994 18.619 4.20211 18.534 3.92189 18.3724C3.64167 18.2108 3.40894 17.9783 3.24711 17.6982C3.08528 17.4181 3.00005 17.1003 3 16.7768C2.99995 16.4534 3.08507 16.1356 3.24681 15.8554C3.3753 15.6329 4.27993 14.0259 5.14604 12.4861C5.31734 12.1815 5.48743 11.879 5.65012 11.5897L6.05522 13.1016C6.19816 13.6351 6.74649 13.9517 7.27996 13.8088C7.81343 13.6658 8.13002 13.1175 7.98708 12.584L6.94948 8.71145C6.88657 8.46683 6.73166 8.24627 6.50047 8.10591C6.494 8.10197 6.48748 8.09811 6.4809 8.09431C6.46373 8.0844 6.44632 8.07502 6.42869 8.06619C6.24686 7.97497 6.04916 7.94439 5.85966 7.9677C5.8135 7.97334 5.76753 7.98222 5.72209 7.9944L1.83959 9.03466C1.30612 9.1776 0.989529 9.72593 1.13246 10.2594C1.2754 10.7929 1.82373 11.1095 2.3572 10.9665L3.9453 10.541Z" fill="black"/>
</svg>
