<svg width="24" height="24" viewBox="0 0 24 24" fill="none" xmlns="http://www.w3.org/2000/svg">
<path fill-rule="evenodd" clip-rule="evenodd" d="M10.2473 4.00995C6.797 4.00995 4 6.80695 4 10.2572C4 13.7075 6.797 16.5045 10.2473 16.5045C11.9324 16.5045 13.4617 15.8373 14.5854 14.7527C14.6084 14.724 14.6332 14.6962 14.6598 14.6696C14.6864 14.643 14.7141 14.6182 14.7428 14.5952C15.8274 13.4715 16.4946 11.9423 16.4946 10.2572C16.4946 6.80695 13.6976 4.00995 10.2473 4.00995ZM16.7434 15.339C17.8405 13.9385 18.4946 12.1742 18.4946 10.2572C18.4946 5.70238 14.8021 2.00995 10.2473 2.00995C5.69243 2.00995 2 5.70238 2 10.2572C2 14.8121 5.69243 18.5045 10.2473 18.5045C12.1643 18.5045 13.9286 17.8504 15.3292 16.7532L20.2832 21.7073C20.6738 22.0978 21.3069 22.0978 21.6974 21.7073C22.088 21.3168 22.088 20.6836 21.6974 20.2931L16.7434 15.339Z" fill="black"/>
</svg>
