<svg width="24" height="24" viewBox="0 0 24 24" fill="none" xmlns="http://www.w3.org/2000/svg">
<path d="M3.20963 1.66638C3.19276 1.66638 3.1759 1.66681 3.15906 1.66766C1.91916 1.73044 0.953142 2.77598 1.00071 4.02151V19.9784C0.953142 21.224 1.91916 22.2695 3.15906 22.3323C3.1759 22.3331 3.19276 22.3336 3.20963 22.3336H14.1255C14.1423 22.3336 14.1592 22.3331 14.176 22.3323C15.4159 22.2695 16.382 21.224 16.3344 19.9784V16.0001C16.3344 15.4478 15.8867 15.0001 15.3344 15.0001C14.7821 15.0001 14.3344 15.4478 14.3344 16.0001V20.0002C14.3344 20.017 14.3348 20.0339 14.3357 20.0508C14.3428 20.1919 14.2378 20.3178 14.0911 20.3336H3.24397C3.09734 20.3178 2.99228 20.1919 2.99943 20.0508C3.00028 20.0339 3.00071 20.017 3.00071 20.0002V3.99975C3.00071 3.98289 3.00028 3.96603 2.99943 3.94918C2.99228 3.80803 3.09734 3.68213 3.24397 3.66638H14.0911C14.2378 3.68213 14.3428 3.80803 14.3357 3.94918C14.3348 3.96603 14.3344 3.98289 14.3344 3.99975V7.99986C14.3344 8.55215 14.7821 8.99986 15.3344 8.99986C15.8867 8.99986 16.3344 8.55215 16.3344 7.99986V4.0215C16.382 2.77597 15.4159 1.73044 14.176 1.66766C14.1592 1.66681 14.1423 1.66638 14.1255 1.66638H3.20963Z" fill="black"/>
<path d="M17.9604 7.9594C18.3509 7.56887 18.9841 7.56887 19.3746 7.9594L22.6918 11.2766C22.8826 11.4587 23.0014 11.7155 23.0014 12C23.0014 12.286 22.8813 12.5439 22.6889 12.7262L19.3746 16.0405C18.9841 16.431 18.3509 16.431 17.9604 16.0405C17.5699 15.6499 17.5699 15.0168 17.9604 14.6262L19.5866 13H8.00101C7.44872 13 7.00101 12.5523 7.00101 12C7.00101 11.4477 7.44872 11 8.00101 11H19.5868L17.9604 9.37361C17.5699 8.98309 17.5699 8.34992 17.9604 7.9594Z" fill="black"/>
</svg>
