<svg width="24" height="24" viewBox="0 0 24 24" fill="none" xmlns="http://www.w3.org/2000/svg">
<path d="M8.5 2C8.5 1.44772 8.05228 1 7.5 1C6.94772 1 6.5 1.44772 6.5 2V19.5858L3.70711 16.7929C3.31658 16.4024 2.68342 16.4024 2.29289 16.7929C1.90237 17.1834 1.90237 17.8166 2.29289 18.2071L6.79289 22.7071C7.18342 23.0976 7.81658 23.0976 8.20711 22.7071L12.7071 18.2071C13.0976 17.8166 13.0976 17.1834 12.7071 16.7929C12.3166 16.4024 11.6834 16.4024 11.2929 16.7929L8.5 19.5858V2Z" fill="black"/>
<path d="M16.0006 15H18.8044L15.2264 20.346C15.1877 20.4038 15.1552 20.4655 15.1293 20.5301C15.0198 20.8033 14.9789 21.0992 15.0103 21.3919C15.0416 21.6846 15.1443 21.9651 15.3093 22.2089C15.4743 22.4527 15.6966 22.6524 15.9567 22.7903C16.2166 22.9281 16.5063 23.0001 16.8004 23H19.9998C20.552 23 20.9998 22.5523 20.9998 22C20.9998 21.4477 20.552 21 19.9998 21H17.1953L20.7739 15.6531C20.8128 15.595 20.8455 15.5329 20.8715 15.4679C20.9806 15.1948 21.0212 14.8991 20.9896 14.6067C20.958 14.3143 20.8552 14.034 20.6903 13.7905C20.5254 13.547 20.3032 13.3476 20.0434 13.2098C19.7836 13.072 19.494 13 19.1999 13H16.0006C15.4483 13 15.0006 13.4477 15.0006 14C15.0006 14.5523 15.4483 15 16.0006 15Z" fill="black"/>
<path fill-rule="evenodd" clip-rule="evenodd" d="M15.8787 1.87868C16.4413 1.31607 17.2044 1 18 1C18.7957 1 19.5587 1.31607 20.1213 1.87868C20.6839 2.44129 21 3.20435 21 4V9.99822C21 10.5505 20.5523 10.9982 20 10.9982C19.4477 10.9982 19 10.5505 19 9.99822V8H17V10C17 10.5523 16.5523 11 16 11C15.4477 11 15 10.5523 15 10V4C15 3.20435 15.3161 2.44129 15.8787 1.87868ZM17 6V4C17 3.73478 17.1054 3.48043 17.2929 3.29289C17.4804 3.10536 17.7348 3 18 3C18.2652 3 18.5196 3.10536 18.7071 3.29289C18.8946 3.48043 19 3.73478 19 4V6H17Z" fill="black"/>
</svg>
