<svg width="24" height="24" viewBox="0 0 24 24" fill="none" xmlns="http://www.w3.org/2000/svg">
<path fill-rule="evenodd" clip-rule="evenodd" d="M15.0745 1.97607C15.0745 1.42379 14.6268 0.976074 14.0745 0.976074C13.5222 0.976074 13.0745 1.42379 13.0745 1.97607V3.05396H11.9963C11.444 3.05396 10.9963 3.50168 10.9963 4.05396C10.9963 4.60625 11.444 5.05396 11.9963 5.05396H13.0745V6.13189C13.0745 6.68417 13.5222 7.13189 14.0745 7.13189C14.6268 7.13189 15.0745 6.68417 15.0745 6.13189V5.05396H16.1521C16.7044 5.05396 17.1521 4.60625 17.1521 4.05396C17.1521 3.50168 16.7044 3.05396 16.1521 3.05396H15.0745V1.97607ZM8.88607 2.75594C9.18254 3.01489 9.29951 3.42367 9.1849 3.80025C8.95559 4.5537 8.84035 5.34205 8.84035 6.13187C8.84035 10.5488 12.4198 14.1361 16.8446 14.1361H16.8538C17.9993 14.1361 19.1404 13.8824 20.1939 13.3968C20.5519 13.2318 20.9734 13.2925 21.2702 13.5517C21.5671 13.8109 21.6841 14.2204 21.5689 14.5973C20.7376 17.3168 18.7782 19.5637 16.1915 20.7544C11.1758 23.0623 5.23402 20.8786 2.9242 15.8597C0.605876 10.8424 2.80092 4.9 7.81106 2.60026C8.1688 2.43605 8.5896 2.49699 8.88607 2.75594ZM6.85734 5.54578C4.16158 7.79955 3.19004 11.6676 4.74004 15.0214L4.74075 15.0229C6.58697 19.0354 11.3392 20.7854 15.3552 18.9377C16.7691 18.2868 17.9495 17.2403 18.7673 15.9481C18.1383 16.0725 17.4975 16.1361 16.8538 16.1361H16.8446C11.3139 16.1361 6.84035 11.652 6.84035 6.13187C6.84035 5.93646 6.84601 5.74099 6.85734 5.54578ZM17.2296 8.20982C17.2296 7.65753 17.6773 7.20982 18.2296 7.20982H18.6156V6.82451C18.6156 6.27223 19.0633 5.82451 19.6156 5.82451C20.1679 5.82451 20.6156 6.27223 20.6156 6.82451V7.20982H21.0001C21.5524 7.20982 22.0001 7.65753 22.0001 8.20982C22.0001 8.7621 21.5524 9.20982 21.0001 9.20982H20.6156V9.59505C20.6156 10.1473 20.1679 10.5951 19.6156 10.5951C19.0633 10.5951 18.6156 10.1473 18.6156 9.59505V9.20982H18.2296C17.6773 9.20982 17.2296 8.7621 17.2296 8.20982Z" fill="black"/>
</svg>
