<svg width="24" height="24" viewBox="0 0 24 24" fill="none" xmlns="http://www.w3.org/2000/svg">
<path fill-rule="evenodd" clip-rule="evenodd" d="M3.42857 4C2.10645 4 1 5.05557 1 6.4V17.6C1 18.9444 2.10645 20 3.42857 20H20.5714C21.8935 20 23 18.9444 23 17.6V6.4C23 5.05557 21.8935 4 20.5714 4H3.42857ZM3 7.58155V17.6C3 17.802 3.17274 18 3.42857 18H20.5714C20.8273 18 21 17.802 21 17.6V7.58166L14.465 12.2229C13.75 12.7308 12.8834 13 12.0001 13C11.1168 13 10.2502 12.7308 9.53525 12.223L3 7.58155ZM19.773 6H4.22714L10.6933 10.5924C11.0597 10.8526 11.5191 11 12.0001 11C12.481 11 12.9404 10.8527 13.3068 10.5924L19.773 6Z" fill="black"/>
</svg>
