<svg width="24" height="24" viewBox="0 0 24 24" fill="none" xmlns="http://www.w3.org/2000/svg">
<path fill-rule="evenodd" clip-rule="evenodd" d="M22.4866 14.561V4.28571C22.4866 2.9744 21.3819 2 20.1314 2H3.86888C2.61839 2 1.51367 2.9744 1.51367 4.28571V19.7143C1.51367 21.0256 2.61839 22 3.86888 22H7.92667L7.93457 22L7.94247 22H20.1314C21.3819 22 22.4866 21.0256 22.4866 19.7143V14.5819C22.4867 14.5784 22.4867 14.5749 22.4867 14.5714C22.4867 14.5679 22.4867 14.5644 22.4866 14.561ZM3.51367 4.28571C3.51367 4.17687 3.62245 4 3.86888 4H20.1314C20.3779 4 20.4866 4.17687 20.4866 4.28571V7.14288H3.51367V4.28571ZM3.51367 9.14288H6.93457V20H3.86888C3.62245 20 3.51367 19.8231 3.51367 19.7143V9.14288ZM8.93457 15.5714V20H20.1314C20.3779 20 20.4866 19.8231 20.4866 19.7143V15.5714H8.93457ZM20.4866 13.5714H8.93457V9.14288H20.4866V13.5714Z" fill="black"/>
</svg>
