<svg width="24" height="24" viewBox="0 0 24 24" fill="none" xmlns="http://www.w3.org/2000/svg">
<g clip-path="url(#clip0_2622_4224)">
<path fill-rule="evenodd" clip-rule="evenodd" d="M17.1973 1C16.5344 1 15.8986 1.26329 15.4298 1.73197L11.7178 5.44298C11.7046 5.45616 11.6919 5.46962 11.6796 5.48333L5.35391 11.809C5.22578 11.9371 5.13487 12.0977 5.09091 12.2735L4.02991 16.5155C3.94468 16.8562 4.04448 17.2167 4.29282 17.4651C4.54116 17.7135 4.90162 17.8134 5.2424 17.7283L9.4854 16.6683C9.66129 16.6243 9.82193 16.5334 9.95013 16.4052L16.3141 10.0412L16.3239 10.0313L19.319 7.03542L19.6727 7.3892C19.7664 7.48295 19.819 7.61006 19.819 7.74259C19.819 7.87513 19.7663 8.00234 19.6726 8.09609L16.3617 11.407C15.9712 11.7975 15.9712 12.4307 16.3617 12.8212C16.7523 13.2117 17.3854 13.2117 17.776 12.8212L21.0871 9.51009C21.5557 9.04127 21.819 8.4055 21.819 7.74259C21.819 7.07969 21.5556 6.44381 21.087 5.97499L20.5854 5.47343C20.6984 5.18537 20.758 4.8761 20.758 4.56068C20.758 3.89777 20.4946 3.26189 20.0259 2.79307L18.9648 1.73197C18.496 1.26329 17.8602 1 17.1973 1ZM18.6148 4.91093C18.7065 4.81749 18.758 4.69173 18.758 4.56068C18.758 4.42815 18.7054 4.30104 18.6117 4.20729L17.5508 3.14639C17.4571 3.05272 17.3298 3 17.1973 3C17.1569 3 17.1169 3.0049 17.0783 3.01437C16.9903 3.03595 16.909 3.08125 16.8438 3.14638L13.8383 6.15113L15.6069 7.91972L18.6061 4.91972L18.6117 4.91399L18.6148 4.91093ZM12.425 7.56631L6.96394 13.0274L6.37452 15.384L8.73183 14.7951L14.1928 9.3341L12.425 7.56631Z" fill="black"/>
<path d="M3.58314 22.0236C3.46043 21.9931 3.33224 21.9922 3.20909 22.0208C3.08594 22.0495 2.97135 22.1069 2.87469 22.1884C2.66715 22.3635 1.87455 23.0588 1.67398 23.2418C1.26598 23.614 0.633479 23.585 0.261252 23.177C-0.110974 22.769 -0.0819712 22.1365 0.326032 21.7642C0.54579 21.5638 1.35792 20.8513 1.58532 20.6595C1.92361 20.3743 2.32471 20.1732 2.75571 20.0729C3.18083 19.9739 3.6231 19.9758 4.04724 20.0781C4.47922 20.1719 4.87938 20.3768 5.20809 20.6727C5.34062 20.7919 5.45966 20.9243 5.56362 21.0674L5.93249 20.8517C6.4318 20.5638 7.00754 20.4363 7.58171 20.4866C8.16694 20.5378 8.73288 20.7931 9.15761 21.1435C9.15693 21.1428 9.15662 21.1425 9.15669 21.1424C9.15689 21.1421 9.16055 21.1441 9.16826 21.1483C9.1898 21.1602 9.24294 21.1893 9.34053 21.2338C9.4898 21.3018 9.6855 21.38 9.90359 21.456C10.3587 21.6146 10.8126 21.7298 11.0872 21.7538C11.7564 21.8124 12.0584 21.7512 12.4222 21.5807C12.9223 21.3463 13.5177 21.5616 13.7521 22.0617C13.9866 22.5617 13.7712 23.1571 13.2712 23.3916C12.5093 23.7488 11.8347 23.8269 10.9128 23.7462C10.3919 23.7006 9.7541 23.5219 9.24523 23.3445C8.98134 23.2525 8.727 23.1521 8.51116 23.0537C8.32735 22.97 8.07503 22.8456 7.88965 22.6902C7.74706 22.5707 7.55413 22.4918 7.40732 22.479C7.24248 22.4645 7.07719 22.5009 6.93363 22.5831L5.5978 23.3642C5.131 23.6372 4.53176 23.4896 4.24509 23.0311C4.19528 22.9514 4.14406 22.8559 4.10432 22.7415C4.06464 22.6274 4.04971 22.5313 4.04321 22.4882L4.03767 22.4508L4.03674 22.4447L4.03605 22.4412C4.03573 22.4396 4.03303 22.4262 4.02313 22.3955C3.99386 22.3046 3.94106 22.2231 3.87009 22.1592C3.79912 22.0953 3.71251 22.0513 3.61905 22.0318C3.60703 22.0292 3.59506 22.0265 3.58314 22.0236Z" fill="black"/>
<path d="M18.5616 16.1954C18.7378 16.0685 18.9494 16.0001 19.1665 16C19.4408 16.0002 19.7037 16.1093 19.8976 16.3033C20.0915 16.4972 20.2004 16.7601 20.2006 17.0343C20.2002 17.2596 20.1105 17.4758 19.9514 17.6354L16.293 21.2928C16.007 21.5788 15.9214 22.0089 16.0761 22.3826C16.2309 22.7563 16.5955 23 17 23H21.2006C21.7529 23 22.2006 22.5523 22.2006 22C22.2006 21.4477 21.7529 21 21.2006 21H19.4147L21.367 19.0482C21.9 18.5141 22.1997 17.7906 22.2006 17.0361C22.2006 16.2314 21.881 15.4585 21.3122 14.8894C20.7433 14.3203 19.971 14.0004 19.1663 14C18.5296 14.0002 17.9091 14.2005 17.3925 14.5727C16.8759 14.9449 16.4894 15.4701 16.2877 16.074C16.1127 16.5979 16.3955 17.1644 16.9194 17.3393C17.4432 17.5143 18.0097 17.2315 18.1847 16.7077C18.2535 16.5016 18.3854 16.3224 18.5616 16.1954Z" fill="black"/>
</g>
<defs>
<clipPath id="clip0_2622_4224">
<rect width="24" height="24" fill="white"/>
</clipPath>
</defs>
</svg>
