<svg width="24" height="24" viewBox="0 0 24 24" fill="none" xmlns="http://www.w3.org/2000/svg">
<path fill-rule="evenodd" clip-rule="evenodd" d="M3.33333 3C3.14784 3 3 3.14784 3 3.33333V6C3 6.55228 2.55228 7 2 7C1.44772 7 1 6.55228 1 6V3.33333C1 2.04327 2.04327 1 3.33333 1H6C6.55228 1 7 1.44772 7 2C7 2.55228 6.55228 3 6 3H3.33333ZM16.9999 2C16.9999 1.44772 17.4476 1 17.9999 1H20.6666C21.9566 1 22.9999 2.04327 22.9999 3.33333V6C22.9999 6.55228 22.5522 7 21.9999 7C21.4476 7 20.9999 6.55228 20.9999 6V3.33333C20.9999 3.14784 20.8521 3 20.6666 3H17.9999C17.4476 3 16.9999 2.55228 16.9999 2ZM7.33312 6.33339C7.8854 6.33339 8.33312 6.7811 8.33312 7.33339V9.33339C8.33312 9.88567 7.8854 10.3334 7.33312 10.3334C6.78083 10.3334 6.33312 9.88567 6.33312 9.33339V7.33339C6.33312 6.7811 6.78083 6.33339 7.33312 6.33339ZM12.0002 6.33339C12.5525 6.33339 13.0002 6.7811 13.0002 7.33339V12.0001C13.0002 13.2901 11.9569 14.3334 10.6669 14.3334H10.0002C9.44793 14.3334 9.00022 13.8857 9.00022 13.3334C9.00022 12.7811 9.44793 12.3334 10.0002 12.3334H10.6669C10.8524 12.3334 11.0002 12.1855 11.0002 12.0001V7.33339C11.0002 6.7811 11.4479 6.33339 12.0002 6.33339ZM16.6669 6.33339C17.2192 6.33339 17.6669 6.7811 17.6669 7.33339V9.33339C17.6669 9.88567 17.2192 10.3334 16.6669 10.3334C16.1146 10.3334 15.6669 9.88567 15.6669 9.33339V7.33339C15.6669 6.7811 16.1146 6.33339 16.6669 6.33339ZM7.26021 15.7804C7.63188 15.3719 8.26434 15.3421 8.67285 15.7137C10.558 17.4288 13.4418 17.4288 15.3269 15.7137C15.7354 15.3421 16.3679 15.3719 16.7396 15.7804C17.1112 16.1889 17.0814 16.8214 16.6729 17.1931C14.0247 19.6024 9.9751 19.6024 7.32693 17.1931C6.91842 16.8214 6.88855 16.1889 7.26021 15.7804ZM2 17C2.55228 17 3 17.4477 3 18V20.6667C3 20.8522 3.14784 21 3.33333 21H6C6.55228 21 7 21.4477 7 22C7 22.5523 6.55228 23 6 23H3.33333C2.04327 23 1 21.9568 1 20.6667V18C1 17.4477 1.44772 17 2 17ZM21.9999 17C22.5522 17 22.9999 17.4477 22.9999 18V20.6667C22.9999 21.9568 21.9566 23 20.6666 23H17.9999C17.4476 23 16.9999 22.5523 16.9999 22C16.9999 21.4477 17.4476 21 17.9999 21H20.6666C20.8521 21 20.9999 20.8522 20.9999 20.6667V18C20.9999 17.4477 21.4476 17 21.9999 17Z" fill="black"/>
</svg>
