<svg width="24" height="24" viewBox="0 0 24 24" fill="none" xmlns="http://www.w3.org/2000/svg">
<g clip-path="url(#clip0_5284_1376)">
<path fill-rule="evenodd" clip-rule="evenodd" d="M13.4433 2.50145C12.0806 2.34182 10.6998 2.54843 9.46414 3.0931C8.22892 3.63758 7.19682 4.49394 6.47951 5.55165C5.76288 6.60835 5.38745 7.82535 5.38746 9.06121C5.38746 9.73748 4.83924 10.2857 4.16297 10.2857C3.48671 10.2857 2.93848 9.73749 2.93848 9.06123C2.93847 7.32472 3.46693 5.63061 4.45266 4.1771C5.43771 2.72459 6.83624 1.57512 8.47635 0.852171C10.116 0.129406 11.9367 -0.140763 13.7282 0.0691024C15.5198 0.27898 17.2187 0.961602 18.6251 2.04649C19.1606 2.45955 19.2599 3.22847 18.8468 3.76394C18.4337 4.29941 17.6648 4.39864 17.1294 3.98559C16.0837 3.17897 14.8058 2.66106 13.4433 2.50145Z" fill="#C7C8D3"/>
<path fill-rule="evenodd" clip-rule="evenodd" d="M4.16297 11.7551C4.83924 11.7551 5.38746 12.3033 5.38746 12.9796L5.38746 15.0277C5.38644 15.9386 5.6026 16.8418 6.02467 17.6733C6.44697 18.5054 7.06665 19.2481 7.84552 19.8436C8.38273 20.2544 8.48523 21.0229 8.07446 21.5601C7.66368 22.0973 6.89518 22.1998 6.35797 21.7891C5.29667 20.9776 4.43486 19.952 3.84088 18.7817C3.24677 17.6112 2.93712 16.3281 2.93848 15.0256V12.9796C2.93848 12.3033 3.4867 11.7551 4.16297 11.7551Z" fill="#60627B"/>
<path fill-rule="evenodd" clip-rule="evenodd" d="M11.8024 3.93877C12.7147 3.8544 13.6306 4.03252 14.4466 4.45102C15.2624 4.86936 15.9441 5.51013 16.4187 6.29773C16.8931 7.08507 17.143 7.98969 17.143 8.91049V14.9387C17.143 15.615 16.5948 16.1632 15.9185 16.1632C15.2422 16.1632 14.694 15.615 14.694 14.9387V8.91049C14.694 8.43189 14.564 7.96475 14.3211 7.5617C14.0784 7.15889 13.7337 6.83765 13.3291 6.63016C12.9248 6.42283 12.4745 6.33604 12.0279 6.37734C11.5812 6.41865 11.1516 6.5869 10.7875 6.86692C10.2515 7.27925 9.48272 7.17897 9.0704 6.64294C8.65807 6.10692 8.75835 5.33813 9.29437 4.9258C10.0219 4.36618 10.8902 4.02313 11.8024 3.93877Z" fill="#C7C8D3"/>
<path fill-rule="evenodd" clip-rule="evenodd" d="M8.08093 7.83679C8.7572 7.83679 9.30542 8.38501 9.30542 9.06128V15.0891C9.30582 15.5271 9.40756 15.9543 9.59692 16.3312C9.7862 16.708 10.0545 17.0182 10.3698 17.2405C10.6844 17.4624 11.0376 17.5915 11.3973 17.6243C11.7567 17.6571 12.1209 17.5937 12.459 17.4351C13.0713 17.148 13.8004 17.4116 14.0876 18.0239C14.3747 18.6362 14.111 19.3653 13.4988 19.6525C12.7719 19.9933 11.9725 20.136 11.1746 20.0631C10.377 19.9903 9.61546 19.7053 8.95834 19.2418C8.30188 18.7789 7.77197 18.1541 7.40852 17.4305C7.04522 16.7073 6.85706 15.9034 6.85645 15.0905L6.85645 9.06128C6.85645 8.38501 7.40467 7.83679 8.08093 7.83679Z" fill="#60627B"/>
<path fill-rule="evenodd" clip-rule="evenodd" d="M11.9999 8.81628C12.6761 8.81628 13.2244 9.36451 13.2244 10.0408V13.9591C13.2244 14.6354 12.6761 15.1836 11.9999 15.1836C11.3236 15.1836 10.7754 14.6354 10.7754 13.9591V10.0408C10.7754 9.36451 11.3236 8.81628 11.9999 8.81628Z" fill="#60627B"/>
<path d="M18.8858 5.96044C19.5163 5.71582 20.2257 6.02863 20.4703 6.6591C20.8624 7.66976 21.0628 8.74501 21.0614 9.82945C21.0608 10.2946 21.0608 11.6564 21.0609 12.9032L21.0614 15.2795C21.0614 17.5903 20.1479 19.8076 18.52 21.4434C16.8919 23.0794 14.6824 23.9997 12.3772 24C11.848 24 11.3198 23.9519 10.7993 23.8562C10.1342 23.734 9.69406 23.0958 9.81628 22.4306C9.93849 21.7655 10.5768 21.3254 11.2419 21.4476C11.6164 21.5164 11.9963 21.551 12.3769 21.551C14.0289 21.5508 15.6143 20.8913 16.7841 19.7159C17.954 18.5403 18.6124 16.9447 18.6124 15.2798L18.612 12.9035C18.6118 11.6576 18.6118 10.2936 18.6124 9.82622C18.6134 9.06225 18.4752 8.3048 18.2049 7.59133L18.1871 7.54493C17.9425 6.91445 18.2553 6.20505 18.8858 5.96044Z" fill="#60627B"/>
</g>
<defs>
<clipPath id="clip0_5284_1376">
<rect width="24" height="24" fill="white"/>
</clipPath>
</defs>
</svg>
