<svg width="24" height="24" viewBox="0 0 24 24" fill="none" xmlns="http://www.w3.org/2000/svg">
<path fill-rule="evenodd" clip-rule="evenodd" d="M14.0034 7.99909C11.242 7.99909 9.00342 10.2377 9.00342 12.9991C9.00342 15.7605 11.242 17.9991 14.0034 17.9991C16.7648 17.9991 19.0034 15.7605 19.0034 12.9991C19.0034 10.2377 16.7648 7.99909 14.0034 7.99909ZM11.0034 12.9991C11.0034 11.3422 12.3466 9.99909 14.0034 9.99909C15.6603 9.99909 17.0034 11.3422 17.0034 12.9991C17.0034 14.6559 15.6603 15.9991 14.0034 15.9991C12.3466 15.9991 11.0034 14.6559 11.0034 12.9991Z" fill="black"/>
<path d="M5 8.67912C5.55263 8.67912 6 9.12649 6 9.67912C6 10.2318 5.55263 10.6791 5 10.6791C4.44737 10.6791 4 10.2318 4 9.67912C4 9.12649 4.44737 8.67912 5 8.67912Z" fill="black"/>
<path fill-rule="evenodd" clip-rule="evenodd" d="M11.4933 3C10.6128 3 9.80045 3.4943 9.40674 4.29266L8.71657 5.66667H7V5C7 4.44772 6.55228 4 6 4C5.44772 4 5 4.44772 5 5V5.66667H3.33333C2.04327 5.66667 1 6.70994 1 8V18.6667C1 19.9567 2.04327 21 3.33333 21H20.6667C21.9567 21 23 19.9567 23 18.6667V8C23 6.70994 21.9567 5.66667 20.6667 5.66667H19.286L18.6046 4.29762L18.6031 4.2946C18.2098 3.4951 17.3968 3 16.5156 3H11.4933ZM11.2001 5.17794C11.2518 5.07255 11.3624 5 11.4933 5H16.5156C16.6465 5 16.7571 5.07255 16.8087 5.17794L17.7714 7.11223C17.9405 7.45192 18.2872 7.66667 18.6667 7.66667H20.6667C20.8522 7.66667 21 7.81451 21 8V18.6667C21 18.8522 20.8522 19 20.6667 19H3.33333C3.14784 19 3 18.8522 3 18.6667V8C3 7.81451 3.14784 7.66667 3.33333 7.66667H9.33333C9.71144 7.66667 10.0572 7.45341 10.2269 7.11553L11.1959 5.18666L11.2001 5.17794Z" fill="black"/>
</svg>
