<svg width="24" height="24" viewBox="0 0 24 24" fill="none" xmlns="http://www.w3.org/2000/svg">
<path fill-rule="evenodd" clip-rule="evenodd" d="M15.8414 8.9848C14.5701 5.55596 10.9708 3.43686 7.25104 4.13146L7.24871 4.1319C3.09246 4.91822 0.355358 8.92119 1.1316 13.0782L1.13196 13.0801C1.81597 16.7043 4.98136 19.3307 8.67047 19.3212H17.666C20.6034 19.3212 23.0002 16.9502 23.0002 13.9959C23.0002 11.0585 20.6292 8.66177 17.6749 8.66177C17.0467 8.66177 16.4263 8.77235 15.8414 8.9848ZM7.61934 6.09726C10.6928 5.524 13.65 7.54863 14.2229 10.6096C14.2851 10.9416 14.5107 11.2198 14.8226 11.3492C15.1346 11.4787 15.4909 11.4419 15.7698 11.2514C16.3324 10.8672 16.9975 10.6618 17.6749 10.6618C19.5166 10.6618 21.0002 12.1551 21.0002 13.9959C21.0002 15.8376 19.5069 17.3212 17.666 17.3212L8.66912 17.3212L8.66635 17.3212C5.94398 17.3287 3.60383 15.3908 3.09744 12.7101C2.52437 9.63833 4.54705 6.67915 7.61934 6.09726Z" fill="black"/>
</svg>
