<svg width="24" height="24" viewBox="0 0 24 24" fill="none" xmlns="http://www.w3.org/2000/svg">
<path fill-rule="evenodd" clip-rule="evenodd" d="M6.81877 3.26793C7.20267 2.91069 7.79733 2.91069 8.18123 3.26793L12.1812 6.99015C12.5855 7.36639 12.6083 7.99914 12.2321 8.40345C11.8558 8.80776 11.2231 8.83052 10.8188 8.45429L8.5 6.29655L8.5 16C8.5 16.5523 8.05229 17 7.5 17C6.94772 17 6.5 16.5523 6.5 16L6.5 6.29655L4.18123 8.45429C3.77692 8.83052 3.14417 8.80776 2.76794 8.40345C2.3917 7.99914 2.41446 7.36639 2.81877 6.99015L6.81877 3.26793ZM16.5 7C17.0523 7 17.5 7.44772 17.5 8V17.7035L19.8188 15.5457C20.2231 15.1695 20.8558 15.1922 21.2321 15.5965C21.6083 16.0009 21.5855 16.6336 21.1812 17.0098L17.1812 20.7321C16.7973 21.0893 16.2027 21.0893 15.8188 20.7321L11.8188 17.0098C11.4145 16.6336 11.3917 16.0009 11.7679 15.5965C12.1442 15.1922 12.7769 15.1695 13.1812 15.5457L15.5 17.7035V8C15.5 7.44772 15.9477 7 16.5 7Z" fill="black"/>
</svg>
