<svg width="24" height="24" viewBox="0 0 24 24" fill="none" xmlns="http://www.w3.org/2000/svg">
<path d="M4 3C4 1.34315 5.34315 0 7 0H17C18.6569 0 20 1.34315 20 3V20H4V3Z" fill="#C7C8D3"/>
<circle cx="12" cy="12.5" r="1.5" fill="#C7C8D3"/>
<path d="M4 21C4 22.6569 5.34315 24 7 24H17C18.6569 24 20 22.6569 20 21V20H4V21Z" fill="#60627B"/>
<path d="M10.7829 6.23516C11.1677 6.07183 11.5823 5.99184 12 6.00066C12.4177 5.99184 12.8323 6.07183 13.2171 6.23516C13.608 6.40108 13.9587 6.64899 14.2465 6.96156C14.5342 7.27409 14.7525 7.64421 14.888 8.04708C15.0198 8.43907 15.0703 8.85399 15.0369 9.26603C15.0342 10.1295 14.9171 10.7892 14.7055 11.3307C14.4912 11.8794 14.197 12.2623 13.9124 12.5814L13.9116 12.583C13.9076 12.5911 13.8925 12.6219 13.8783 12.6857C13.8579 12.7775 13.8499 12.893 13.8598 13.0086C13.8678 13.1022 13.8857 13.1742 13.903 13.2212C15.0344 13.5804 16.1229 14.0667 17.148 14.6711C17.4262 14.835 17.5598 15.164 17.4745 15.4744C17.3891 15.7848 17.1058 16 16.7826 16H7.21745C6.89422 16 6.6109 15.7848 6.52554 15.4744C6.44017 15.164 6.57383 14.835 6.85197 14.6711C7.87715 14.0667 8.96555 13.5804 10.097 13.2212C10.1143 13.1742 10.1322 13.1022 10.1402 13.0086C10.1501 12.893 10.1421 12.7775 10.1217 12.6857C10.1075 12.6219 10.0924 12.5911 10.0884 12.583L10.0876 12.5814C9.8027 12.2619 9.5086 11.8784 9.29439 11.3296C9.08299 10.788 8.96582 10.1284 8.96306 9.26603C8.92966 8.85399 8.98024 8.43907 9.11203 8.04708C9.24747 7.64421 9.46582 7.27409 9.75354 6.96156C10.0413 6.64899 10.392 6.40108 10.7829 6.23516Z" fill="#60627B"/>
<path d="M4 3C4 1.34315 5.34315 0 7 0H17C18.6569 0 20 1.34315 20 3V20H4V3Z" fill="#C7C8D3"/>
<path d="M13.5 12.5C13.5 13.3284 12.8284 14 12 14C11.1716 14 10.5 13.3284 10.5 12.5C10.5 11.6716 11.1716 11 12 11C12.8284 11 13.5 11.6716 13.5 12.5Z" fill="#C7C8D3"/>
<path d="M4 21C4 22.6569 5.34315 24 7 24H17C18.6569 24 20 22.6569 20 21V20H4V21Z" fill="#60627B"/>
<path d="M10.7829 6.23516C11.1677 6.07183 11.5823 5.99184 12 6.00066C12.4177 5.99184 12.8323 6.07183 13.2171 6.23516C13.608 6.40108 13.9587 6.64899 14.2465 6.96156C14.5342 7.27409 14.7525 7.64421 14.888 8.04708C15.0198 8.43907 15.0703 8.85399 15.0369 9.26603C15.0342 10.1295 14.9171 10.7892 14.7055 11.3307C14.4912 11.8794 14.197 12.2623 13.9124 12.5814L13.9116 12.583C13.9076 12.5911 13.8925 12.6219 13.8783 12.6857C13.8579 12.7775 13.8499 12.893 13.8598 13.0086C13.8678 13.1022 13.8857 13.1742 13.903 13.2212C15.0344 13.5804 16.1229 14.0667 17.148 14.6711C17.4262 14.835 17.5598 15.164 17.4745 15.4744C17.3891 15.7848 17.1058 16 16.7826 16H7.21745C6.89422 16 6.6109 15.7848 6.52554 15.4744C6.44017 15.164 6.57383 14.835 6.85197 14.6711C7.87715 14.0667 8.96555 13.5804 10.097 13.2212C10.1143 13.1742 10.1322 13.1022 10.1402 13.0086C10.1501 12.893 10.1421 12.7775 10.1217 12.6857C10.1075 12.6219 10.0924 12.5911 10.0884 12.583L10.0876 12.5814C9.8027 12.2619 9.5086 11.8784 9.29439 11.3296C9.08299 10.788 8.96582 10.1284 8.96306 9.26603C8.92966 8.85399 8.98024 8.43907 9.11203 8.04708C9.24747 7.64421 9.46582 7.27409 9.75354 6.96156C10.0413 6.64899 10.392 6.40108 10.7829 6.23516Z" fill="#60627B"/>
</svg>
