<svg width="24" height="24" viewBox="0 0 24 24" fill="none" xmlns="http://www.w3.org/2000/svg">
<path fill-rule="evenodd" clip-rule="evenodd" d="M13.531 8.30432C13.0456 8.1033 12.5254 7.99989 12 8C11.209 8.00005 10.4355 8.23462 9.77783 8.67405C9.12006 9.11353 8.60737 9.73818 8.30459 10.469C8.0018 11.1999 7.92253 12.0041 8.07678 12.78C8.23104 13.5559 8.61189 14.2686 9.1712 14.828C9.7305 15.3875 10.4431 15.7685 11.219 15.923C11.9948 16.0775 12.7991 15.9984 13.53 15.6958C14.2609 15.3932 14.8857 14.8807 15.3254 14.2231C15.765 13.5655 15.9997 12.7921 16 12.0011C16.0002 11.4757 15.897 10.9554 15.6961 10.47C15.4952 9.98448 15.2005 9.54331 14.829 9.17172C14.4575 8.80012 14.0164 8.50537 13.531 8.30432ZM12.0003 10C12.2629 9.99993 12.5231 10.0516 12.7657 10.1521C13.0084 10.2526 13.2289 10.4 13.4146 10.5857C13.6004 10.7715 13.7476 10.992 13.8481 11.2348C13.9485 11.4775 14.0001 11.7379 14 12.0005C13.9999 12.3961 13.8825 12.7827 13.6627 13.1115C13.4429 13.4404 13.1305 13.6966 12.765 13.8479C12.3995 13.9992 11.9974 14.0387 11.6095 13.9615C11.2216 13.8843 10.8653 13.6937 10.5856 13.414C10.3059 13.1343 10.1155 12.7779 10.0384 12.39C9.96127 12.002 10.0009 11.5999 10.1523 11.2345C10.3037 10.8691 10.56 10.5568 10.8889 10.337C11.2178 10.1173 11.6047 10 12.0003 10Z" fill="black"/>
<path fill-rule="evenodd" clip-rule="evenodd" d="M22.3599 10.3365C19.9529 7.69 15.9995 4.94136 11.9987 5.00095C7.99783 4.94136 4.04433 7.68997 1.63971 10.3369L1.63686 10.34C1.22687 10.7952 1 11.3861 1 11.9987C1 12.6113 1.22687 13.2021 1.63686 13.6573L1.63951 13.6602C3.98926 16.2483 7.93258 19.0596 11.9987 18.9991C16.0647 19.0596 20.0089 16.2484 22.3602 13.6605L22.3631 13.6573C22.7731 13.2021 23 12.6113 23 11.9987C23 11.3861 22.7731 10.7952 22.3632 10.34L22.3599 10.3365ZM3 11.9987C3 11.881 3.0434 11.7674 3.12187 11.6797C5.37352 9.20202 8.82293 6.94765 11.9818 7.00094C11.993 7.00113 12.0043 7.00113 12.0155 7.00094C15.1743 6.94765 18.6237 9.20187 20.8783 11.6799C20.9567 11.7676 21 11.8811 21 11.9987C21 12.1164 20.9566 12.2299 20.8782 12.3176C18.6709 14.746 15.2316 17.0532 12.0155 16.9991C12.0043 16.9989 11.9931 16.9989 11.9818 16.9991C8.7657 17.0532 5.32726 14.746 3.12192 12.3177C3.04342 12.23 3 12.1164 3 11.9987Z" fill="black"/>
</svg>
