<svg width="24" height="24" viewBox="0 0 24 24" fill="none" xmlns="http://www.w3.org/2000/svg">
<path d="M7.25342 1.13159C10.9742 0.436459 14.5739 2.55656 15.8464 5.98662C18.5147 5.01411 21.498 6.30658 22.5952 8.94974C22.807 9.45982 22.5651 10.045 22.055 10.2567C21.5449 10.4685 20.9598 10.2266 20.748 9.71653C20.0447 8.02229 18.0973 7.21417 16.394 7.9191L16.3881 7.92153C16.1826 8.00504 15.9781 8.11918 15.7736 8.25806C15.4945 8.44752 15.1387 8.48353 14.8273 8.35382C14.516 8.22411 14.291 7.94617 14.2289 7.61462C13.6555 4.54992 10.6965 2.52359 7.62186 3.09736C4.54831 3.67979 2.52401 6.64196 3.09749 9.71761C3.60423 12.4016 5.94591 14.3413 8.66938 14.3338C9.22166 14.3322 9.67061 14.7787 9.67214 15.331C9.67368 15.8833 9.2272 16.3322 8.67492 16.3338C4.98337 16.344 1.81625 13.7148 1.13199 10.0875L1.13163 10.0856C0.355219 5.92563 3.09285 1.91911 7.25109 1.13203L7.25342 1.13159Z" fill="black"/>
<path d="M17.8227 12.5469C15.7491 11.8439 13.5087 12.9448 12.7995 15.0097C12.62 15.5321 12.0512 15.8101 11.5288 15.6307C11.0065 15.4513 10.7285 14.8824 10.9079 14.3601C11.9757 11.2514 15.3505 9.59638 18.4658 10.6531L18.467 10.6535C19.4606 10.9919 20.3279 11.583 21.0002 12.3457V12C21.0002 11.4477 21.4479 11 22.0002 11C22.5525 11 23.0002 11.4477 23.0002 12V15.3337C23.0002 15.886 22.5525 16.3337 22.0002 16.3337H21.4208C21.404 16.3342 21.3872 16.3341 21.3704 16.3337H18.6681C18.1159 16.3337 17.6681 15.886 17.6681 15.3337C17.6681 14.7814 18.1159 14.3337 18.6681 14.3337H19.9743C19.5049 13.5063 18.7445 12.861 17.8227 12.5469Z" fill="black"/>
<path d="M12.3381 21.3345V20.9889C13.0104 21.7516 13.8777 22.3427 14.8713 22.6811L14.8724 22.6815C17.9878 23.7382 21.3626 22.0833 22.4304 18.9746C22.6098 18.4522 22.3318 17.8834 21.8094 17.704C21.2871 17.5245 20.7182 17.8025 20.5388 18.3249C19.8296 20.3899 17.5891 21.4907 15.5155 20.7877C14.5937 20.4736 13.8333 19.8282 13.3639 19.0008H14.6701C15.2224 19.0008 15.6701 18.5531 15.6701 18.0008C15.6701 17.4485 15.2224 17.0008 14.6701 17.0008H11.962C11.9491 17.0005 11.9363 17.0005 11.9234 17.0008H11.3381C10.7858 17.0008 10.3381 17.4485 10.3381 18.0008V21.3345C10.3381 21.8867 10.7858 22.3345 11.3381 22.3345C11.8904 22.3345 12.3381 21.8867 12.3381 21.3345Z" fill="black"/>
</svg>
