<svg width="24" height="24" viewBox="0 0 24 24" fill="none" xmlns="http://www.w3.org/2000/svg">
<path fill-rule="evenodd" clip-rule="evenodd" d="M1.67028 2.71191C2.10469 2.26078 2.70211 2 3.33339 2H7.3333C7.96458 2 8.562 2.26078 8.99642 2.71191C9.42959 3.16176 9.6666 3.76411 9.6666 4.38462V4.76923H17.9997C18.631 4.76923 19.2284 5.03001 19.6628 5.48114C20.096 5.93099 20.333 6.53333 20.333 7.15385V8.92308H20.666C21.0299 8.923 21.3878 9.00987 21.711 9.17511C22.0341 9.3403 22.3127 9.5786 22.5275 9.86874C22.7422 10.1587 22.888 10.4935 22.9561 10.8466C23.0234 11.1959 23.0134 11.5564 22.9266 11.9014L20.9731 20.2008L20.9683 20.2201C20.8399 20.7208 20.5541 21.1705 20.1472 21.4951C19.7398 21.8201 19.2349 22.0001 18.7108 22H3.5085C3.41499 22 3.32448 21.9872 3.23863 21.9632C3.21882 21.961 3.19902 21.9585 3.17921 21.9558C2.57088 21.8729 2.01962 21.5662 1.62257 21.1026C1.22626 20.64 1.00825 20.0509 1.00018 19.4441L1 19.4308L1.00009 4.38462C1.00009 3.7641 1.2371 3.16176 1.67028 2.71191ZM5.9538 20H18.7108C18.7745 20 18.8413 19.9785 18.8999 19.9317C18.9577 19.8855 19.0056 19.8162 19.0292 19.7301L20.9818 11.4349L20.9865 11.4156C21.0024 11.3538 21.0044 11.2884 20.9922 11.2252C20.9801 11.1621 20.9545 11.1053 20.9201 11.0588C20.8857 11.0124 20.8441 10.9781 20.8005 10.9558C20.757 10.9336 20.7114 10.9231 20.6667 10.9231H8.33565C8.27304 10.923 8.20779 10.9438 8.14987 10.9889C8.09457 11.0319 8.04789 11.0961 8.02236 11.1761L5.9538 20ZM18.333 8.92308V7.15385C18.333 7.03991 18.2891 6.93789 18.2222 6.86841C18.1565 6.80021 18.0757 6.76923 17.9997 6.76923H8.6666C8.11432 6.76923 7.6666 6.32152 7.6666 5.76923V4.38462C7.6666 4.27068 7.62266 4.16866 7.55576 4.09918C7.49009 4.03098 7.40925 4 7.3333 4H3.33339C3.25744 4 3.1766 4.03098 3.11093 4.09918C3.04403 4.16866 3.00009 4.27068 3.00009 4.38462V19.4226C3.00319 19.5678 3.05611 19.7019 3.14147 19.8015C3.22709 19.9015 3.33773 19.9589 3.44941 19.9741C3.56066 19.9893 3.67671 19.9633 3.77773 19.8941C3.87667 19.8264 3.9573 19.7194 3.99668 19.5858L6.08148 10.6927C6.08474 10.6788 6.0883 10.6649 6.09215 10.6512C6.22923 10.1619 6.51755 9.72504 6.92127 9.41074C7.32556 9.096 7.82253 8.92257 8.33758 8.92308" fill="black"/>
</svg>
