<svg width="28" height="28" viewBox="0 0 28 28" fill="none" xmlns="http://www.w3.org/2000/svg">
<path d="M25.662 15.1715L15.662 25.1715C14.0999 26.7336 11.5672 26.7336 10.0051 25.1715L2.94404 18.1104C1.3376 16.504 1.38998 13.8837 3.05935 12.3428L13.8453 2.38649C14.6858 1.61063 15.8183 1.23173 16.9565 1.34555L23.2316 1.97306C25.2764 2.17754 26.8335 3.89821 26.8335 5.95321V12.3431C26.8335 13.4039 26.4121 14.4214 25.662 15.1715Z" fill="#86E9E9"/>
<path fill-rule="evenodd" clip-rule="evenodd" d="M22.4449 10.4299C23.5839 9.29084 23.5839 7.44411 22.4449 6.30508C21.3059 5.16605 19.4591 5.16605 18.3201 6.30508C17.1811 7.44411 17.1811 9.29084 18.3201 10.4299C19.4591 11.5689 21.3059 11.5689 22.4449 10.4299Z" fill="#0D8B9C"/>
</svg>
