<svg width="24" height="24" viewBox="0 0 24 24" fill="none" xmlns="http://www.w3.org/2000/svg">
<path d="M12.9893 1.99957C12.4371 1.99957 11.9893 2.44729 11.9893 2.99957C11.9893 3.55186 12.4371 3.99957 12.9893 3.99957C14.3679 3.99957 15.089 4.4224 15.468 4.8171C15.8712 5.23712 15.9893 5.7305 15.9893 5.99957V15.9421L10.6072 11.7133C10.1729 11.372 9.54424 11.4475 9.20302 11.8818C8.86181 12.316 8.93725 12.9447 9.37152 13.2859L16.3715 18.7859C16.6725 19.0224 17.0822 19.0663 17.4265 18.899C17.7708 18.7316 17.9893 18.3823 17.9893 17.9995V5.99957C17.9893 5.26864 17.7075 4.26202 16.9107 3.43204C16.0896 2.57674 14.8108 1.99957 12.9893 1.99957Z" fill="black"/>
<path d="M11.0098 22.0004C11.5621 22.0004 12.0098 21.5527 12.0098 21.0004C12.0098 20.4481 11.5621 20.0004 11.0098 20.0004C9.63124 20.0004 8.91007 19.5776 8.53115 19.1829C8.12794 18.7629 8.00977 18.2695 8.00977 18.0004V8.05789L13.3919 12.2867C13.8262 12.628 14.4549 12.5525 14.7961 12.1182C15.1373 11.684 15.0619 11.0553 14.6276 10.7141L7.62759 5.21411C7.32657 4.97759 6.91694 4.93369 6.57263 5.10103C6.22832 5.26838 6.00977 5.61769 6.00977 6.00051V18.0004C6.00977 18.7314 6.29159 19.738 7.08838 20.568C7.90947 21.4233 9.18829 22.0004 11.0098 22.0004Z" fill="black"/>
</svg>
