<svg width="607" height="154" viewBox="0 0 607 154" fill="none" xmlns="http://www.w3.org/2000/svg">
<path d="M191.158 34.5139V65.5792H196.154V40.261L205.196 62.5393H210.458L219.499 40.0169V65.5792H224.495V34.5139H216.824L207.827 56.7034L198.829 34.5139H191.158Z" fill="#12478E"/>
<path d="M242.527 65.5792L245.578 57.6576H259.594L262.644 65.5792H268.016L255.791 34.5139H249.557L237.332 65.5792H242.527ZM247.413 52.909L252.608 39.5065L257.759 52.909H247.413Z" fill="#12478E"/>
<path d="M279.142 50.0466C279.142 60.4091 287.144 66.134 295.125 66.134C304.697 66.134 310.334 58.7449 310.334 49.8247C310.334 49.4252 310.312 49.0258 310.29 48.6264H296.672V53.2862H304.874C304.078 58.412 300.762 61.341 295.125 61.341C289.023 61.341 284.381 56.7478 284.381 50.0466C284.381 43.3453 289.024 38.7521 295.346 38.7521C298.795 38.7521 301.713 40.1944 303.658 42.5243L307.328 38.9518C304.52 35.8009 300.276 33.937 295.346 33.937C285.951 33.937 279.142 40.7048 279.142 50.0466Z" fill="#12478E"/>
<path d="M331.26 52.8868V65.5792H336.257V52.9756L348.194 34.5139H342.38L333.803 48.4267L325.203 34.5139H319.234L331.26 52.8868Z" fill="#12478E"/>
<path d="M359.579 65.5792L362.63 57.6576H376.645L379.696 65.5792H385.068L372.843 34.5139H366.609L354.384 65.5792H359.579ZM364.464 52.909L369.66 39.5065L374.81 52.909H364.464Z" fill="#12478E"/>
<path d="M402.87 65.5792V52.5096H405.412L415.25 65.5792H421.439L411.27 52.5096C417.549 52.2877 421.572 48.7596 421.572 43.5006C421.572 37.7092 417.726 34.5139 410.607 34.5139H397.874V65.5792H402.87ZM402.87 39.2181H410.475C414.387 39.2181 416.377 40.5494 416.377 43.5006C416.377 46.4962 414.498 47.9607 410.475 47.9607H402.87V39.2181Z" fill="#12478E"/>
<path d="M204.047 119.095C210.767 119.095 215.122 116.521 215.122 110.619C215.122 106.691 212.845 104.028 209.197 103.097C212.314 102.165 214.481 99.8569 214.481 96.0846C214.481 90.2932 209.971 88.0298 203.538 88.0298H191.578V119.095H204.047ZM194.275 116.543V104.561H203.936C208.998 104.561 212.314 106.026 212.314 110.53C212.314 115.034 208.976 116.543 203.936 116.543H194.275ZM194.275 102.009V90.5816H203.45C208.18 90.5816 211.651 91.913 211.651 96.2621C211.651 100.678 208.203 102.009 203.472 102.009H194.275Z" fill="#12478E"/>
<path d="M229.307 119.095L233.065 110.02H249.159L252.917 119.095H255.813L242.815 88.0298H239.499L226.5 119.095H229.307ZM234.149 107.446L241.112 90.6704L248.076 107.446H234.149Z" fill="#12478E"/>
<path d="M269.282 88.0298V119.095H271.957V92.6896L292.251 119.095H294.66V88.0298H291.985V114.435L271.691 88.0298H269.282Z" fill="#12478E"/>
<path d="M311.868 88.0298V119.095H314.565V104.761H318.655L333.047 119.095H336.716L320.866 103.318L335.788 88.0298H332.295L318.699 102.187H314.565V88.0298H311.868Z" fill="#12478E"/>
<path d="M352.748 119.095V104.739H372.688V119.095H375.385V88.0298H372.688V102.165H352.748V88.0298H350.051V119.095H352.748Z" fill="#12478E"/>
<path d="M390.759 103.563C390.759 112.882 397.568 119.45 406.61 119.45C415.652 119.45 422.461 112.882 422.461 103.563C422.461 94.2429 415.652 87.6748 406.61 87.6748C397.568 87.6748 390.759 94.2429 390.759 103.563ZM393.567 103.563C393.567 95.6409 399.271 90.2931 406.61 90.2931C413.927 90.2931 419.631 95.6409 419.631 103.563C419.631 111.484 413.927 116.832 406.61 116.832C399.271 116.832 393.567 111.484 393.567 103.563Z" fill="#12478E"/>
<path d="M440.512 116.521V88.0298H437.815V119.095H458.882V116.521H440.512Z" fill="#12478E"/>
<path d="M483.667 119.095C493.969 119.095 500.402 113.104 500.402 103.563C500.402 94.021 493.969 88.0298 483.667 88.0298H472.37V119.095H483.667ZM475.067 116.521V90.6038H483.667C492.664 90.6038 497.572 95.663 497.572 103.563C497.572 111.44 492.664 116.521 483.667 116.521H475.067Z" fill="#12478E"/>
<path d="M515.777 119.095H518.474V88.0298H515.777V119.095Z" fill="#12478E"/>
<path d="M535.653 88.0298V119.095H538.327V92.6896L558.621 119.095H561.031V88.0298H558.356V114.435L538.062 88.0298H535.653Z" fill="#12478E"/>
<path d="M576.382 103.563C576.382 113.415 583.854 119.406 592.122 119.406C601.252 119.406 607 112.594 607 103.452V102.764H593.581V105.138H604.215C603.839 112.372 599.263 116.965 592.122 116.965C584.849 116.965 579.057 111.573 579.057 103.563C579.057 95.5521 584.849 90.16 592.233 90.16C596.322 90.16 599.948 91.9352 602.336 94.842L604.237 93.0003C601.385 89.694 597.074 87.697 592.233 87.697C583.257 87.697 576.382 94.2207 576.382 103.563Z" fill="#12478E"/>
<path fill-rule="evenodd" clip-rule="evenodd" d="M0 77C0 34.4741 34.4741 0 77 0C119.526 0 154 34.4741 154 77C154 119.526 119.526 154 77 154C34.4741 154 0 119.526 0 77ZM59.3684 9.98242C35.2746 16.304 16.304 35.2746 9.98242 59.3684L59.3684 9.98242ZM9.98758 94.6513C16.3142 118.735 35.2803 137.697 59.3668 144.017L9.98758 94.6513ZM94.6515 144.012C118.735 137.686 137.697 118.72 144.017 94.6335L94.6515 144.012ZM144.012 59.3469C137.687 35.2705 118.73 16.3135 94.6531 9.98807L144.012 59.3469ZM84.8362 11.0873C80.5122 6.76328 73.5037 6.76328 69.1797 11.0873L46.7377 33.5293H107.278L84.8362 11.0873ZM120.477 46.7281V107.262L142.912 84.8208C147.236 80.4968 147.237 73.4879 142.913 69.1639L120.477 46.7281ZM107.272 120.471L84.8362 142.913C80.5122 147.237 73.5037 147.237 69.1797 142.913L46.7316 120.471H107.272ZM33.5356 107.278L11.0874 84.8361C6.76374 80.5121 6.7635 73.5035 11.0874 69.1796L33.5356 46.7314V107.278ZM41.2545 41.2481H112.758V112.752H41.2545V41.2481Z" fill="url(#paint0_linear_32_64)"/>
<defs>
<linearGradient id="paint0_linear_32_64" x1="30.1526" y1="13.4068" x2="76.4395" y2="153.636" gradientUnits="userSpaceOnUse">
<stop stop-color="#90A0B6"/>
<stop offset="0.526042" stop-color="#BECBDD"/>
<stop offset="1" stop-color="#A4B4CA"/>
</linearGradient>
</defs>
</svg>
