<svg width="24" height="24" viewBox="0 0 24 24" fill="none" xmlns="http://www.w3.org/2000/svg">
<path d="M3 6.32979C3 6.15015 3.14673 6 3.33331 6H20.6664C20.853 6 20.9997 6.15015 20.9997 6.32979V8.97595C20.9997 9.52824 21.4474 9.97595 21.9997 9.97595C22.552 9.97595 22.9997 9.52824 22.9997 8.97595V6.32979C22.9997 5.04059 21.9526 4 20.6664 4H3.33331C2.04716 4 1 5.04059 1 6.32979V15.6702C1 16.9594 2.04716 18 3.33331 18H8C8.55228 18 9 17.5523 9 17C9 16.4477 8.55228 16 8 16H3.33331C3.14673 16 3 15.8499 3 15.6702V6.32979Z" fill="black"/>
<path d="M10 11C10 9.89543 10.8954 9 12 9C12.2923 9 12.5675 9.06209 12.8152 9.17286C13.0409 9.27378 13.2452 9.41581 13.4183 9.58993C13.5875 9.76008 13.7259 9.95991 13.8251 10.1802C14.0518 10.6838 14.6439 10.9082 15.1475 10.6814C15.651 10.4547 15.8755 9.86265 15.6487 9.35906C15.4496 8.91686 15.173 8.51812 14.8366 8.17981C14.4925 7.83364 14.0847 7.54971 13.6316 7.34709C13.1321 7.12371 12.5791 7 12 7C9.79086 7 8 8.79086 8 11C8 11.5523 8.44772 12 9 12C9.55229 12 10 11.5523 10 11Z" fill="black"/>
<path fill-rule="evenodd" clip-rule="evenodd" d="M10 13.976C10 13.3129 10.2634 12.677 10.7322 12.2082C11.2011 11.7393 11.837 11.476 12.5 11.476H21.5C22.163 11.476 22.7989 11.7393 23.2678 12.2082C23.7366 12.677 24 13.3129 24 13.976V19.976C24 20.639 23.7366 21.2749 23.2678 21.7437C22.7989 22.2126 22.163 22.476 21.5 22.476H12.5C11.837 22.476 11.2011 22.2126 10.7322 21.7437C10.2634 21.2749 10 20.639 10 19.976V13.976ZM22 15.7793V19.976C22 20.1086 21.9473 20.2357 21.8536 20.3295C21.7598 20.4233 21.6326 20.476 21.5 20.476H12.5C12.3674 20.476 12.2402 20.4233 12.1464 20.3295C12.0527 20.2357 12 20.1086 12 19.976V15.7793L15.675 18.0739C16.0723 18.3223 16.5315 18.454 17 18.454C17.4685 18.454 17.9277 18.3223 18.325 18.0739L22 15.7793ZM16.7346 16.3777L12.2222 13.5602C12.3039 13.5057 12.4004 13.476 12.5 13.476H21.5C21.5996 13.476 21.6961 13.5057 21.7778 13.5602L17.2654 16.3777C17.1859 16.4274 17.0937 16.454 17 16.454C16.9063 16.454 16.8141 16.4274 16.7346 16.3777Z" fill="black"/>
</svg>
