<svg width="24" height="24" viewBox="0 0 24 24" fill="none" xmlns="http://www.w3.org/2000/svg">
<g clip-path="url(#clip0_2618_678)">
<path d="M5.8063 2.99955C6.26828 2.98654 14.5668 2.99866 14.8137 2.99993C14.9106 3.00043 15.0069 3.02105 15.0972 3.06122C15.1874 3.10142 15.2704 3.1607 15.3402 3.23668C15.41 3.31258 15.9609 3.90496 16.5994 4.59156L16.9796 5.00042C17.7695 5.84989 18.5767 6.71815 18.7425 6.8983C18.9061 7.07621 19.0003 7.31585 18.9995 7.56869C18.9987 7.82181 18.9987 8.95318 18.9989 10.0179L18.9995 12.0876C18.9997 12.6399 19.4476 13.0874 19.9999 13.0872C20.5522 13.087 20.9997 12.6384 20.9995 12.0861L20.9989 10.0175C20.9987 8.95008 20.9987 7.82379 20.9995 7.5751C21.0019 6.8243 20.7231 6.0972 20.2143 5.54419C20.0438 5.35887 19.2308 4.48434 18.4442 3.63846L18.0656 3.23129C17.4247 2.54218 16.8782 1.95448 16.8127 1.88321C16.5595 1.60776 16.2529 1.38652 15.9107 1.23418C15.5686 1.08181 15.1988 1.00188 14.824 0.999956C14.5994 0.998803 6.25479 0.986131 5.75002 1.00034C4.995 1.02159 4.28394 1.34791 3.77071 1.90014C3.25819 2.45159 2.98372 3.18363 3.00075 3.93531C3.0116 4.41467 3.0116 19.5852 3.00075 20.0646C2.98372 20.8163 3.25819 21.5483 3.77071 22.0998C4.28394 22.652 4.995 22.9783 5.75002 22.9995C6.01117 23.0069 6.64103 23.0067 7.18436 23.005C7.46067 23.0042 7.72168 23.0029 7.91355 23.0018L8.22878 22.9999C8.78105 22.9961 9.22565 22.5453 9.22182 21.993C9.21798 21.4407 8.76685 20.9961 8.21458 21L7.90244 21.0019C7.71164 21.0029 7.45236 21.0042 7.17818 21.005C6.6205 21.0068 6.02852 21.0066 5.8063 21.0003C5.59456 20.9944 5.38878 20.9029 5.2357 20.7382C5.0819 20.5727 4.99486 20.3471 5.00023 20.1099C5.01177 19.6003 5.01177 4.39957 5.00023 3.89003C4.99486 3.65282 5.08191 3.42716 5.2357 3.26168C5.38878 3.09697 5.59456 3.00551 5.8063 2.99955Z" fill="black"/>
<path d="M12.5252 16.5003L10.9988 16.5C10.4465 16.4998 9.99883 16.0519 9.99902 15.4997C9.99922 14.9474 10.4471 14.4998 10.9994 14.5L11.8991 14.5002C12.3594 14.5003 12.8279 14.5003 12.8859 14.5C13.1728 14.4986 13.4556 14.5676 13.7094 14.7011C13.9633 14.8347 14.1805 15.0285 14.3418 15.2657C14.5031 15.5029 14.6037 15.776 14.6346 16.0612C14.6656 16.3464 14.626 16.6348 14.5193 16.901L12.4762 21.9997L14.0024 22C14.5547 22.0003 15.0023 22.4482 15.002 23.0005C15.0018 23.5527 14.5538 24.0003 14.0015 24L13.1019 23.9997C12.6408 23.9996 12.1735 23.9996 12.1166 24C11.8296 24.0019 11.5466 23.9331 11.2925 23.7998C11.0384 23.6664 10.821 23.4726 10.6594 23.2354C10.4979 22.9982 10.3973 22.7249 10.3663 22.4396C10.3354 22.1543 10.3751 21.8658 10.482 21.5995L12.5252 16.5003Z" fill="black"/>
<path d="M16.999 14.5C17.5513 14.5 17.999 14.9477 17.999 15.5V23C17.999 23.5523 17.5513 24 16.999 24C16.4467 24 15.999 23.5523 15.999 23V15.5C15.999 14.9477 16.4467 14.5 16.999 14.5Z" fill="black"/>
<path fill-rule="evenodd" clip-rule="evenodd" d="M19.999 14.5C19.4467 14.5 18.999 14.9477 18.999 15.5V23C18.999 23.5523 19.4467 24 19.999 24C20.5513 24 20.999 23.5523 20.999 23V20.9905C21.7699 20.9313 22.4976 20.5986 23.0481 20.0481C23.6576 19.4386 24 18.612 24 17.75C24 16.888 23.6576 16.0614 23.0481 15.4519C22.4386 14.8424 21.612 14.5 20.75 14.5H19.999ZM20.999 16.525V18.975C21.2378 18.9264 21.4591 18.8087 21.6339 18.6339C21.8683 18.3995 22 18.0815 22 17.75C22 17.4185 21.8683 17.1005 21.6339 16.8661C21.4591 16.6913 21.2378 16.5736 20.999 16.525Z" fill="black"/>
</g>
<defs>
<clipPath id="clip0_2618_678">
<rect width="24" height="24" fill="white"/>
</clipPath>
</defs>
</svg>
