<svg width="24" height="24" viewBox="0 0 24 24" fill="none" xmlns="http://www.w3.org/2000/svg">
<path fill-rule="evenodd" clip-rule="evenodd" d="M12 2C9.23858 2 7 4.23858 7 7C7 9.76142 9.23858 12 12 12C14.7614 12 17 9.76142 17 7C17 4.23858 14.7614 2 12 2ZM9 7C9 5.34315 10.3431 4 12 4C13.6569 4 15 5.34315 15 7C15 8.65685 13.6569 10 12 10C10.3431 10 9 8.65685 9 7Z" fill="black"/>
<path fill-rule="evenodd" clip-rule="evenodd" d="M12 13C9.61305 13 7.32387 13.9482 5.63604 15.636C3.94821 17.3239 3 19.6131 3 22C3 22.2652 3.10536 22.5196 3.29289 22.7071C3.48043 22.8946 3.73478 23 4 23H20C20.2652 23 20.5196 22.8946 20.7071 22.7071C20.8946 22.5196 21 22.2652 21 22C21 19.6131 20.0518 17.3239 18.364 15.636C16.6761 13.9482 14.3869 13 12 13ZM7.05025 17.0503C8.36301 15.7375 10.1435 15 12 15C13.8565 15 15.637 15.7375 16.9497 17.0503C18.0245 18.125 18.7137 19.5132 18.9282 21H5.07177C5.28635 19.5132 5.97552 18.125 7.05025 17.0503Z" fill="black"/>
</svg>
