<svg width="24" height="24" viewBox="0 0 24 24" fill="none" xmlns="http://www.w3.org/2000/svg">
<path fill-rule="evenodd" clip-rule="evenodd" d="M12 24C18.6274 24 24 18.6274 24 12C24 5.37258 18.6274 0 12 0C5.37258 0 0 5.37258 0 12C0 18.6274 5.37258 24 12 24Z" fill="#0B893D"/>
<path fill-rule="evenodd" clip-rule="evenodd" d="M17.9723 6.85774C18.6032 7.39467 18.6793 8.34136 18.1424 8.97223L11.6136 16.6432C11.3775 16.9272 11.0807 17.1466 10.7532 17.2919C10.4205 17.4395 10.0601 17.5091 9.70045 17.4991C9.34083 17.4891 8.98419 17.3996 8.65942 17.2327C8.34097 17.0691 8.05749 16.8331 7.83852 16.5356L5.80512 13.8557C5.30438 13.1958 5.43344 12.2548 6.0934 11.7541C6.75336 11.2533 7.69429 11.3824 8.19504 12.0423L9.79512 14.1512L15.8578 7.02783C16.3947 6.39696 17.3414 6.32081 17.9723 6.85774ZM9.30323 14.7295C9.30605 14.7261 9.30889 14.7227 9.31175 14.7193L9.30323 14.7295Z" fill="#64DE95"/>
</svg>
