<svg width="24" height="24" viewBox="0 0 24 24" fill="none" xmlns="http://www.w3.org/2000/svg">
<path d="M12 2C8.03065 2 4.2117 3.52884 1.31247 6.27384C0.911428 6.65355 0.894134 7.28648 1.27385 7.68753C1.65356 8.08857 2.28649 8.10587 2.68753 7.72616C5.21837 5.32994 8.54637 4 12 4C15.4536 4 18.7816 5.32994 21.3125 7.72616C21.7135 8.10587 22.3464 8.08857 22.7262 7.68753C23.1059 7.28648 23.0886 6.65355 22.6875 6.27384C19.7883 3.52884 15.9694 2 12 2Z" fill="black"/>
<path d="M3.32886 9.25867C5.64406 7.16269 8.76456 6 12 6C15.2354 6 18.3559 7.16269 20.6711 9.25867C21.0806 9.62933 21.112 10.2617 20.7413 10.6711C20.3707 11.0806 19.7383 11.112 19.3289 10.7413C17.4005 8.99556 14.7657 8 12 8C9.23434 8 6.59951 8.99556 4.67114 10.7413C4.26171 11.112 3.62933 11.0806 3.25867 10.6711C2.88801 10.2617 2.91944 9.62933 3.32886 9.25867Z" fill="black"/>
<path d="M12 10C9.8705 10 7.82149 10.8166 6.30536 12.2806C5.90807 12.6643 5.89701 13.2974 6.28065 13.6946C6.66429 14.0919 7.29736 14.103 7.69465 13.7194C8.83079 12.6222 10.3788 12 12 12C13.6212 12 15.1692 12.6222 16.3054 13.7194C16.7026 14.103 17.3357 14.0919 17.7194 13.6946C18.103 13.2974 18.0919 12.6643 17.6946 12.2806C16.1785 10.8166 14.1295 10 12 10Z" fill="black"/>
<path fill-rule="evenodd" clip-rule="evenodd" d="M12 14C9.79086 14 8 15.7909 8 18C8 20.2091 9.79086 22 12 22C14.2091 22 16 20.2091 16 18C16 15.7909 14.2091 14 12 14ZM10 18C10 16.8954 10.8954 16 12 16C13.1046 16 14 16.8954 14 18C14 19.1046 13.1046 20 12 20C10.8954 20 10 19.1046 10 18Z" fill="black"/>
</svg>
