<svg width="24" height="24" viewBox="0 0 24 24" fill="none" xmlns="http://www.w3.org/2000/svg">
<path d="M1.73718 4.88454L12.9564 7.95379C13.7166 8.19411 14.3805 8.65552 14.8567 9.2744C15.3329 9.89327 15.5979 10.6391 15.615 11.409V21.7846C15.647 22.1122 15.5956 22.4424 15.4653 22.7465C15.335 23.0507 15.1297 23.3197 14.8671 23.5304C14.6045 23.741 14.2925 23.8869 13.9582 23.9555C13.6238 24.0241 13.2772 24.0133 12.9482 23.9239L3.66757 21.4954C2.90726 21.2677 2.24061 20.8156 1.762 20.2032C1.28339 19.5907 1.01707 18.8488 1.00072 18.0826V6.77703C0.983878 6.05994 1.26235 5.36553 1.77541 4.84529C2.28846 4.32505 2.99444 4.02119 3.73937 4H17.9229C18.739 4 19.5217 4.31203 20.0987 4.86744C20.6758 5.42286 21 6.17616 21 6.96164V15.8002C20.9964 16.1994 20.9109 16.5941 20.7485 16.9616C20.5862 17.329 20.35 17.662 20.0537 17.9414C19.7573 18.2209 19.4066 18.4413 19.0216 18.59C18.6366 18.7387 18.2249 18.8129 17.81 18.8082H15.615" fill="#434660"/>
<path d="M21.3969 1.21182C21.3767 0.539129 20.825 0 20.1475 0C19.4643 0 18.9092 0.547986 18.8976 1.22836C17.495 1.64659 16.293 2.75727 16.293 4.37493C16.293 6.46223 18.2959 7.70748 20.147 7.70748C20.6011 7.70748 20.9718 7.8559 21.2065 8.04355C21.439 8.22947 21.4998 8.4127 21.4998 8.53868C21.4998 8.66465 21.439 8.84788 21.2065 9.0338C20.9718 9.22145 20.6011 9.36988 20.147 9.36988C20.1292 9.36988 20.1115 9.37026 20.0937 9.37102C19.8578 9.38108 19.6199 9.33075 19.3991 9.21997C19.1778 9.10893 18.9765 8.93843 18.8174 8.71592C18.416 8.15426 17.6353 8.02434 17.0737 8.42575C16.512 8.82716 16.3821 9.60788 16.7835 10.1695C17.1716 10.7126 17.6825 11.1558 18.2781 11.4546C18.4783 11.555 18.6857 11.6379 18.8981 11.7026C18.9187 12.3749 19.4702 12.9136 20.1475 12.9136C20.8308 12.9136 21.386 12.3653 21.3973 11.6846C22.799 11.2656 23.9998 10.1542 23.9998 8.53868C23.9998 6.45295 21.9984 5.20748 20.147 5.20748C19.6928 5.20748 19.3218 5.05902 19.0868 4.87115C18.854 4.68506 18.793 4.50152 18.793 4.37493C18.793 4.24806 18.8539 4.06505 19.0861 3.87959C19.3206 3.69223 19.6916 3.54373 20.147 3.54373C20.1646 3.54373 20.1822 3.54336 20.1997 3.54261C20.4353 3.53267 20.6727 3.58301 20.8932 3.69371C21.1141 3.80468 21.315 3.97501 21.4737 4.19726C21.8749 4.75909 22.6556 4.88933 23.2174 4.48816C23.7792 4.08699 23.9095 3.30632 23.5083 2.74449C23.1207 2.20162 22.6102 1.75848 22.0151 1.45961C21.8155 1.35935 21.6087 1.27655 21.3969 1.21182Z" fill="#A9ABBC"/>
<path d="M13.2636 8.05071L1.75622 5C1.23 5.5171 0.983572 6.1683 1.00085 6.88106V18.1183C1.01761 18.8799 1.29078 19.6173 1.78168 20.2261C2.27259 20.8349 2.95635 21.2842 3.73619 21.5105L13.2552 23.9244C13.5926 24.0132 13.9482 24.0239 14.2911 23.9558C14.634 23.8876 14.954 23.7426 15.2233 23.5332C15.4927 23.3238 15.7033 23.0564 15.837 22.7541C15.9706 22.4518 16.0233 22.1236 15.9905 21.798V11.4851C15.9729 10.7198 15.7012 9.97847 15.2128 9.36334C14.7243 8.7482 14.0433 8.28957 13.2636 8.05071Z" fill="#A9ABBC"/>
<circle cx="11.5" cy="15.5" r="1.5" fill="#434660"/>
</svg>
