<svg width="24" height="24" viewBox="0 0 24 24" fill="none" xmlns="http://www.w3.org/2000/svg">
<path fill-rule="evenodd" clip-rule="evenodd" d="M12.0077 4.31447C12.7438 3.77991 13.7108 3.71654 14.5097 4.10816C15.3435 4.51688 15.8602 5.36391 15.8602 6.28258V17.7139C15.8602 18.2428 15.6807 18.7523 15.3818 19.1613L15.3715 19.1751C14.5785 20.2219 13.0835 20.466 12.0071 19.6816L5.99554 15.8561H3.42891C2.08596 15.8561 1 14.7701 1 13.4271V10.5693C1 9.22637 2.08596 8.14041 3.42891 8.14041H5.99554L12.0077 4.31447ZM13.6294 5.904C13.47 5.82585 13.2937 5.84898 13.1768 5.93732C13.1554 5.95346 13.1334 5.96873 13.1108 5.98311L6.82362 9.98407C6.66317 10.0862 6.47693 10.1404 6.28674 10.1404H3.42891C3.19053 10.1404 3 10.3309 3 10.5693V13.4271C3 13.6655 3.19053 13.8561 3.42891 13.8561H6.28674C6.47693 13.8561 6.66317 13.9103 6.82362 14.0124L13.1108 18.0134C13.1338 18.028 13.1561 18.0435 13.1778 18.0599C13.3543 18.1936 13.6207 18.1666 13.7721 17.9742C13.8318 17.8894 13.8602 17.7924 13.8602 17.7139V6.28258C13.8602 6.11528 13.7673 5.9716 13.6294 5.904Z" fill="black"/>
<path fill-rule="evenodd" clip-rule="evenodd" d="M20.4775 7.96313C20.9435 7.66676 21.5615 7.80429 21.8579 8.27032C23.3807 10.6649 23.3807 13.7125 21.8579 16.1071C21.5615 16.5731 20.9435 16.7107 20.4775 16.4143C20.0114 16.1179 19.8739 15.4999 20.1703 15.0338C21.2766 13.2941 21.2766 11.0833 20.1703 9.34357C19.8739 8.87754 20.0114 8.25949 20.4775 7.96313Z" fill="black"/>
<path fill-rule="evenodd" clip-rule="evenodd" d="M17.6243 9.34312C18.0542 8.99648 18.6838 9.06403 19.0304 9.49399C20.3153 11.0877 20.3184 13.3651 19.028 14.9532C18.6797 15.3819 18.0499 15.447 17.6213 15.0987C17.1927 14.7505 17.1275 14.1207 17.4758 13.692C18.1668 12.8415 18.1699 11.6132 17.4734 10.7493C17.1268 10.3193 17.1943 9.68975 17.6243 9.34312Z" fill="black"/>
</svg>
