<svg width="24" height="24" viewBox="0 0 24 24" fill="none" xmlns="http://www.w3.org/2000/svg">
<path d="M12 3.49634C10.2761 3.49634 8.62279 4.18116 7.40381 5.40014C6.18482 6.61913 5.5 8.27243 5.5 9.99634C5.5 10.9923 5.68347 11.8681 5.98825 12.6613C6.0457 12.8108 6.10765 12.9579 6.17376 13.1027C6.24124 13.2505 6.3131 13.396 6.389 13.5394C6.64729 14.0276 6.46095 14.6327 5.97278 14.891C5.48462 15.1493 4.8795 14.963 4.62121 14.4748C4.52787 14.2984 4.43873 14.118 4.35444 13.9334C4.27186 13.7525 4.19395 13.5677 4.12132 13.3787C3.73258 12.3669 3.5 11.2485 3.5 9.99634C3.5 7.742 4.39553 5.57999 5.98959 3.98593C7.58365 2.39187 9.74566 1.49634 12 1.49634C13.6165 1.49634 15.1855 1.95682 16.5317 2.80505C16.9989 3.09949 17.139 3.71696 16.8446 4.18421C16.5501 4.65147 15.9327 4.79157 15.4654 4.49714C14.4359 3.84842 13.2361 3.49634 12 3.49634Z" fill="black"/>
<path d="M19.3038 8.02026C19.8513 7.94776 20.3539 8.33282 20.4264 8.88033C20.4752 9.24835 20.5 9.62109 20.5 9.99634C20.5 14.1305 17.9342 16.7614 15.9073 18.8397C15.6261 19.1281 15.3552 19.4059 15.103 19.6755C14.2754 20.5793 13.5151 21.5423 12.828 22.557C12.6419 22.8319 12.3316 22.9965 11.9996 22.9963C11.6677 22.9962 11.3574 22.8314 11.1715 22.5564C10.4863 21.5426 9.72707 20.581 8.90003 19.6793C8.52673 19.2722 8.55406 18.6397 8.96107 18.2664C9.36809 17.8931 10.0007 17.9204 10.374 18.3274C10.9468 18.952 11.4895 19.6032 12.0004 20.2787C12.513 19.6011 13.0573 18.9477 13.6316 18.3208L13.6385 18.3134C13.9285 18.0032 14.2218 17.6991 14.5129 17.3972C16.5574 15.277 18.5 13.2624 18.5 9.99634C18.5 9.70929 18.481 9.42426 18.4438 9.14288C18.3713 8.59538 18.7563 8.09276 19.3038 8.02026Z" fill="black"/>
<path d="M12 7.99634C10.8954 7.99634 10 8.89177 10 9.99634C10 10.5486 9.55228 10.9963 9 10.9963C8.44772 10.9963 8 10.5486 8 9.99634C8 7.7872 9.79086 5.99634 12 5.99634C12.5523 5.99634 13 6.44405 13 6.99634C13 7.54862 12.5523 7.99634 12 7.99634Z" fill="black"/>
<path d="M21.7032 3.71101C22.0937 3.32049 22.0937 2.68732 21.7032 2.2968C21.3127 1.90628 20.6795 1.90628 20.289 2.2968L2.29289 20.2929C1.90237 20.6834 1.90237 21.3166 2.29289 21.7071C2.68342 22.0976 3.31658 22.0976 3.70711 21.7071L21.7032 3.71101Z" fill="black"/>
</svg>
