<svg width="24" height="24" viewBox="0 0 24 24" fill="none" xmlns="http://www.w3.org/2000/svg">
<path d="M18.7071 8.29289C19.0976 8.68342 19.0976 9.31658 18.7071 9.70711L16.4142 12L18.7071 14.2929C19.0976 14.6834 19.0976 15.3166 18.7071 15.7071C18.3166 16.0976 17.6834 16.0976 17.2929 15.7071L15 13.4142L12.7071 15.7071C12.3166 16.0976 11.6834 16.0976 11.2929 15.7071C10.9024 15.3166 10.9024 14.6834 11.2929 14.2929L13.5858 12L11.2929 9.70711C10.9024 9.31658 10.9024 8.68342 11.2929 8.29289C11.6834 7.90237 12.3166 7.90237 12.7071 8.29289L15 10.5858L17.2929 8.29289C17.6834 7.90237 18.3166 7.90237 18.7071 8.29289Z" fill="black"/>
<path fill-rule="evenodd" clip-rule="evenodd" d="M8.72006 3.86165C9.28216 3.30853 10.0396 2.99885 10.8286 3H20C20.7956 3 21.5587 3.31607 22.1213 3.87868C22.6839 4.44128 23 5.20435 23 6V18C23 18.7957 22.6839 19.5587 22.1213 20.1213C21.5587 20.6839 20.7956 21 20 21H10.8278C10.0381 20.9998 9.2803 20.6883 8.71901 20.1334L1.60713 13.4304C1.60013 13.4238 1.59322 13.4171 1.58641 13.4103C1.40051 13.2247 1.25304 13.0042 1.15242 12.7615C1.05179 12.5188 1 12.2587 1 11.996C1 11.7333 1.05179 11.4732 1.15242 11.2305C1.25304 10.9878 1.40051 10.7674 1.58641 10.5817C1.59329 10.5748 1.60027 10.5681 1.60735 10.5614L8.72006 3.86165ZM10.1193 5.29067C10.3071 5.10406 10.5613 4.99953 10.826 5L20 5C20.2652 5 20.5196 5.10536 20.7071 5.2929C20.8946 5.48044 21 5.73479 21 6V18C21 18.2652 20.8946 18.5196 20.7071 18.7071C20.5196 18.8946 20.2652 19 20 19H10.828C10.5631 18.9999 10.3088 18.8946 10.1213 18.7073C10.1174 18.7034 10.1134 18.6995 10.1094 18.6956C10.1064 18.6927 10.1034 18.6898 10.1003 18.687L3.00123 11.996L10.1001 5.30926C10.1066 5.30315 10.113 5.29695 10.1193 5.29067Z" fill="black"/>
</svg>
