<svg width="28" height="28" viewBox="0 0 28 28" fill="none" xmlns="http://www.w3.org/2000/svg">
<path d="M1 6.33333C1 5.04467 2.04467 4 3.33333 4L24.6667 4C25.9553 4 27 5.04467 27 6.33333V21.6667C27 22.9553 25.9553 24 24.6667 24H3.33333C2.04467 24 1 22.9553 1 21.6667V6.33333Z" fill="#0B717F"/>
<path d="M1 7H27.0003V12H1V7Z" fill="#42DBDA"/>
<path d="M15 19C15 17.8954 15.8954 17 17 17H22C23.1046 17 24 17.8954 24 19C24 20.1046 23.1046 21 22 21H17C15.8954 21 15 20.1046 15 19Z" fill="#42DBDA"/>
</svg>
