<svg width="24" height="24" viewBox="0 0 24 24" fill="none" xmlns="http://www.w3.org/2000/svg">
<path fill-rule="evenodd" clip-rule="evenodd" d="M5 4.64274C5 2.6149 6.63883 0.976074 8.66667 0.976074H15.3333C17.3612 0.976074 19 2.6149 19 4.64274V19.3094C19 21.3372 17.3612 22.9761 15.3333 22.9761H8.66667C6.63883 22.9761 5 21.3372 5 19.3094V4.64274ZM7 4.64274C7 3.71947 7.7434 2.97607 8.66667 2.97607H15.3333C16.2566 2.97607 17 3.71947 17 4.64274V16.9761H7V4.64274ZM17 18.9761V19.3094C17 20.2327 16.2566 20.9761 15.3333 20.9761H8.66667C7.7434 20.9761 7 20.2327 7 19.3094V18.9761H17Z" fill="black"/>
</svg>
