<svg width="24" height="24" viewBox="0 0 24 24" fill="none" xmlns="http://www.w3.org/2000/svg">
<path d="M11.9972 3C13.0907 3 14.0962 3.594 14.6215 4.54553C14.8884 5.02903 15.4968 5.2046 15.9803 4.93767C16.4638 4.67075 16.6393 4.06241 16.3724 3.57891C15.4943 1.98822 13.8171 1 11.9972 1C9.23241 1 6.9999 3.23503 6.9999 6V12C6.9999 12.5523 7.44762 13 7.9999 13C8.55219 13 8.9999 12.5523 8.9999 12V6C8.9999 4.3383 10.3383 3 11.9972 3Z" fill="black"/>
<path d="M14.9984 12C14.9984 11.4477 15.4462 11 15.9984 11C16.5507 11 16.9984 11.4477 16.9984 12C16.9984 15.0056 14.3112 17 11.9999 17C11.4476 17 10.9999 16.5523 10.9999 16C10.9999 15.4477 11.4476 15 11.9999 15C13.3779 15 14.9984 13.7372 14.9984 12Z" fill="black"/>
<path d="M10.9999 20.111C10.2607 20.0086 9.53724 19.804 8.84583 19.4967C8.34115 19.2724 8.11386 18.6814 8.33816 18.1767C8.56247 17.6721 9.15343 17.4448 9.65811 17.6691C10.4352 18.0144 11.2682 18.1879 12.1212 18.1879L12.1385 18.188C15.299 18.2427 17.9121 15.7406 17.9964 12.5932V10.2502C17.9964 9.6979 18.4441 9.25018 18.9964 9.25018C19.5487 9.25018 19.9964 9.6979 19.9964 10.2502V12.6061C19.9964 12.6143 19.9963 12.6226 19.9961 12.6308C19.8983 16.5824 16.8484 19.7772 12.9999 20.1521L12.9999 22C12.9999 22.5523 12.5522 23 11.9999 23C11.4476 23 10.9999 22.5523 10.9999 22V20.111Z" fill="black"/>
<path d="M4.99701 9.25018C4.44472 9.25018 3.99701 9.6979 3.99701 10.2502V12.6061C3.99701 13.5938 4.19862 14.5809 4.59176 15.4947C4.81003 16.002 5.39824 16.2363 5.90556 16.0181C6.41289 15.7998 6.64721 15.2116 6.42894 14.7043C6.14374 14.0414 5.99701 13.3234 5.99701 12.6061V10.2502C5.99701 9.6979 5.54929 9.25018 4.99701 9.25018Z" fill="black"/>
<path d="M19.779 2.5137C20.1615 2.11529 20.7945 2.10237 21.1929 2.48484C21.5913 2.86732 21.6043 3.50035 21.2218 3.89876L4.72139 21.0867C4.33891 21.4851 3.70588 21.498 3.30747 21.1155C2.90906 20.7331 2.89614 20.1 3.27861 19.7016L19.779 2.5137Z" fill="black"/>
</svg>
