<svg width="24" height="24" viewBox="0 0 24 24" fill="none" xmlns="http://www.w3.org/2000/svg">
<path d="M19.9995 21.0787C20.0107 21.5727 19.83 22.0511 19.4968 22.4093C19.1636 22.7675 18.7052 22.9762 18.2218 22.9898C17.7385 23.0034 4.26153 23.0034 3.77816 22.9898C3.29478 22.9762 2.83636 22.7675 2.50321 22.4093C2.17005 22.0511 1.98929 21.5727 2.00049 21.0787C2.01169 20.5846 2.01169 3.41151 2.00049 2.91747C1.98929 2.42343 2.17005 1.94498 2.50321 1.58681C2.83636 1.22863 3.29478 1.01991 3.77816 1.00632C4.26153 0.992725 14.5831 1.00511 14.8189 1.00632C15.0547 1.00753 15.2878 1.05776 15.504 1.15395C15.7202 1.25015 15.9149 1.39029 16.0765 1.56586C16.238 1.74142 19.1422 4.85897 19.4784 5.22413C19.8146 5.5893 20.0011 6.07226 19.9995 6.57367C19.9979 7.07507 19.9883 20.5846 19.9995 21.0787Z" fill="#C7C8D3"/>
<path d="M5 13C5 8.58172 8.58172 5 13 5C17.4183 5 21 8.58172 21 13C21 14.6671 20.4901 16.215 19.6178 17.4964L23.5607 21.4393C24.1464 22.0251 24.1464 22.9749 23.5607 23.5607C22.9749 24.1464 22.0251 24.1464 21.4393 23.5607L17.4964 19.6178C16.215 20.4901 14.6671 21 13 21C8.58172 21 5 17.4183 5 13Z" fill="#60627B"/>
<path d="M10.5001 8.75C11.1905 8.75 11.7501 9.30964 11.7501 10V11C11.7501 11.6904 11.1905 12.25 10.5001 12.25C9.80975 12.25 9.25011 11.6904 9.25011 11V10C9.25011 9.30964 9.80975 8.75 10.5001 8.75Z" fill="#C7C8D3"/>
<path d="M16.9836 16.7714C16.5575 17.3146 15.7718 17.4096 15.2286 16.9835C14.6432 16.5243 13.8496 16.2499 13.0001 16.2499C12.1505 16.2499 11.3569 16.5243 10.7715 16.9835C10.2283 17.4096 9.44257 17.3146 9.01651 16.7714C8.59045 16.2282 8.6854 15.4425 9.2286 15.0164C10.2837 14.1888 11.6298 13.7499 13.0001 13.7499C14.3703 13.7499 15.7164 14.1888 16.7715 15.0164C17.3147 15.4425 17.4097 16.2282 16.9836 16.7714Z" fill="#C7C8D3"/>
<path d="M16.7501 10C16.7501 9.30964 16.1905 8.75 15.5001 8.75C14.8098 8.75 14.2501 9.30964 14.2501 10V11C14.2501 11.6904 14.8098 12.25 15.5001 12.25C16.1905 12.25 16.7501 11.6904 16.7501 11V10Z" fill="#C7C8D3"/>
</svg>
