<svg width="24" height="24" viewBox="0 0 24 24" fill="none" xmlns="http://www.w3.org/2000/svg">
<g clip-path="url(#clip0_306_6)">
<path fill-rule="evenodd" clip-rule="evenodd" d="M8 0C5.23858 0 3 2.23858 3 5C3 7.76142 5.23858 10 8 10C10.7614 10 13 7.76142 13 5C13 2.23858 10.7614 0 8 0ZM5 5C5 3.34315 6.34315 2 8 2C9.65685 2 11 3.34315 11 5C11 6.65685 9.65685 8 8 8C6.34315 8 5 6.65685 5 5Z" fill="black"/>
<path d="M17 13C17.5523 13 18 13.4477 18 14V16H20C20.5523 16 21 16.4477 21 17C21 17.5523 20.5523 18 20 18H18V20C18 20.5523 17.5523 21 17 21C16.4477 21 16 20.5523 16 20V18H14C13.4477 18 13 17.5523 13 17C13 16.4477 13.4477 16 14 16H16V14C16 13.4477 16.4477 13 17 13Z" fill="black"/>
<path fill-rule="evenodd" clip-rule="evenodd" d="M10 17C10 13.134 13.134 10 17 10C20.866 10 24 13.134 24 17C24 20.866 20.866 24 17 24C13.134 24 10 20.866 10 17ZM17 12C14.2386 12 12 14.2386 12 17C12 19.7614 14.2386 22 17 22C19.7614 22 22 19.7614 22 17C22 14.2386 19.7614 12 17 12Z" fill="black"/>
<path d="M9.6321 12.9103C8.79414 12.5788 7.87751 12.4442 6.96556 12.521C6.05365 12.5978 5.18091 12.883 4.42529 13.3465C3.66995 13.8097 3.05806 14.4345 2.63782 15.1593C2.21791 15.8836 2.0006 16.6877 2 17.5007C1.99959 18.053 1.55155 18.5004 0.999267 18.5C0.446982 18.4996 -0.00040456 18.0516 2.74531e-07 17.4993C0.000859654 16.328 0.314517 15.1791 0.90761 14.1562C1.50037 13.1338 2.35195 12.2718 3.3797 11.6415C4.40715 11.0114 5.58153 10.6305 6.79772 10.5281C8.01388 10.4256 9.24002 10.6044 10.3679 11.0506C10.8815 11.2538 11.1331 11.8348 10.9299 12.3484C10.7267 12.8619 10.1456 13.1135 9.6321 12.9103Z" fill="black"/>
</g>
<defs>
<clipPath id="clip0_306_6">
<rect width="24" height="24" fill="white"/>
</clipPath>
</defs>
</svg>
