<svg width="24" height="24" viewBox="0 0 24 24" fill="none" xmlns="http://www.w3.org/2000/svg">
<path fill-rule="evenodd" clip-rule="evenodd" d="M20.7678 4.01354C21.3126 4.43751 21.4106 5.22288 20.9866 5.76771L10.5355 19.1985C10.2831 19.5323 9.95532 19.8026 9.57756 19.9859C9.19553 20.1713 8.77436 20.2617 8.34936 20.2488C7.92437 20.236 7.50953 20.1201 7.1395 19.9122C6.77459 19.7071 6.46435 19.4187 6.23258 19.0719L2.97305 14.3733C2.57955 13.8061 2.72039 13.0273 3.28762 12.6338C3.85485 12.2403 4.63367 12.3811 5.02717 12.9483L8.29384 17.6572C8.29948 17.6654 8.30503 17.6736 8.31048 17.6818C8.32553 17.7047 8.34445 17.7216 8.36431 17.7328C8.38407 17.7439 8.4049 17.7494 8.42519 17.75C8.44547 17.7506 8.46631 17.7464 8.48625 17.7367C8.5063 17.727 8.52574 17.7116 8.54178 17.6901L8.55627 17.6711L19.0136 4.2324C19.4376 3.68757 20.2229 3.58958 20.7678 4.01354Z" fill="black"/>
</svg>
