<svg width="24" height="24" viewBox="0 0 24 24" fill="none" xmlns="http://www.w3.org/2000/svg">
<path d="M21.9995 21.0787C22.0107 21.5727 21.83 22.0511 21.4968 22.4093C21.1636 22.7675 20.7052 22.9762 20.2218 22.9898C19.7385 23.0034 4.26153 23.0034 3.77816 22.9898C3.29478 22.9762 2.83636 22.7675 2.50321 22.4093C2.17005 22.0511 1.98929 21.5727 2.00049 21.0787C2.01169 20.5846 2.01169 3.41151 2.00049 2.91747C1.98929 2.42343 2.17005 1.94498 2.50321 1.58681C2.83636 1.22863 3.29478 1.01991 3.77816 1.00632C4.26153 0.992725 16.5831 1.00511 16.8189 1.00632C17.0547 1.00753 17.2878 1.05776 17.504 1.15395C17.7202 1.25015 17.9149 1.39029 18.0765 1.56586C18.238 1.74142 21.1422 4.85897 21.4784 5.22413C21.8146 5.5893 22.0011 6.07226 21.9995 6.57367C21.9979 7.07507 21.9883 20.5846 21.9995 21.0787Z" fill="#C7C8D3"/>
<path d="M14.5 18L18 18" stroke="#60627B" stroke-width="2.5" stroke-linecap="round" stroke-linejoin="round"/>
<path d="M14.5 14L18 14" stroke="#60627B" stroke-width="2.5" stroke-linecap="round" stroke-linejoin="round"/>
<path d="M5.97039 16.9597C6.24395 17.3425 6.60006 17.6493 7.00854 17.8542C7.41702 18.0591 7.86582 18.1561 8.31693 18.1368C9.75337 18.1368 10.9197 17.2045 10.9197 16.0556C10.9197 14.9067 9.75337 13.9744 8.31693 13.9744C6.88048 13.9744 5.71289 13.0421 5.71289 11.8919C5.71289 10.7417 6.87922 9.81069 8.31693 9.81069C8.76764 9.79166 9.21601 9.88871 9.62405 10.0936C10.0321 10.2985 10.3878 10.6053 10.6609 10.9878" stroke="#60627B" stroke-width="2.5" stroke-linecap="round" stroke-linejoin="round"/>
<path d="M8.31738 18.1392V19.1805" stroke="#60627B" stroke-width="2.5" stroke-linecap="round" stroke-linejoin="round"/>
<path d="M8.31738 8.76697V9.80833" stroke="#60627B" stroke-width="2.5" stroke-linecap="round" stroke-linejoin="round"/>
</svg>
