<svg width="24" height="24" viewBox="0 0 24 24" fill="none" xmlns="http://www.w3.org/2000/svg">
<path d="M21.9995 21.0787C22.0107 21.5727 21.83 22.0511 21.4968 22.4093C21.1636 22.7675 20.7052 22.9762 20.2218 22.9898C19.7385 23.0034 4.26153 23.0034 3.77816 22.9898C3.29478 22.9762 2.83636 22.7675 2.50321 22.4093C2.17005 22.0511 1.98929 21.5727 2.00049 21.0787C2.01169 20.5846 2.01169 3.41151 2.00049 2.91747C1.98929 2.42343 2.17005 1.94498 2.50321 1.58681C2.83636 1.22863 3.29478 1.01991 3.77816 1.00632C4.26153 0.992725 16.5831 1.00511 16.8189 1.00632C17.0547 1.00753 17.2878 1.05776 17.504 1.15395C17.7202 1.25015 17.9149 1.39029 18.0765 1.56586C18.238 1.74142 21.1422 4.85897 21.4784 5.22413C21.8146 5.5893 22.0011 6.07226 21.9995 6.57367C21.9979 7.07507 21.9883 20.5846 21.9995 21.0787Z" fill="#434660"/>
<path fill-rule="evenodd" clip-rule="evenodd" d="M13.25 18C13.25 17.3096 13.8096 16.75 14.5 16.75L18 16.75C18.6904 16.75 19.25 17.3096 19.25 18C19.25 18.6904 18.6904 19.25 18 19.25L14.5 19.25C13.8096 19.25 13.25 18.6904 13.25 18Z" fill="#A9ABBC"/>
<path fill-rule="evenodd" clip-rule="evenodd" d="M13.25 14C13.25 13.3096 13.8096 12.75 14.5 12.75L18 12.75C18.6904 12.75 19.25 13.3096 19.25 14C19.25 14.6904 18.6904 15.25 18 15.25L14.5 15.25C13.8096 15.25 13.25 14.6904 13.25 14Z" fill="#A9ABBC"/>
<path fill-rule="evenodd" clip-rule="evenodd" d="M9.06308 11.2107C8.84265 11.1 8.60523 11.0496 8.36967 11.0596C8.35209 11.0603 8.33451 11.0607 8.31693 11.0607C7.86149 11.0607 7.49051 11.2092 7.25598 11.3966C7.02385 11.582 6.96289 11.765 6.96289 11.8919C6.96289 12.0185 7.02392 12.202 7.25672 12.3881C7.49175 12.576 7.86276 12.7244 8.31693 12.7244C10.1683 12.7244 12.1697 13.9699 12.1697 16.0556C12.1697 18.1314 10.1873 19.375 8.3434 19.3868C7.68628 19.4103 7.03618 19.2666 6.44804 18.9715C5.85244 18.6727 5.34151 18.2295 4.95341 17.6865C4.55201 17.1248 4.68192 16.3441 5.24358 15.9427C5.80524 15.5413 6.58596 15.6712 6.98737 16.2329C7.14639 16.4554 7.34768 16.6259 7.56903 16.7369C7.78986 16.8477 8.02768 16.8981 8.26365 16.888C8.2814 16.8872 8.29916 16.8868 8.31693 16.8868C8.77104 16.8868 9.1417 16.7384 9.37639 16.5508C9.60893 16.3649 9.6697 16.1816 9.6697 16.0556C9.6697 15.9297 9.60893 15.7464 9.37639 15.5605C9.1417 15.3729 8.77104 15.2244 8.31693 15.2244C6.46586 15.2244 4.46289 13.9792 4.46289 11.8919C4.46289 9.81387 6.44647 8.57243 8.29073 8.56078C8.94756 8.53754 9.5973 8.68142 10.185 8.97658C10.7801 9.27544 11.2906 9.71859 11.6782 10.2615C12.0794 10.8233 11.9492 11.604 11.3873 12.0051C10.8255 12.4063 10.0448 12.2761 9.64365 11.7142C9.48495 11.492 9.28404 11.3216 9.06308 11.2107Z" fill="#A9ABBC"/>
<path fill-rule="evenodd" clip-rule="evenodd" d="M8.31738 16.8892C9.00774 16.8892 9.56738 17.4488 9.56738 18.1392V19.1805C9.56738 19.8709 9.00774 20.4305 8.31738 20.4305C7.62703 20.4305 7.06738 19.8709 7.06738 19.1805V18.1392C7.06738 17.4488 7.62703 16.8892 8.31738 16.8892Z" fill="#A9ABBC"/>
<path fill-rule="evenodd" clip-rule="evenodd" d="M8.31738 7.51697C9.00774 7.51697 9.56738 8.07661 9.56738 8.76697V9.80833C9.56738 10.4987 9.00774 11.0583 8.31738 11.0583C7.62703 11.0583 7.06738 10.4987 7.06738 9.80833V8.76697C7.06738 8.07661 7.62703 7.51697 8.31738 7.51697Z" fill="#A9ABBC"/>
</svg>
