<svg width="24" height="24" viewBox="0 0 24 24" fill="none" xmlns="http://www.w3.org/2000/svg">
<path fill-rule="evenodd" clip-rule="evenodd" d="M22 12C22 17.5228 17.5228 22 12 22C6.47715 22 2 17.5228 2 12C2 6.47715 6.47715 2 12 2C17.5228 2 22 6.47715 22 12ZM20 12C20 16.4183 16.4183 20 12 20C10.3024 20 8.72825 19.4712 7.43335 18.5694L18.5694 7.43335C19.4712 8.72825 20 10.3024 20 12ZM5.9453 17.229L17.229 5.9453C15.8268 4.73318 13.999 4 12 4C7.58172 4 4 7.58172 4 12C4 13.999 4.73318 15.8268 5.9453 17.229Z" fill="black"/>
</svg>
