<svg width="24" height="24" viewBox="0 0 24 24" fill="none" xmlns="http://www.w3.org/2000/svg">
<path fill-rule="evenodd" clip-rule="evenodd" d="M12 20C16.4183 20 20 16.4183 20 12C20 7.58172 16.4183 4 12 4C7.58172 4 4 7.58172 4 12C4 16.4183 7.58172 20 12 20ZM12 22C17.5228 22 22 17.5228 22 12C22 6.47715 17.5228 2 12 2C6.47715 2 2 6.47715 2 12C2 17.5228 6.47715 22 12 22Z" fill="black"/>
<path fill-rule="evenodd" clip-rule="evenodd" d="M9.4502 11.145C9.4502 10.5927 9.89791 10.145 10.4502 10.145H11.0674C11.4963 10.145 11.9076 10.3154 12.2109 10.6187C12.5141 10.922 12.6845 11.3333 12.6845 11.7622V14.848C12.6845 14.9101 12.7092 14.9697 12.7532 15.0137C12.7971 15.0576 12.8567 15.0823 12.9188 15.0823H13.536C14.0883 15.0823 14.536 15.53 14.536 16.0823C14.536 16.6346 14.0883 17.0823 13.536 17.0823H12.9188C12.3263 17.0823 11.758 16.8469 11.3389 16.4279C10.9199 16.0089 10.6845 15.4406 10.6845 14.848V12.145H10.4502C9.89791 12.145 9.4502 11.6973 9.4502 11.145Z" fill="black"/>
<path d="M11.7002 6.91772C11.453 6.91772 11.2113 6.99104 11.0057 7.12839C10.8002 7.26574 10.64 7.46096 10.5453 7.68937C10.4507 7.91778 10.426 8.16911 10.4742 8.41159C10.5224 8.65406 10.6415 8.87679 10.8163 9.05161C10.9911 9.22642 11.2139 9.34548 11.4563 9.39371C11.6988 9.44194 11.9501 9.41718 12.1785 9.32257C12.407 9.22796 12.6022 9.06775 12.7395 8.86219C12.8769 8.65663 12.9502 8.41495 12.9502 8.16773C12.9502 7.8362 12.8185 7.51826 12.5841 7.28384C12.3497 7.04942 12.0317 6.91772 11.7002 6.91772Z" fill="black"/>
</svg>
