<svg width="24" height="24" viewBox="0 0 24 24" fill="none" xmlns="http://www.w3.org/2000/svg">
<path d="M23.5709 12C23.5797 11.1619 23.3243 10.3423 22.841 9.65749C22.3576 8.97271 21.6709 8.45753 20.8783 8.18507C21.2558 7.42913 21.3913 6.5753 21.2666 5.73961C21.1419 4.90392 20.7629 4.12689 20.1811 3.51413C19.6137 2.91606 18.8653 2.52132 18.0513 2.39078C17.2373 2.26024 16.403 2.40117 15.677 2.79183C15.4529 1.98876 14.972 1.28113 14.308 0.777016C13.6439 0.272898 12.833 0 11.9993 0C11.1655 0 10.3546 0.272898 9.69055 0.777016C9.02646 1.28113 8.54562 1.98876 8.32147 2.79183C7.59529 2.40128 6.76082 2.26041 5.94668 2.39093C5.13254 2.52146 4.38393 2.91614 3.81624 3.51413C3.23466 4.12702 2.85587 4.90411 2.73135 5.7398C2.60682 6.57548 2.7426 7.42924 3.12023 8.18507C2.3325 8.46502 1.65077 8.98199 1.16867 9.66497C0.686561 10.3479 0.427734 11.1634 0.427734 11.9994C0.427734 12.8354 0.686561 13.6509 1.16867 14.3339C1.65077 15.0169 2.3325 15.5338 3.12023 15.8138C2.7426 16.5696 2.60682 17.4234 2.73135 18.2591C2.85587 19.0947 3.23466 19.8718 3.81624 20.4847C4.38379 21.0829 5.13234 21.4778 5.94648 21.6085C6.76063 21.7393 7.59517 21.5986 8.32147 21.2082C8.54562 22.0112 9.02646 22.7189 9.69055 23.223C10.3546 23.7271 11.1655 24 11.9993 24C12.833 24 13.6439 23.7271 14.308 23.223C14.972 22.7189 15.4529 22.0112 15.677 21.2082C16.4031 21.5987 17.2375 21.7394 18.0515 21.6087C18.8655 21.4779 19.6139 21.083 20.1811 20.4847C20.7629 19.872 21.1419 19.0949 21.2666 18.2592C21.3913 17.4236 21.2558 16.5697 20.8783 15.8138C21.6708 15.5415 22.3575 15.0266 22.8408 14.342C23.3242 13.6574 23.5796 12.838 23.5709 12Z" fill="#C7C8D3"/>
<path d="M8.625 15.75L16.125 8.25" stroke="#60627B" stroke-width="3" stroke-linecap="round" stroke-linejoin="round"/>
<path d="M8.875 10.25C9.8415 10.25 10.625 9.4665 10.625 8.5C10.625 7.5335 9.8415 6.75 8.875 6.75C7.9085 6.75 7.125 7.5335 7.125 8.5C7.125 9.4665 7.9085 10.25 8.875 10.25Z" fill="#60627B"/>
<path d="M15.875 17.25C16.8415 17.25 17.625 16.4665 17.625 15.5C17.625 14.5335 16.8415 13.75 15.875 13.75C14.9085 13.75 14.125 14.5335 14.125 15.5C14.125 16.4665 14.9085 17.25 15.875 17.25Z" fill="#60627B"/>
</svg>
