<svg width="24" height="24" viewBox="0 0 24 24" fill="none" xmlns="http://www.w3.org/2000/svg">
<path fill-rule="evenodd" clip-rule="evenodd" d="M3.36364 3C3.26719 3 3.1747 3.03831 3.10651 3.10651C3.03831 3.1747 3 3.26719 3 3.36364V6.09091C3 6.64319 2.55228 7.09091 2 7.09091C1.44772 7.09091 1 6.64319 1 6.09091V3.36364C1 2.73676 1.24903 2.13556 1.69229 1.69229C2.13556 1.24903 2.73676 1 3.36364 1H6.09091C6.64319 1 7.09091 1.44772 7.09091 2C7.09091 2.55228 6.64319 3 6.09091 3H3.36364ZM16.9087 2C16.9087 1.44772 17.3564 1 17.9087 1H20.6359C21.2628 1 21.864 1.24902 22.3073 1.69229C22.7506 2.13556 22.9996 2.73676 22.9996 3.36364V6.09091C22.9996 6.64319 22.5519 7.09091 21.9996 7.09091C21.4473 7.09091 20.9996 6.64319 20.9996 6.09091V3.36364C20.9996 3.26719 20.9613 3.1747 20.8931 3.10651C20.8249 3.03831 20.7324 3 20.6359 3H17.9087C17.3564 3 16.9087 2.55228 16.9087 2ZM11.999 7.34399C11.0325 7.34399 10.249 8.1275 10.249 9.09399C10.249 10.0605 11.0325 10.844 11.999 10.844C12.9655 10.844 13.749 10.0605 13.749 9.09399C13.749 8.1275 12.9655 7.34399 11.999 7.34399ZM8.24902 9.09399C8.24902 7.02293 9.92796 5.34399 11.999 5.34399C14.0701 5.34399 15.749 7.02293 15.749 9.09399C15.749 10.6394 14.8142 11.9665 13.4791 12.5406C14.4238 12.7408 15.3232 13.1318 16.1201 13.6953C17.3252 14.5475 18.2365 15.7524 18.7284 17.144C18.9125 17.6647 18.6396 18.236 18.1189 18.4201C17.5982 18.6042 17.0269 18.3313 16.8428 17.8106C16.4887 16.8089 15.8328 15.9417 14.9653 15.3283C14.0979 14.7149 13.0617 14.3855 11.9993 14.3855C10.9369 14.3855 9.90059 14.7149 9.03316 15.3283C8.16573 15.9417 7.5098 16.8089 7.15571 17.8106C6.97164 18.3313 6.4003 18.6042 5.8796 18.4201C5.35889 18.236 5.08599 17.6647 5.27007 17.144C5.76201 15.7524 6.67329 14.5475 7.87842 13.6953C8.67521 13.1319 9.57454 12.7409 10.5191 12.5407C9.18396 11.9666 8.24902 10.6395 8.24902 9.09399ZM2 16.9091C2.55228 16.9091 3 17.3568 3 17.9091V20.6364C3 20.7328 3.03831 20.8253 3.10651 20.8935C3.1747 20.9617 3.2672 21 3.36364 21H6.09091C6.64319 21 7.09091 21.4478 7.09091 22C7.09091 22.5523 6.64319 23 6.09091 23H3.36364C2.73676 23 2.13556 22.751 1.69229 22.3077C1.24903 21.8645 1 21.2633 1 20.6364V17.9091C1 17.3568 1.44772 16.9091 2 16.9091ZM21.9996 16.9091C22.5519 16.9091 22.9996 17.3568 22.9996 17.9091V20.6364C22.9996 21.2633 22.7506 21.8645 22.3073 22.3077C21.864 22.751 21.2628 23 20.6359 23H17.9087C17.3564 23 16.9087 22.5523 16.9087 22C16.9087 21.4478 17.3564 21 17.9087 21H20.6359C20.7324 21 20.8249 20.9617 20.8931 20.8935C20.9613 20.8253 20.9996 20.7328 20.9996 20.6364V17.9091C20.9996 17.3568 21.4473 16.9091 21.9996 16.9091Z" fill="black"/>
</svg>
