<svg width="24" height="24" viewBox="0 0 24 24" fill="none" xmlns="http://www.w3.org/2000/svg">
<path d="M17.7238 8.68998C18.1049 8.29022 18.0897 7.65723 17.69 7.27617C17.2902 6.89511 16.6572 6.91026 16.2762 7.31002L11.9522 11.8461L10.762 10.4456C10.4044 10.0247 9.77328 9.97348 9.35244 10.3311C8.93159 10.6888 8.88035 11.3198 9.23799 11.7407L10.6611 13.4154C10.819 13.6068 11.0156 13.7497 11.2244 13.8455C11.4377 13.9433 11.667 13.9938 11.8946 13.9995C12.1222 14.0051 12.3529 13.966 12.5696 13.8802C12.7827 13.7958 12.9859 13.6646 13.1538 13.4842L17.7238 8.68998Z" fill="black"/>
<path fill-rule="evenodd" clip-rule="evenodd" d="M4 3.30769C4 2.03319 5.03319 1 6.30769 1H20.6923C21.9668 1 23 2.03319 23 3.30769V17.6923C23 18.9668 21.9668 20 20.6923 20H6.30769C5.03319 20 4 18.9668 4 17.6923V3.30769ZM6.30769 3C6.13776 3 6 3.13776 6 3.30769V17.6923C6 17.8622 6.13776 18 6.30769 18H20.6923C20.8622 18 21 17.8622 21 17.6923V3.30769C21 3.13776 20.8622 3 20.6923 3H6.30769Z" fill="black"/>
<path d="M2 4C2.55228 4 3 4.44772 3 5V18.5C3 19.8807 4.11929 21 5.5 21H19C19.5523 21 20 21.4477 20 22C20 22.5523 19.5523 23 19 23H5.5C3.01472 23 1 20.9853 1 18.5V5C1 4.44772 1.44772 4 2 4Z" fill="black"/>
</svg>
