<svg width="24" height="24" viewBox="0 0 24 24" fill="none" xmlns="http://www.w3.org/2000/svg">
<path d="M17.7616 8.64815C18.1195 8.22758 18.0688 7.59645 17.6482 7.23849C17.2276 6.88054 16.5965 6.93131 16.2385 7.35188L9.77273 14.9489L7.79669 12.3446C7.46286 11.9046 6.83557 11.8186 6.3956 12.1524C5.95563 12.4862 5.86958 13.1135 6.20342 13.5535L8.23914 16.2365C8.41103 16.4709 8.63484 16.658 8.88791 16.788C9.14502 16.9201 9.42816 16.9913 9.71429 16.9993C10.0004 17.0072 10.2868 16.9518 10.5504 16.8348C10.8108 16.7193 11.0453 16.5454 11.2308 16.3215L17.7616 8.64815Z" fill="black"/>
<path fill-rule="evenodd" clip-rule="evenodd" d="M12 1C5.92487 1 1 5.92487 1 12C1 18.0751 5.92487 23 12 23C18.0751 23 23 18.0751 23 12C23 5.92487 18.0751 1 12 1ZM3 12C3 7.02944 7.02944 3 12 3C16.9706 3 21 7.02944 21 12C21 16.9706 16.9706 21 12 21C7.02944 21 3 16.9706 3 12Z" fill="black"/>
</svg>
