<svg width="24" height="24" viewBox="0 0 24 24" fill="none" xmlns="http://www.w3.org/2000/svg">
<path d="M11.7601 4.10019C11.898 3.96326 12.1081 3.97197 12.2289 4.09414L21.2928 13.0991C21.6846 13.4883 22.3177 13.4863 22.707 13.0945C23.0962 12.7027 23.0942 12.0695 22.7024 11.6803L13.6472 2.68398C12.7367 1.76754 11.2605 1.77735 10.3505 2.68137L1.29276 11.6803C0.900966 12.0695 0.898901 12.7027 1.28815 13.0945C1.6774 13.4863 2.31056 13.4883 2.70236 13.0991L11.7601 4.10019Z" fill="black"/>
<path d="M20.3312 14.3767C20.3312 13.8244 19.8835 13.3767 19.3312 13.3767C18.7789 13.3767 18.3312 13.8244 18.3312 14.3767V20.0001H14.9979V15.7014C14.9979 14.41 13.9485 13.3767 12.6646 13.3767H11.3312C10.0473 13.3767 8.99788 14.41 8.99788 15.7014V20.0001H5.66455V14.3767C5.66455 13.8244 5.21684 13.3767 4.66455 13.3767C4.11227 13.3767 3.66455 13.8244 3.66455 14.3767V21.0001C3.66455 21.2653 3.76991 21.5196 3.95744 21.7072C4.14498 21.8947 4.39933 22.0001 4.66455 22.0001H9.99788C10.5502 22.0001 10.9979 21.5523 10.9979 21.0001V15.7014C10.9979 15.5268 11.1396 15.3767 11.3312 15.3767H12.6646C12.8562 15.3767 12.9979 15.5268 12.9979 15.7014V21.0001C12.9979 21.5523 13.4456 22.0001 13.9979 22.0001H19.3312C19.8835 22.0001 20.3312 21.5523 20.3312 21.0001V14.3767Z" fill="black"/>
</svg>
