<svg width="24" height="24" viewBox="0 0 24 24" fill="none" xmlns="http://www.w3.org/2000/svg">
<path d="M19.7071 2.60216C19.3166 2.21163 18.6834 2.21163 18.2929 2.60216C17.9024 2.99268 17.9024 3.62585 18.2929 4.01637L19.2525 4.97593H3.33333C2.06869 4.97593 1 5.98196 1 7.27593V18.6759C1 19.9699 2.06869 20.9759 3.33333 20.9759H20.6667C21.9313 20.9759 23 19.9699 23 18.6759V11.2759C23 10.7236 22.5523 10.2759 22 10.2759C21.4477 10.2759 21 10.7236 21 11.2759V18.6759C21 18.8179 20.8748 18.9759 20.6667 18.9759H3.33333C3.12522 18.9759 3 18.8179 3 18.6759V7.27593C3 7.13396 3.12522 6.97593 3.33333 6.97593H19.2525L18.2929 7.93549C17.9024 8.32601 17.9024 8.95918 18.2929 9.3497C18.6834 9.74023 19.3166 9.74023 19.7071 9.3497L22.3738 6.68304C22.7643 6.29251 22.7643 5.65935 22.3738 5.26882L19.7071 2.60216Z" fill="black"/>
<path fill-rule="evenodd" clip-rule="evenodd" d="M12 8.97595C9.79086 8.97595 8 10.7668 8 12.976C8 15.1851 9.79086 16.976 12 16.976C14.2091 16.976 16 15.1851 16 12.976C16 10.7668 14.2091 8.97595 12 8.97595ZM10 12.976C10 11.8714 10.8954 10.976 12 10.976C13.1046 10.976 14 11.8714 14 12.976C14 14.0805 13.1046 14.976 12 14.976C10.8954 14.976 10 14.0805 10 12.976Z" fill="black"/>
</svg>
