<svg width="24" height="24" viewBox="0 0 24 24" fill="none" xmlns="http://www.w3.org/2000/svg">
<path fill-rule="evenodd" clip-rule="evenodd" d="M4 2C2.89543 2 2 2.89543 2 4V6C2 7.10457 2.89543 8 4 8H20C21.1046 8 22 7.10457 22 6V4C22 2.89543 21.1046 2 20 2H4ZM4 4H20V6H4V4Z" fill="black"/>
<path d="M4 10C2.89543 10 2 10.8954 2 12V14C2 15.1082 2.90181 16 4.00277 16H8C8.55228 16 9 15.5523 9 15C9 14.4477 8.55228 14 8 14H4.00277L4.00168 14L4 13.9986V12H10C10.5523 12 11 11.5523 11 11C11 10.4477 10.5523 10 10 10H4Z" fill="black"/>
<path d="M18 14C18 13.4477 17.5523 13 17 13C16.4477 13 16 13.4477 16 14V17.4142L17.7929 19.2071C18.1834 19.5976 18.8166 19.5976 19.2071 19.2071C19.5976 18.8166 19.5976 18.1834 19.2071 17.7929L18 16.5858V14Z" fill="black"/>
<path fill-rule="evenodd" clip-rule="evenodd" d="M10 17C10 13.134 13.134 10 17 10C20.866 10 24 13.134 24 17C24 20.866 20.866 24 17 24C13.134 24 10 20.866 10 17ZM17 12C14.2386 12 12 14.2386 12 17C12 19.7614 14.2386 22 17 22C19.7614 22 22 19.7614 22 17C22 14.2386 19.7614 12 17 12Z" fill="black"/>
</svg>
