<svg width="24" height="24" viewBox="0 0 24 24" fill="none" xmlns="http://www.w3.org/2000/svg">
<path d="M10.5 5.13798V3H9.5C8.67157 3 8 2.32843 8 1.5C8 0.671573 8.67157 0 9.5 0H14.5C15.3284 0 16 0.671573 16 1.5C16 2.32843 15.3284 3 14.5 3H13.5V5.14077C14.7593 5.34196 15.9358 5.7909 16.9782 6.43603L18.4749 4.93935C19.0607 4.35356 20.0104 4.35356 20.5962 4.93935C21.182 5.52513 21.182 6.47488 20.5962 7.06067L19.2538 8.40302C20.6433 10.0535 21.4805 12.1844 21.4805 14.5107C21.4805 19.7515 17.232 24 11.9912 24C6.75044 24 2.50195 19.7515 2.50195 14.5107C2.50195 9.77732 5.96767 5.85337 10.5 5.13798Z" fill="#434660"/>
<path fill-rule="evenodd" clip-rule="evenodd" d="M7.93957 9.93934C8.52535 9.35355 9.4751 9.35355 10.0609 9.93934L13.2934 13.1718C13.8792 13.7576 13.8792 14.7074 13.2934 15.2931C12.7076 15.8789 11.7578 15.8789 11.1721 15.2931L7.93957 12.0607C7.35378 11.4749 7.35378 10.5251 7.93957 9.93934Z" fill="#A9ABBC"/>
</svg>
