<svg width="24" height="24" viewBox="0 0 24 24" fill="none" xmlns="http://www.w3.org/2000/svg">
<path d="M6 2C5.44772 2 5 2.44772 5 3C5 3.55228 5.44772 4 6 4H17.9998C18.5521 4 18.9998 3.55228 18.9998 3C18.9998 2.44772 18.5521 2 17.9998 2H6Z" fill="black"/>
<path d="M3 6C3 5.44772 3.44772 5 4 5L20 5C20.5523 5 21 5.44771 21 6C21 6.55228 20.5523 7 20 7L4 7C3.44772 7 3 6.55228 3 6Z" fill="black"/>
<path fill-rule="evenodd" clip-rule="evenodd" d="M12 11C9.79086 11 8 12.7909 8 15C8 17.2091 9.79086 19 12 19C14.2091 19 16 17.2091 16 15C16 12.7909 14.2091 11 12 11ZM10 15C10 13.8954 10.8954 13 12 13C13.1046 13 14 13.8954 14 15C14 16.1046 13.1046 17 12 17C10.8954 17 10 16.1046 10 15Z" fill="black"/>
<path fill-rule="evenodd" clip-rule="evenodd" d="M3.33331 7.99999C2.04716 7.99999 1 9.04058 1 10.3298V19.6702C1 20.9594 2.04716 22 3.33331 22H20.6664C21.9526 22 22.9997 20.9594 22.9997 19.6702V10.3298C22.9997 9.04058 21.9526 7.99999 20.6664 7.99999H3.33331ZM3 10.3298C3 10.1501 3.14673 9.99999 3.33331 9.99999H20.6664C20.853 9.99999 20.9997 10.1501 20.9997 10.3298V19.6702C20.9997 19.8499 20.853 20 20.6664 20H3.33331C3.14673 20 3 19.8499 3 19.6702V10.3298Z" fill="black"/>
</svg>
