<svg width="24" height="24" viewBox="0 0 24 24" fill="none" xmlns="http://www.w3.org/2000/svg">
<path d="M3.33308 2C2.7018 2 2.10438 2.26078 1.66996 2.71191C1.23678 3.16176 0.999775 3.76411 0.999775 4.38462L0.999568 5.11983C0.998672 8.10671 0.995371 19.1065 0.999864 19.4441C1.00794 20.0509 1.22595 20.64 1.62225 21.1026C2.01931 21.5662 2.57057 21.8729 3.1789 21.9558C3.1987 21.9585 3.21851 21.9609 3.23832 21.9632C3.32417 21.9872 3.41468 22 3.50819 22H8.7105C9.26279 22 9.7105 21.5523 9.7105 21C9.7105 20.4477 9.26279 20 8.7105 20H5.9546C6.07159 19.5229 6.51766 17.6074 6.95983 15.7086L7.00239 15.5259C7.24846 14.4692 7.49296 13.4193 7.68179 12.612C7.77774 12.2018 7.85913 11.855 7.91898 11.602C7.94893 11.4754 7.97324 11.3734 7.99117 11.2992C8.0055 11.2398 8.01332 11.2084 8.01633 11.1963L8.0177 11.1907C8.04203 11.1038 8.09095 11.0345 8.14955 10.9889C8.20747 10.9438 8.27273 10.923 8.33534 10.9231C8.48061 10.9232 9.06389 10.9232 9.60968 10.9232L10.6662 10.9231C11.2184 10.923 11.6661 10.4752 11.666 9.92291C11.6659 9.37063 11.2178 8.92298 10.6655 8.92308L9.60953 8.92321C9.0628 8.92325 8.48134 8.92325 8.3377 8.92308C7.8225 8.92247 7.32536 9.09591 6.92096 9.41074C6.51723 9.72504 6.22891 10.1619 6.09184 10.6512C6.04564 10.8161 5.58004 12.8155 5.10752 14.8447L5.04267 15.1231C4.79262 16.1969 4.54217 17.2722 4.34809 18.1018C4.25102 18.5167 4.16823 18.8694 4.10671 19.1294C4.07592 19.2594 4.05068 19.3653 4.03175 19.4438L4.00879 19.5381L4 19.573C3.96211 19.7125 3.8795 19.8243 3.77742 19.8941C3.67639 19.9633 3.56034 19.9893 3.4491 19.9741C3.33742 19.9589 3.22677 19.9015 3.14116 19.8015C3.0548 19.7007 3.00165 19.5647 2.99969 19.4175C2.99542 19.0971 2.99865 8.23961 2.99956 5.17512L2.99978 4.38462C2.99978 4.27068 3.04371 4.16866 3.11062 4.09918C3.17629 4.03098 3.25713 4 3.33308 4H7.33299C7.40894 4 7.48978 4.03098 7.55545 4.09918C7.62235 4.16866 7.66629 4.27068 7.66629 4.38462V5.76922C7.66629 6.03444 7.77165 6.2888 7.95918 6.47634C8.14672 6.66387 8.40199 6.76923 8.66721 6.76923H17.9994C18.0754 6.76923 18.1562 6.80021 18.2219 6.86841C18.2888 6.93789 18.3327 7.03991 18.3327 7.15385V7.92306C18.3327 8.47536 18.7804 8.92308 19.3327 8.92308C19.885 8.92308 20.3327 8.47525 20.3327 7.92296V7.15385C20.3327 6.53333 20.0957 5.93099 19.6625 5.48114C19.2281 5.03001 18.6307 4.76923 17.9994 4.76923H9.66629V4.38462C9.66629 3.76411 9.42928 3.16176 8.9961 2.71191C8.56169 2.26078 7.96426 2 7.33299 2H3.33308Z" fill="black"/>
<path d="M16.9571 15.4571C17.3476 15.0666 17.3476 14.4334 16.9571 14.0429C16.5666 13.6524 15.9334 13.6524 15.5429 14.0429L13.2929 16.2929C13.1054 16.4804 13 16.7348 13 17C13 17.2652 13.1054 17.5196 13.2929 17.7071L15.5429 19.9571C15.9334 20.3476 16.5666 20.3476 16.9571 19.9571C17.3476 19.5666 17.3476 18.9334 16.9571 18.5429L16.4142 18H20C20.5523 18 21 17.5523 21 17C21 16.4477 20.5523 16 20 16H16.4142L16.9571 15.4571Z" fill="black"/>
<path fill-rule="evenodd" clip-rule="evenodd" d="M17 10C13.134 10 10 13.134 10 17C10 20.866 13.134 24 17 24C20.866 24 24 20.866 24 17C24 13.134 20.866 10 17 10ZM12 17C12 14.2386 14.2386 12 17 12C19.7614 12 22 14.2386 22 17C22 19.7614 19.7614 22 17 22C14.2386 22 12 19.7614 12 17Z" fill="black"/>
</svg>
