<svg width="24" height="24" viewBox="0 0 24 24" fill="none" xmlns="http://www.w3.org/2000/svg">
<path d="M12.001 3.66736C12.5533 3.66736 13.001 4.11507 13.001 4.66736V12.9189L15.2936 10.6263C15.6841 10.2357 16.3173 10.2357 16.7078 10.6263C17.0983 11.0168 17.0983 11.65 16.7078 12.0405L12.7082 16.0401C12.6735 16.0748 12.6365 16.1066 12.5977 16.1355C12.4335 16.2578 12.2305 16.3309 12.0105 16.3329L12.0011 16.333C11.7207 16.333 11.4671 16.2176 11.2856 16.0317L7.29436 12.0405C6.90383 11.65 6.90383 11.0168 7.29436 10.6263C7.68488 10.2357 8.31805 10.2357 8.70857 10.6263L11.001 12.9187V4.66736C11.001 4.11507 11.4487 3.66736 12.001 3.66736Z" fill="black"/>
<path d="M3.00195 15.333C3.00195 14.7807 2.55424 14.333 2.00195 14.333C1.44967 14.333 1.00195 14.7807 1.00195 15.333V16.6662C1.00195 17.6386 1.38823 18.5712 2.07582 19.2588C2.7634 19.9463 3.69597 20.3326 4.66836 20.3326H19.3336C20.306 20.3326 21.2386 19.9463 21.9261 19.2588C22.6137 18.5712 23 17.6386 23 16.6662V15.333C23 14.7807 22.5523 14.333 22 14.333C21.4477 14.333 21 14.7807 21 15.333V16.6662C21 17.1082 20.8244 17.532 20.5119 17.8445C20.1994 18.1571 19.7756 18.3326 19.3336 18.3326H4.66836C4.2264 18.3326 3.80254 18.1571 3.49003 17.8445C3.17752 17.532 3.00195 17.1082 3.00195 16.6662V15.333Z" fill="black"/>
</svg>
