<svg width="24" height="24" viewBox="0 0 24 24" fill="none" xmlns="http://www.w3.org/2000/svg">
<path fill-rule="evenodd" clip-rule="evenodd" d="M11.2942 21.4617C11.2892 21.4567 11.2843 21.4517 11.2794 21.4466L2.7608 12.5638C0.923718 10.7201 0.479942 7.91279 1.63854 5.59492C3.13016 2.60189 6.76134 1.39898 9.74254 2.88737C10.3356 3.17899 10.8584 3.5648 11.3114 4.01756L11.3125 4.01866L11.9989 4.70065L12.6898 4.00977C15.0527 1.64682 18.878 1.64425 21.2346 4.01057C21.6925 4.46863 22.0755 5.0006 22.3634 5.5765C23.524 7.89767 23.0672 10.704 21.2424 12.5451L12.8684 21.2771C12.6331 21.671 12.1483 21.863 11.6949 21.7123C11.5378 21.6601 11.4022 21.5727 11.2942 21.4617ZM14.104 5.42399C15.6879 3.84005 18.245 3.84235 19.818 5.42239L19.8196 5.42399C20.1259 5.73029 20.3826 6.08704 20.5746 6.47093C21.3506 8.02299 21.0454 9.9066 19.8175 11.1416L19.8049 11.1545L14.3754 16.8162L14.7728 15.6202L14.7801 15.5971C15.0178 14.8193 14.6715 13.9817 13.9439 13.6069L13.9323 13.601L11.1019 12.1894L14.7648 10.7213C14.7762 10.7167 14.7876 10.7119 14.7989 10.7069C14.9797 10.6265 15.1616 10.5078 15.316 10.3551C15.9986 9.68881 15.953 8.6234 15.3221 7.99249L15.3172 7.98766L13.4158 6.11214L14.104 5.42399ZM11.2215 6.74765L9.8983 5.43288C9.58783 5.1224 9.24091 4.86912 8.85791 4.6811L8.85136 4.67788C6.85497 3.67969 4.42559 4.48583 3.42835 6.48743L3.42771 6.48871C2.65031 8.04351 2.95052 9.92513 4.18273 11.1573L4.19738 11.1723L11.584 18.8747L12.7839 15.2632L9.54587 13.6483L9.54496 13.6479C9.18338 13.4671 8.90016 13.1583 8.74746 12.7875L8.73879 12.7657C8.41425 11.9219 8.81502 10.948 9.67541 10.6065L13.5498 9.05357L11.2991 6.83342C11.2713 6.806 11.2454 6.77736 11.2215 6.74765Z" fill="black"/>
</svg>
