<svg width="24" height="24" viewBox="0 0 24 24" fill="none" xmlns="http://www.w3.org/2000/svg">
<path fill-rule="evenodd" clip-rule="evenodd" d="M18.5 11C20.433 11 22 9.433 22 7.5C22 5.567 20.433 4 18.5 4C16.567 4 15 5.567 15 7.5C15 9.433 16.567 11 18.5 11ZM18.5 9C19.3284 9 20 8.32843 20 7.5C20 6.67157 19.3284 6 18.5 6C17.6716 6 17 6.67157 17 7.5C17 8.32843 17.6716 9 18.5 9Z" fill="black"/>
<path d="M2 7.5C2 6.94772 2.44772 6.5 3 6.5H12.5C13.0523 6.5 13.5 6.94772 13.5 7.5C13.5 8.05228 13.0523 8.5 12.5 8.5H3C2.44772 8.5 2 8.05228 2 7.5Z" fill="black"/>
<path fill-rule="evenodd" clip-rule="evenodd" d="M14 16.5C14 18.433 12.433 20 10.5 20C8.567 20 7 18.433 7 16.5C7 14.567 8.567 13 10.5 13C12.433 13 14 14.567 14 16.5ZM12 16.5C12 17.3284 11.3284 18 10.5 18C9.67157 18 9 17.3284 9 16.5C9 15.6716 9.67157 15 10.5 15C11.3284 15 12 15.6716 12 16.5Z" fill="black"/>
<path d="M2 16.5C2 15.9477 2.44772 15.5 3 15.5H4.50391C5.05619 15.5 5.50391 15.9477 5.50391 16.5C5.50391 17.0523 5.05619 17.5 4.50391 17.5H3C2.44772 17.5 2 17.0523 2 16.5Z" fill="black"/>
<path d="M16.4976 15.5C15.9453 15.5 15.4976 15.9477 15.4976 16.5C15.4976 17.0523 15.9453 17.5 16.4976 17.5H20.9976C21.5498 17.5 21.9976 17.0523 21.9976 16.5C21.9976 15.9477 21.5498 15.5 20.9976 15.5H16.4976Z" fill="black"/>
</svg>
