<svg width="24" height="24" viewBox="0 0 24 24" fill="none" xmlns="http://www.w3.org/2000/svg">
<path fill-rule="evenodd" clip-rule="evenodd" d="M13.5705 9.00011C13.2923 8.99698 13.0173 9.06147 12.7694 9.18826C12.5214 9.31507 12.3078 9.50052 12.1474 9.72897C12.1151 9.77499 11.6401 10.4482 11.1712 11.1127L10.8545 11.5615L10.51 11.287C10.3244 11.1391 10.1102 11.0315 9.88112 10.9706C9.65208 10.9097 9.41291 10.8969 9.17872 10.9329C8.94452 10.9689 8.72012 11.053 8.51979 11.1801C8.31945 11.3072 8.14746 11.4746 8.01502 11.672C7.99128 11.7074 7.97343 11.7392 7.96974 11.7458C7.963 11.7578 7.95707 11.7688 7.95278 11.7769C7.944 11.7934 7.93455 11.8116 7.92548 11.8294C7.90696 11.8655 7.88308 11.913 7.85547 11.9684C7.79989 12.0798 7.7244 12.2328 7.63636 12.4119C7.46006 12.7708 7.23054 13.2407 7.00318 13.7072C6.77572 14.1739 6.55003 14.6379 6.38122 14.9852L6.10037 15.5634C5.94995 15.8733 5.96963 16.2388 6.15246 16.5307C6.33529 16.8227 6.65552 17 7 17H17C17.3465 17 17.6683 16.8206 17.8505 16.5259C18.0328 16.2312 18.0494 15.8631 17.8946 15.5531L17.4575 14.6784C17.1948 14.153 16.8439 13.4513 16.491 12.7466C16.1381 12.0421 15.7829 11.3339 15.5117 10.7955C15.3762 10.5265 15.2612 10.2989 15.1777 10.1349C15.1362 10.0532 15.1015 9.98558 15.0757 9.93592L15.0739 9.93231C15.0634 9.91179 15.0174 9.82174 14.9767 9.76092C14.8216 9.52888 14.6122 9.33863 14.3671 9.20625C14.1221 9.07389 13.8486 9.00324 13.5705 9.00011ZM9.5407 13.0719L9.43139 13.2939C9.25653 13.6498 9.02813 14.1174 8.801 14.5834L8.59809 15H15.3822C15.1738 14.5833 14.9387 14.1135 14.7027 13.6423C14.35 12.9381 13.9956 12.2315 13.7255 11.6952C13.6452 11.5358 13.5725 11.3918 13.5097 11.2676L11.8779 13.5801C11.7191 13.805 11.4744 13.955 11.2019 13.9939C10.9293 14.0328 10.6528 13.9577 10.4375 13.7862L9.5407 13.0719Z" fill="black"/>
<path d="M9.25 9.5C9.94036 9.5 10.5 8.94036 10.5 8.25C10.5 7.55964 9.94036 7 9.25 7C8.55964 7 8 7.55964 8 8.25C8 8.94036 8.55964 9.5 9.25 9.5Z" fill="black"/>
<path fill-rule="evenodd" clip-rule="evenodd" d="M5.75002 1.00034C6.25479 0.986131 14.5994 0.998803 14.824 0.999956C15.1988 1.00188 15.5686 1.08181 15.9107 1.23418C16.2529 1.38652 16.5595 1.60776 16.8127 1.88321C16.8782 1.95448 17.4247 2.54218 18.0656 3.23129L18.4442 3.63846C19.2308 4.48434 20.0438 5.35887 20.2143 5.54419C20.7231 6.0972 21.0019 6.8243 20.9995 7.5751C20.9979 8.08707 20.9884 19.587 20.9993 20.0646C21.0163 20.8163 20.7418 21.5483 20.2293 22.0998C19.7161 22.652 19.005 22.9783 18.25 22.9995C17.7478 23.0137 6.25215 23.0137 5.75002 22.9995C4.995 22.9783 4.28394 22.652 3.77071 22.0998C3.25819 21.5483 2.98372 20.8163 3.00075 20.0646C3.0116 19.5852 3.0116 4.41467 3.00075 3.93531C2.98372 3.18363 3.25819 2.45159 3.77071 1.90014C4.28394 1.34791 4.995 1.02159 5.75002 1.00034ZM14.8137 2.99993C14.5668 2.99866 6.26828 2.98654 5.8063 2.99955C5.59456 3.00551 5.38878 3.09697 5.2357 3.26168C5.08191 3.42716 4.99486 3.65282 5.00023 3.89003C5.01177 4.39957 5.01177 19.6003 5.00023 20.1099C4.99486 20.3471 5.0819 20.5727 5.2357 20.7382C5.38878 20.9029 5.59456 20.9944 5.8063 21.0003C6.27092 21.0134 17.7291 21.0134 18.1937 21.0003C18.4054 20.9944 18.6112 20.9029 18.7643 20.7382C18.9181 20.5727 19.0051 20.3471 18.9998 20.1099C18.9882 19.5986 18.9979 8.06035 18.9995 7.56869C19.0003 7.31585 18.9061 7.07621 18.7425 6.8983C18.5767 6.71815 17.7695 5.84989 16.9796 5.00042L16.6006 4.59282L16.5994 4.59156C15.9609 3.90496 15.41 3.31258 15.3402 3.23668C15.2704 3.1607 15.1874 3.10142 15.0972 3.06122C15.0069 3.02105 14.9106 3.00043 14.8137 2.99993Z" fill="black"/>
</svg>
