<svg width="24" height="24" viewBox="0 0 24 24" fill="none" xmlns="http://www.w3.org/2000/svg">
<path d="M6 2C5.44772 2 5 2.44772 5 3C5 3.55228 5.44772 4 6 4H17.9998C18.5521 4 18.9998 3.55228 18.9998 3C18.9998 2.44772 18.5521 2 17.9998 2H6Z" fill="black"/>
<path d="M3 6C3 5.44772 3.44772 5 4 5L20 5C20.5523 5 21 5.44771 21 6C21 6.55228 20.5523 7 20 7L4 7C3.44772 7 3 6.55228 3 6Z" fill="black"/>
<path d="M3.33331 10C3.14673 10 3 10.1501 3 10.3298V19.6702C3 19.8499 3.14673 20 3.33331 20H7.99986C8.55215 20 8.99986 20.4477 8.99986 21C8.99986 21.5523 8.55215 22 7.99986 22H3.33331C2.04716 22 1 20.9594 1 19.6702V10.3298C1 9.04059 2.04716 8 3.33331 8H11.9999C12.5521 8 12.9999 8.44772 12.9999 9C12.9999 9.55228 12.5521 10 11.9999 10H3.33331Z" fill="black"/>
<path d="M15.987 17.0669L16.7893 19.1426C16.8839 19.3873 17.048 19.5882 17.2478 19.7301C17.447 19.8716 17.6775 19.9521 17.9109 19.9714C18.1443 19.9907 18.3823 19.949 18.5986 19.8461C18.8154 19.743 19.0089 19.5787 19.1454 19.361L19.7808 18.3468H20.5C21.0523 18.3468 21.5 17.8991 21.5 17.3468C21.5 16.7945 21.0523 16.3468 20.5 16.3468H19.2273C18.8829 16.3468 18.5627 16.5241 18.3799 16.8159L18.1661 17.1571L17.2582 14.8082L17.257 14.8051C17.156 14.5464 16.9776 14.3376 16.7618 14.1955C16.5468 14.0539 16.2992 13.9809 16.0516 13.9762C15.8041 13.9715 15.5546 14.0351 15.3351 14.1674C15.1149 14.3 14.9288 14.5002 14.8169 14.7531L14.119 16.3468H13.5C12.9477 16.3468 12.5 16.7945 12.5 17.3468C12.5 17.8991 12.9477 18.3468 13.5 18.3468H14.7727C15.1699 18.3468 15.5294 18.1118 15.6887 17.748L15.987 17.0669Z" fill="black"/>
<path fill-rule="evenodd" clip-rule="evenodd" d="M17 9.97595C13.134 9.97595 10 13.11 10 16.976C10 20.8419 13.134 23.976 17 23.976C20.866 23.976 24 20.8419 24 16.976C24 13.11 20.866 9.97595 17 9.97595ZM12 16.976C12 14.2145 14.2386 11.976 17 11.976C19.7614 11.976 22 14.2145 22 16.976C22 19.7374 19.7614 21.976 17 21.976C14.2386 21.976 12 19.7374 12 16.976Z" fill="black"/>
</svg>
