<svg width="24" height="24" viewBox="0 0 24 24" fill="none" xmlns="http://www.w3.org/2000/svg">
<path fill-rule="evenodd" clip-rule="evenodd" d="M4 2.25C2.48122 2.25 1.25 3.48122 1.25 5C1.25 6.51878 2.48122 7.75 4 7.75C5.51878 7.75 6.75 6.51878 6.75 5C6.75 3.48122 5.51878 2.25 4 2.25ZM2.75 5C2.75 4.30964 3.30964 3.75 4 3.75C4.69036 3.75 5.25 4.30964 5.25 5C5.25 5.69036 4.69036 6.25 4 6.25C3.30964 6.25 2.75 5.69036 2.75 5Z" fill="black"/>
<path fill-rule="evenodd" clip-rule="evenodd" d="M4 9.25C2.48122 9.25 1.25 10.4812 1.25 12C1.25 13.5188 2.48122 14.75 4 14.75C5.51878 14.75 6.75 13.5188 6.75 12C6.75 10.4812 5.51878 9.25 4 9.25ZM2.75 12C2.75 11.3096 3.30964 10.75 4 10.75C4.69036 10.75 5.25 11.3096 5.25 12C5.25 12.6904 4.69036 13.25 4 13.25C3.30964 13.25 2.75 12.6904 2.75 12Z" fill="black"/>
<path fill-rule="evenodd" clip-rule="evenodd" d="M1.25 19C1.25 17.4812 2.48122 16.25 4 16.25C5.51878 16.25 6.75 17.4812 6.75 19C6.75 20.5188 5.51878 21.75 4 21.75C2.48122 21.75 1.25 20.5188 1.25 19ZM4 17.75C3.30964 17.75 2.75 18.3096 2.75 19C2.75 19.6904 3.30964 20.25 4 20.25C4.69036 20.25 5.25 19.6904 5.25 19C5.25 18.3096 4.69036 17.75 4 17.75Z" fill="black"/>
<path d="M9 4C8.44772 4 8 4.44772 8 5C8 5.55228 8.44772 6 9 6L21 6C21.5523 6 22 5.55228 22 5C22 4.44771 21.5523 4 21 4L9 4Z" fill="black"/>
<path d="M8 12C8 11.4477 8.44772 11 9 11L21 11C21.5523 11 22 11.4477 22 12C22 12.5523 21.5523 13 21 13L9 13C8.44772 13 8 12.5523 8 12Z" fill="black"/>
<path d="M9 18C8.44772 18 8 18.4477 8 19C8 19.5523 8.44772 20 9 20L21 20C21.5523 20 22 19.5523 22 19C22 18.4477 21.5523 18 21 18L9 18Z" fill="black"/>
</svg>
