<svg width="24" height="24" viewBox="0 0 24 24" fill="none" xmlns="http://www.w3.org/2000/svg">
<path fill-rule="evenodd" clip-rule="evenodd" d="M16.594 6.38414C16.2006 5.58488 15.3878 5.08997 14.5067 5.08997H7.48444C6.60339 5.08997 5.79059 5.58485 5.39715 6.38405L5.39541 6.38759L4.01961 9.14666C2.30132 9.45153 1 10.9496 1 12.7566V15.0577C1 16.3477 2.04327 17.391 3.33333 17.391C3.88562 17.391 4.33333 16.9433 4.33333 16.391C4.33333 15.8387 3.88562 15.391 3.33333 15.391C3.14784 15.391 3 15.2432 3 15.0577V12.7566C3 11.8578 3.70452 11.1295 4.59365 11.0915C4.61757 11.0938 4.64182 11.095 4.66634 11.095H17.333C17.3626 11.095 17.3917 11.0933 17.4204 11.09H19.3333C20.2566 11.09 21 11.8334 21 12.7566V15.0577C21 15.2432 20.8522 15.391 20.6667 15.391C20.1144 15.391 19.6667 15.8387 19.6667 16.391C19.6667 16.9433 20.1144 17.391 20.6667 17.391C21.9567 17.391 23 16.3477 23 15.0577V12.7566C23 10.7288 21.3612 9.08997 19.3333 9.08997H17.9432L16.594 6.38414ZM15.9602 9.595L14.8029 7.27398L14.7999 7.2679C14.7482 7.16251 14.6376 7.08997 14.5067 7.08997H7.48444C7.35346 7.08997 7.24292 7.16251 7.19125 7.2679L7.18825 7.27398L6.0309 9.595H15.9602Z" fill="black"/>
<path fill-rule="evenodd" clip-rule="evenodd" d="M9.26025 16.4C9.26025 15.1518 8.24839 14.14 7.0002 14.14C5.75201 14.14 4.74015 15.1518 4.74015 16.4C4.74015 17.6482 5.75201 18.6601 7.0002 18.6601C8.24839 18.6601 9.26025 17.6482 9.26025 16.4ZM7.0002 15.64C7.41997 15.64 7.76025 15.9803 7.76025 16.4C7.76025 16.8198 7.41997 17.1601 7.0002 17.1601C6.58043 17.1601 6.24015 16.8198 6.24015 16.4C6.24015 15.9803 6.58043 15.64 7.0002 15.64Z" fill="black"/>
<path fill-rule="evenodd" clip-rule="evenodd" d="M19.2432 16.4C19.2432 15.1518 18.2313 14.14 16.9831 14.14C15.7349 14.14 14.7231 15.1518 14.7231 16.4C14.7231 17.6482 15.7349 18.6601 16.9831 18.6601C18.2313 18.6601 19.2432 17.6482 19.2432 16.4ZM16.9831 15.64C17.4029 15.64 17.7432 15.9803 17.7432 16.4C17.7432 16.8198 17.4029 17.1601 16.9831 17.1601C16.5633 17.1601 16.2231 16.8198 16.2231 16.4C16.2231 15.9803 16.5633 15.64 16.9831 15.64Z" fill="black"/>
<path d="M13.2173 17.4001C13.7696 17.4001 14.2173 16.9523 14.2173 16.4001C14.2173 15.8478 13.7696 15.4001 13.2173 15.4001H10.7662C10.2139 15.4001 9.76621 15.8478 9.76621 16.4001C9.76621 16.9523 10.2139 17.4001 10.7662 17.4001H13.2173Z" fill="black"/>
</svg>
