<svg width="24" height="24" viewBox="0 0 24 24" fill="none" xmlns="http://www.w3.org/2000/svg">
<path fill-rule="evenodd" clip-rule="evenodd" d="M12 3C7.02944 3 3 7.02944 3 12C3 16.9706 7.02944 21 12 21C16.9706 21 21 16.9706 21 12C21 7.02944 16.9706 3 12 3ZM1 12C1 5.92487 5.92487 1 12 1C18.0751 1 23 5.92487 23 12C23 18.0751 18.0751 23 12 23C5.92487 23 1 18.0751 1 12Z" fill="black"/>
<path fill-rule="evenodd" clip-rule="evenodd" d="M9.94018 8.84293L8.26214 13.038C8.11027 13.4177 7.74256 13.6666 7.33366 13.6666H4.66699C4.11471 13.6666 3.66699 13.2189 3.66699 12.6666C3.66699 12.1144 4.11471 11.6666 4.66699 11.6666H6.65663L8.4134 7.27472C8.74969 6.42684 9.72516 5.99842 10.5845 6.35488C11.0344 6.53761 11.353 6.89361 11.5155 7.2997C11.5206 7.31244 11.5254 7.32528 11.53 7.33822L14.2141 14.9419L15.7989 12.1703C15.977 11.8588 16.3082 11.6666 16.667 11.6666H19.3337C19.8859 11.6666 20.3337 12.1144 20.3337 12.6666C20.3337 13.2189 19.8859 13.6666 19.3337 13.6666H17.2471L15.5884 16.5675L15.5778 16.5856C15.3858 16.9055 15.0825 17.1709 14.7001 17.3065C13.8195 17.6211 12.8756 17.1441 12.5702 16.2934L12.5685 16.2884L9.94018 8.84293Z" fill="black"/>
</svg>
