<svg width="24" height="24" viewBox="0 0 24 24" fill="none" xmlns="http://www.w3.org/2000/svg">
<path d="M12 8C12.5523 8 13 8.44772 13 9V15C13 15.5523 12.5523 16 12 16C11.4477 16 11 15.5523 11 15V9C11 8.44772 11.4477 8 12 8Z" fill="black"/>
<path d="M13.25 18.25C13.25 18.9404 12.6904 19.5 12 19.5C11.3096 19.5 10.75 18.9404 10.75 18.25C10.75 17.5596 11.3096 17 12 17C12.6904 17 13.25 17.5596 13.25 18.25Z" fill="black"/>
<path fill-rule="evenodd" clip-rule="evenodd" d="M12 1C11.513 1 11.0358 1.13648 10.6225 1.39396C10.2091 1.65144 9.87624 2.01961 9.66155 2.4567L1.24124 19.6104C1.06491 19.9691 0.982907 20.3668 1.00296 20.766C1.02302 21.1652 1.14448 21.5527 1.35587 21.8919C1.56727 22.2312 1.86162 22.5109 2.21115 22.7048C2.56068 22.8987 2.95386 23.0003 3.35356 23C3.58288 22.9998 20.4171 22.9998 20.6464 23C21.0461 23.0003 21.4393 22.8987 21.7888 22.7048C22.1384 22.5109 22.4327 22.2312 22.6441 21.8919C22.8555 21.5527 22.977 21.1652 22.997 20.766C23.0171 20.3668 22.9351 19.9691 22.7588 19.6104L14.3385 2.4567C14.1238 2.01961 13.7909 1.65144 13.3775 1.39396C12.9642 1.13648 12.487 1 12 1ZM11.6799 3.09153C11.776 3.03171 11.8869 3 12 3C12.1131 3 12.224 3.03171 12.3201 3.09153C12.4161 3.15136 12.4934 3.2369 12.5433 3.33846L20.9639 20.4927C20.9903 20.5464 21.0026 20.6059 20.9996 20.6657C20.9966 20.7254 20.9784 20.7834 20.9467 20.8342C20.9151 20.8849 20.871 20.9268 20.8187 20.9558C20.7664 20.9848 20.7076 21 20.6478 21C20.4176 20.9998 3.58243 20.9998 3.35223 21C3.29242 21 3.23358 20.9848 3.18127 20.9558C3.12895 20.9268 3.0849 20.8849 3.05326 20.8342C3.02162 20.7834 3.00345 20.7254 3.00044 20.6657C2.99744 20.6059 3.00972 20.5464 3.03611 20.4927L11.4567 3.33846C11.5066 3.2369 11.5839 3.15136 11.6799 3.09153Z" fill="black"/>
</svg>
