<svg width="24" height="24" viewBox="0 0 24 24" fill="none" xmlns="http://www.w3.org/2000/svg">
<path fill-rule="evenodd" clip-rule="evenodd" d="M5.71703 3C4.74905 3 4.00098 3.76062 4.00098 4.66667V15.4445L15.2232 15.4444C15.7755 15.4444 16.2232 15.8922 16.2232 16.4444V19.3333C16.2232 21.3784 14.5449 23 12.5071 23H5.71703C3.67924 23 2.00098 21.3784 2.00098 19.3333V4.66667C2.00098 2.62161 3.67924 1 5.71703 1H12.5071C14.5449 1 16.2232 2.62161 16.2232 4.66667C16.2232 5.21895 15.7755 5.66667 15.2232 5.66667C14.6709 5.66667 14.2232 5.21895 14.2232 4.66667C14.2232 3.76062 13.4751 3 12.5071 3H5.71703ZM5.71703 21C4.74905 21 4.00098 20.2394 4.00098 19.3333V17.4445H14.2232V19.3333C14.2232 20.2394 13.4751 21 12.5071 21H5.71703Z" fill="black"/>
<path d="M21.9988 10.5634C21.9988 8.9575 21.4294 7.40359 20.3918 6.17788C20.035 5.75635 19.404 5.70392 18.9824 6.06076C18.5609 6.4176 18.5085 7.04859 18.8653 7.47011C19.5972 8.33466 19.9988 9.4307 19.9988 10.5634C19.9988 11.6962 19.5972 12.7922 18.8653 13.6568C18.5085 14.0783 18.5609 14.7093 18.9824 15.0661C19.404 15.4229 20.035 15.3705 20.3918 14.949C21.4294 13.7233 21.9988 12.1694 21.9988 10.5634Z" fill="black"/>
<path d="M14.4756 8.78378C14.7454 9.33822 14.8856 9.94674 14.8856 10.5633C14.8856 11.1799 14.7454 11.7884 14.4756 12.3429C14.234 12.8395 13.6355 13.0462 13.1389 12.8046C12.6423 12.5629 12.4356 11.9645 12.6772 11.4678C12.8143 11.186 12.8856 10.8767 12.8856 10.5633C12.8856 10.2499 12.8143 9.94063 12.6772 9.65881C12.4356 9.16219 12.6423 8.56372 13.1389 8.32208C13.6355 8.08045 14.234 8.28716 14.4756 8.78378Z" fill="black"/>
<path d="M18.4559 10.5632C18.4559 9.44009 18.1073 8.34462 17.4583 7.42797C17.1392 6.97723 16.5151 6.87054 16.0643 7.18967C15.6136 7.50881 15.5069 8.13292 15.826 8.58366C16.2358 9.16243 16.4559 9.85409 16.4559 10.5632C16.4559 11.2724 16.2358 11.964 15.826 12.5428C15.5069 12.9935 15.6136 13.6177 16.0643 13.9368C16.5151 14.2559 17.1392 14.1492 17.4583 13.6985C18.1073 12.7818 18.4559 11.6864 18.4559 10.5632Z" fill="black"/>
</svg>
