<svg width="24" height="24" viewBox="0 0 24 24" fill="none" xmlns="http://www.w3.org/2000/svg">
<path fill-rule="evenodd" clip-rule="evenodd" d="M12.2247 3.06584C12.0903 2.97805 11.9099 2.97805 11.7754 3.06584C11.7637 3.07354 11.7517 3.08098 11.7396 3.08817L5.63945 6.71429H18.3607L12.2605 3.08817C12.2485 3.08098 12.2365 3.07354 12.2247 3.06584ZM13.2982 1.37832C12.5088 0.873894 11.4914 0.873894 10.702 1.37832L1.48912 6.85469C1.10209 7.08475 0.916533 7.54509 1.03583 7.97924C1.15512 8.41339 1.54984 8.71429 2.00009 8.71429H22.0001C22.4503 8.71429 22.8451 8.41339 22.9643 7.97924C23.0836 7.54509 22.8981 7.08475 22.5111 6.85469L13.2982 1.37832ZM3.42898 9.57139C3.98126 9.57139 4.42898 10.0191 4.42898 10.5714V18.1428H5.28612V10.5714C5.28612 10.0191 5.73383 9.57139 6.28612 9.57139C6.8384 9.57139 7.28612 10.0191 7.28612 10.5714V19.1428C7.28612 19.6951 6.8384 20.1428 6.28612 20.1428H3.42898C2.87669 20.1428 2.42898 19.6951 2.42898 19.1428V10.5714C2.42898 10.0191 2.87669 9.57139 3.42898 9.57139ZM10.5712 9.57139C11.1235 9.57139 11.5712 10.0191 11.5712 10.5714V18.1428H12.4283V10.5714C12.4283 10.0191 12.8761 9.57139 13.4283 9.57139C13.9806 9.57139 14.4283 10.0191 14.4283 10.5714V19.1428C14.4283 19.6951 13.9806 20.1428 13.4283 20.1428H10.5712C10.0189 20.1428 9.5712 19.6951 9.5712 19.1428V10.5714C9.5712 10.0191 10.0189 9.57139 10.5712 9.57139ZM17.7143 9.57139C18.2666 9.57139 18.7143 10.0191 18.7143 10.5714V18.1428H19.5715V10.5714C19.5715 10.0191 20.0192 9.57139 20.5715 9.57139C21.1237 9.57139 21.5715 10.0191 21.5715 10.5714V19.1428C21.5715 19.6951 21.1237 20.1428 20.5715 20.1428H17.7143C17.162 20.1428 16.7143 19.6951 16.7143 19.1428V10.5714C16.7143 10.0191 17.162 9.57139 17.7143 9.57139ZM1.00009 22C1.00009 21.4477 1.4478 21 2.00009 21H22.0001C22.5524 21 23.0001 21.4477 23.0001 22C23.0001 22.5523 22.5524 23 22.0001 23H2.00009C1.4478 23 1.00009 22.5523 1.00009 22Z" fill="black"/>
</svg>
