<svg width="24" height="24" viewBox="0 0 24 24" fill="none" xmlns="http://www.w3.org/2000/svg">
<path fill-rule="evenodd" clip-rule="evenodd" d="M17.3671 6.6327C17.7576 7.02322 17.7576 7.65639 17.3671 8.04692L8.03817 17.3761C7.64765 17.7666 7.01449 17.7666 6.62396 17.3761C6.23343 16.9856 6.23342 16.3524 6.62394 15.9619L15.9528 6.63272C16.3434 6.24219 16.9765 6.24219 17.3671 6.6327Z" fill="black"/>
<path fill-rule="evenodd" clip-rule="evenodd" d="M4.46471 12.4702C5.46836 11.4665 6.85736 10.9461 8.26543 11.0238C8.81687 11.0541 9.23927 11.5258 9.20887 12.0773C9.17848 12.6287 8.7068 13.0511 8.15535 13.0207C7.30671 12.9739 6.47454 13.2888 5.87895 13.8844L3.87989 15.8835C2.70559 17.0578 2.70849 18.9553 3.87788 20.1181L3.8799 20.1201C5.05419 21.2944 6.95158 21.2915 8.1143 20.1221L8.11632 20.1201L10.1154 18.121C10.7116 17.5248 11.0259 16.701 10.979 15.8441C10.9488 15.2926 11.3714 14.8211 11.9229 14.7909C12.4743 14.7608 12.9458 15.1834 12.976 15.7348C13.0535 17.1524 12.5326 18.5321 11.5296 19.5352L9.53256 21.5323L9.53161 21.5332C7.58499 23.49 4.41968 23.4872 2.46679 21.5354C0.509659 19.5884 0.512858 16.4221 2.46566 14.4693L4.46471 12.4702Z" fill="black"/>
<path fill-rule="evenodd" clip-rule="evenodd" d="M14.4687 2.46666C16.4154 0.509933 19.5808 0.512901 21.5336 2.46484C23.4905 4.41188 23.4872 7.57795 21.5345 9.53072L19.5355 11.5298C18.5318 12.5335 17.1428 13.0539 15.7347 12.9763C15.1833 12.9459 14.7609 12.4742 14.7913 11.9227C14.8217 11.3713 15.2934 10.9489 15.8448 10.9793C16.6935 11.0261 17.5256 10.7112 18.1212 10.1156L20.1203 8.11653C21.2946 6.94219 21.2917 5.04469 20.1223 3.88192L20.1203 3.87991C18.946 2.70558 17.0486 2.70849 15.8859 3.87789L15.8839 3.87991L13.8848 5.87902C13.2892 6.47463 12.9744 7.30684 13.0212 8.15553C13.0516 8.70698 12.6292 9.17866 12.0777 9.20905C11.5263 9.23944 11.0546 8.81705 11.0242 8.2656C10.9466 6.85752 11.4669 5.4685 12.4706 4.46482L14.4687 2.46666Z" fill="black"/>
</svg>
