<svg width="24" height="24" viewBox="0 0 24 24" fill="none" xmlns="http://www.w3.org/2000/svg">
<g clip-path="url(#clip0_2618_696)">
<path fill-rule="evenodd" clip-rule="evenodd" d="M7.62861 14.5715C8.14139 14.3664 8.72336 14.6158 8.92848 15.1286L11.9285 22.6286C12.1336 23.1413 11.8842 23.7233 11.3714 23.9284C10.8586 24.1335 10.2766 23.8841 10.0715 23.3713L7.07152 15.8713C6.86641 15.3586 7.11583 14.7766 7.62861 14.5715Z" fill="black"/>
<path fill-rule="evenodd" clip-rule="evenodd" d="M11.3714 14.5715C11.8842 14.7766 12.1336 15.3586 11.9285 15.8713L8.92848 23.3713C8.72336 23.8841 8.14139 24.1335 7.62861 23.9284C7.11583 23.7233 6.86641 23.1413 7.07152 22.6286L10.0715 15.1286C10.2766 14.6158 10.8586 14.3664 11.3714 14.5715Z" fill="black"/>
<path fill-rule="evenodd" clip-rule="evenodd" d="M14 14.4999C14.5523 14.4999 15 14.9477 15 15.4999V21.4999C15 21.6326 15.0527 21.7597 15.1464 21.8535C15.2402 21.9473 15.3674 21.9999 15.5 21.9999H17C17.5523 21.9999 18 22.4477 18 22.9999C18 23.5522 17.5523 23.9999 17 23.9999H15.5C14.837 23.9999 14.2011 23.7366 13.7322 23.2677C13.2634 22.7989 13 22.163 13 21.4999V15.4999C13 14.9477 13.4477 14.4999 14 14.4999Z" fill="black"/>
<path fill-rule="evenodd" clip-rule="evenodd" d="M19.7322 15.2322C20.2011 14.7633 20.837 14.4999 21.5 14.4999H23C23.5523 14.4999 24 14.9477 24 15.4999C24 16.0522 23.5523 16.4999 23 16.4999H21.5C21.3674 16.4999 21.2402 16.5526 21.1464 16.6464C21.0527 16.7402 21 16.8673 21 16.9999C21 17.564 21.299 17.8492 22.1 18.4499C22.1231 18.4672 22.1467 18.4849 22.1708 18.5029C22.877 19.0305 24 19.8697 24 21.4999C24 22.163 23.7366 22.7989 23.2678 23.2677C22.7989 23.7366 22.163 23.9999 21.5 23.9999H20C19.4477 23.9999 19 23.5522 19 22.9999C19 22.4477 19.4477 21.9999 20 21.9999H21.5C21.6326 21.9999 21.7598 21.9473 21.8536 21.8535C21.9473 21.7597 22 21.6326 22 21.4999C22 20.9359 21.701 20.6507 20.9 20.0499C20.8769 20.0326 20.8533 20.015 20.8292 19.997C20.123 19.4693 19 18.6302 19 16.9999C19 16.3369 19.2634 15.701 19.7322 15.2322Z" fill="black"/>
<path d="M14.8137 2.99993C14.5668 2.99866 6.26828 2.98654 5.8063 2.99955C5.59456 3.00551 5.38878 3.09697 5.2357 3.26168C5.08191 3.42716 4.99486 3.65282 5.00023 3.89003C5.01177 4.39957 5.01177 19.6003 5.00023 20.1099C4.99486 20.3471 5.0819 20.5727 5.2357 20.7382C5.61168 21.1427 5.58852 21.7755 5.18398 22.1515C4.77943 22.5275 4.14669 22.5043 3.77071 22.0998C3.25819 21.5483 2.98372 20.8163 3.00075 20.0646C3.0116 19.5852 3.0116 4.41467 3.00075 3.93531C2.98372 3.18363 3.25819 2.45159 3.77071 1.90014C4.28394 1.34791 4.995 1.02159 5.75002 1.00034C6.25479 0.986131 14.5994 0.998803 14.824 0.999956C15.1988 1.00188 15.5686 1.08181 15.9107 1.23418C16.2529 1.38652 16.5595 1.60776 16.8127 1.88321C16.8782 1.95448 17.4247 2.54218 18.0656 3.23129L18.4442 3.63846C19.2308 4.48434 20.0438 5.35887 20.2143 5.54419C20.7231 6.0972 21.0019 6.8243 20.9995 7.5751C20.9987 7.82379 20.9987 8.95008 20.9989 10.0175L20.9995 12.0861C20.9997 12.6384 20.5522 13.087 19.9999 13.0872C19.4476 13.0874 18.9997 12.6399 18.9995 12.0876L18.9989 10.0179C18.9987 8.95318 18.9987 7.82181 18.9995 7.56869C19.0003 7.31585 18.9061 7.07621 18.7425 6.8983C18.5767 6.71815 17.7695 5.84989 16.9796 5.00042L16.5994 4.59156C15.9609 3.90496 15.41 3.31258 15.3402 3.23668C15.2704 3.1607 15.1874 3.10142 15.0972 3.06122C15.0069 3.02105 14.9106 3.00043 14.8137 2.99993Z" fill="black"/>
</g>
<defs>
<clipPath id="clip0_2618_696">
<rect width="24" height="24" fill="white"/>
</clipPath>
</defs>
</svg>
