<svg width="24" height="24" viewBox="0 0 24 24" fill="none" xmlns="http://www.w3.org/2000/svg">
<path fill-rule="evenodd" clip-rule="evenodd" d="M3 3V21H11.1333V15.4444H9.91111C9.52802 15.4444 9.16062 15.2923 8.88974 15.0214C8.61885 14.7505 8.46667 14.3831 8.46667 14V11.3333C8.46667 10.9502 8.61885 10.5828 8.88974 10.312C9.16062 10.0411 9.52802 9.88889 9.91111 9.88889H11.1336C11.1487 8.30314 11.7852 6.7856 12.9076 5.66317C14.0437 4.52712 15.5845 3.88889 17.1911 3.88889H18.8C19.1831 3.88889 19.5505 4.04107 19.8214 4.31196C20.0923 4.58284 20.2444 4.95024 20.2444 5.33333V8C20.2444 8.38309 20.0923 8.75049 19.8214 9.02138C19.5505 9.29226 19.1831 9.44444 18.8 9.44444H17.1911C17.1252 9.44444 17.0599 9.45743 16.9989 9.48267C16.938 9.50791 16.8826 9.54491 16.836 9.59154C16.7893 9.63818 16.7524 9.69354 16.7271 9.75447C16.7093 9.79758 16.6975 9.84287 16.6922 9.88903L18.2615 9.88897C18.2856 9.88894 18.295 9.88892 18.295 9.88892C18.5002 9.88743 18.7033 9.92968 18.8909 10.0129C19.0785 10.096 19.2462 10.2182 19.3829 10.3713C19.5196 10.5244 19.6221 10.7048 19.6835 10.9006C19.745 11.0963 19.7641 11.303 19.7394 11.5067C19.7358 11.5371 19.6743 12.0216 19.6052 12.5661L19.5719 12.8287C19.4896 13.4774 19.4077 14.123 19.4017 14.1733C19.3591 14.5256 19.1883 14.8499 18.9219 15.0844C18.6555 15.3188 18.3121 15.447 17.9572 15.4444C17.9075 15.4441 17.3452 15.444 16.7859 15.4441L16.6889 15.4442V21H21V3H3ZM15.6885 13.4444C15.1364 13.4446 14.6889 13.8923 14.6889 14.4444V22C14.6889 22.5523 15.1366 23 15.6889 23H21.1111C21.6121 23 22.0925 22.801 22.4468 22.4468C22.801 22.0925 23 21.6121 23 21.1111V2.88889C23 2.38793 22.801 1.90748 22.4468 1.55324C22.0925 1.19901 21.6121 1 21.1111 1H2.88889C2.38792 1 1.90748 1.19901 1.55324 1.55324C1.19901 1.90748 1 2.38792 1 2.88889V21.1111C1 21.6121 1.19901 22.0925 1.55324 22.4468C1.90748 22.801 2.38793 23 2.88889 23H12.1333C12.6856 23 13.1333 22.5523 13.1333 22V14.4444C13.1333 13.8922 12.6856 13.4444 12.1333 13.4444H10.4667V11.8889H12.1333C12.6856 11.8889 13.1333 11.4412 13.1333 10.8889V9.94667C13.1333 8.87048 13.5608 7.83837 14.3218 7.07738C15.0828 6.3164 16.1149 5.88889 17.1911 5.88889H18.2444V7.44444H17.1911C16.8625 7.44444 16.5371 7.50917 16.2336 7.63491C15.93 7.76066 15.6541 7.94497 15.4218 8.17733C15.1894 8.40968 15.0051 8.68552 14.8794 8.98911C14.7536 9.29269 14.6889 9.61807 14.6889 9.94667V10.8889C14.6889 11.4411 15.1365 11.8888 15.6887 11.8889L16.9718 11.8891C17.2152 11.8891 17.4613 11.8891 17.6751 11.8891L17.5878 12.577C17.5487 12.8853 17.5092 13.197 17.4779 13.4441C17.2726 13.4441 17.0268 13.4441 16.7855 13.4441L15.6885 13.4444Z" fill="black"/>
</svg>
