<svg width="63" height="40" viewBox="0 0 63 40" fill="none" xmlns="http://www.w3.org/2000/svg">
<path d="M40.6208 4.78711H22.0938V35.1211H40.6208V4.78711Z" fill="#FF5F00"/>
<path d="M24.0027 19.957C24.0007 17.036 24.6617 14.153 25.9347 11.526C27.2077 8.89897 29.0607 6.59597 31.3527 4.79297C28.5137 2.55597 25.1047 1.16597 21.5147 0.77997C17.9247 0.39397 14.2987 1.02797 11.0517 2.60997C7.80373 4.19197 5.06673 6.65797 3.15073 9.72597C1.23573 12.794 0.219727 16.34 0.219727 19.959C0.219727 23.579 1.23573 27.125 3.15073 30.193C5.06673 33.261 7.80373 35.727 11.0517 37.309C14.2987 38.891 17.9247 39.525 21.5147 39.139C25.1047 38.753 28.5137 37.363 31.3527 35.126C29.0597 33.322 27.2067 31.019 25.9337 28.391C24.6597 25.763 23.9997 22.879 24.0027 19.957Z" fill="#EB001B"/>
<path d="M60.6493 31.9121V31.2901H60.9163V31.1621H60.2803V31.2901H60.5313V31.9121H60.6493ZM61.8843 31.9121V31.1621H61.6913L61.4673 31.6981L61.2423 31.1621H61.0503V31.9121H61.1893V31.3441L61.3973 31.8311H61.5423L61.7503 31.3441V31.9121H61.8843Z" fill="black"/>
<path d="M62.4886 19.9572C62.4886 23.5772 61.4725 27.1232 59.5565 30.1912C57.6405 33.2592 54.9025 35.7252 51.6545 37.3072C48.4065 38.8892 44.7806 39.5222 41.1906 39.1362C37.5996 38.7492 34.1905 37.3582 31.3525 35.1212C33.6435 33.3162 35.4955 31.0132 36.7695 28.3862C38.0425 25.7582 38.7045 22.8752 38.7045 19.9542C38.7045 17.0332 38.0425 14.1502 36.7695 11.5232C35.4955 8.89616 33.6435 6.59316 31.3525 4.78816C34.1905 2.55016 37.5996 1.15917 41.1906 0.772165C44.7806 0.386165 48.4065 1.02016 51.6545 2.60116C54.9025 4.18316 57.6405 6.64916 59.5565 9.71716C61.4725 12.7852 62.4886 16.3322 62.4886 19.9522V19.9572Z" fill="#F79E1B"/>
</svg>
