<svg width="24" height="24" viewBox="0 0 24 24" fill="none" xmlns="http://www.w3.org/2000/svg">
<path fill-rule="evenodd" clip-rule="evenodd" d="M7.33333 3C4.9401 3 3 4.9401 3 7.33333V16.6667C3 19.0599 4.9401 21 7.33333 21H16.6667C19.0599 21 21 19.0599 21 16.6667V7.33333C21 4.9401 19.0599 3 16.6667 3H7.33333ZM1 7.33333C1 3.83553 3.83553 1 7.33333 1H16.6667C20.1645 1 23 3.83553 23 7.33333V16.6667C23 20.1645 20.1645 23 16.6667 23H7.33333C3.83553 23 1 20.1645 1 16.6667V7.33333Z" fill="black"/>
<path fill-rule="evenodd" clip-rule="evenodd" d="M12 9C10.3431 9 9 10.3431 9 12C9 13.6569 10.3431 15 12 15C13.6569 15 15 13.6569 15 12C15 10.3431 13.6569 9 12 9ZM7 12C7 9.23858 9.23858 7 12 7C14.7614 7 17 9.23858 17 12C17 14.7614 14.7614 17 12 17C9.23858 17 7 14.7614 7 12Z" fill="black"/>
<path d="M19 6.25C19 6.94036 18.4404 7.5 17.75 7.5C17.0596 7.5 16.5 6.94036 16.5 6.25C16.5 5.55964 17.0596 5 17.75 5C18.4404 5 19 5.55964 19 6.25Z" fill="black"/>
</svg>
