<svg width="24" height="24" viewBox="0 0 24 24" fill="none" xmlns="http://www.w3.org/2000/svg">
<g clip-path="url(#clip0_2618_707)">
<path d="M5.8063 2.99955C6.26828 2.98654 14.5668 2.99866 14.8137 2.99993C14.9106 3.00043 15.0069 3.02105 15.0972 3.06122C15.1874 3.10142 15.2704 3.1607 15.3402 3.23668C15.4099 3.31243 15.9586 3.90256 16.5955 4.58738L16.9796 5.00042C17.7695 5.84989 18.5767 6.71815 18.7425 6.8983C18.9061 7.07621 19.0003 7.31585 18.9995 7.56869C18.9987 7.82181 18.9987 8.95318 18.9989 10.0179L18.9995 12.0876C18.9997 12.6399 19.4476 13.0874 19.9999 13.0872C20.5522 13.087 20.9997 12.6384 20.9995 12.0861L20.9989 10.0175C20.9987 8.95008 20.9987 7.82379 20.9995 7.5751C21.0019 6.8243 20.7231 6.0972 20.2143 5.54419C20.0438 5.35887 19.2308 4.48434 18.4442 3.63846L18.0632 3.22872C17.4234 2.54072 16.8781 1.95439 16.8127 1.88321C16.5595 1.60776 16.2529 1.38652 15.9107 1.23418C15.5686 1.08181 15.1988 1.00188 14.824 0.999956C14.5994 0.998803 6.25479 0.986131 5.75002 1.00034C4.995 1.02159 4.28394 1.34791 3.77071 1.90014C3.25819 2.45159 2.98372 3.18363 3.00075 3.93531C3.0116 4.41467 3.0116 19.5852 3.00075 20.0646C2.98372 20.8163 3.25819 21.5483 3.77071 22.0998C4.14669 22.5043 4.77943 22.5275 5.18398 22.1515C5.58852 21.7755 5.61168 21.1427 5.2357 20.7382C5.0819 20.5727 4.99486 20.3471 5.00023 20.1099C5.01177 19.6003 5.01177 4.39957 5.00023 3.89003C4.99486 3.65282 5.08191 3.42716 5.2357 3.26168C5.38878 3.09697 5.59456 3.00551 5.8063 2.99955Z" fill="black"/>
<path fill-rule="evenodd" clip-rule="evenodd" d="M7 15.5C7 14.9477 7.44772 14.5 8 14.5H9.125C9.8875 14.5 10.6188 14.8029 11.1579 15.3421C11.6971 15.8812 12 16.6125 12 17.375C12 18.1375 11.6971 18.8688 11.1579 19.4079C10.9215 19.6443 10.6482 19.8353 10.3515 19.9753L11.8576 22.4855C12.1418 22.9591 11.9882 23.5734 11.5146 23.8575C11.0411 24.1417 10.4268 23.9881 10.1427 23.5145L9 21.6101V23C9 23.5523 8.55228 24 8 24C7.44772 24 7 23.5523 7 23V15.5ZM9 18.25V16.5H9.125C9.35707 16.5 9.57963 16.5922 9.74372 16.7563C9.90781 16.9204 10 17.1429 10 17.375C10 17.6071 9.90781 17.8296 9.74372 17.9937C9.57963 18.1578 9.35707 18.25 9.125 18.25H9Z" fill="black"/>
<path d="M14 14.5C13.4477 14.5 13 14.9477 13 15.5C13 16.0523 13.4477 16.5 14 16.5H14.5V23C14.5 23.5523 14.9477 24 15.5 24C16.0523 24 16.5 23.5523 16.5 23V16.5H17C17.5523 16.5 18 16.0523 18 15.5C18 14.9477 17.5523 14.5 17 14.5H14Z" fill="black"/>
<path d="M21.5 16.5C21.3674 16.5 21.2402 16.5527 21.1464 16.6464C21.0527 16.7402 21 16.8674 21 17V19H22.25C22.8023 19 23.25 19.4477 23.25 20C23.25 20.5523 22.8023 21 22.25 21H21V23C21 23.5523 20.5523 24 20 24C19.4477 24 19 23.5523 19 23V17C19 16.337 19.2634 15.7011 19.7322 15.2322C20.2011 14.7634 20.837 14.5 21.5 14.5H23C23.5523 14.5 24 14.9477 24 15.5C24 16.0523 23.5523 16.5 23 16.5H21.5Z" fill="black"/>
</g>
<defs>
<clipPath id="clip0_2618_707">
<rect width="24" height="24" fill="white"/>
</clipPath>
</defs>
</svg>
