<svg width="24" height="24" viewBox="0 0 24 24" fill="none" xmlns="http://www.w3.org/2000/svg">
<path fill-rule="evenodd" clip-rule="evenodd" d="M11.9993 0C12.5516 0 12.9993 0.447715 12.9993 1V3.31951L15.0414 1.68581C15.4727 1.3408 16.102 1.41072 16.447 1.84198C16.792 2.27324 16.7221 2.90253 16.2908 3.24754L12.9993 5.88076V7.75498L15.1769 9.00796L16.8034 8.07067L17.4353 3.91028C17.5183 3.36426 18.0281 2.98886 18.5742 3.0718C19.1202 3.15474 19.4956 3.66461 19.4127 4.21063L19.0204 6.79308L21.024 5.63845C21.5025 5.3627 22.114 5.52707 22.3897 6.00558C22.6655 6.4841 22.5011 7.09556 22.0226 7.37131L20.0238 8.52316L22.4552 9.47505C22.9695 9.67639 23.2232 10.2565 23.0218 10.7708C22.8205 11.2851 22.2404 11.5388 21.7261 11.3374L17.8045 9.8021L16.1771 10.7399V13.2601L17.8045 14.1979L21.7261 12.6626C22.2404 12.4613 22.8205 12.7149 23.0218 13.2292C23.2232 13.7435 22.9695 14.3236 22.4552 14.525L20.0238 15.4769L22.0226 16.6287C22.5011 16.9044 22.6655 17.5159 22.3897 17.9944C22.114 18.4729 21.5025 18.6373 21.024 18.3615L19.0204 17.2069L19.4127 19.7894C19.4956 20.3354 19.1202 20.8453 18.5742 20.9282C18.0281 21.0112 17.5183 20.6358 17.4353 20.0897L16.8034 15.9293L15.1769 14.9921L12.9993 16.245V18.1193L16.2908 20.7525C16.7221 21.0975 16.792 21.7268 16.447 22.158C16.102 22.5893 15.4727 22.6592 15.0414 22.3142L12.9993 20.6805V23C12.9993 23.5523 12.5516 24 11.9993 24C11.447 24 10.9993 23.5523 10.9993 23V20.6808L8.95748 22.3142C8.52622 22.6592 7.89693 22.5893 7.55192 22.158C7.20691 21.7268 7.27683 21.0975 7.70809 20.7525L10.9993 18.1195V16.245L8.82197 14.9922L7.19629 15.929L6.56429 20.0897C6.48135 20.6358 5.97147 21.0112 5.42545 20.9282C4.87943 20.8453 4.50403 20.3354 4.58697 19.7894L4.97929 17.2066L2.97515 18.3615C2.49664 18.6373 1.88518 18.4729 1.60942 17.9944C1.33367 17.5159 1.49804 16.9044 1.97656 16.6287L3.97552 15.4767L1.5444 14.525C1.03013 14.3236 0.776439 13.7435 0.977778 13.2292C1.17912 12.7149 1.75924 12.4613 2.27352 12.6626L6.19486 14.1978L7.82156 13.2604V10.7396L6.19487 9.80221L2.27352 11.3374C1.75924 11.5388 1.17912 11.2851 0.977778 10.7708C0.776439 10.2565 1.03013 9.67639 1.5444 9.47505L3.97553 8.52327L1.97656 7.37131C1.49804 7.09556 1.33367 6.4841 1.60942 6.00558C1.88518 5.52707 2.49664 5.3627 2.97515 5.63845L4.97928 6.79338L4.58697 4.21063C4.50403 3.66461 4.87943 3.15474 5.42545 3.0718C5.97147 2.98886 6.48135 3.36426 6.56429 3.91028L7.19629 8.07097L8.82199 9.00782L10.9993 7.75503V5.8805L7.70809 3.24754C7.27683 2.90253 7.20691 2.27324 7.55192 1.84198C7.89693 1.41072 8.52622 1.3408 8.95748 1.68581L10.9993 3.31925V1C10.9993 0.447715 11.447 0 11.9993 0ZM9.82156 10.7401L11.9993 9.48706L14.1771 10.7401V13.2599L11.9993 14.513L9.82156 13.2599V10.7401Z" fill="black"/>
</svg>
