<svg width="24" height="24" viewBox="0 0 24 24" fill="none" xmlns="http://www.w3.org/2000/svg">
<path d="M17.133 2.44995C17.5416 2.44995 17.8739 2.77674 17.8828 3.18323H18.5989C19.0131 3.18323 19.3489 3.51901 19.3489 3.93323C19.3489 4.34744 19.0131 4.68323 18.5989 4.68323H17.1695C17.1574 4.68381 17.1452 4.6841 17.133 4.6841C17.1207 4.6841 17.1085 4.68381 17.0965 4.68323H16.6141C16.3047 4.68323 16.0539 4.9341 16.0539 5.24343C16.0539 5.47739 16.1919 5.67643 16.399 5.75762L16.4055 5.76017L18.4214 6.57243C19.4782 7.0013 19.9862 8.19866 19.5595 9.2564C19.2769 9.9726 18.6189 10.4523 17.883 10.5365C17.8816 10.9496 17.5463 11.284 17.133 11.284C16.724 11.284 16.3916 10.9567 16.3831 10.5498H15.6656C15.2514 10.5498 14.9156 10.214 14.9156 9.7998C14.9156 9.38559 15.2514 9.0498 15.6656 9.0498H17.6505C17.8779 9.0498 18.0847 8.90873 18.1647 8.70466L18.1679 8.69645C18.2857 8.40611 18.1487 8.08101 17.8581 7.96264L15.8478 7.15267C15.0596 6.84187 14.5539 6.08373 14.5539 5.24343C14.5539 4.18379 15.354 3.31092 16.383 3.19605C16.3851 2.78363 16.7201 2.44995 17.133 2.44995Z" fill="black"/>
<path fill-rule="evenodd" clip-rule="evenodd" d="M10.2668 6.86657C10.2668 3.07427 13.341 0 17.1333 0C20.9256 0 23.9999 3.07427 23.9999 6.86657C23.9999 10.6589 20.9256 13.7331 17.1333 13.7331C13.341 13.7331 10.2668 10.6589 10.2668 6.86657ZM17.1333 2C14.4456 2 12.2668 4.17884 12.2668 6.86657C12.2668 9.55431 14.4456 11.7331 17.1333 11.7331C19.8211 11.7331 21.9999 9.55431 21.9999 6.86657C21.9999 4.17884 19.8211 2 17.1333 2Z" fill="black"/>
<path d="M4.05964 17.8831C4.40513 19.5596 5.88659 20.8164 7.66684 20.8164C8.08105 20.8164 8.41684 20.4806 8.41684 20.0664C8.41684 19.6522 8.08105 19.3164 7.66684 19.3164C6.72166 19.3164 5.91981 18.7207 5.61496 17.8831H7.66676C8.08097 17.8831 8.41676 17.5473 8.41676 17.1331C8.41676 16.7188 8.08097 16.3831 7.66676 16.3831H5.61501C5.91989 15.5454 6.72171 14.9498 7.66684 14.9498C8.08105 14.9498 8.41684 14.614 8.41684 14.1998C8.41684 13.7856 8.08105 13.4498 7.66684 13.4498C5.88663 13.4498 4.4052 14.7066 4.05966 16.3831H4.00015C3.58594 16.3831 3.25015 16.7188 3.25015 17.1331C3.25015 17.5473 3.58594 17.8831 4.00015 17.8831H4.05964Z" fill="black"/>
<path fill-rule="evenodd" clip-rule="evenodd" d="M6.86672 10.2665C3.07442 10.2665 0.000151153 13.3407 0.000151153 17.1331C0.000151153 20.9254 3.07442 23.9996 6.86672 23.9996C10.659 23.9996 13.7333 20.9254 13.7333 17.1331C13.7333 13.3407 10.659 10.2665 6.86672 10.2665ZM2.00015 17.1331C2.00015 14.4453 4.17899 12.2665 6.86672 12.2665C9.55446 12.2665 11.7333 14.4453 11.7333 17.1331C11.7333 19.8208 9.55446 21.9996 6.86672 21.9996C4.17899 21.9996 2.00015 19.8208 2.00015 17.1331Z" fill="black"/>
<path d="M0.485655 3.80907C0.959236 3.52492 1.5735 3.67849 1.85764 4.15207L3.03574 6.11556C3.47656 3.45262 5.31447 1.16296 7.93346 0.20726C8.45228 0.0179356 9.02635 0.285045 9.21567 0.803866C9.40499 1.32269 9.13788 1.89675 8.61906 2.08608C6.82599 2.74039 5.52821 4.24492 5.09299 6.03126L6.35223 5.27572C6.82581 4.99157 7.44007 5.14513 7.72422 5.61871C8.00837 6.09229 7.8548 6.70655 7.38122 6.9907L4.53044 8.70117C4.49037 8.72945 4.44807 8.75488 4.40381 8.77714L3.71461 9.19067C3.48719 9.32712 3.21488 9.36764 2.95758 9.30332C2.70028 9.23899 2.47908 9.07509 2.34262 8.84767L0.142658 5.18106C-0.14149 4.70748 0.0120751 4.09322 0.485655 3.80907Z" fill="black"/>
<path d="M21.0421 14.6962C21.2994 14.7606 21.5206 14.9245 21.6571 15.1519L23.857 18.8185C24.1412 19.2921 23.9876 19.9063 23.514 20.1905C23.0405 20.4746 22.4262 20.3211 22.142 19.8475L20.9665 17.8882C20.5259 20.5468 18.6873 22.8367 16.0685 23.7923C15.5497 23.9817 14.9757 23.7145 14.7863 23.1957C14.597 22.6769 14.8641 22.1028 15.3829 21.9135C17.1788 21.2582 18.4771 19.7505 18.9106 17.966L17.6475 18.7238C17.1739 19.008 16.5596 18.8544 16.2755 18.3808C15.9913 17.9073 16.1449 17.293 16.6185 17.0089L20.2851 14.8089C20.5125 14.6724 20.7848 14.6319 21.0421 14.6962Z" fill="black"/>
</svg>
