<svg width="24" height="24" viewBox="0 0 24 24" fill="none" xmlns="http://www.w3.org/2000/svg">
<path d="M9.24531 8.74875L11.9913 3.31035L14.7374 8.74875C14.8916 9.05426 15.1914 9.25965 15.532 9.2932L20.8353 9.8156C20.7453 10.1538 20.8358 10.5295 21.1046 10.7908C21.5006 11.1757 22.1337 11.1667 22.5187 10.7707C22.7902 10.4914 22.9578 10.1267 22.9916 9.73741C23.0139 9.51352 22.9917 9.2875 22.9261 9.07229C22.8591 8.85215 22.7484 8.64818 22.6009 8.47229C22.4535 8.29643 22.2724 8.15227 22.0688 8.04787C21.869 7.94544 21.6513 7.8832 21.4281 7.86431L16.275 7.35671L13.534 1.92837C13.5269 1.91415 13.5193 1.90011 13.5115 1.88626C13.3359 1.57623 13.0677 1.3306 12.7465 1.18187C12.5561 1.08668 12.3498 1.02765 12.138 1.00764C11.9143 0.986509 11.6885 1.00929 11.4734 1.07483C11.2584 1.14036 11.0579 1.24747 10.8836 1.39048C10.7094 1.5335 10.5648 1.70968 10.4586 1.90926L10.4487 1.92837L7.70763 7.35686L2.56384 7.86488C2.16781 7.90209 1.79532 8.0741 1.51031 8.35398L1.50857 8.35569C1.34802 8.51412 1.2201 8.70292 1.13263 8.9115C1.04516 9.12011 1 9.34412 1 9.57059C1 9.79706 1.04516 10.0211 1.13263 10.2297C1.21946 10.4367 1.34614 10.6243 1.50503 10.782L5.74873 15.0383L4.27038 20.8268C4.15029 21.1951 4.15688 21.5935 4.29016 21.9585C4.30606 22.0021 4.32497 22.0445 4.34676 22.0854C4.45298 22.285 4.5976 22.4612 4.77185 22.6042C4.94607 22.7472 5.14656 22.8543 5.36165 22.9199C5.57673 22.9854 5.80254 23.0082 6.02623 22.987C6.24511 22.9664 6.45819 22.904 6.65381 22.8031L9.53697 21.3719C10.0317 21.1263 10.2336 20.5263 9.98806 20.0316C9.7425 19.5369 9.14241 19.3349 8.64772 19.5805L6.36326 20.7145L7.82723 14.9823C7.91446 14.6407 7.8154 14.2784 7.56648 14.0288L3.34743 9.79722L8.45094 9.29318C8.79143 9.25955 9.0911 9.05418 9.24531 8.74875Z" fill="black"/>
<path d="M18 14C18 13.4477 17.5523 13 17 13C16.4477 13 16 13.4477 16 14V16H14C13.4477 16 13 16.4477 13 17C13 17.5523 13.4477 18 14 18H16V20C16 20.5523 16.4477 21 17 21C17.5523 21 18 20.5523 18 20V18H20C20.5523 18 21 17.5523 21 17C21 16.4477 20.5523 16 20 16H18V14Z" fill="black"/>
<path fill-rule="evenodd" clip-rule="evenodd" d="M17 10C13.134 10 10 13.134 10 17C10 20.866 13.134 24 17 24C20.866 24 24 20.866 24 17C24 13.134 20.866 10 17 10ZM12 17C12 14.2386 14.2386 12 17 12C19.7614 12 22 14.2386 22 17C22 19.7614 19.7614 22 17 22C14.2386 22 12 19.7614 12 17Z" fill="black"/>
</svg>
