<svg width="24" height="24" viewBox="0 0 24 24" fill="none" xmlns="http://www.w3.org/2000/svg">
<path d="M14 10.5C14 9.94772 14.4477 9.5 15 9.5L18 9.5C18.5523 9.5 19 9.94772 19 10.5C19 11.0523 18.5523 11.5 18 11.5H15C14.4477 11.5 14 11.0523 14 10.5Z" fill="black"/>
<path d="M15 13C14.4477 13 14 13.4477 14 14C14 14.5523 14.4477 15 15 15H19.5C20.0523 15 20.5 14.5523 20.5 14C20.5 13.4477 20.0523 13 19.5 13H15Z" fill="black"/>
<path fill-rule="evenodd" clip-rule="evenodd" d="M4.5 13.0001C4.18828 12.9998 3.88127 12.8542 3.68627 12.5812C3.36526 12.1318 3.46935 11.5073 3.91876 11.1863L7.41876 8.68627C7.76646 8.43791 8.23354 8.43791 8.58124 8.68627L12.0812 11.1863C12.5307 11.5073 12.6347 12.1318 12.3137 12.5812C12.1187 12.8542 11.8117 12.9998 11.5 13.0001V16C11.5 16.5523 11.0523 17 10.5 17H5.5C4.94772 17 4.5 16.5523 4.5 16V13.0001ZM9.5 11.8003V15H6.5V11.8003L8 10.7289L9.5 11.8003Z" fill="black"/>
<path fill-rule="evenodd" clip-rule="evenodd" d="M0 5.45455C0 4.09113 1.1122 3 2.46667 3H21.5333C22.8878 3 24 4.09113 24 5.45455V18.5455C24 19.9089 22.8878 21 21.5333 21H2.46667C1.1122 21 0 19.9089 0 18.5455V5.45455ZM2.46667 5C2.20109 5 2 5.21131 2 5.45455V18.5455C2 18.7887 2.20109 19 2.46667 19H21.5333C21.7989 19 22 18.7887 22 18.5455V5.45455C22 5.21131 21.7989 5 21.5333 5H2.46667Z" fill="black"/>
</svg>
