<svg width="24" height="24" viewBox="0 0 24 24" fill="none" xmlns="http://www.w3.org/2000/svg">
<path fill-rule="evenodd" clip-rule="evenodd" d="M21.7071 2.29289C22.0976 2.68342 22.0976 3.31658 21.7071 3.70711L3.70711 21.7071C3.31658 22.0976 2.68342 22.0976 2.29289 21.7071C1.90237 21.3166 1.90237 20.6834 2.29289 20.2929L20.2929 2.29289C20.6834 1.90237 21.3166 1.90237 21.7071 2.29289Z" fill="black"/>
<path fill-rule="evenodd" clip-rule="evenodd" d="M11.2344 2.11813C11.5597 1.94418 11.9545 1.9635 12.2613 2.16841L15.5554 4.36841C16.0147 4.67514 16.1383 5.29611 15.8316 5.75539C15.5249 6.21466 14.9039 6.33833 14.4446 6.03159L12.7059 4.87037V8.71575C12.7059 9.26804 12.2582 9.71575 11.7059 9.71575C11.1536 9.71575 10.7059 9.26804 10.7059 8.71575V3C10.7059 2.63106 10.909 2.29209 11.2344 2.11813ZM6.25671 7.13104C6.62616 6.72053 7.25845 6.68725 7.66896 7.05671L10.3809 9.49746C10.7914 9.86692 10.8247 10.4992 10.4552 10.9097C10.0858 11.3202 9.45349 11.3535 9.04298 10.984L6.33104 8.5433C5.92053 8.17384 5.88725 7.54155 6.25671 7.13104ZM13.1456 13.331C13.5151 12.9205 14.1473 12.8872 14.5579 13.2567L17.669 16.0567C17.8877 16.2536 18.0087 16.5369 17.9995 16.8311C17.9904 17.1253 17.8521 17.4005 17.6215 17.5834L12.3274 21.7834C12.0268 22.0219 11.6163 22.0673 11.2709 21.9004C10.9254 21.7335 10.7059 21.3837 10.7059 21V16.1013C10.7059 15.549 11.1536 15.1013 11.7059 15.1013C12.2582 15.1013 12.7059 15.549 12.7059 16.1013V18.9302L15.4517 16.7519L13.2199 14.7433C12.8094 14.3738 12.7761 13.7415 13.1456 13.331Z" fill="black"/>
</svg>
