<svg width="24" height="24" viewBox="0 0 24 24" fill="none" xmlns="http://www.w3.org/2000/svg">
<path d="M12 24C18.6274 24 24 18.6274 24 12C24 5.37258 18.6274 0 12 0C5.37258 0 0 5.37258 0 12C0 18.6274 5.37258 24 12 24Z" fill="#86E9E9"/>
<path d="M11.3106 7.91535C11.5549 7.78897 11.8291 7.73217 12.1035 7.75113C12.3778 7.7701 12.6416 7.86411 12.8661 8.0229C13.0907 8.18168 13.2672 8.39913 13.3765 8.65147C13.4857 8.90381 13.5236 9.18133 13.4858 9.45371C13.448 9.72609 13.336 9.98283 13.1622 10.1959C12.9883 10.4089 12.7593 10.5701 12.5 10.6618C11.9148 10.8687 11.4083 11.2519 11.0501 11.7588C10.692 12.2654 10.4998 12.8708 10.5 13.4912V14.497C10.5 15.3254 11.1716 15.997 12 15.997C12.8284 15.997 13.5 15.3254 13.5 14.497V13.4902C14.2778 13.2152 14.965 12.7317 15.4866 12.0925C16.0081 11.4534 16.3439 10.6831 16.4573 9.86601C16.5707 9.04888 16.4572 8.21631 16.1294 7.45928C15.8016 6.70226 15.272 6.04993 14.5984 5.57357C13.9249 5.09722 13.1334 4.81518 12.3104 4.75828C11.4874 4.70138 10.6646 4.8718 9.93192 5.25093C9.19924 5.63006 8.58488 6.2033 8.15598 6.908C7.72709 7.6127 7.50016 8.42174 7.5 9.2467C7.49984 10.0751 8.17129 10.7468 8.99971 10.747C9.82814 10.7471 10.4998 10.0757 10.5 9.24727C10.5001 8.97229 10.5757 8.70261 10.7187 8.46771C10.8616 8.23281 11.0664 8.04173 11.3106 7.91535Z" fill="#0D8B9C"/>
<path d="M11.0278 17.2954C11.3155 17.1031 11.6539 17.0005 12 17.0005C12.4641 17.0005 12.9092 17.1849 13.2374 17.5131C13.5656 17.8412 13.75 18.2864 13.75 18.7505C13.75 19.0966 13.6474 19.435 13.4551 19.7227C13.2628 20.0105 12.9895 20.2348 12.6697 20.3673C12.3499 20.4997 11.9981 20.5344 11.6586 20.4669C11.3191 20.3993 11.0073 20.2327 10.7626 19.9879C10.5178 19.7432 10.3512 19.4314 10.2836 19.0919C10.2161 18.7524 10.2508 18.4006 10.3832 18.0808C10.5157 17.761 10.74 17.4877 11.0278 17.2954Z" fill="#0D8B9C"/>
</svg>
