<svg width="24" height="24" viewBox="0 0 24 24" fill="none" xmlns="http://www.w3.org/2000/svg">
<path d="M20 8.64274V5.30941C20 4.95579 19.8595 4.61665 19.6095 4.3666C19.3594 4.11655 19.0203 3.97607 18.6667 3.97607H5.33333C4.97971 3.97607 4.64057 4.11655 4.39052 4.3666C4.14048 4.61665 4 4.95579 4 5.30941V13.9761H11" stroke="black" stroke-width="2" stroke-linecap="round" stroke-linejoin="round"/>
<path d="M11 13.9761H4.00014L2.11483 18.1014C2.02464 18.3044 1.98661 18.5268 2.00418 18.7482C2.02175 18.9696 2.09437 19.1832 2.21544 19.3694C2.33652 19.5557 2.5022 19.7087 2.69746 19.8147C2.89271 19.9206 3.11134 19.9761 3.33348 19.9761H11" stroke="black" stroke-width="2" stroke-linecap="round" stroke-linejoin="round"/>
<path d="M23 16.125C23.0025 17.7259 22.5579 19.28 21.7396 20.5301C20.9213 21.7803 19.7785 22.6516 18.5 23C17.2215 22.6516 16.0787 21.7803 15.2604 20.5301C14.4421 19.28 13.9975 17.7259 14 16.125V13.375C14 13.0103 14.1185 12.6606 14.3295 12.4027C14.5405 12.1449 14.8266 12 15.125 12H21.875C22.1734 12 22.4595 12.1449 22.6705 12.4027C22.8815 12.6606 23 13.0103 23 13.375V16.125Z" stroke="black" stroke-width="2" stroke-linecap="round" stroke-linejoin="round"/>
<path d="M3.68342 3.65949C4.121 3.22191 4.71449 2.97607 5.33333 2.97607H18.6667C19.2855 2.97607 19.879 3.22191 20.3166 3.65949C20.7542 4.09708 21 4.69057 21 5.30941V8.64274C21 9.19503 20.5523 9.64274 20 9.64274C19.4477 9.64274 19 9.19503 19 8.64274V5.30941C19 5.221 18.9649 5.13622 18.9024 5.07371C18.8399 5.01119 18.7551 4.97607 18.6667 4.97607H5.33333C5.24493 4.97607 5.16014 5.01119 5.09763 5.07371C5.03512 5.13622 5 5.221 5 5.30941V12.9761H11C11.5523 12.9761 12 13.4238 12 13.9761C12 14.5284 11.5523 14.9761 11 14.9761H4.64261L3.02729 18.5106C3.00577 18.5605 2.99675 18.6149 3.00104 18.6691C3.00544 18.7245 3.02359 18.7779 3.05386 18.8244C3.08413 18.871 3.12555 18.9092 3.17436 18.9357C3.22317 18.9622 3.27783 18.9761 3.33335 18.9761H11C11.5523 18.9761 12 19.4238 12 19.9761C12 20.5284 11.5523 20.9761 11 20.9761H3.33361C2.9449 20.9761 2.56221 20.879 2.22055 20.6936C1.87886 20.5082 1.5889 20.2404 1.37702 19.9145C1.16514 19.5885 1.03806 19.2148 1.00731 18.8273C0.976563 18.4398 1.04313 18.0507 1.20096 17.6954L1.20526 17.6857L3 13.7587V5.30941C3 4.69057 3.24583 4.09708 3.68342 3.65949Z" fill="black"/>
<path fill-rule="evenodd" clip-rule="evenodd" d="M24 13.375V16.1234C24.0027 17.9046 23.509 19.6528 22.5763 21.0778C21.6425 22.5045 20.3076 23.5439 18.7629 23.9648C18.5908 24.0117 18.4092 24.0117 18.2371 23.9648C16.6924 23.5439 15.3575 22.5045 14.4237 21.0778C13.4908 19.6526 12.9972 17.9048 13 16.1234C13.0019 14.9147 13.0009 14.1739 13.0004 13.7252L13 13.375C13 12.8028 13.1843 12.2233 13.5556 11.7695C13.9314 11.3101 14.4892 11 15.125 11H21.875C22.5108 11 23.0686 11.3101 23.4444 11.7695C23.8157 12.2233 24 12.8028 24 13.375ZM15.1035 13.036C15.1204 13.0153 15.1338 13.0048 15.1409 13H21.8591C21.8662 13.0048 21.8796 13.0153 21.8965 13.036C21.9472 13.0979 22 13.2178 22 13.375V16.125L22 16.1266C22.0022 17.5471 21.6066 18.9074 20.9029 19.9825C20.2614 20.9626 19.4131 21.634 18.5 21.9534C17.5869 21.634 16.7386 20.9626 16.0971 19.9825C15.3934 18.9074 14.9978 17.5471 15 16.1266C15.0019 14.9138 15.0009 14.1671 15.0003 13.7192L15 13.375C15 13.2178 15.0528 13.0979 15.1035 13.036Z" fill="black"/>
</svg>
