<svg width="24" height="24" viewBox="0 0 24 24" fill="none" xmlns="http://www.w3.org/2000/svg">
<path d="M12.138 7.00537C11.7722 6.98009 11.4065 7.05583 11.0809 7.22433C10.7552 7.39283 10.4822 7.64761 10.2915 7.96081C10.1009 8.27401 10.0001 8.63358 10 9.00023C9.99989 9.55251 9.55209 10.0001 8.99981 10C8.44752 9.99993 7.99989 9.55213 8 8.99985C8.00014 8.26655 8.20185 7.54741 8.5831 6.921C8.96434 6.2946 9.51044 5.78506 10.1617 5.44805C10.813 5.11105 11.5444 4.95956 12.2759 5.01014C13.0075 5.06072 13.711 5.31142 14.3097 5.73485C14.9084 6.15827 15.3792 6.73813 15.6706 7.41103C15.962 8.08394 16.0628 8.82401 15.962 9.55034C15.8613 10.2767 15.5628 10.9613 15.0992 11.5295C14.6356 12.0976 14.0247 12.5274 13.3333 12.7718C13.2358 12.8063 13.1514 12.8702 13.0917 12.9547C13.032 13.0392 12.9999 13.1401 13 13.2435V14.25C13 14.8023 12.5523 15.25 12 15.25C11.4477 15.25 11 14.8023 11 14.25V13.2446C10.9998 12.7275 11.16 12.2226 11.4584 11.8004C11.7569 11.378 12.179 11.0586 12.6667 10.8862C13.0123 10.764 13.3178 10.5491 13.5496 10.2651C13.7814 9.98098 13.9306 9.63865 13.981 9.27548C14.0314 8.91231 13.981 8.54228 13.8353 8.20582C13.6896 7.86937 13.4542 7.57944 13.1549 7.36773C12.8555 7.15602 12.5037 7.03066 12.138 7.00537Z" fill="black"/>
<path d="M11.3055 16.2107C11.5111 16.0733 11.7528 16 12 16C12.3315 16 12.6495 16.1317 12.8839 16.3661C13.1183 16.6005 13.25 16.9185 13.25 17.25C13.25 17.4972 13.1767 17.7389 13.0393 17.9445C12.902 18.15 12.7068 18.3102 12.4784 18.4049C12.2499 18.4995 11.9986 18.5242 11.7561 18.476C11.5137 18.4277 11.2909 18.3087 11.1161 18.1339C10.9413 17.9591 10.8223 17.7363 10.774 17.4939C10.7258 17.2514 10.7505 17.0001 10.8452 16.7716C10.9398 16.5432 11.1 16.348 11.3055 16.2107Z" fill="black"/>
<path fill-rule="evenodd" clip-rule="evenodd" d="M12 22C17.5228 22 22 17.5228 22 12C22 6.47715 17.5228 2 12 2C6.47715 2 2 6.47715 2 12C2 17.5228 6.47715 22 12 22ZM12 20C16.4183 20 20 16.4183 20 12C20 7.58172 16.4183 4 12 4C7.58172 4 4 7.58172 4 12C4 16.4183 7.58172 20 12 20Z" fill="black"/>
</svg>
