<svg width="24" height="24" viewBox="0 0 24 24" fill="none" xmlns="http://www.w3.org/2000/svg">
<path fill-rule="evenodd" clip-rule="evenodd" d="M17.1973 1C16.5344 1 15.8986 1.26329 15.4298 1.73197L11.7178 5.44298C11.7047 5.45609 11.692 5.46948 11.6798 5.48313L5.3539 11.809C5.22577 11.9371 5.13486 12.0977 5.09089 12.2735L4.02989 16.5155C3.94466 16.8562 4.04446 17.2167 4.2928 17.4651C4.54114 17.7135 4.9016 17.8134 5.24238 17.7283L9.48538 16.6683C9.66128 16.6243 9.82191 16.5334 9.95011 16.4052L16.3141 10.0412L16.3232 10.0321L19.319 7.03542L19.6726 7.38909C19.7663 7.48285 19.819 7.61006 19.819 7.74259C19.819 7.87513 19.7664 8.00223 19.6727 8.09599L16.3617 11.407C15.9712 11.7975 15.9712 12.4307 16.3617 12.8212C16.7523 13.2117 17.3854 13.2117 17.776 12.8212L21.087 9.5102C21.5556 9.04138 21.819 8.4055 21.819 7.74259C21.819 7.07969 21.5557 6.44391 21.0871 5.97509L20.5854 5.47344C20.6984 5.18537 20.758 4.8761 20.758 4.56068C20.758 3.89777 20.4947 3.262 20.026 2.79318L18.9649 1.73207C18.4961 1.2634 17.8602 1 17.1973 1ZM18.6149 4.91086C18.7066 4.81742 18.758 4.6917 18.758 4.56068C18.758 4.42815 18.7054 4.30104 18.6117 4.20729L17.5508 3.14639C17.4571 3.05272 17.3298 3 17.1973 3C17.1569 3 17.1169 3.0049 17.0783 3.01437C16.9903 3.03595 16.909 3.08125 16.8438 3.14638L13.8383 6.15114L15.6069 7.91973L18.6059 4.91984L18.6117 4.91399L18.6149 4.91086ZM12.425 7.56631L6.96393 13.0274L6.3745 15.384L8.73182 14.7951L14.1928 9.3341L12.425 7.56631Z" fill="black"/>
<path d="M3.58314 22.0236C3.46043 21.9931 3.33224 21.9922 3.20909 22.0208C3.08594 22.0495 2.97135 22.1069 2.87469 22.1884C2.66715 22.3635 1.87455 23.0588 1.67398 23.2418C1.26598 23.614 0.633479 23.585 0.261252 23.177C-0.110974 22.769 -0.0819712 22.1365 0.326032 21.7642C0.54579 21.5638 1.35792 20.8513 1.58532 20.6595C1.92361 20.3743 2.32471 20.1732 2.75571 20.0729C3.18083 19.9739 3.6231 19.9758 4.04724 20.0781C4.47922 20.1719 4.87938 20.3768 5.20809 20.6727C5.34062 20.7919 5.45966 20.9243 5.56362 21.0674L5.93249 20.8517C6.4318 20.5638 7.00754 20.4363 7.58171 20.4866C8.16694 20.5378 8.73288 20.7931 9.15761 21.1435C9.15693 21.1428 9.15662 21.1425 9.15669 21.1424C9.15689 21.1421 9.16055 21.1441 9.16826 21.1483C9.1898 21.1602 9.24294 21.1893 9.34053 21.2338C9.4898 21.3018 9.6855 21.38 9.90359 21.456C10.3587 21.6146 10.8126 21.7298 11.0872 21.7538C11.7564 21.8124 12.0584 21.7512 12.4222 21.5807C12.9223 21.3463 13.5177 21.5616 13.7521 22.0617C13.9866 22.5617 13.7712 23.1571 13.2712 23.3916C12.5093 23.7488 11.8347 23.8269 10.9128 23.7462C10.3919 23.7006 9.75409 23.5219 9.24523 23.3445C8.98134 23.2525 8.727 23.1521 8.51116 23.0537C8.32735 22.97 8.07503 22.8456 7.88965 22.6902C7.74706 22.5707 7.55413 22.4918 7.40732 22.479C7.24248 22.4645 7.07719 22.5009 6.93363 22.5831L5.5978 23.3642C5.131 23.6372 4.53176 23.4896 4.24509 23.0311C4.19528 22.9514 4.14406 22.8559 4.10432 22.7415C4.06464 22.6274 4.04971 22.5313 4.04321 22.4882L4.03766 22.4508L4.03674 22.4447L4.03605 22.4412C4.03573 22.4396 4.03303 22.4262 4.02313 22.3955C3.99386 22.3046 3.94106 22.2231 3.87009 22.1592C3.79912 22.0953 3.71251 22.0513 3.61905 22.0318C3.60703 22.0292 3.59506 22.0265 3.58314 22.0236Z" fill="black"/>
<path d="M17 14C16.4477 14 16 14.4477 16 15V16.75C16 17.2474 16.0835 17.7087 16.2863 18.1136C16.4953 18.5311 16.8019 18.83 17.1504 19.0344C17.7415 19.381 18.4663 19.4467 18.9317 19.4888L19.0077 19.4957C19.5983 19.5505 19.8748 19.5952 20.0379 19.6908C20.0831 19.7174 20.1047 19.7405 20.1254 19.7818C20.1523 19.8356 20.2 19.9697 20.2 20.25C20.2 20.3485 20.1806 20.446 20.1429 20.537C20.1052 20.628 20.05 20.7107 19.9803 20.7803C19.9107 20.85 19.828 20.9052 19.737 20.9429C19.646 20.9806 19.5485 21 19.45 21H17C16.4477 21 16 21.4477 16 22C16 22.5523 16.4477 23 17 23H19.45C19.8111 23 20.1687 22.9289 20.5024 22.7907C20.836 22.6525 21.1392 22.4499 21.3946 22.1945C21.6499 21.9392 21.8525 21.636 21.9907 21.3024C22.1289 20.9687 22.2 20.6111 22.2 20.25C22.2 19.7526 22.1165 19.2913 21.9137 18.8864C21.7047 18.4689 21.3981 18.17 21.0496 17.9656C20.4585 17.619 19.7337 17.5533 19.2683 17.5112L19.1923 17.5043C18.6017 17.4495 18.3253 17.4048 18.1621 17.3092C18.1169 17.2826 18.0953 17.2595 18.0747 17.2182C18.0477 17.1644 18 17.0303 18 16.75V16H21.2C21.7523 16 22.2 15.5523 22.2 15C22.2 14.4477 21.7523 14 21.2 14H17Z" fill="black"/>
</svg>
