<svg width="24" height="24" viewBox="0 0 24 24" fill="none" xmlns="http://www.w3.org/2000/svg">
<path d="M21.5333 4H2.46667C1.65665 4 1 4.65122 1 5.45455V18.5455C1 19.3488 1.65665 20 2.46667 20H21.5333C22.3434 20 23 19.3488 23 18.5455V5.45455C23 4.65122 22.3434 4 21.5333 4Z" fill="#434660"/>
<path d="M15 10.5L18 10.5" stroke="#A9ABBC" stroke-width="2" stroke-linecap="round" stroke-linejoin="round"/>
<path d="M15 14L19.5 14" stroke="#A9ABBC" stroke-width="2" stroke-linecap="round" stroke-linejoin="round"/>
<path d="M6.78288 7.23516C7.16767 7.07183 7.58229 6.99184 8 7.00066C8.41771 6.99184 8.83233 7.07183 9.21712 7.23516C9.60804 7.40108 9.9587 7.64899 10.2465 7.96156C10.5342 8.27409 10.7525 8.64421 10.888 9.04708C11.0198 9.43907 11.0703 9.85399 11.0369 10.266C11.0342 11.1295 10.9171 11.7892 10.7055 12.3307C10.4912 12.8794 10.197 13.2623 9.91236 13.5814L9.9116 13.583C9.9076 13.5911 9.8925 13.6219 9.87833 13.6857C9.85793 13.7775 9.84988 13.893 9.85979 14.0086C9.86781 14.1022 9.88565 14.1742 9.90301 14.2212C11.0344 14.5804 12.1229 15.0667 13.148 15.6711C13.4262 15.835 13.5598 16.164 13.4745 16.4744C13.3891 16.7848 13.1058 17 12.7826 17H3.21745C2.89422 17 2.6109 16.7848 2.52554 16.4744C2.44017 16.164 2.57383 15.835 2.85197 15.6711C3.87715 15.0667 4.96555 14.5804 6.09699 14.2212C6.11435 14.1742 6.13219 14.1022 6.14021 14.0086C6.15012 13.893 6.14207 13.7775 6.12167 13.6857C6.10749 13.6219 6.09239 13.5911 6.0884 13.583L6.08763 13.5814C5.8027 13.2619 5.5086 12.8784 5.29439 12.3296C5.08299 11.788 4.96582 11.1284 4.96306 10.266C4.92966 9.85399 4.98024 9.43907 5.11203 9.04708C5.24747 8.64421 5.46582 8.27409 5.75354 7.96156C6.0413 7.64899 6.39196 7.40108 6.78288 7.23516Z" fill="#A9ABBC"/>
<path d="M21.5333 4H2.46667C1.65665 4 1 4.65122 1 5.45455V18.5455C1 19.3488 1.65665 20 2.46667 20H21.5333C22.3434 20 23 19.3488 23 18.5455V5.45455C23 4.65122 22.3434 4 21.5333 4Z" fill="#434660"/>
<path fill-rule="evenodd" clip-rule="evenodd" d="M14 10.5C14 9.94772 14.4477 9.5 15 9.5L18 9.5C18.5523 9.5 19 9.94772 19 10.5C19 11.0523 18.5523 11.5 18 11.5L15 11.5C14.4477 11.5 14 11.0523 14 10.5Z" fill="#A9ABBC"/>
<path fill-rule="evenodd" clip-rule="evenodd" d="M14 14C14 13.4477 14.4477 13 15 13L19.5 13C20.0523 13 20.5 13.4477 20.5 14C20.5 14.5523 20.0523 15 19.5 15L15 15C14.4477 15 14 14.5523 14 14Z" fill="#A9ABBC"/>
<path d="M6.78288 7.23516C7.16767 7.07183 7.58229 6.99184 8 7.00066C8.41771 6.99184 8.83233 7.07183 9.21712 7.23516C9.60804 7.40108 9.9587 7.64899 10.2465 7.96156C10.5342 8.27409 10.7525 8.64421 10.888 9.04708C11.0198 9.43907 11.0703 9.85399 11.0369 10.266C11.0342 11.1295 10.9171 11.7892 10.7055 12.3307C10.4912 12.8794 10.197 13.2623 9.91236 13.5814L9.9116 13.583C9.9076 13.5911 9.8925 13.6219 9.87833 13.6857C9.85793 13.7775 9.84988 13.893 9.85979 14.0086C9.86781 14.1022 9.88565 14.1742 9.90301 14.2212C11.0344 14.5804 12.1229 15.0667 13.148 15.6711C13.4262 15.835 13.5598 16.164 13.4745 16.4744C13.3891 16.7848 13.1058 17 12.7826 17H3.21745C2.89422 17 2.6109 16.7848 2.52554 16.4744C2.44017 16.164 2.57383 15.835 2.85197 15.6711C3.87715 15.0667 4.96555 14.5804 6.09699 14.2212C6.11435 14.1742 6.13219 14.1022 6.14021 14.0086C6.15012 13.893 6.14207 13.7775 6.12167 13.6857C6.10749 13.6219 6.09239 13.5911 6.0884 13.583L6.08763 13.5814C5.8027 13.2619 5.5086 12.8784 5.29439 12.3296C5.08299 11.788 4.96582 11.1284 4.96306 10.266C4.92966 9.85399 4.98024 9.43907 5.11203 9.04708C5.24747 8.64421 5.46582 8.27409 5.75354 7.96156C6.0413 7.64899 6.39196 7.40108 6.78288 7.23516Z" fill="#A9ABBC"/>
</svg>
