<svg width="24" height="24" viewBox="0 0 24 24" fill="none" xmlns="http://www.w3.org/2000/svg">
<circle cx="12" cy="12" r="12" fill="#0862C4"/>
<path d="M11.0278 5.76759C11.3155 5.57529 11.6539 5.47266 12 5.47266C12.4641 5.47266 12.9092 5.65703 13.2374 5.98522C13.5656 6.31341 13.75 6.75853 13.75 7.22266C13.75 7.56877 13.6474 7.90712 13.4551 8.1949C13.2628 8.48269 12.9895 8.70699 12.6697 8.83944C12.3499 8.9719 11.9981 9.00655 11.6586 8.93903C11.3191 8.87151 11.0073 8.70483 10.7626 8.46009C10.5178 8.21535 10.3512 7.90353 10.2836 7.56406C10.2161 7.2246 10.2508 6.87273 10.3832 6.55296C10.5157 6.23319 10.74 5.95988 11.0278 5.76759Z" fill="#66BFFF"/>
<path d="M10.4951 10.0248C9.66669 10.0248 8.99512 10.6964 8.99512 11.5248C8.99512 12.3532 9.66669 13.0248 10.4951 13.0248V16.0248C10.4951 16.8204 10.8112 17.5835 11.3738 18.1461C11.9364 18.7087 12.6995 19.0248 13.4951 19.0248H14.2451C15.0735 19.0248 15.7451 18.3532 15.7451 17.5248C15.7451 16.6964 15.0735 16.0248 14.2451 16.0248H13.4951V12.2748C13.4951 11.678 13.2581 11.1057 12.8361 10.6838C12.4142 10.2618 11.8419 10.0248 11.2451 10.0248H10.4951Z" fill="#66BFFF"/>
</svg>
